<svg xmlns="http://www.w3.org/2000/svg" xmlns:xlink="http://www.w3.org/1999/xlink" width="36" height="36" version="1.1" viewBox="0 0 36 36"><title>icon__without-client</title><desc>Created using Figma</desc><g id="Canvas" transform="translate(-11097 -690)"><g id="icon__without-client"><g id="man-4"><g id="Shape"><use fill="#A24C8C" transform="translate(11101 690)" xlink:href="#path0_fill"/></g></g><g id="Line 3"><use fill="#E67963" transform="translate(11099 706)" xlink:href="#path1_stroke"/></g><g id="Line 3"><use fill="#E67963" transform="translate(11098.8 706.394)" xlink:href="#path2_stroke"/></g></g></g><defs><path id="path0_fill" fill-rule="evenodd" d="M 24.9346 21.714L 20.0615 19.9028C 19.5166 19.6964 19.1445 19.1836 19.1445 18.6176L 19.1445 16.9062C 20.0137 15.9939 20.6338 14.8485 20.8818 13.55C 21.0674 13.5633 21.2539 13.5433 21.4336 13.5034C 22.2881 13.3103 22.9082 12.5178 22.9082 11.6189L 22.9082 11.1394C 22.9082 10.6 22.6807 10.1006 22.3018 9.75433C 22.9082 6.59796 22.4189 4.02753 20.8818 2.30951C 19.4072 0.651367 17.0146 -0.134399 13.9688 0.0187988C 11.1357 0.165283 9.31641 1.43713 8.75781 1.8833C 7.97266 1.98322 5.73242 2.52924 5.73242 5.55914C 5.73242 7.23718 6.01465 8.62897 6.21484 9.40143C 5.5459 9.70105 5.09766 10.3736 5.09766 11.1461L 5.09766 11.6189C 5.09766 12.5178 5.71875 13.3036 6.57324 13.5034C 6.75879 13.5433 6.94531 13.5633 7.12402 13.55C 7.37305 14.8419 7.99316 15.9939 8.86133 16.9062L 8.86133 18.6242C 8.86133 19.1902 8.49609 19.7097 7.94434 19.9094L 3.07129 21.7207C 1.14844 22.4332 -0.0849609 24.2511 0.00488281 26.2422L 0.5625 33.394C 0.576172 33.727 0.866211 33.9933 1.21094 33.9933L 1.23828 33.9933C 1.59668 33.98 1.87207 33.687 1.8584 33.3408L 1.29395 26.1889C 1.27246 25.7827 1.33496 25.3898 1.45215 25.0236L 3.52637 27.028C 4.12598 27.6073 4.45703 28.3731 4.45703 29.1921L 4.45703 33.374C 4.45703 33.7203 4.74609 34 5.10449 34C 5.46289 34 5.75293 33.7203 5.75293 33.374L 5.75293 29.1921C 5.75293 28.0402 5.29102 26.9614 4.44336 26.1423L 2.09961 23.8782C 2.47168 23.4454 2.96191 23.0991 3.5332 22.886L 7.2627 21.5009C 7.75195 22.7129 8.59277 23.7983 9.6748 24.5774C 10.9287 25.483 12.4248 25.9625 13.9961 25.9625C 15.5879 25.9625 17.0908 25.4697 18.3594 24.5441C 19.4277 23.765 20.2549 22.6929 20.7305 21.4943L 24.459 22.8793C 25.0312 23.0925 25.5205 23.4387 25.8926 23.8716L 23.5488 26.1356C 22.708 26.9481 22.2393 28.0334 22.2393 29.1855L 22.2393 33.3674C 22.2393 33.7137 22.5293 33.9933 22.8877 33.9933C 23.2461 33.9933 23.5352 33.7137 23.5352 33.3674L 23.5352 29.1855C 23.5352 28.3665 23.8662 27.6006 24.4658 27.0213L 26.54 25.0169C 26.6572 25.3832 26.7197 25.7761 26.6992 26.1823L 26.1406 33.3341C 26.127 33.6804 26.4023 33.9734 26.7607 33.9867L 26.7881 33.9867C 27.1328 33.9867 27.416 33.727 27.4365 33.3874L 27.9951 26.2355C 28.0908 24.2511 26.8574 22.4332 24.9346 21.714ZM 8.39941 13.317C 8.28223 12.7043 7.68945 12.2581 7.05566 12.2981C 6.99316 12.3047 6.93164 12.2981 6.86914 12.2848C 6.59375 12.2249 6.38672 11.9385 6.38672 11.6189L 6.38672 11.1461C 6.38672 10.8264 6.60742 10.5401 6.88965 10.4935C 7.13086 10.4536 7.3584 10.5401 7.50293 10.7199C 7.62012 10.873 7.78613 10.9796 7.96484 11.0329C 8.23438 11.1128 8.53027 11.0662 8.75781 10.913C 9.33691 10.5201 10.1084 9.62781 10.3984 8.75549C 10.5088 8.4292 10.3223 8.07623 9.98438 7.96973C 9.64648 7.86316 9.28125 8.04297 9.1709 8.36926C 9.01953 8.82874 8.62695 9.3548 8.26172 9.68774C 8.04102 9.50793 7.78613 9.37476 7.50977 9.30151C 7.33789 8.66888 7.01367 7.26385 7.01367 5.55914C 7.01367 4.54028 7.33789 3.82776 7.98535 3.43488C 8.48926 3.12854 9.01953 3.11523 9.01953 3.11523C 9.18457 3.11523 9.35059 3.0553 9.46777 2.94208C 9.48145 2.92877 11.1357 1.42383 14.0303 1.27069C 16.6562 1.13086 18.6895 1.77679 19.9023 3.12854C 21.1299 4.50031 21.5361 6.60461 21.0811 9.24158C 20.9502 9.23492 20.8125 9.24158 20.6748 9.25488L 20.6338 8.70886C 20.6191 8.55573 20.5508 8.41583 20.4404 8.30933L 20.4209 8.29254C 20.248 8.13818 19.0078 7.03522 17.0566 6.1651C 14.2988 4.93982 11.4316 4.77332 8.75098 5.6723C 8.41309 5.78552 8.23438 6.14514 8.35059 6.46472C 8.46777 6.79102 8.84082 6.96417 9.1709 6.85095C 11.5488 6.05188 14.0029 6.19171 16.4707 7.27716C 17.9248 7.91644 18.9658 8.71552 19.3584 9.04846L 19.4414 10.0873C 19.4551 10.3004 19.5859 10.4935 19.7852 10.5934C 19.9854 10.6932 20.2197 10.6866 20.4131 10.5801C 20.5303 10.5135 20.9297 10.4536 21.1016 10.4935C 21.3916 10.5468 21.6123 10.8264 21.6123 11.1394L 21.6123 11.6189C 21.6123 11.9385 21.4053 12.2249 21.1299 12.2848C 21.0674 12.2981 21.0059 12.3047 20.9434 12.2981C 20.3096 12.2515 19.7168 12.6976 19.5996 13.317C 19.1035 15.934 16.7461 17.8318 13.9893 17.8318C 11.2529 17.8251 8.89551 15.9273 8.39941 13.317ZM 8.47559 21.0414C 9.35059 23.2523 11.5225 24.7106 14.0029 24.7106C 16.457 24.7106 18.6621 23.2256 19.5312 21.0414C 18.5244 20.6419 17.8496 19.6763 17.8496 18.6176L 17.8496 17.9583C 16.7393 18.6642 15.416 19.0704 14.0029 19.0704C 12.5908 19.0704 11.2666 18.6642 10.1572 17.9583L 10.1572 18.6176C 10.1572 19.6697 9.48145 20.6353 8.47559 21.0414Z"/><path id="path1_stroke" d="M -0.510539 18.1401C -0.985423 18.4221 -1.14182 19.0357 -0.859855 19.5105C -0.577892 19.9854 0.0356541 20.1418 0.510539 19.8599L -0.510539 18.1401ZM 32.5105 0.859855C 32.9854 0.577892 33.1418 -0.0356541 32.8599 -0.510539C 32.5779 -0.985423 31.9643 -1.14182 31.4895 -0.859855L 32.5105 0.859855ZM 0.510539 19.8599L 32.5105 0.859855L 31.4895 -0.859855L -0.510539 18.1401L 0.510539 19.8599Z"/><path id="path2_stroke" d="M 31.9651 19.0849C 32.4467 19.3552 33.0563 19.1838 33.3265 18.7022C 33.5968 18.2206 33.4255 17.611 32.9439 17.3407L 31.9651 19.0849ZM 0.489387 -0.872067C 0.0077574 -1.14235 -0.601786 -0.971016 -0.872067 -0.489387C -1.14235 -0.0077574 -0.971016 0.601786 -0.489387 0.872067L 0.489387 -0.872067ZM 32.9439 17.3407L 0.489387 -0.872067L -0.489387 0.872067L 31.9651 19.0849L 32.9439 17.3407Z"/></defs></svg>