<svg width="34" height="34" viewBox="0 0 34 34" version="1.1" xmlns="http://www.w3.org/2000/svg" xmlns:xlink="http://www.w3.org/1999/xlink">
<title>icon__percentages</title>
<desc>Created using Figma</desc>
<g id="Canvas" transform="translate(-11318 -691)">
<g id="icon__percentages">
<g id="Shape">
<use xlink:href="#path0_fill" transform="translate(11318 691)" fill="#36A8C8"/>
</g>
<g id="Shape">
<use xlink:href="#path1_fill" transform="translate(11326 699)" fill="#36A8C8"/>
</g>
<g id="Shape">
<use xlink:href="#path2_fill" transform="translate(11327 700)" fill="#36A8C8"/>
</g>
<g id="Shape">
<use xlink:href="#path3_fill" transform="translate(11337 710)" fill="#36A8C8"/>
</g>
</g>
</g>
<defs>
<path id="path0_fill" fill-rule="evenodd" d="M 17 0C 21.541 0 25.8096 1.76825 29.0205 4.97925C 32.2314 8.19006 34 12.459 34 17C 34 21.541 32.2314 25.8099 29.0205 29.0208C 25.8096 32.2318 21.541 34 17 34C 12.459 34 8.19043 32.2318 4.97949 29.0208C 1.76855 25.8099 0 21.541 0 17C 0 12.459 1.76855 8.19006 4.97949 4.97925C 8.19043 1.76825 12.459 0 17 0ZM 1.35449 17C 1.35449 25.627 8.37305 32.6454 17 32.6454C 25.627 32.6454 32.6455 25.6269 32.6455 17C 32.6455 8.37311 25.627 1.35455 17 1.35455C 8.37305 1.35455 1.35449 8.37305 1.35449 17Z"/>
<path id="path1_fill" fill-rule="evenodd" d="M 14.1406 0.660645C 15.0225 -0.220215 16.457 -0.220215 17.3389 0.660645C 18.2207 1.54163 18.2207 2.9751 17.3389 3.85602L 3.88574 17.3337C 3.44336 17.7776 2.85938 18 2.27441 18C 1.69824 18 1.12207 17.7841 0.680664 17.3512C 0.244141 16.9231 0.00292969 16.351 0 15.7401C -0.00292969 15.1293 0.233398 14.5549 0.666016 14.123L 14.1406 0.660645ZM 2.9707 16.4224L 16.4238 2.94366C 16.8027 2.56555 16.8027 1.95123 16.4248 1.57355C 16.0469 1.19617 15.4316 1.19623 15.0537 1.57361L 1.58008 15.0359C 1.39258 15.2224 1.29102 15.4704 1.29199 15.7342C 1.29297 15.9981 1.39746 16.2452 1.58594 16.4301C 1.96973 16.8066 2.59082 16.8032 2.9707 16.4224Z"/>
<path id="path2_fill" fill-rule="evenodd" d="M 0 3C 0 1.34583 1.3457 0 3 0C 4.6543 0 6 1.34583 6 3C 6 4.65417 4.6543 6 3 6C 1.3457 6 0 4.65424 0 3ZM 1.34863 3C 1.34863 3.91083 2.08984 4.65173 3 4.65173C 3.91113 4.65173 4.65234 3.91083 4.65234 3C 4.65234 2.08923 3.91113 1.34833 3 1.34833C 2.08984 1.34833 1.34863 2.08923 1.34863 3Z"/>
<path id="path3_fill" fill-rule="evenodd" d="M 0 3C 0 1.34583 1.3457 0 3 0C 4.6543 0 6 1.34583 6 3C 6 4.65417 4.6543 6 3 6C 1.3457 6 0 4.65417 0 3ZM 1.34863 3.00006C 1.34863 3.91089 2.08984 4.65179 3 4.65179C 3.91113 4.65179 4.65234 3.91089 4.65234 3.00006C 4.65234 2.08929 3.91113 1.34839 3 1.34839C 2.08984 1.34839 1.34863 2.08929 1.34863 3.00006Z"/>
</defs>
</svg>
