<svg xmlns="http://www.w3.org/2000/svg" xmlns:xlink="http://www.w3.org/1999/xlink" width="44" height="32" version="1.1" viewBox="0 0 44 32"><title>icon__urgency</title><desc>Created using Figma</desc><g id="Canvas" transform="translate(-10891 -694)"><g id="icon__urgency"><g id="Shape"><use fill="#E67963" transform="translate(10891 706.799)" xlink:href="#path0_fill"/></g><g id="Path"><use fill="#E67963" transform="translate(10897 694)" xlink:href="#path1_fill"/></g></g></g><defs><path id="path0_fill" fill-rule="evenodd" d="M 9.39551 1.60895L 4.33496 1.60895C 3.89941 1.60895 3.5459 1.25018 3.5459 0.805298C 3.5459 0.360474 3.89941 0 4.33496 0L 15.5391 0C 15.9756 0 16.3291 0.360474 16.3291 0.805298C 16.3291 1.25018 15.9756 1.61066 15.5391 1.61066L 11.6133 1.61066L 12.1367 2.18689L 13.8711 4.11139C 14.1582 4.42651 14.4512 4.7475 14.7344 5.0481L 14.9512 5.27716L 15.1621 5.495C 15.2686 5.60229 15.3818 5.68921 15.5049 5.76111C 15.751 5.9054 16.0508 5.9906 16.4229 6.04504C 16.5811 6.06915 16.751 6.08765 16.9307 6.10724C 17.1689 6.13318 17.4238 6.16107 17.6924 6.20636C 18.1592 6.28369 18.6787 6.43298 19.1455 6.70862C 19.377 6.84412 19.5928 7.00378 19.8057 7.19751L 19.9189 7.30646L 19.9658 7.35425L 19.9971 7.38794L 20.0576 7.4549L 20.1309 7.53534C 20.1885 7.59784 20.2461 7.66016 20.2988 7.72595C 20.875 8.42334 21.252 9.1897 21.5928 9.883L 21.6465 9.99225L 19.8184 9.99225C 19.5859 9.54865 19.3438 9.14246 19.0566 8.79651C 19.0215 8.75262 18.9844 8.71179 18.9463 8.67102L 18.8789 8.59698L 18.8047 8.51422L 18.6904 8.40491C 18.5908 8.31677 18.4688 8.22406 18.3379 8.14752C 18.0801 7.99493 17.7812 7.90057 17.4219 7.8399C 17.2295 7.80609 17.0205 7.78302 16.7969 7.75824C 16.6045 7.737 16.4004 7.71442 16.1855 7.68274C 15.7246 7.61536 15.1885 7.48608 14.6973 7.19586C 14.4521 7.05371 14.2246 6.87616 14.0293 6.6795L 13.793 6.43585L 13.5674 6.19684C 13.3008 5.91351 13.0488 5.63739 12.7949 5.35791L 12.6807 5.23267L 10.9424 3.30273C 10.4297 2.73315 9.91504 2.16608 9.39551 1.60895ZM 0.789062 7.22662L 12.377 7.22662C 11.9492 6.76929 11.4443 6.2113 10.9092 5.61597L 0.789062 5.61597C 0.353516 5.61597 0 5.97644 0 6.42126C 0 6.86615 0.353516 7.22662 0.789062 7.22662Z"/><path id="path1_fill" d="M 37.9553 28.4073C 37.9207 28.6011 37.8636 28.8048 37.7674 29.0102C 37.7189 29.1129 37.661 29.2147 37.5925 29.3133L 37.5382 29.3864L 37.5105 29.4226C 37.5056 29.4301 37.4445 29.4999 37.4624 29.4787L 37.391 29.5565C 37.3548 29.5997 37.2667 29.6821 37.1937 29.7494C 37.1134 29.8255 37.049 29.875 36.9829 29.9278C 36.8492 30.0384 36.7146 30.1265 36.578 30.2217C 36.3045 30.398 36.0252 30.5618 35.7365 30.7036C 34.5851 31.2798 33.3077 31.6536 31.9504 31.844C 31.2711 31.9392 30.5775 31.9841 29.8852 31.9949C 29.1917 32.009 28.4892 31.9932 27.7757 31.955C 26.349 31.8768 24.8763 31.7039 23.3751 31.3721C 21.8783 31.0357 20.3351 30.5531 18.8746 29.6571C 18.5142 29.4247 18.1562 29.1757 17.8214 28.8776C 17.6534 28.7308 17.4908 28.5724 17.3346 28.4061L 17.1051 28.1483L 17.0684 28.1051L 17.0451 28.0756L 16.9982 28.017L 16.9049 27.8993C 16.7797 27.7396 16.6557 27.5908 16.5285 27.4212C 16.4013 27.2491 16.2737 27.0769 16.1461 26.904C 15.9023 26.5568 15.6642 26.2059 15.4387 25.8413C 15.3979 25.776 15.3608 25.7079 15.3208 25.6422L 3.70963 25.6422C 3.27377 25.6422 2.91987 25.2817 2.91987 24.8369C 2.91987 24.392 3.27337 24.0315 3.70963 24.0315L 19.425 24.0315C 19.8613 24.0315 20.2144 24.392 20.2144 24.8369C 20.2144 25.2817 19.8609 25.6422 19.425 25.6422L 17.2698 25.6422C 17.3342 25.7361 17.3982 25.8305 17.463 25.9232L 17.8015 26.381C 17.916 26.5344 18.0494 26.6949 18.1717 26.8508L 18.2654 26.9684L 18.3123 27.027L 18.3356 27.0566C 18.325 27.0437 18.345 27.0665 18.3482 27.0699L 18.5174 27.259C 18.634 27.3825 18.7563 27.5023 18.8864 27.6153C 19.1433 27.8448 19.4328 28.0456 19.7284 28.2365C 20.9373 28.9794 22.3386 29.4343 23.7241 29.7465C 25.1152 30.0571 26.5113 30.2259 27.8641 30.3024C 28.5405 30.3398 29.2072 30.3564 29.8571 30.3443C 30.5078 30.3356 31.132 30.2949 31.7326 30.2126C 32.9326 30.0483 34.0644 29.7141 35.0275 29.233C 35.2697 29.1154 35.4939 28.9823 35.7055 28.8476C 35.805 28.7774 35.911 28.7092 35.9962 28.6373C 36.0415 28.6019 36.0896 28.5645 36.1116 28.5421C 36.1422 28.5129 36.163 28.505 36.2184 28.441L 36.278 28.3766L 36.28 28.3737L 36.289 28.3624C 36.3004 28.3458 36.3118 28.3259 36.3232 28.3026C 36.346 28.2548 36.3664 28.1895 36.3803 28.1122C 36.4084 27.9571 36.4088 27.76 36.3803 27.56C 36.3257 27.1576 36.1752 26.741 35.9828 26.408C 35.8845 26.2396 35.7834 26.0999 35.6704 25.9881C 35.708 26.0039 35.5388 25.9053 35.3687 25.853C 35.014 25.7328 34.6018 25.6467 34.2136 25.5748C 33.8218 25.5033 33.439 25.4468 33.074 25.3973C 31.6091 25.2048 30.4316 25.1112 29.6284 25.0343C 29.2223 24.9957 28.9112 24.9657 28.7016 24.9458C 28.6633 24.9416 28.6323 24.9379 28.6005 24.9346C 28.2767 25.2306 28.0317 25.374 27.8629 25.4784C 27.6802 25.5914 27.5865 25.6393 27.5865 25.6393L 27.5755 25.6451C 27.2395 25.8172 26.8301 25.6792 26.6609 25.3366C 26.5276 25.0663 26.5847 24.7487 26.7796 24.5421C 26.7796 24.5421 26.8583 24.4589 27.0099 24.3172C 27.1531 24.1721 27.3883 23.9717 27.5804 23.7467C 27.6272 23.6923 27.6688 23.6345 27.701 23.5842C 27.7104 23.5717 27.719 23.5572 27.7259 23.5439C 27.7235 23.5293 27.721 23.5152 27.7173 23.4994C 27.6961 23.3988 27.6643 23.2761 27.626 23.1464C 27.4711 22.6225 27.2366 21.9877 26.9639 21.2863C 26.6891 20.5833 26.3694 19.805 26.011 18.961C 25.8296 18.5394 25.6404 18.1008 25.4447 17.6455C 25.2991 17.3055 25.2437 17.0086 25.1911 16.7234C 25.1409 16.437 25.1099 16.1592 25.083 15.8773C 24.9823 14.7565 24.9701 13.6003 24.9937 12.3771C 25.0068 11.7655 25.0317 11.1402 25.0757 10.4946C 25.0981 10.1711 25.125 9.84392 25.1646 9.50259L 25.1988 9.23859L 25.2217 9.09182L 25.2437 8.96918L 25.2465 8.95421C 25.2082 8.93384 25.145 8.90931 25.0659 8.89393C 24.8824 8.85568 24.6402 8.86441 24.4327 8.92012C 24.3866 8.93259 24.3181 8.95504 24.2969 8.96419C 24.3006 8.95961 24.2105 9.00285 24.2166 8.9987L 24.1175 9.04817C 23.9732 9.12508 23.828 9.202 23.6825 9.27975C 23.382 9.44272 23.0705 9.61193 22.75 9.77657C 22.1074 10.1054 21.4335 10.4268 20.6723 10.6688C 20.2898 10.7873 19.8862 10.8895 19.4262 10.9207C 19.2097 10.9382 18.9039 10.9249 18.7038 10.8887C 18.5142 10.8579 18.3229 10.8239 18.1305 10.786C 17.3615 10.6364 16.5501 10.3857 15.8113 10.0252C 15.6254 9.93788 15.4448 9.84392 15.2662 9.74872C 15.0868 9.65268 14.905 9.54999 14.7423 9.45644C 14.3386 9.2257 13.9607 8.91804 13.6496 8.58502C 13.0225 7.90942 12.5585 7.12531 12.2686 6.21896C 12.1964 5.99071 12.1426 5.7529 12.1031 5.49513L 12.0811 5.27146L 12.0729 5.16253L 12.0721 5.08603L 12.0713 5.00953L 12.0709 4.97128L 12.0721 4.8898L 12.0815 4.72183C 12.11 4.2803 12.1598 3.86912 12.1977 3.47041C 12.2352 3.07669 12.2658 2.68256 12.2446 2.37241C 12.2393 2.29715 12.2307 2.22731 12.2197 2.177C 12.214 2.15247 12.2087 2.13251 12.2042 2.11838C 12.2034 2.1163 12.203 2.11547 12.2026 2.11381C 12.1618 2.0502 12.0892 1.96912 12.0011 1.90177C 11.8067 1.75002 11.5592 1.65564 11.2962 1.6386C 11.1641 1.62987 11.0259 1.64068 10.8844 1.6677C 10.8138 1.67934 10.7417 1.70554 10.6695 1.72133C 10.6051 1.74877 10.5566 1.76 10.4771 1.79284L 10.3356 1.85978L 10.265 1.89346L 10.2504 1.90052C 10.2536 1.89928 10.2284 1.91258 10.2312 1.91175L 10.0004 2.04438C 9.83898 2.14998 9.67833 2.24934 9.51361 2.36825C 9.1858 2.594 8.85636 2.8447 8.52732 3.09582C 7.86925 3.60262 7.21241 4.13562 6.55271 4.6736C 5.89097 5.2145 5.22637 5.75748 4.55974 6.30211C 4.22092 6.57402 3.88169 6.84592 3.54206 7.11865L 3.02873 7.52027C 2.85137 7.6583 2.70051 7.77388 2.56107 7.89695C 2.27933 8.14307 2.03184 8.40999 1.86508 8.68272C 1.69954 8.95712 1.61025 9.22196 1.61433 9.48637C 1.61392 9.75079 1.69914 10.0377 1.86182 10.3345C 2.02532 10.6305 2.25854 10.9261 2.52437 11.2109C 2.63201 11.3265 2.74985 11.4421 2.86768 11.5548L 0.712848 11.5548C 0.621925 11.4225 0.533856 11.2862 0.452719 11.1394C 0.195852 10.6734 -0.00107985 10.1013 0.000143332 9.48513C -0.00638028 8.86732 0.21053 8.27528 0.497977 7.81005C 0.788685 7.33984 1.14626 6.97065 1.51321 6.64802C 1.69873 6.48546 1.89118 6.33912 2.05386 6.21189L 2.55985 5.81693C 2.89296 5.55001 3.22525 5.28352 3.55755 5.01743C 4.22337 4.47404 4.88674 3.93273 5.54807 3.39308C 6.21266 2.85219 6.87726 2.31337 7.55979 1.78827C 7.9035 1.52676 8.24558 1.26608 8.61009 1.01497C 8.78664 0.887747 8.98194 0.765515 9.17194 0.642452L 9.48507 0.46243C 9.51157 0.448295 9.48099 0.46243 9.55479 0.425013L 9.59026 0.408382L 9.6608 0.375122L 9.80228 0.308186C 9.914 0.259542 10.0632 0.205494 10.1929 0.15893C 10.3221 0.125254 10.4477 0.0849257 10.5814 0.0612277C 10.8469 0.0100899 11.1233 -0.0123608 11.4034 0.00676387C 11.964 0.043766 12.5218 0.247901 12.9781 0.605866C 13.2064 0.786303 13.4155 1.00042 13.5892 1.29186C 13.6125 1.33385 13.6488 1.40578 13.6716 1.45982L 13.7209 1.5912C 13.7487 1.67602 13.7695 1.75626 13.7862 1.83317C 13.8184 1.98617 13.8331 2.12337 13.8424 2.25475C 13.8738 2.77361 13.8294 3.20641 13.7911 3.63089C 13.7503 4.05122 13.7022 4.45367 13.6781 4.8266L 13.6708 4.96006L 13.6712 4.99706L 13.672 5.07356L 13.6728 5.15006C 13.674 5.1696 13.6773 5.17833 13.6789 5.19288C 13.683 5.21907 13.6859 5.24568 13.6879 5.27229C 13.7111 5.41573 13.7442 5.57413 13.7943 5.73045C 13.9921 6.36198 14.3582 6.98478 14.801 7.45625C 15.0265 7.69531 15.2589 7.88364 15.5251 8.03747C 15.6972 8.13684 15.8505 8.22331 16.0091 8.30813C 16.1689 8.39336 16.3275 8.47609 16.4865 8.55051C 17.1193 8.85734 17.7542 9.05441 18.4375 9.19036C 18.6079 9.22403 18.78 9.2548 18.9533 9.28307C 19.116 9.30677 19.1779 9.30511 19.3251 9.29845C 19.5938 9.28224 19.9 9.21115 20.2042 9.11594C 20.817 8.92261 21.4331 8.63533 22.0332 8.32725C 22.3345 8.17301 22.6326 8.01086 22.9359 7.84664C 23.0937 7.76307 23.2503 7.67951 23.4069 7.59677L 23.5357 7.53233C 23.6197 7.49491 23.605 7.49907 23.6882 7.46539C 23.8236 7.40968 23.9165 7.38307 24.0323 7.35023C 24.4747 7.23714 24.9138 7.21303 25.3774 7.30367C 25.6086 7.35106 25.8504 7.43047 26.0958 7.58181C 26.338 7.73231 26.5981 7.98301 26.7343 8.32975C 26.8028 8.49813 26.8383 8.68064 26.8424 8.84611C 26.8477 8.93217 26.8399 9.00784 26.8342 9.08808L 26.8057 9.26935L 26.7832 9.38701L 26.7694 9.48097L 26.7413 9.69758C 26.7062 9.99609 26.6805 10.3042 26.6593 10.6093C 26.6169 11.2205 26.5928 11.8254 26.5798 12.4141C 26.5557 13.5899 26.5696 14.7145 26.6605 15.7252C 26.6842 15.9759 26.7119 16.2212 26.7514 16.4444C 26.7902 16.6673 26.8387 16.8727 26.8921 16.9907C 27.0899 17.451 27.2807 17.8946 27.4641 18.3212C 27.8266 19.1768 28.1512 19.9675 28.4333 20.6918C 28.7151 21.4185 28.9568 22.0679 29.1399 22.687C 29.1856 22.8433 29.2272 22.998 29.2626 23.1672C 29.2761 23.2345 29.2883 23.306 29.2989 23.3855C 29.4379 23.3983 29.5921 23.4129 29.7678 23.4295C 30.5714 23.5048 31.7555 23.5958 33.2799 23.7925C 33.6616 23.8432 34.0648 23.9018 34.4925 23.9787C 34.9227 24.059 35.3679 24.145 35.8763 24.3138C 36.0052 24.3583 36.1381 24.4082 36.2865 24.4801C 36.3624 24.5184 36.4382 24.557 36.5267 24.6157C 36.5678 24.6414 36.6176 24.6789 36.6637 24.715L 36.7395 24.7811L 36.7933 24.8339C 37.0192 25.0584 37.2047 25.3183 37.3564 25.579C 37.6589 26.1074 37.8697 26.6799 37.9647 27.3368C 38.0096 27.6648 38.0226 28.0186 37.9553 28.4073Z"/></defs></svg>