<svg xmlns="http://www.w3.org/2000/svg" xmlns:xlink="http://www.w3.org/1999/xlink" width="16" height="16" version="1.1" viewBox="0 0 16 16"><title>icon_purple-point</title><desc>Created using Figma</desc><g id="Canvas" transform="translate(-10840 -525)"><g id="icon_purple-point"><g id="Oval 2 Copy"><use fill="#F6F6F6" transform="translate(10841 526)" xlink:href="#path0_fill"/><use fill="#A24C8C" transform="translate(10841 526)" xlink:href="#path1_stroke"/></g><g id="Oval 3 Copy"><use fill="#A24C8C" transform="translate(10845 530)" xlink:href="#path2_fill"/></g></g></g><defs><path id="path0_fill" fill-rule="evenodd" d="M 7 14C 10.866 14 14 10.866 14 7C 14 3.13401 10.866 0 7 0C 3.13401 0 0 3.13401 0 7C 0 10.866 3.13401 14 7 14Z"/><path id="path1_stroke" d="M 7 15C 11.4183 15 15 11.4183 15 7L 13 7C 13 10.3137 10.3137 13 7 13L 7 15ZM 15 7C 15 2.58172 11.4183 -1 7 -1L 7 1C 10.3137 1 13 3.68629 13 7L 15 7ZM 7 -1C 2.58172 -1 -1 2.58172 -1 7L 1 7C 1 3.68629 3.68629 1 7 1L 7 -1ZM -1 7C -1 11.4183 2.58172 15 7 15L 7 13C 3.68629 13 1 10.3137 1 7L -1 7Z"/><path id="path2_fill" fill-rule="evenodd" d="M 3 6C 4.65685 6 6 4.65685 6 3C 6 1.34315 4.65685 0 3 0C 1.34315 0 0 1.34315 0 3C 0 4.65685 1.34315 6 3 6Z"/></defs></svg>