<svg xmlns="http://www.w3.org/2000/svg" xmlns:xlink="http://www.w3.org/1999/xlink" width="62" height="21" version="1.1" viewBox="0 0 62 21"><title>VISA_logo</title><desc>Created using Figma</desc><g id="Canvas" transform="translate(-10822 -210)"><g id="VISA_logo"><g id="polygon9"><use fill="#00579F" transform="translate(10843.8 210.752)" xlink:href="#path0_fill"/></g><g id="path11"><use fill="#00579F" transform="translate(10851.9 210.404)" xlink:href="#path1_fill"/></g><g id="path13"><use fill="#00579F" transform="translate(10865.7 210.752)" xlink:href="#path2_fill"/></g><g id="path15"><use fill="#00579F" transform="translate(10827.4 210.752)" xlink:href="#path3_fill"/></g><g id="path17"><use fill="#FAA61A" transform="translate(10822.2 210.752)" xlink:href="#path4_fill"/></g></g></g><defs><path id="path0_fill" d="M 4.96565 19.2044L 0 19.2044L 3.10587 0L 8.07124 0L 4.96565 19.2044Z"/><path id="path1_fill" d="M 14.8956 0.817606C 13.9161 0.429033 12.3627 0 10.4418 0C 5.53805 0 2.08488 2.61493 2.0637 6.35348C 2.02297 9.11178 4.53607 10.6438 6.41567 11.5635C 8.33681 12.5033 8.98986 13.1167 8.98986 13.9544C 8.97031 15.241 7.43747 15.834 6.00781 15.834C 4.0253 15.834 2.96304 15.5283 1.34874 14.8125L 0.69487 14.5056L 0 18.8166C 1.16463 19.3472 3.31034 19.818 5.53805 19.8387C 10.7484 19.8387 14.1404 17.2642 14.1806 13.2802C 14.2004 11.094 12.8734 9.4189 10.0125 8.05006C 8.27571 7.17136 7.21209 6.57886 7.21209 5.67979C 7.23246 4.86246 8.1117 4.0253 10.0722 4.0253C 11.6865 3.9843 12.8726 4.37233 13.7711 4.76063L 14.2203 4.96456L 14.8956 0.817606Z"/><path id="path2_fill" fill-rule="evenodd" d="M 9.97168 0L 13.8125 0L 17.8184 19.2041L 13.2207 19.2041C 13.2207 19.2041 12.7705 16.9976 12.6279 16.3233L 6.25293 16.3233L 5.20996 19.2041L 0 19.2041L 7.37598 1.5934C 7.88672 0.347031 8.78711 0 9.97168 0ZM 9.66504 7.02771C 9.66504 7.02771 8.0918 11.2977 7.68262 12.4009L 11.8096 12.4009C 11.6055 11.4408 10.665 6.84389 10.665 6.84389L 10.3184 5.18912C 10.1719 5.61778 9.95801 6.20808 9.81543 6.60327C 9.7207 6.86722 9.65723 7.04413 9.66504 7.02771Z"/><path id="path3_fill" d="M 12.2597 0L 7.39674 13.0955L 6.86534 10.4396C 5.96627 7.37502 3.1466 4.0454 0 2.38982L 4.45434 19.184L 9.70537 19.184L 17.5105 9.64703e-16L 12.2597 9.64703e-16L 12.2597 0Z"/><path id="path4_fill" d="M 8.07097 0L 0.0817334 0L 0 0.38803C 6.23211 1.9817 10.3595 5.82317 12.0553 10.4404L 10.3185 1.6143C 10.0326 0.387759 9.15387 0.0404594 8.07097 0Z"/></defs></svg>