<svg width="39" height="31" viewBox="0 0 39 31" version="1.1" xmlns="http://www.w3.org/2000/svg" xmlns:xlink="http://www.w3.org/1999/xlink">
<title>mastercard_logo</title>
<desc>Created using Figma</desc>
<g id="Canvas" transform="translate(-10907 -207)">
<g id="mastercard_logo">
<g id="Shape">
<use xlink:href="#path0_fill" transform="translate(10909.5 232.757)" fill="#231F20"/>
</g>
<g id="_Group_">
<g id="Rectangle-path">
<use xlink:href="#path1_fill" transform="translate(10921.4 210.122)" fill="#FF5F00"/>
</g>
<g id="_Path_">
<use xlink:href="#path2_fill" transform="translate(10907.5 207.598)" fill="#EB001B"/>
</g>
<g id="Shape">
<use xlink:href="#path3_fill" transform="translate(10926.6 207.597)" fill="#F79E1B"/>
</g>
<g id="Shape">
<use xlink:href="#path4_fill" transform="translate(10944.3 226.263)" fill="#F79E1B"/>
</g>
</g>
</g>
</g>
<defs>
<path id="path0_fill" fill-rule="evenodd" d="M 34.377 2.82729L 34.377 0L 33.7207 0L 33.7207 1.63995C 33.4854 1.33754 33.1191 1.16666 32.7363 1.18077C 31.8311 1.18077 31.0967 1.91501 31.0967 2.82072C 31.0967 3.72646 31.8311 4.46069 32.7363 4.46069C 33.1191 4.47481 33.4854 4.30392 33.7207 4.0015L 33.7207 4.38197L 34.377 4.38197L 34.377 2.82729ZM 14.041 1.25949L 15.1631 1.25949L 15.1699 1.88268L 14.0547 1.88268L 14.0547 3.31273C 14.0547 3.62759 14.1797 3.83751 14.5068 3.83751C 14.7197 3.83046 14.9277 3.76952 15.1104 3.6604L 15.3076 4.24422C 15.0518 4.40381 14.7559 4.48795 14.4551 4.48694C 13.6475 4.48694 13.3662 4.05399 13.3662 3.32584L 13.3662 1.88268L 12.7295 1.88268L 12.7295 1.25949L 13.3525 1.25949L 13.3525 0.308319L 14.041 0.308319L 14.041 1.25949ZM 4.97266 2.42714L 4.97266 4.39508L 4.2832 4.4082L 4.2832 2.6633C 4.2832 2.13194 4.06055 1.83675 3.59473 1.83675C 3.37598 1.82614 3.16406 1.91298 3.0166 2.07384C 2.86816 2.2347 2.79883 2.453 2.82715 2.66985L 2.82715 4.4082L 2.13867 4.4082L 2.13867 2.6633C 2.13867 2.13194 1.90918 1.83675 1.45605 1.83675C 1.2373 1.82495 1.02441 1.91144 0.875977 2.07259C 0.727539 2.23373 0.65918 2.45274 0.688477 2.66985L 0.688477 4.39508L 0 4.39508L 0 1.25949L 0.682617 1.25949L 0.682617 1.64651C 0.883789 1.33943 1.2334 1.16222 1.60059 1.18077C 2.02246 1.16264 2.41992 1.3766 2.63672 1.73836C 2.875 1.36548 3.29785 1.15182 3.73926 1.18077C 4.07422 1.16112 4.40137 1.28658 4.6377 1.52515C 4.87402 1.76372 4.99512 2.09232 4.97266 2.42714ZM 20.9814 1.18077C 20.6426 1.17081 20.3262 1.347 20.1553 1.63995L 20.1553 1.25949L 19.4795 1.25949L 19.4795 4.39508L 20.1621 4.39508L 20.1621 2.63705C 20.1621 2.11882 20.3848 1.83018 20.8174 1.83018C 20.9639 1.8282 21.1084 1.85495 21.2441 1.90891L 21.4541 1.25293C 21.2979 1.19719 21.1338 1.16835 20.9688 1.16765L 20.9814 1.18077ZM 10.9053 1.18077C 11.3545 1.16531 11.7988 1.27916 12.1846 1.50876L 11.8828 2.05978C 11.583 1.88745 11.2441 1.79485 10.8984 1.79083C 10.5244 1.79083 10.3018 1.94827 10.3018 2.15819C 10.3018 2.3681 10.5381 2.42714 10.833 2.46649L 11.1611 2.51242C 11.8438 2.61081 12.2568 2.85353 12.2568 3.45047C 12.2568 4.04742 11.7314 4.4738 10.8262 4.4738C 10.3418 4.48714 9.86621 4.34457 9.46875 4.06709L 9.79688 3.53575C 10.0977 3.75906 10.4648 3.87459 10.8398 3.86374C 11.3057 3.86374 11.5547 3.72598 11.5547 3.48328C 11.5547 3.30615 11.3779 3.20776 11.0039 3.15527L 10.6758 3.10936C 9.97363 3.01097 9.59375 2.69609 9.59375 2.18442C 9.59375 1.56123 10.1113 1.18077 10.9053 1.18077ZM 30.457 1.18077C 30.1182 1.17081 29.8018 1.347 29.6309 1.63995L 29.6309 1.25949L 28.9551 1.25949L 28.9551 4.39508L 29.6377 4.39508L 29.6377 2.63705C 29.6377 2.11882 29.8604 1.83018 30.293 1.83018C 30.4395 1.8282 30.584 1.85495 30.7197 1.90891L 30.9297 1.25293C 30.7734 1.19719 30.6094 1.16835 30.4443 1.16765L 30.457 1.18077ZM 22.1416 4.01027C 21.8232 3.69814 21.6504 3.2663 21.667 2.82074L 21.667 2.80762C 21.6504 2.36206 21.8232 1.93022 22.1416 1.61809C 22.46 1.30595 22.8945 1.14243 23.3398 1.16766C 23.749 1.14682 24.1523 1.28023 24.4678 1.54156L 24.1406 2.09259C 23.9043 1.91275 23.6172 1.81383 23.3203 1.81052C 22.7969 1.85283 22.3945 2.28955 22.3945 2.81418C 22.3945 3.33881 22.7969 3.77551 23.3203 3.81783C 23.6172 3.81453 23.9043 3.71559 24.1406 3.53575L 24.4678 4.08678C 24.1523 4.34813 23.749 4.48154 23.3398 4.46069C 22.8945 4.48592 22.46 4.3224 22.1416 4.01027ZM 28.0566 2.82072L 28.0566 1.25949L 27.374 1.25949L 27.374 1.63997C 27.1387 1.33754 26.7725 1.16666 26.3896 1.18077C 25.4844 1.18077 24.75 1.91501 24.75 2.82072C 24.75 3.72646 25.4844 4.46069 26.3896 4.46069C 26.7725 4.47481 27.1387 4.30392 27.374 4.0015L 27.374 4.38197L 28.0566 4.38197L 28.0566 2.82072ZM 26.499 1.92928C 25.9844 1.90993 25.5479 2.306 25.5176 2.82072C 25.5 3.08272 25.5928 3.34006 25.7734 3.53064C 25.9541 3.72122 26.2061 3.8277 26.4688 3.82439C 26.9844 3.8217 27.4033 3.40736 27.4121 2.89182C 27.4199 2.37627 27.0146 1.94861 26.499 1.92928ZM 17.2852 1.18077C 16.3799 1.19345 15.6553 1.93796 15.668 2.84369C 15.6807 3.7494 16.4258 4.47337 17.3311 4.46069C 17.8027 4.48491 18.2666 4.33295 18.6328 4.0343L 18.3057 3.52919C 18.0459 3.73691 17.7256 3.85233 17.3936 3.85718C 16.9248 3.89751 16.5088 3.5573 16.4551 3.08968L 18.7842 3.08968L 18.7842 2.82729C 18.7842 1.84331 18.1738 1.18733 17.2949 1.18733L 17.2852 1.18077ZM 17.8389 2.00687C 17.6904 1.86415 17.4912 1.78644 17.2852 1.79083L 17.2715 1.79083C 16.833 1.77588 16.4629 2.11385 16.4385 2.55177L 18.0781 2.55177C 18.0742 2.3456 17.9883 2.14958 17.8389 2.00687ZM 35.6396 3.96214C 35.6025 3.94743 35.5645 3.93967 35.5254 3.93919C 35.4795 3.93733 35.4336 3.94514 35.3906 3.96214C 35.3535 3.97752 35.3184 3.99976 35.2891 4.02774C 35.2607 4.05603 35.2373 4.08939 35.2197 4.12614C 35.1875 4.20364 35.1875 4.29135 35.2197 4.36885C 35.2734 4.48404 35.3887 4.55814 35.5156 4.5591C 35.5586 4.55911 35.6006 4.55017 35.6396 4.53285C 35.6777 4.51749 35.7119 4.49524 35.7422 4.46725C 35.7705 4.43898 35.7939 4.40561 35.8105 4.36885C 35.8438 4.29143 35.8438 4.20357 35.8105 4.12614C 35.7939 4.08939 35.7705 4.05603 35.7422 4.02774C 35.7119 3.99976 35.6777 3.97752 35.6396 3.96214ZM 35.5244 4.49348C 35.5479 4.49368 35.5801 4.48698 35.6104 4.47382C 35.6387 4.46121 35.6641 4.44341 35.6855 4.42133C 35.7705 4.32854 35.7705 4.18613 35.6855 4.09334C 35.6641 4.0712 35.6387 4.05339 35.6104 4.04086C 35.5801 4.02779 35.5479 4.02107 35.5146 4.02118C 35.4824 4.02135 35.4502 4.02805 35.4199 4.04086C 35.3906 4.05295 35.3633 4.07079 35.3408 4.09334C 35.2559 4.18613 35.2559 4.32854 35.3408 4.42133C 35.3633 4.44382 35.3906 4.46165 35.4199 4.47382C 35.4531 4.48808 35.4893 4.4948 35.5244 4.49348ZM 35.6191 4.12943C 35.5947 4.11098 35.5645 4.1017 35.5342 4.10318L 35.3965 4.10646L 35.3965 4.3951L 35.459 4.3951L 35.459 4.28685L 35.4883 4.28685L 35.5771 4.3951L 35.6523 4.3951L 35.5576 4.28685C 35.583 4.285 35.6074 4.27461 35.626 4.25734C 35.6416 4.24174 35.6504 4.22032 35.6494 4.1983C 35.6504 4.17192 35.6396 4.14627 35.6191 4.12943ZM 35.4629 4.15894L 35.4629 4.23766L 35.5352 4.23766C 35.5479 4.24149 35.5615 4.24149 35.5742 4.23766C 35.5791 4.22836 35.5791 4.21742 35.5742 4.20813C 35.5791 4.19885 35.5791 4.1879 35.5742 4.17862C 35.5615 4.17479 35.5479 4.17479 35.5352 4.17862L 35.4629 4.15894ZM 32.8359 1.93584C 32.3213 1.91649 31.8848 2.31256 31.8545 2.82729C 31.8369 3.08928 31.9297 3.34662 32.1104 3.5372C 32.291 3.72778 32.543 3.83426 32.8057 3.83095C 33.3213 3.82826 33.7402 3.41393 33.749 2.89838C 33.7568 2.38283 33.3516 1.95517 32.8359 1.93584ZM 8.82031 2.82729L 8.82031 1.25949L 8.1377 1.25949L 8.1377 1.63997C 7.90234 1.33754 7.53613 1.16666 7.15332 1.18077C 6.24805 1.18077 5.51367 1.91501 5.51367 2.82072C 5.51367 3.72646 6.24805 4.46069 7.15332 4.46069C 7.53613 4.47481 7.90234 4.30392 8.1377 4.0015L 8.1377 4.38197L 8.82031 4.38197L 8.82031 2.82729ZM 7.2627 1.93584C 6.74805 1.91649 6.31152 2.31256 6.28125 2.82729C 6.25684 3.09044 6.35059 3.34885 6.5332 3.53966C 6.71484 3.73045 6.96875 3.83612 7.23242 3.83095C 7.74805 3.82826 8.16699 3.41393 8.1748 2.89838C 8.18359 2.38283 7.77832 1.95517 7.2627 1.93584Z"/>
<path id="path1_fill" d="M 0 0L 10.3317 0L 10.3317 18.5676L 0 18.5676L 0 0Z"/>
<path id="path2_fill" d="M 14.5939 11.8095C 14.59 8.18571 16.2532 4.76149 19.1038 2.52408C 14.2626 -1.28061 7.31036 -0.72642 3.13301 3.79717C -1.04434 8.32076 -1.04434 15.295 3.13301 19.8186C 7.31036 24.3422 14.2626 24.8964 19.1038 21.0917C 16.2541 18.855 14.591 15.4322 14.5939 11.8095Z"/>
<path id="path3_fill" d="M 19.1055 11.8108C 19.1054 16.3316 16.524 20.4556 12.4577 22.4311C 8.39137 24.4067 3.55398 23.8871 0 21.093C 2.84848 18.8544 4.51162 15.432 4.51162 11.8092C 4.51162 8.1863 2.84848 4.76396 0 2.52536C 3.55398 -0.268768 8.39137 -0.788386 12.4577 1.18719C 16.524 3.16276 19.1054 7.28669 19.1055 11.8075L 19.1055 11.8108Z"/>
<path id="path4_fill" fill-rule="evenodd" d="M 0.236328 0.0787201L 0.236328 0.459183L 0.166992 0.459183L 0.166992 0.0787201L 0 0.0787201L 0 0L 0.390625 0L 0.390625 0.0787201L 0.236328 0.0787201ZM 0.994141 0L 0.994141 0.459183L 0.924805 0.462463L 0.924805 0.114792L 0.796875 0.413269L 0.708008 0.413269L 0.580078 0.114792L 0.580078 0.459183L 0.495117 0.459183L 0.495117 0L 0.599609 0L 0.738281 0.327988L 0.875977 0L 0.994141 0Z"/>
</defs>
</svg>
