<?xml version="1.0" standalone="no"?>
<!DOCTYPE svg PUBLIC "-//W3C//DTD SVG 20010904//EN"
 "http://www.w3.org/TR/2001/REC-SVG-20010904/DTD/svg10.dtd">
<svg version="1.0" xmlns="http://www.w3.org/2000/svg" height="20" viewBox="0 0 953.000000 112.000000"
 preserveAspectRatio="xMidYMid meet">
<metadata>
Created by potrace 1.15, written by Peter Selinger 2001-2017
</metadata>
<g transform="translate(0.000000,112.000000) scale(0.100000,-0.100000)"
fill="#276eb8" stroke="none">
	<path d="M95 1106 c-37 -17 -70 -52 -84 -89 -7 -19 -11 -197 -11 -523 l0 -494
	115 0 115 0 0 155 0 155 153 0 153 0 80 -155 79 -155 133 0 c72 0 132 3 132 6
	0 4 -41 86 -92 182 l-91 176 24 15 c135 89 195 264 159 464 -23 122 -82 208
	-173 248 -51 23 -60 24 -357 26 -240 2 -311 0 -335 -11z m580 -226 c16 -6 32
	-24 41 -47 19 -45 21 -160 4 -194 -43 -83 -96 -99 -322 -99 l-168 0 0 175 0
	175 209 0 c115 0 221 -4 236 -10z"/>
	<path d="M1300 1111 c-99 -30 -170 -101 -200 -198 -24 -78 -50 -262 -50 -351
	0 -86 24 -261 45 -332 37 -123 100 -186 216 -216 50 -13 103 -15 273 -12 195
	3 215 6 264 27 141 63 202 223 202 531 -1 324 -64 484 -213 539 -53 19 -76 21
	-285 20 -125 0 -238 -4 -252 -8z m465 -244 c67 -92 66 -545 -2 -612 -20 -21
	-405 -22 -422 -2 -47 57 -64 386 -28 540 15 61 23 80 40 87 12 5 107 8 210 7
	169 -2 190 -4 202 -20z"/>
	<path d="M2266 1098 c-22 -13 -49 -39 -60 -58 -20 -34 -21 -52 -24 -452 -2
	-279 1 -430 8 -458 17 -62 61 -107 121 -119 62 -14 503 -14 582 -1 154 25 233
	115 244 280 7 93 -8 162 -47 224 l-29 45 37 72 c36 69 37 76 37 173 0 83 -5
	110 -23 151 -29 63 -64 100 -127 133 l-50 27 -315 3 c-312 2 -315 2 -354 -20z
	m619 -220 c14 -14 23 -81 14 -112 -5 -18 -21 -43 -35 -57 -25 -24 -29 -24
	-235 -27 l-209 -3 0 106 0 106 229 -3 c126 -2 232 -6 236 -10z m-44 -446 c40
	-16 62 -59 61 -116 -1 -36 -6 -54 -18 -63 -13 -10 -76 -13 -241 -13 l-223 0 0
	106 0 106 198 -4 c108 -3 209 -10 223 -16z"/>
	<path d="M3472 1099 c-97 -38 -146 -106 -184 -256 -19 -76 -22 -116 -22 -283
	0 -182 2 -202 27 -295 31 -113 60 -162 118 -205 72 -51 94 -55 349 -55 255 0
	277 4 349 55 58 43 87 92 118 205 25 93 27 113 27 295 0 167 -3 207 -22 283
	-38 152 -87 219 -187 256 -51 19 -76 21 -288 20 -209 0 -237 -2 -285 -20z
	m482 -219 c27 -10 39 -41 58 -154 24 -139 3 -401 -37 -462 -15 -24 -16 -24
	-215 -24 -234 0 -220 -7 -246 126 -37 184 -7 491 49 514 30 12 359 12 391 0z"/>
</g>
<g transform="translate(0.000000,112.000000) scale(0.100000,-0.100000)"
fill="#d61e2f" stroke="none">
	<path d="M4441 1089 l-31 -31 0 -495 0 -495 29 -29 c26 -25 37 -29 88 -29 49
	0 63 4 81 23 35 37 42 80 42 254 l0 163 73 0 74 0 74 -64 c148 -127 199 -195
	199 -263 0 -38 5 -50 34 -79 30 -30 40 -34 85 -34 42 0 56 5 83 29 32 28 33
	32 32 105 -1 63 -6 86 -32 139 -35 70 -137 195 -201 246 l-42 33 65 59 c78 72
	150 165 184 238 19 42 25 72 26 128 1 72 0 76 -32 104 -29 26 -40 29 -96 29
	-58 0 -67 -3 -85 -26 -14 -18 -21 -41 -21 -71 0 -24 -6 -58 -14 -76 -17 -42
	-93 -125 -185 -204 l-74 -63 -74 0 -73 0 0 163 c0 89 -5 179 -10 199 -15 54
	-51 78 -116 78 -45 0 -57 -4 -83 -31z"/>
	<path d="M5714 1106 c-135 -43 -209 -139 -261 -335 -24 -88 -26 -118 -30 -372
	-6 -300 -2 -333 44 -369 33 -26 118 -27 149 -2 36 29 44 57 44 161 l0 101 260
	0 260 0 0 -111 c0 -109 0 -111 29 -140 26 -25 37 -29 86 -29 51 0 60 3 87 32
	l29 32 -3 320 c-4 296 -6 327 -26 394 -48 158 -118 257 -212 301 -52 24 -66
	26 -235 28 -128 2 -192 -1 -221 -11z m345 -227 c55 -19 102 -140 115 -291 l5
	-68 -261 0 -261 0 7 80 c12 141 67 273 118 283 49 9 247 6 277 -4z"/>
	<path d="M6725 1106 c-98 -31 -153 -79 -187 -166 -17 -44 -22 -76 -22 -155 0
	-160 48 -251 161 -306 45 -22 63 -24 260 -29 204 -5 213 -6 235 -28 29 -29 32
	-114 5 -155 l-17 -27 -269 0 c-254 0 -270 -1 -294 -20 -56 -44 -58 -140 -5
	-185 l30 -25 291 0 c162 0 308 5 328 10 55 15 114 73 151 148 31 63 33 72 33
	177 0 98 -3 116 -26 165 -33 70 -78 122 -127 146 -32 16 -69 20 -265 24 -265
	6 -257 2 -257 105 0 104 -15 99 304 105 l276 5 27 27 c24 24 27 36 31 112 l5
	86 -314 -1 c-224 0 -325 -4 -354 -13z"/>
	<path d="M7715 1106 c-22 -7 -53 -20 -70 -28 -129 -68 -183 -296 -109 -458 31
	-68 65 -104 129 -138 48 -26 56 -27 250 -30 110 -1 212 -8 227 -13 35 -14 52
	-65 43 -125 -11 -76 -3 -74 -306 -74 l-271 0 -29 -29 c-25 -26 -29 -37 -29
	-86 0 -49 4 -60 29 -86 l29 -29 302 0 c336 0 344 1 414 68 61 59 89 129 94
	244 6 133 -19 211 -93 284 -33 33 -66 56 -91 63 -22 6 -122 11 -225 11 -103 0
	-200 3 -217 6 -36 7 -52 38 -52 99 0 61 16 92 52 99 17 3 138 6 270 6 311 0
	318 4 318 155 l0 75 -312 -1 c-223 0 -325 -4 -353 -13z"/>
	<path d="M8811 1100 c-29 -10 -69 -31 -88 -46 -80 -61 -152 -221 -172 -384
	-15 -114 -14 -558 0 -599 14 -39 54 -61 113 -61 36 0 52 6 78 29 l33 29 3 111
	4 111 253 0 253 0 4 -111 3 -111 33 -29 c26 -24 41 -29 82 -29 41 0 56 5 82
	29 l33 29 -1 314 c-1 287 -2 319 -22 391 -45 165 -112 265 -209 313 -57 28
	-62 29 -243 31 -163 3 -191 1 -239 -17z m400 -250 c40 -47 70 -147 76 -247 l6
	-83 -257 0 -256 0 0 61 c0 127 56 275 112 299 13 5 83 8 157 7 l133 -2 29 -35z"/>
</g>
</svg>
