<svg width="86" height="24" viewBox="0 0 86 24" version="1.1" xmlns="http://www.w3.org/2000/svg" xmlns:xlink="http://www.w3.org/1999/xlink">
<title>PayPal_logo</title>
<desc>Created using Figma</desc>
<g id="Canvas" transform="translate(-10968 -210)">
<g id="PayPal_logo">
<g id="g10">
<g id="g12">
<g id="path14">
<use xlink:href="#path0_fill" transform="matrix(1 -1.22465e-16 -1.22465e-16 -1 10968.9 229.239)" fill="#283B82"/>
</g>
<g id="path16">
<use xlink:href="#path1_fill" transform="matrix(1 -1.22465e-16 -1.22465e-16 -1 10983.8 229.531)" fill="#283B82"/>
</g>
<g id="path18">
<use xlink:href="#path2_fill" transform="matrix(1 -1.22465e-16 -1.22465e-16 -1 11000.8 233.5)" fill="#283B82"/>
</g>
<g id="path20">
<use xlink:href="#path3_fill" transform="matrix(1 -1.22465e-16 -1.22465e-16 -1 11015.8 229.239)" fill="#469BDB"/>
</g>
<g id="path22">
<use xlink:href="#path4_fill" transform="matrix(1 -1.22465e-16 -1.22465e-16 -1 11030.7 229.531)" fill="#469BDB"/>
</g>
<g id="path24">
<use xlink:href="#path5_fill" transform="matrix(1 -1.22465e-16 -1.22465e-16 -1 11046.6 229.239)" fill="#469BDB"/>
</g>
</g>
</g>
</g>
</g>
<defs>
<path id="path0_fill" fill-rule="evenodd" d="M 3.56934 18.2645L 10.1445 18.2645C 12.3447 18.2645 14.0029 17.6837 14.9365 16.5856C 15.7881 15.5858 16.0693 14.1581 15.7754 12.341C 15.1221 8.18758 12.623 6.09166 8.29199 6.09166L 6.20996 6.09166C 5.76074 6.09166 5.37793 5.76474 5.30859 5.31949L 4.59082 0.771973C 4.52051 0.326828 4.13867 -5.5133e-17 3.68848 0L 0.548828 0C 0.211914 4.12601e-17 -0.0458984 0.300034 0.00683594 0.632584L 2.66602 17.4931C 2.73633 17.9375 3.11914 18.2645 3.56934 18.2645ZM 6.99707 9.74698C 8.74023 9.74698 10.543 9.74698 10.9023 12.1063C 11.0342 12.9352 10.9287 13.535 10.583 13.9389C 10.0049 14.6157 8.88477 14.6157 7.69727 14.6157L 7.24219 14.6157C 6.97266 14.6157 6.74219 14.4196 6.70117 14.1532L 6.00488 9.74698L 6.99707 9.74698Z"/>
<path id="path1_fill" fill-rule="evenodd" d="M 11.7441 12.4745L 14.8926 12.4745C 15.2295 12.4745 15.4854 12.1736 15.4316 11.8419L 13.7305 1.06512C 13.6592 0.620071 13.2783 0.293152 12.8271 0.293152L 9.99121 0.293152C 9.65527 0.293152 9.39746 0.593109 9.45117 0.927689L 9.59082 1.80257C 9.59082 1.80257 8.03711 -3.43356e-16 5.2334 0C 3.59961 2.00081e-16 2.22656 0.4711 1.26758 1.60173C 0.220703 2.83133 -0.207031 4.59462 0.09375 6.43863C 0.672852 10.1353 3.64453 12.7706 7.12402 12.7706C 8.6416 12.7706 10.1611 12.4399 10.8428 11.4506L 11.0635 11.1314L 11.2021 12.012C 11.2441 12.2784 11.4756 12.4745 11.7441 12.4745ZM 6.95117 3.33986C 8.77246 3.33986 10.2002 4.54753 10.5039 6.34631C 10.6416 7.21742 10.4512 8.00775 9.97168 8.57404C 9.49219 9.13448 8.76562 9.43152 7.87109 9.43152C 6.07812 9.43152 4.62695 8.1846 4.34277 6.40117C 4.19531 5.52623 4.37207 4.74075 4.83691 4.18889C 5.30664 3.63318 6.03711 3.33986 6.95117 3.33986Z"/>
<path id="path2_fill" d="M 14.67 16.4435L 11.506 16.4435C 11.2041 16.4435 10.9205 16.2935 10.7493 16.0425L 6.38536 9.6144L 4.53565 15.7916C 4.4193 16.1782 4.06264 16.4435 3.65884 16.4435L 0.549585 16.4435C 0.17166 16.4435 -0.090721 16.0743 0.0294367 15.7186L 3.51461 5.49089L 0.238058 0.865388C -0.0197096 0.501102 0.239863 0 0.685189 0L 3.8454 0C 4.14529 0 4.42613 0.146216 4.59623 0.39234L 15.12 15.5829C 15.3719 15.9465 15.1133 16.4435 14.67 16.4435Z"/>
<path id="path3_fill" fill-rule="evenodd" d="M 3.56836 18.2645L 10.1445 18.2645C 12.3447 18.2645 14.002 17.6837 14.9355 16.5856C 15.7861 15.5858 16.0693 14.1581 15.7744 12.341C 15.1211 8.18758 12.6221 6.09166 8.29004 6.09166L 6.20898 6.09166C 5.75977 6.09166 5.37598 5.76474 5.30762 5.31949L 4.55273 0.540268C 4.50391 0.228714 4.23535 -3.83898e-17 3.92188 0L 0.546875 0C 0.211914 4.10209e-17 -0.0458984 0.300034 0.00683594 0.632584L 2.66602 17.4931C 2.73633 17.9375 3.11914 18.2645 3.56836 18.2645ZM 6.99707 9.74698C 8.74121 9.74698 10.5439 9.74698 10.9023 12.1063C 11.0342 12.9352 10.9297 13.535 10.584 13.9389C 10.0049 14.6157 8.88477 14.6157 7.69824 14.6157L 7.24316 14.6157C 6.97266 14.6157 6.74414 14.4196 6.70312 14.1532L 6.00586 9.74698L 6.99707 9.74698Z"/>
<path id="path4_fill" fill-rule="evenodd" d="M 11.7422 12.4745L 14.8887 12.4745C 15.2256 12.4745 15.4834 12.1736 15.4316 11.8419L 13.7295 1.06512C 13.6592 0.620071 13.2764 0.293152 12.8271 0.293152L 9.99219 0.293152C 9.6543 0.293152 9.39648 0.593109 9.44922 0.927689L 9.58984 1.80257C 9.58984 1.80257 8.03516 -3.43356e-16 5.23145 0C 3.59863 1.99962e-16 2.22754 0.4711 1.26562 1.60173C 0.219727 2.83133 -0.206055 4.59462 0.09375 6.43863C 0.672852 10.1353 3.64355 12.7706 7.12305 12.7706C 8.63965 12.7706 10.1592 12.4399 10.8408 11.4506L 11.0615 11.1314L 11.2012 12.012C 11.2412 12.2784 11.4717 12.4745 11.7422 12.4745ZM 6.94629 3.33986C 8.76758 3.33986 10.1973 4.54753 10.499 6.34631C 10.6387 7.21742 10.4482 8.00775 9.9668 8.57404C 9.4873 9.13448 8.76074 9.43152 7.86719 9.43152C 6.07422 9.43152 4.62402 8.1846 4.33789 6.40117C 4.19238 5.52623 4.36719 4.74075 4.83203 4.18889C 5.30176 3.63318 6.03418 3.33986 6.94629 3.33986Z"/>
<path id="path5_fill" d="M 2.70571 17.8019L 0.00687673 0.632583C -0.0458803 0.300033 0.211686 0 0.547285 0L 3.26036 0C 3.7113 0 4.09404 0.326833 4.16325 0.771978L 6.82437 17.6316C 6.87733 17.9644 6.61976 18.2653 6.28416 18.2653L 3.24592 18.2653C 2.97772 18.2645 2.74703 18.0681 2.70571 17.8019Z"/>
</defs>
</svg>
