<svg xmlns="http://www.w3.org/2000/svg" xmlns:xlink="http://www.w3.org/1999/xlink" width="16" height="110" version="1.1" viewBox="0 0 16 110"><title>step-pointer</title><desc>Created using Figma</desc><g id="Canvas" transform="translate(-10840 -477)"><g id="step-pointer"><g id="Line 2"><use fill="url(#paint0_linear)" transform="translate(10846 493)" xlink:href="#path0_stroke"/></g><g id="Oval 3"><use fill="#E67963" transform="translate(10845 482)" xlink:href="#path1_fill"/></g><g id="Oval 2"><use fill="#E67963" transform="translate(10841 478)" xlink:href="#path2_stroke"/></g><g id="Oval 2 Copy"><use fill="#F6F6F6" transform="translate(10841 526)" xlink:href="#path3_fill"/><use fill="#A24C8C" transform="translate(10841 526)" xlink:href="#path2_stroke"/></g><g id="Oval 3 Copy"><use fill="#A24C8C" transform="translate(10845 530)" xlink:href="#path1_fill"/></g><g id="Oval 3 Copy"><use fill="#36A8C8" transform="translate(10845 576)" xlink:href="#path1_fill"/></g><g id="Oval 2 Copy"><use fill="#36A8C8" transform="translate(10841 572)" xlink:href="#path2_stroke"/></g></g></g><defs><linearGradient id="paint0_linear" x1="0" x2="1" y1="0" y2="0" gradientTransform="matrix(0 78 -3 0 1.5 0)" gradientUnits="userSpaceOnUse"><stop offset="0" stop-color="#E67963"/><stop offset=".53" stop-color="#A24C8C"/><stop offset="1" stop-color="#36A8C8"/></linearGradient><path id="path0_stroke" d="M 3.5 0.318841L 3.5 -1.18116L 0.5 -1.18116L 0.5 0.318841L 3.5 0.318841ZM 0.5 77.5L 0.5 79L 3.5 79L 3.5 77.5L 0.5 77.5ZM 0.5 0.318841L 0.5 77.5L 3.5 77.5L 3.5 0.318841L 0.5 0.318841Z"/><path id="path1_fill" fill-rule="evenodd" d="M 3 6C 4.65685 6 6 4.65685 6 3C 6 1.34315 4.65685 0 3 0C 1.34315 0 0 1.34315 0 3C 0 4.65685 1.34315 6 3 6Z"/><path id="path2_stroke" d="M 7 15C 11.4183 15 15 11.4183 15 7L 13 7C 13 10.3137 10.3137 13 7 13L 7 15ZM 15 7C 15 2.58172 11.4183 -1 7 -1L 7 1C 10.3137 1 13 3.68629 13 7L 15 7ZM 7 -1C 2.58172 -1 -1 2.58172 -1 7L 1 7C 1 3.68629 3.68629 1 7 1L 7 -1ZM -1 7C -1 11.4183 2.58172 15 7 15L 7 13C 3.68629 13 1 10.3137 1 7L -1 7Z"/><path id="path3_fill" fill-rule="evenodd" d="M 7 14C 10.866 14 14 10.866 14 7C 14 3.13401 10.866 0 7 0C 3.13401 0 0 3.13401 0 7C 0 10.866 3.13401 14 7 14Z"/></defs></svg>