<svg xmlns="http://www.w3.org/2000/svg" xmlns:xlink="http://www.w3.org/1999/xlink" width="1091" height="276" version="1.1" viewBox="0 0 1091 276"><title>chart</title><desc>Created using Figma</desc><g id="Canvas" transform="translate(-4895 -491)"><g id="chart"><g id="Line 2"><use fill="#FFF" transform="translate(4949 723)" xlink:href="#path0_stroke"/></g><g id="Group"><g id="Line 3 Copy 4"><use fill="#FFF" transform="translate(4932 626)" xlink:href="#path1_stroke"/></g><g id="Line 3 Copy 4"><use fill="#FFF" transform="translate(4932 724)" xlink:href="#path1_stroke"/></g><g id="Line 3 Copy 4" opacity=".247"><use fill="#FFF" transform="translate(4932 625)" xlink:href="#path2_stroke"/></g><g id="Line 3 Copy 4" opacity=".247"><use fill="#FFF" transform="translate(4932 533)" xlink:href="#path2_stroke"/></g><g id="Line 3 Copy 5"><use fill="#FFF" transform="translate(4932 534)" xlink:href="#path1_stroke"/></g><g id="2 500"><use fill="#FFF" transform="translate(4895 618)" xlink:href="#path3_fill"/></g><g id="0"><use fill="#FFF" transform="translate(4918 715)" xlink:href="#path4_fill"/></g><g id="5 000 copy"><use fill="#FFF" transform="translate(4895 527)" xlink:href="#path5_fill"/></g></g><g id="l"><use fill="#BBFF81" transform="translate(4945.5 679.364)" xlink:href="#path6_stroke"/></g><g id="Line 4"><use fill="#58CCEC" transform="translate(4944.5 669.126)" xlink:href="#path7_stroke"/></g><g id="Line 5"><use fill="#D66EBB" transform="translate(4946.5 531.492)" xlink:href="#path8_stroke"/></g><g id="Line 5"><use fill="#E67963" transform="translate(4946.5 492.853)" xlink:href="#path9_stroke"/></g><g id="Oval"><use fill="#FFF" transform="translate(5280 720)" xlink:href="#path10_fill"/></g><g id="Oval Copy 2"><use fill="#FFF" transform="translate(5618 720)" xlink:href="#path10_fill"/></g><g id="Oval Copy 3"><use fill="#FFF" transform="translate(5961 720)" xlink:href="#path10_fill"/></g><g id="2014"><use fill="#FFF" transform="translate(4926 751)" xlink:href="#path11_fill"/></g><g id="2015"><use fill="#FFF" transform="translate(5266 751)" xlink:href="#path12_fill"/></g><g id="2016"><use fill="#FFF" transform="translate(5607 751)" xlink:href="#path13_fill"/></g><g id="2017"><use fill="#FFF" transform="translate(5950 751)" xlink:href="#path14_fill"/></g><g id="Oval Copy"><use fill="#FFF" transform="translate(4941 720)" xlink:href="#path10_fill"/></g></g></g><defs><path id="path0_stroke" d="M 0.5 1L 0 1L 0 2L 0.5 2L 0.5 1ZM 1017.65 2L 1018.15 2L 1018.15 1L 1017.65 1L 1017.65 2ZM 0.5 2L 1017.65 2L 1017.65 1L 0.5 1L 0.5 2Z"/><path id="path1_stroke" d="M 8.625 1L 9.125 1L 9.125 0L 8.625 0L 8.625 1ZM 0.340979 0L -0.159021 0L -0.159021 1L 0.340979 1L 0.340979 0ZM 8.625 0L 0.340979 0L 0.340979 1L 8.625 1L 8.625 0Z"/><path id="path2_stroke" d="M 1033.13 2L 1033.63 2L 1033.63 1L 1033.13 1L 1033.13 2ZM 0.340979 1L -0.159021 1L -0.159021 2L 0.340979 2L 0.340979 1ZM 1033.13 1L 0.340979 1L 0.340979 2L 1033.13 2L 1033.13 1Z"/><path id="path3_fill" d="M 6.36914 11L 0.779297 11L 0.779297 10.2207L 3.73242 6.93945C 4.16992 6.44336 4.4707 6.04102 4.63477 5.73242C 4.80273 5.41992 4.88672 5.09766 4.88672 4.76562C 4.88672 4.32031 4.75195 3.95508 4.48242 3.66992C 4.21289 3.38477 3.85352 3.24219 3.4043 3.24219C 2.86523 3.24219 2.44531 3.39648 2.14453 3.70508C 1.84766 4.00977 1.69922 4.43555 1.69922 4.98242L 0.615234 4.98242C 0.615234 4.19727 0.867188 3.5625 1.37109 3.07812C 1.87891 2.59375 2.55664 2.35156 3.4043 2.35156C 4.19727 2.35156 4.82422 2.56055 5.28516 2.97852C 5.74609 3.39258 5.97656 3.94531 5.97656 4.63672C 5.97656 5.47656 5.44141 6.47656 4.37109 7.63672L 2.08594 10.1152L 6.36914 10.1152L 6.36914 11ZM 10.9922 6.72266L 11.4258 2.46875L 15.7969 2.46875L 15.7969 3.4707L 12.3457 3.4707L 12.0879 5.79688C 12.5059 5.55078 12.9805 5.42773 13.5117 5.42773C 14.2891 5.42773 14.9062 5.68555 15.3633 6.20117C 15.8203 6.71289 16.0488 7.40625 16.0488 8.28125C 16.0488 9.16016 15.8105 9.85352 15.334 10.3613C 14.8613 10.8652 14.1992 11.1172 13.3477 11.1172C 12.5938 11.1172 11.9785 10.9082 11.502 10.4902C 11.0254 10.0723 10.7539 9.49414 10.6875 8.75586L 11.7129 8.75586C 11.7793 9.24414 11.9531 9.61328 12.2344 9.86328C 12.5156 10.1094 12.8867 10.2324 13.3477 10.2324C 13.8516 10.2324 14.2461 10.0605 14.5312 9.7168C 14.8203 9.37305 14.9648 8.89844 14.9648 8.29297C 14.9648 7.72266 14.8086 7.26563 14.4961 6.92188C 14.1875 6.57422 13.7754 6.40039 13.2598 6.40039C 12.7871 6.40039 12.416 6.50391 12.1465 6.71094L 11.8594 6.94531L 10.9922 6.72266ZM 22.582 7.36133C 22.582 8.63086 22.3652 9.57422 21.9316 10.1914C 21.498 10.8086 20.8203 11.1172 19.8984 11.1172C 18.9883 11.1172 18.3145 10.8164 17.877 10.2148C 17.4395 9.60938 17.2129 8.70703 17.1973 7.50781L 17.1973 6.06055C 17.1973 4.80664 17.4141 3.875 17.8477 3.26562C 18.2812 2.65625 18.9609 2.35156 19.8867 2.35156C 20.8047 2.35156 21.4805 2.64648 21.9141 3.23633C 22.3477 3.82227 22.5703 4.72852 22.582 5.95508L 22.582 7.36133ZM 21.498 5.87891C 21.498 4.96094 21.3691 4.29297 21.1113 3.875C 20.8535 3.45312 20.4453 3.24219 19.8867 3.24219C 19.332 3.24219 18.9277 3.45117 18.6738 3.86914C 18.4199 4.28711 18.2891 4.92969 18.2812 5.79688L 18.2812 7.53125C 18.2812 8.45313 18.4141 9.13477 18.6797 9.57617C 18.9492 10.0137 19.3555 10.2324 19.8984 10.2324C 20.4336 10.2324 20.8301 10.0254 21.0879 9.61133C 21.3496 9.19727 21.4863 8.54492 21.498 7.6543L 21.498 5.87891ZM 29.3203 7.36133C 29.3203 8.63086 29.1035 9.57422 28.6699 10.1914C 28.2363 10.8086 27.5586 11.1172 26.6367 11.1172C 25.7266 11.1172 25.0527 10.8164 24.6152 10.2148C 24.1777 9.60938 23.9512 8.70703 23.9355 7.50781L 23.9355 6.06055C 23.9355 4.80664 24.1523 3.875 24.5859 3.26562C 25.0195 2.65625 25.6992 2.35156 26.625 2.35156C 27.543 2.35156 28.2188 2.64648 28.6523 3.23633C 29.0859 3.82227 29.3086 4.72852 29.3203 5.95508L 29.3203 7.36133ZM 28.2363 5.87891C 28.2363 4.96094 28.1074 4.29297 27.8496 3.875C 27.5918 3.45312 27.1836 3.24219 26.625 3.24219C 26.0703 3.24219 25.666 3.45117 25.4121 3.86914C 25.1582 4.28711 25.0273 4.92969 25.0195 5.79688L 25.0195 7.53125C 25.0195 8.45313 25.1523 9.13477 25.418 9.57617C 25.6875 10.0137 26.0938 10.2324 26.6367 10.2324C 27.1719 10.2324 27.5684 10.0254 27.8262 9.61133C 28.0879 9.19727 28.2246 8.54492 28.2363 7.6543L 28.2363 5.87891Z"/><path id="path4_fill" d="M 6.32031 7.36133C 6.32031 8.63086 6.10352 9.57422 5.66992 10.1914C 5.23633 10.8086 4.55859 11.1172 3.63672 11.1172C 2.72656 11.1172 2.05273 10.8164 1.61523 10.2148C 1.17773 9.60938 0.951172 8.70703 0.935547 7.50781L 0.935547 6.06055C 0.935547 4.80664 1.15234 3.875 1.58594 3.26562C 2.01953 2.65625 2.69922 2.35156 3.625 2.35156C 4.54297 2.35156 5.21875 2.64648 5.65234 3.23633C 6.08594 3.82227 6.30859 4.72852 6.32031 5.95508L 6.32031 7.36133ZM 5.23633 5.87891C 5.23633 4.96094 5.10742 4.29297 4.84961 3.875C 4.5918 3.45312 4.18359 3.24219 3.625 3.24219C 3.07031 3.24219 2.66602 3.45117 2.41211 3.86914C 2.1582 4.28711 2.02734 4.92969 2.01953 5.79688L 2.01953 7.53125C 2.01953 8.45313 2.15234 9.13477 2.41797 9.57617C 2.6875 10.0137 3.09375 10.2324 3.63672 10.2324C 4.17187 10.2324 4.56836 10.0254 4.82617 9.61133C 5.08789 9.19727 5.22461 8.54492 5.23633 7.6543L 5.23633 5.87891Z"/><path id="path5_fill" d="M 1.27734 6.72266L 1.71094 2.46875L 6.08203 2.46875L 6.08203 3.4707L 2.63086 3.4707L 2.37305 5.79688C 2.79102 5.55078 3.26562 5.42773 3.79688 5.42773C 4.57422 5.42773 5.19141 5.68555 5.64844 6.20117C 6.10547 6.71289 6.33398 7.40625 6.33398 8.28125C 6.33398 9.16016 6.0957 9.85352 5.61914 10.3613C 5.14648 10.8652 4.48437 11.1172 3.63281 11.1172C 2.87891 11.1172 2.26367 10.9082 1.78711 10.4902C 1.31055 10.0723 1.03906 9.49414 0.972656 8.75586L 1.99805 8.75586C 2.06445 9.24414 2.23828 9.61328 2.51953 9.86328C 2.80078 10.1094 3.17187 10.2324 3.63281 10.2324C 4.13672 10.2324 4.53125 10.0605 4.81641 9.7168C 5.10547 9.37305 5.25 8.89844 5.25 8.29297C 5.25 7.72266 5.09375 7.26563 4.78125 6.92188C 4.47266 6.57422 4.06055 6.40039 3.54492 6.40039C 3.07227 6.40039 2.70117 6.50391 2.43164 6.71094L 2.14453 6.94531L 1.27734 6.72266ZM 15.8438 7.36133C 15.8438 8.63086 15.627 9.57422 15.1934 10.1914C 14.7598 10.8086 14.082 11.1172 13.1602 11.1172C 12.25 11.1172 11.5762 10.8164 11.1387 10.2148C 10.7012 9.60938 10.4746 8.70703 10.459 7.50781L 10.459 6.06055C 10.459 4.80664 10.6758 3.875 11.1094 3.26562C 11.543 2.65625 12.2227 2.35156 13.1484 2.35156C 14.0664 2.35156 14.7422 2.64648 15.1758 3.23633C 15.6094 3.82227 15.832 4.72852 15.8438 5.95508L 15.8438 7.36133ZM 14.7598 5.87891C 14.7598 4.96094 14.6309 4.29297 14.373 3.875C 14.1152 3.45312 13.707 3.24219 13.1484 3.24219C 12.5938 3.24219 12.1895 3.45117 11.9355 3.86914C 11.6816 4.28711 11.5508 4.92969 11.543 5.79688L 11.543 7.53125C 11.543 8.45313 11.6758 9.13477 11.9414 9.57617C 12.2109 10.0137 12.6172 10.2324 13.1602 10.2324C 13.6953 10.2324 14.0918 10.0254 14.3496 9.61133C 14.6113 9.19727 14.748 8.54492 14.7598 7.6543L 14.7598 5.87891ZM 22.582 7.36133C 22.582 8.63086 22.3652 9.57422 21.9316 10.1914C 21.498 10.8086 20.8203 11.1172 19.8984 11.1172C 18.9883 11.1172 18.3145 10.8164 17.877 10.2148C 17.4395 9.60938 17.2129 8.70703 17.1973 7.50781L 17.1973 6.06055C 17.1973 4.80664 17.4141 3.875 17.8477 3.26562C 18.2812 2.65625 18.9609 2.35156 19.8867 2.35156C 20.8047 2.35156 21.4805 2.64648 21.9141 3.23633C 22.3477 3.82227 22.5703 4.72852 22.582 5.95508L 22.582 7.36133ZM 21.498 5.87891C 21.498 4.96094 21.3691 4.29297 21.1113 3.875C 20.8535 3.45312 20.4453 3.24219 19.8867 3.24219C 19.332 3.24219 18.9277 3.45117 18.6738 3.86914C 18.4199 4.28711 18.2891 4.92969 18.2812 5.79688L 18.2812 7.53125C 18.2812 8.45313 18.4141 9.13477 18.6797 9.57617C 18.9492 10.0137 19.3555 10.2324 19.8984 10.2324C 20.4336 10.2324 20.8301 10.0254 21.0879 9.61133C 21.3496 9.19727 21.4863 8.54492 21.498 7.6543L 21.498 5.87891ZM 29.3203 7.36133C 29.3203 8.63086 29.1035 9.57422 28.6699 10.1914C 28.2363 10.8086 27.5586 11.1172 26.6367 11.1172C 25.7266 11.1172 25.0527 10.8164 24.6152 10.2148C 24.1777 9.60938 23.9512 8.70703 23.9355 7.50781L 23.9355 6.06055C 23.9355 4.80664 24.1523 3.875 24.5859 3.26562C 25.0195 2.65625 25.6992 2.35156 26.625 2.35156C 27.543 2.35156 28.2188 2.64648 28.6523 3.23633C 29.0859 3.82227 29.3086 4.72852 29.3203 5.95508L 29.3203 7.36133ZM 28.2363 5.87891C 28.2363 4.96094 28.1074 4.29297 27.8496 3.875C 27.5918 3.45312 27.1836 3.24219 26.625 3.24219C 26.0703 3.24219 25.666 3.45117 25.4121 3.86914C 25.1582 4.28711 25.0273 4.92969 25.0195 5.79688L 25.0195 7.53125C 25.0195 8.45313 25.1523 9.13477 25.418 9.57617C 25.6875 10.0137 26.0938 10.2324 26.6367 10.2324C 27.1719 10.2324 27.5684 10.0254 27.8262 9.61133C 28.0879 9.19727 28.2246 8.54492 28.2363 7.6543L 28.2363 5.87891Z"/><path id="path6_stroke" d="M -0.00969381 42.1362C -0.561953 42.1415 -1.00531 42.5935 -0.999953 43.1458C -0.994599 43.6981 -0.542565 44.1414 0.00969381 44.1361L -0.00969381 42.1362ZM 338.096 39.8585L 338.105 40.8585L 338.111 40.8584L 338.096 39.8585ZM 679.686 34.5108L 679.701 35.5107C 679.73 35.5102 679.758 35.5086 679.786 35.5057L 679.686 34.5108ZM 1020.97 0.994923C 1021.52 0.939343 1021.92 0.448845 1021.87 -0.100636C 1021.81 -0.650117 1021.32 -1.0505 1020.77 -0.994923L 1020.97 0.994923ZM 0.00969381 44.1361L 338.105 40.8585L 338.086 38.8586L -0.00969381 42.1362L 0.00969381 44.1361ZM 338.111 40.8584L 679.701 35.5107L 679.67 33.5109L 338.08 38.8586L 338.111 40.8584ZM 679.786 35.5057L 1020.97 0.994923L 1020.77 -0.994923L 679.585 33.5159L 679.786 35.5057Z"/><path id="path7_stroke" d="M -0.044258 53.3751C -0.596002 53.3995 -1.02346 53.8666 -0.99902 54.4184C -0.974577 54.9701 -0.507486 55.3976 0.044258 55.3731L -0.044258 53.3751ZM 343.466 39.1581L 343.433 38.1586L 343.422 38.1591L 343.466 39.1581ZM 683.203 27.8741L 683.236 28.8735C 683.253 28.873 683.269 28.8721 683.285 28.8707L 683.203 27.8741ZM 1021.95 0.99663C 1022.5 0.951327 1022.91 0.468396 1022.87 -0.0820279C 1022.82 -0.632451 1022.34 -1.04193 1021.79 -0.99663L 1021.95 0.99663ZM 0.044258 55.3731L 343.51 40.1571L 343.422 38.1591L -0.044258 53.3751L 0.044258 55.3731ZM 343.499 40.1575L 683.236 28.8735L 683.17 26.8746L 343.433 38.1586L 343.499 40.1575ZM 683.285 28.8707L 1021.95 0.99663L 1021.79 -0.99663L 683.121 26.8775L 683.285 28.8707Z"/><path id="path8_stroke" d="M -0.156142 192.02C -0.701653 192.106 -1.07397 192.618 -0.987735 193.164C -0.9015 193.709 -0.389369 194.082 0.156142 193.995L -0.156142 192.02ZM 344.76 138.508L 344.648 137.514C 344.633 137.516 344.618 137.518 344.604 137.52L 344.76 138.508ZM 677.867 100.902L 677.979 101.895C 678.037 101.889 678.094 101.877 678.15 101.861L 677.867 100.902ZM 1020.15 0.959128C 1020.68 0.802846 1020.99 0.246739 1020.83 -0.282973C 1020.67 -0.812684 1020.12 -1.11541 1019.59 -0.959128L 1020.15 0.959128ZM 0.156142 193.995L 344.916 139.495L 344.604 137.52L -0.156142 192.02L 0.156142 193.995ZM 344.872 139.501L 677.979 101.895L 677.755 99.9079L 344.648 137.514L 344.872 139.501ZM 678.15 101.861L 1020.15 0.959128L 1019.59 -0.959128L 677.584 99.9425L 678.15 101.861Z"/><path id="path9_stroke" d="M -0.117751 230.654C -0.666194 230.719 -1.05808 231.216 -0.993043 231.765C -0.928011 232.313 -0.430691 232.705 0.117751 232.64L -0.117751 230.654ZM 349.866 190.161L 349.983 191.155C 350.009 191.152 350.034 191.148 350.059 191.143L 349.866 190.161ZM 676.501 125.84L 676.694 126.821C 676.746 126.811 676.796 126.797 676.845 126.779L 676.501 125.84ZM 1020.21 0.938931C 1020.73 0.748887 1021 0.174452 1020.81 -0.344105C 1020.62 -0.862662 1020.04 -1.12898 1019.53 -0.938931L 1020.21 0.938931ZM 0.117751 232.64L 349.983 191.155L 349.748 189.168L -0.117751 230.654L 0.117751 232.64ZM 350.059 191.143L 676.694 126.821L 676.308 124.859L 349.672 189.18L 350.059 191.143ZM 676.845 126.779L 1020.21 0.938931L 1019.53 -0.938931L 676.157 124.901L 676.845 126.779Z"/><path id="path10_fill" fill-rule="evenodd" d="M 4.5 9C 6.98528 9 9 6.98528 9 4.5C 9 2.01472 6.98528 0 4.5 0C 2.01472 0 0 2.01472 0 4.5C 0 6.98528 2.01472 9 4.5 9Z"/><path id="path11_fill" d="M 8.46094 15L 1.00781 15L 1.00781 13.9609L 4.94531 9.58594C 5.52865 8.92448 5.92969 8.38802 6.14844 7.97656C 6.3724 7.5599 6.48438 7.13021 6.48438 6.6875C 6.48438 6.09375 6.30469 5.60677 5.94531 5.22656C 5.58594 4.84635 5.10677 4.65625 4.50781 4.65625C 3.78906 4.65625 3.22917 4.86198 2.82812 5.27344C 2.43229 5.67969 2.23438 6.2474 2.23438 6.97656L 0.789062 6.97656C 0.789062 5.92969 1.125 5.08333 1.79688 4.4375C 2.47396 3.79167 3.3776 3.46875 4.50781 3.46875C 5.5651 3.46875 6.40104 3.7474 7.01562 4.30469C 7.63021 4.85677 7.9375 5.59375 7.9375 6.51562C 7.9375 7.63542 7.22396 8.96875 5.79688 10.5156L 2.75 13.8203L 8.46094 13.8203L 8.46094 15ZM 17.125 10.1484C 17.125 11.8411 16.8359 13.099 16.2578 13.9219C 15.6797 14.7448 14.776 15.1562 13.5469 15.1562C 12.3333 15.1562 11.4349 14.7552 10.8516 13.9531C 10.2682 13.1458 9.96615 11.9427 9.94531 10.3438L 9.94531 8.41406C 9.94531 6.74219 10.2344 5.5 10.8125 4.6875C 11.3906 3.875 12.2969 3.46875 13.5312 3.46875C 14.7552 3.46875 15.6562 3.86198 16.2344 4.64844C 16.8125 5.42969 17.1094 6.63802 17.125 8.27344L 17.125 10.1484ZM 15.6797 8.17188C 15.6797 6.94792 15.5078 6.05729 15.1641 5.5C 14.8203 4.9375 14.276 4.65625 13.5312 4.65625C 12.7917 4.65625 12.2526 4.9349 11.9141 5.49219C 11.5755 6.04948 11.401 6.90625 11.3906 8.0625L 11.3906 10.375C 11.3906 11.6042 11.5677 12.513 11.9219 13.1016C 12.2812 13.6849 12.8229 13.9766 13.5469 13.9766C 14.2604 13.9766 14.7891 13.7005 15.1328 13.1484C 15.4818 12.5964 15.6641 11.7266 15.6797 10.5391L 15.6797 8.17188ZM 23.7266 15L 22.2734 15L 22.2734 5.36719L 19.3594 6.4375L 19.3594 5.125L 23.5 3.57031L 23.7266 3.57031L 23.7266 15ZM 34.0625 11.1797L 35.6406 11.1797L 35.6406 12.3594L 34.0625 12.3594L 34.0625 15L 32.6094 15L 32.6094 12.3594L 27.4297 12.3594L 27.4297 11.5078L 32.5234 3.625L 34.0625 3.625L 34.0625 11.1797ZM 29.0703 11.1797L 32.6094 11.1797L 32.6094 5.60156L 32.4375 5.91406L 29.0703 11.1797Z"/><path id="path12_fill" d="M 8.46094 15L 1.00781 15L 1.00781 13.9609L 4.94531 9.58594C 5.52865 8.92448 5.92969 8.38802 6.14844 7.97656C 6.3724 7.5599 6.48438 7.13021 6.48438 6.6875C 6.48438 6.09375 6.30469 5.60677 5.94531 5.22656C 5.58594 4.84635 5.10677 4.65625 4.50781 4.65625C 3.78906 4.65625 3.22917 4.86198 2.82812 5.27344C 2.43229 5.67969 2.23438 6.2474 2.23438 6.97656L 0.789062 6.97656C 0.789062 5.92969 1.125 5.08333 1.79688 4.4375C 2.47396 3.79167 3.3776 3.46875 4.50781 3.46875C 5.5651 3.46875 6.40104 3.7474 7.01562 4.30469C 7.63021 4.85677 7.9375 5.59375 7.9375 6.51562C 7.9375 7.63542 7.22396 8.96875 5.79688 10.5156L 2.75 13.8203L 8.46094 13.8203L 8.46094 15ZM 17.125 10.1484C 17.125 11.8411 16.8359 13.099 16.2578 13.9219C 15.6797 14.7448 14.776 15.1562 13.5469 15.1562C 12.3333 15.1562 11.4349 14.7552 10.8516 13.9531C 10.2682 13.1458 9.96615 11.9427 9.94531 10.3438L 9.94531 8.41406C 9.94531 6.74219 10.2344 5.5 10.8125 4.6875C 11.3906 3.875 12.2969 3.46875 13.5312 3.46875C 14.7552 3.46875 15.6562 3.86198 16.2344 4.64844C 16.8125 5.42969 17.1094 6.63802 17.125 8.27344L 17.125 10.1484ZM 15.6797 8.17188C 15.6797 6.94792 15.5078 6.05729 15.1641 5.5C 14.8203 4.9375 14.276 4.65625 13.5312 4.65625C 12.7917 4.65625 12.2526 4.9349 11.9141 5.49219C 11.5755 6.04948 11.401 6.90625 11.3906 8.0625L 11.3906 10.375C 11.3906 11.6042 11.5677 12.513 11.9219 13.1016C 12.2812 13.6849 12.8229 13.9766 13.5469 13.9766C 14.2604 13.9766 14.7891 13.7005 15.1328 13.1484C 15.4818 12.5964 15.6641 11.7266 15.6797 10.5391L 15.6797 8.17188ZM 23.7266 15L 22.2734 15L 22.2734 5.36719L 19.3594 6.4375L 19.3594 5.125L 23.5 3.57031L 23.7266 3.57031L 23.7266 15ZM 28.625 9.29688L 29.2031 3.625L 35.0312 3.625L 35.0312 4.96094L 30.4297 4.96094L 30.0859 8.0625C 30.6432 7.73438 31.276 7.57031 31.9844 7.57031C 33.0208 7.57031 33.8438 7.91406 34.4531 8.60156C 35.0625 9.28385 35.3672 10.2083 35.3672 11.375C 35.3672 12.5469 35.0495 13.4714 34.4141 14.1484C 33.7839 14.8203 32.901 15.1562 31.7656 15.1562C 30.7604 15.1562 29.9401 14.8776 29.3047 14.3203C 28.6693 13.763 28.3073 12.9922 28.2188 12.0078L 29.5859 12.0078C 29.6745 12.6589 29.9062 13.151 30.2812 13.4844C 30.6562 13.8125 31.151 13.9766 31.7656 13.9766C 32.4375 13.9766 32.9635 13.7474 33.3438 13.2891C 33.7292 12.8307 33.9219 12.1979 33.9219 11.3906C 33.9219 10.6302 33.7135 10.0208 33.2969 9.5625C 32.8854 9.09896 32.3359 8.86719 31.6484 8.86719C 31.0182 8.86719 30.5234 9.00521 30.1641 9.28125L 29.7812 9.59375L 28.625 9.29688Z"/><path id="path13_fill" d="M 8.46094 15L 1.00781 15L 1.00781 13.9609L 4.94531 9.58594C 5.52865 8.92448 5.92969 8.38802 6.14844 7.97656C 6.3724 7.5599 6.48438 7.13021 6.48438 6.6875C 6.48438 6.09375 6.30469 5.60677 5.94531 5.22656C 5.58594 4.84635 5.10677 4.65625 4.50781 4.65625C 3.78906 4.65625 3.22917 4.86198 2.82812 5.27344C 2.43229 5.67969 2.23438 6.2474 2.23438 6.97656L 0.789062 6.97656C 0.789062 5.92969 1.125 5.08333 1.79688 4.4375C 2.47396 3.79167 3.3776 3.46875 4.50781 3.46875C 5.5651 3.46875 6.40104 3.7474 7.01562 4.30469C 7.63021 4.85677 7.9375 5.59375 7.9375 6.51562C 7.9375 7.63542 7.22396 8.96875 5.79688 10.5156L 2.75 13.8203L 8.46094 13.8203L 8.46094 15ZM 17.125 10.1484C 17.125 11.8411 16.8359 13.099 16.2578 13.9219C 15.6797 14.7448 14.776 15.1562 13.5469 15.1562C 12.3333 15.1562 11.4349 14.7552 10.8516 13.9531C 10.2682 13.1458 9.96615 11.9427 9.94531 10.3438L 9.94531 8.41406C 9.94531 6.74219 10.2344 5.5 10.8125 4.6875C 11.3906 3.875 12.2969 3.46875 13.5312 3.46875C 14.7552 3.46875 15.6562 3.86198 16.2344 4.64844C 16.8125 5.42969 17.1094 6.63802 17.125 8.27344L 17.125 10.1484ZM 15.6797 8.17188C 15.6797 6.94792 15.5078 6.05729 15.1641 5.5C 14.8203 4.9375 14.276 4.65625 13.5312 4.65625C 12.7917 4.65625 12.2526 4.9349 11.9141 5.49219C 11.5755 6.04948 11.401 6.90625 11.3906 8.0625L 11.3906 10.375C 11.3906 11.6042 11.5677 12.513 11.9219 13.1016C 12.2812 13.6849 12.8229 13.9766 13.5469 13.9766C 14.2604 13.9766 14.7891 13.7005 15.1328 13.1484C 15.4818 12.5964 15.6641 11.7266 15.6797 10.5391L 15.6797 8.17188ZM 23.7266 15L 22.2734 15L 22.2734 5.36719L 19.3594 6.4375L 19.3594 5.125L 23.5 3.57031L 23.7266 3.57031L 23.7266 15ZM 33.6328 3.61719L 33.6328 4.84375L 33.3672 4.84375C 32.2422 4.86458 31.3464 5.19792 30.6797 5.84375C 30.013 6.48958 29.6276 7.39844 29.5234 8.57031C 30.1224 7.88281 30.9401 7.53906 31.9766 7.53906C 32.9661 7.53906 33.7552 7.88802 34.3438 8.58594C 34.9375 9.28385 35.2344 10.1849 35.2344 11.2891C 35.2344 12.4609 34.9141 13.3984 34.2734 14.1016C 33.638 14.8047 32.7839 15.1562 31.7109 15.1562C 30.6224 15.1562 29.7396 14.7396 29.0625 13.9062C 28.3854 13.0677 28.0469 11.9896 28.0469 10.6719L 28.0469 10.1172C 28.0469 8.02344 28.4922 6.42448 29.3828 5.32031C 30.2786 4.21094 31.6094 3.64323 33.375 3.61719L 33.6328 3.61719ZM 31.7344 8.74219C 31.2396 8.74219 30.7839 8.89062 30.3672 9.1875C 29.9505 9.48438 29.6615 9.85677 29.5 10.3047L 29.5 10.8359C 29.5 11.7734 29.7109 12.5286 30.1328 13.1016C 30.5547 13.6745 31.0807 13.9609 31.7109 13.9609C 32.362 13.9609 32.8724 13.7214 33.2422 13.2422C 33.6172 12.763 33.8047 12.1354 33.8047 11.3594C 33.8047 10.5781 33.6146 9.94792 33.2344 9.46875C 32.8594 8.98438 32.3594 8.74219 31.7344 8.74219Z"/><path id="path14_fill" d="M 8.46094 15L 1.00781 15L 1.00781 13.9609L 4.94531 9.58594C 5.52865 8.92448 5.92969 8.38802 6.14844 7.97656C 6.3724 7.5599 6.48438 7.13021 6.48438 6.6875C 6.48438 6.09375 6.30469 5.60677 5.94531 5.22656C 5.58594 4.84635 5.10677 4.65625 4.50781 4.65625C 3.78906 4.65625 3.22917 4.86198 2.82812 5.27344C 2.43229 5.67969 2.23438 6.2474 2.23438 6.97656L 0.789062 6.97656C 0.789062 5.92969 1.125 5.08333 1.79688 4.4375C 2.47396 3.79167 3.3776 3.46875 4.50781 3.46875C 5.5651 3.46875 6.40104 3.7474 7.01562 4.30469C 7.63021 4.85677 7.9375 5.59375 7.9375 6.51562C 7.9375 7.63542 7.22396 8.96875 5.79688 10.5156L 2.75 13.8203L 8.46094 13.8203L 8.46094 15ZM 17.125 10.1484C 17.125 11.8411 16.8359 13.099 16.2578 13.9219C 15.6797 14.7448 14.776 15.1562 13.5469 15.1562C 12.3333 15.1562 11.4349 14.7552 10.8516 13.9531C 10.2682 13.1458 9.96615 11.9427 9.94531 10.3438L 9.94531 8.41406C 9.94531 6.74219 10.2344 5.5 10.8125 4.6875C 11.3906 3.875 12.2969 3.46875 13.5312 3.46875C 14.7552 3.46875 15.6562 3.86198 16.2344 4.64844C 16.8125 5.42969 17.1094 6.63802 17.125 8.27344L 17.125 10.1484ZM 15.6797 8.17188C 15.6797 6.94792 15.5078 6.05729 15.1641 5.5C 14.8203 4.9375 14.276 4.65625 13.5312 4.65625C 12.7917 4.65625 12.2526 4.9349 11.9141 5.49219C 11.5755 6.04948 11.401 6.90625 11.3906 8.0625L 11.3906 10.375C 11.3906 11.6042 11.5677 12.513 11.9219 13.1016C 12.2812 13.6849 12.8229 13.9766 13.5469 13.9766C 14.2604 13.9766 14.7891 13.7005 15.1328 13.1484C 15.4818 12.5964 15.6641 11.7266 15.6797 10.5391L 15.6797 8.17188ZM 23.7266 15L 22.2734 15L 22.2734 5.36719L 19.3594 6.4375L 19.3594 5.125L 23.5 3.57031L 23.7266 3.57031L 23.7266 15ZM 35.3047 4.4375L 30.5938 15L 29.0781 15L 33.7734 4.8125L 27.6172 4.8125L 27.6172 3.625L 35.3047 3.625L 35.3047 4.4375Z"/></defs></svg>