<svg xmlns="http://www.w3.org/2000/svg" xmlns:xlink="http://www.w3.org/1999/xlink" width="39" height="54" version="1.1" viewBox="0 0 39 54"><title>vendors</title><desc>Created using Figma</desc><g id="Canvas" transform="translate(-4945 -227)"><g id="vendors"><g id="Shape"><use fill="#FFF" transform="translate(4945 227)" xlink:href="#path0_fill"/></g></g></g><defs><path id="path0_fill" fill-rule="evenodd" d="M 34.4814 37.4839C 33.645 36.9379 32.9727 36.679 32.813 36.6214L 27.9634 34.5873L 24.5439 32.3164C 24.5107 32.2944 24.4766 32.2762 24.4419 32.2594L 24.4419 30.788C 27.0239 29.4907 28.8945 26.9682 29.2979 23.9815C 31.3799 23.8119 33.0225 22.0538 33.0225 19.9157C 33.0225 18.8578 32.6206 17.8927 31.9619 17.167L 31.9619 11.9454C 31.9624 5.35857 26.6377 0 20.0933 0L 19.1743 0C 12.6304 0 7.30615 5.35857 7.30615 11.9451L 7.30615 17.1084C 6.61572 17.8404 6.19043 18.8287 6.19043 19.9154C 6.19043 22.0535 7.8335 23.8116 9.91504 23.9812C 10.3188 26.9679 12.1895 29.4904 14.7715 30.7877L 14.7715 32.1638L 11.2075 34.5307C 11.1592 34.5415 11.1108 34.5558 11.064 34.5756L 6.18701 36.6209C 5.94336 36.7087 4.51025 37.263 3.0874 38.6153C 1.67871 39.9539 0 42.3624 0 46.2355L 0 53.1421C 0 53.6157 0.381348 53.9997 0.852051 53.9997L 10.915 53.9997C 11.3853 53.9997 11.7666 53.616 11.7666 53.1423C 11.7666 52.6688 11.3853 52.285 10.915 52.285L 8.29053 52.285L 8.29053 45.9215C 8.29053 45.4479 7.90918 45.0641 7.43896 45.0641C 6.96826 45.0641 6.58691 45.4478 6.58691 45.9215L 6.58691 52.285L 1.7041 52.285L 1.7041 46.2357C 1.7041 40.0592 6.56055 38.305 6.76416 38.2344C 6.7832 38.2278 6.80176 38.2209 6.82031 38.2131L 10.8828 36.5093L 15.2734 52.2851L 13.5811 52.2851C 13.1104 52.2851 12.729 52.6688 12.729 53.1424C 12.729 53.6161 13.1104 53.9998 13.5811 53.9998L 16.3936 53.9998L 16.3999 53.9998L 22.8169 53.9998L 22.8286 53.9998L 22.8345 53.9998L 38.1479 53.9998C 38.6187 53.9998 39 53.6142 39 53.1407L 39 46.2356C 39 41.1894 36.1694 38.5865 34.4814 37.4839ZM 26.5879 35.7279L 24.022 41.0356L 20.8389 38.678L 24.2041 35.1626C 24.3906 34.9675 24.4668 34.7063 24.4346 34.4571C 24.439 34.4214 24.4424 34.3851 24.4424 34.3481L 24.4424 34.3032L 26.5879 35.7279ZM 20.7422 43.0252L 21.4116 41.2312L 19.543 39.8471L 17.6948 41.216L 18.4478 43.0252L 20.7422 43.0252ZM 16.4624 34.4919C 16.4702 34.4451 16.4756 34.3972 16.4756 34.3479L 16.4756 32.6343L 16.4756 31.4344C 17.1968 31.625 17.9536 31.7274 18.7339 31.7274L 20.48 31.7274C 21.2603 31.7274 22.0166 31.625 22.7383 31.4344L 22.7383 34.2218L 19.5669 37.535L 16.4624 34.4919ZM 29.3823 22.2423C 30.4814 22.0447 31.3193 21.0777 31.3193 19.9155C 31.3193 18.7532 30.4814 17.7859 29.3823 17.5885L 29.3823 22.2423ZM 9.83154 22.2423C 8.73242 22.0447 7.89453 21.0778 7.89453 19.9155C 7.89453 18.7531 8.73242 17.7859 9.83154 17.5883L 9.83154 22.2423ZM 10.6831 15.0106L 10.687 15.0106C 10.8223 15.0106 19.0596 14.9599 22.8486 9.6884C 23.0449 9.41524 23.3818 9.28308 23.7095 9.35091C 24.0376 9.41829 24.2959 9.6729 24.3696 10.0014C 24.3789 10.0424 25.3848 14.2686 28.7188 15.0318L 28.7417 15.0382C 28.7598 15.0429 28.7773 15.0476 28.7954 15.0534L 28.8257 15.0647C 28.8418 15.0707 28.8574 15.0765 28.873 15.0834L 28.9077 15.1002L 28.9463 15.1202L 28.9834 15.1429L 29.0156 15.1638L 29.0518 15.1913L 29.0806 15.2142L 29.1138 15.2444L 29.1411 15.2712L 29.1685 15.3018L 29.1958 15.3343L 29.2178 15.3638L 29.2446 15.4023L 29.2617 15.4307L 29.2861 15.4743L 29.2998 15.5029L 29.3203 15.5491L 29.332 15.5815L 29.3472 15.6264L 29.3569 15.666C 29.3604 15.6794 29.3638 15.6927 29.3662 15.7063L 29.3735 15.7552L 29.3779 15.7888L 29.3809 15.8452L 29.3813 15.8558C 29.6846 15.8869 29.978 15.9529 30.2583 16.0479L 30.2583 11.9453C 30.2583 6.30421 25.6982 1.71483 20.0928 1.71483L 19.1743 1.71483C 13.5693 1.71483 9.00977 6.30421 9.00977 11.945L 9.00977 16.0287C 9.27344 15.9437 9.54785 15.8845 9.83154 15.8555L 9.83252 15.8333L 9.8335 15.8187L 9.83447 15.8026L 9.83594 15.7784C 9.83691 15.7664 9.83887 15.7547 9.84082 15.743L 9.84277 15.7316L 9.84863 15.6936C 9.85205 15.6779 9.85645 15.6625 9.86084 15.6471L 9.86328 15.6379C 9.86523 15.6291 9.86719 15.6202 9.87012 15.6117L 9.88037 15.5823L 9.88623 15.5675L 9.89844 15.5331L 9.91016 15.5083L 9.91797 15.4926L 9.93457 15.4582L 9.94873 15.4342L 9.95654 15.4216L 9.96338 15.4099L 9.97705 15.3876L 10.001 15.3555L 10.0264 15.3216L 10.0522 15.2932C 10.0615 15.2824 10.0713 15.2712 10.0815 15.2609L 10.0981 15.2455L 10.1084 15.2362L 10.1187 15.2267L 10.1421 15.2057L 10.1587 15.1931L 10.1685 15.1858L 10.1821 15.1754L 10.2075 15.1566L 10.2349 15.1398L 10.2456 15.1332C 10.2559 15.1265 10.2666 15.1198 10.2778 15.1137L 10.3066 15.0997L 10.3169 15.0947L 10.3521 15.0778L 10.3789 15.0678L 10.3896 15.0641L 10.4043 15.0586L 10.4302 15.0492L 10.4614 15.0409L 10.4756 15.0374L 10.5117 15.0281C 10.5283 15.0247 10.5454 15.0224 10.5625 15.0201L 10.5698 15.0191L 10.5962 15.015C 10.625 15.0121 10.6538 15.0106 10.6831 15.0106ZM 11.5352 22.7683L 11.5352 16.6954C 13.7134 16.5608 19.5 15.8313 23.2222 11.91C 23.8643 13.4302 25.1938 15.6501 27.6782 16.5128L 27.6782 22.7683C 27.6782 26.7629 24.4492 30.0128 20.4805 30.0128L 18.7339 30.0128C 14.7642 30.0127 11.5352 26.7628 11.5352 22.7683ZM 14.7715 34.3481L 14.7715 34.2183L 12.4985 35.728L 15.0645 41.0357L 18.272 38.6597L 15.0288 35.4807C 14.7905 35.247 14.7183 34.9073 14.812 34.6083C 14.7861 34.5263 14.7715 34.4389 14.7715 34.3481ZM 16.1729 49.1587L 14.502 43.1562L 14.5161 43.1608L 14.5415 43.1684C 14.6094 43.1851 14.6772 43.1933 14.7456 43.1933C 14.9258 43.1933 15.103 43.1359 15.2505 43.0265L 16.2832 42.2618L 17.0015 43.988L 16.1729 49.1587ZM 18.6064 44.74L 17.397 52.2853L 21.8164 52.2853L 20.6069 44.74L 18.6064 44.74ZM 22.2095 43.9709L 22.8374 42.2874L 23.8354 43.0266C 23.9834 43.136 24.1606 43.1934 24.3403 43.1934C 24.4087 43.1934 24.4771 43.1852 24.5444 43.1685C 24.6152 43.1509 24.6821 43.1236 24.7451 43.0894L 23.0464 49.1916L 22.2095 43.9709ZM 32.4131 52.2853L 37.2964 52.2853L 37.2964 46.2359C 37.2964 42.2119 35.2612 40.0377 33.5537 38.9222C 32.8081 38.4355 32.2388 38.2356 32.2329 38.2335L 32.1797 38.2132L 28.3218 36.5951L 23.9546 52.2853L 30.709 52.2853L 30.709 45.9218C 30.709 45.4482 31.0903 45.0645 31.561 45.0645C 32.0317 45.0645 32.4131 45.4482 32.4131 45.9218L 32.4131 52.2853Z"/></defs></svg>