<svg xmlns="http://www.w3.org/2000/svg" xmlns:xlink="http://www.w3.org/1999/xlink" width="59" height="55" version="1.1" viewBox="0 0 59 55"><title>apartaments</title><desc>Created using Figma</desc><g id="Canvas" transform="translate(-5251 -226)"><g id="apartaments"><g id="Oval"><use fill="#FFF" transform="translate(5305 268)" xlink:href="#path0_fill"/></g><g id="Oval"><use fill="#FFF" transform="translate(5297 268)" xlink:href="#path0_fill"/></g><g id="Oval"><use fill="#FFF" transform="translate(5288 268)" xlink:href="#path0_fill"/></g><g id="Shape"><use fill="#FFF" transform="translate(5285 250)" xlink:href="#path1_fill"/></g><g id="Shape"><use fill="#FFF" transform="translate(5263 246)" xlink:href="#path2_fill"/></g><g id="Shape"><use fill="#FFF" transform="translate(5251 226)" xlink:href="#path3_fill"/></g></g></g><defs><path id="path0_fill" d="M 0.5 1C 0.776142 1 1 0.776142 1 0.5C 1 0.223858 0.776142 0 0.5 0C 0.223858 0 0 0.223858 0 0.5C 0 0.776142 0.223858 1 0.5 1Z"/><path id="path1_fill" fill-rule="evenodd" d="M 16.1709 7.83722L 16.0645 7.83722L 16.0645 0.851624C 16.0645 0.381302 15.6934 0 15.2358 0L 1.76465 0C 1.30664 0 0.935547 0.381302 0.935547 0.851624L 0.935547 7.83722L 0.829102 7.83722C 0.371094 7.83722 0 8.21854 0 8.68884L 0 12.1484C 0 12.6187 0.371094 13 0.829102 13L 16.1709 13C 16.6289 13 17 12.6187 17 12.1484L 17 8.68884C 17 8.21854 16.6289 7.83722 16.1709 7.83722ZM 2.59326 1.70337L 14.4067 1.70337L 14.4067 7.83734L 2.59326 7.83734L 2.59326 1.70337ZM 1.65771 11.2968L 15.3423 11.2968L 15.3423 9.54047L 15.2354 9.54047L 1.76416 9.54047L 1.65771 9.54047L 1.65771 11.2968Z"/><path id="path2_fill" fill-rule="evenodd" d="M 10.1206 7.83722L 10.0073 7.83722L 10.0073 0.851624C 10.0073 0.381302 9.61377 0 9.12793 0L 1.87207 0C 1.38623 0 0.992676 0.381302 0.992676 0.851624L 0.992676 7.83722L 0.879395 7.83722C 0.393555 7.83722 0 8.21852 0 8.68884L 0 12.1484C 0 12.6187 0.393555 13 0.879395 13L 10.1206 13C 10.6064 13 11 12.6187 11 12.1484L 11 8.68884C 11 8.21852 10.6064 7.83722 10.1206 7.83722ZM 2.75146 1.70325L 8.24805 1.70325L 8.24805 7.83722L 2.75146 7.83722L 2.75146 1.70325ZM 1.75928 11.2968L 9.24121 11.2968L 9.24121 9.54047L 9.12793 9.54047L 1.87256 9.54047L 1.75928 9.54047L 1.75928 11.2968Z"/><path id="path3_fill" fill-rule="evenodd" d="M 58.5342 39.641L 56.188 38.42L 56.188 21.3922L 57.7339 21.3922C 58.0298 21.3922 58.3052 21.2403 58.4639 20.9897C 58.6221 20.7391 58.6416 20.4246 58.5156 20.1562L 53.7559 10.0359C 53.6133 9.73256 53.3086 9.53905 52.9741 9.53905L 46.1763 9.53905L 46.1763 5.32501L 46.5103 5.32501C 46.9878 5.32501 47.3745 4.93709 47.3745 4.4586L 47.3745 0.866425C 47.3745 0.387924 46.9878 0 46.5103 0L 38.1123 0C 37.6348 0 37.248 0.387924 37.248 0.866425L 37.248 4.4586C 37.248 4.93709 37.6348 5.32501 38.1123 5.32501L 38.4468 5.32501L 38.4468 9.53905L 21.0957 9.53905L 19.269 7.94069C 18.1895 6.99513 16.5601 6.99501 15.4795 7.94069L 13.6528 9.53917L 7.17383 9.53917C 6.83887 9.53917 6.53467 9.73279 6.39209 10.036L 1.70947 19.9922L 0.295898 21.2291C -0.0634766 21.5438 -0.100586 22.0912 0.213379 22.4517L 2.86621 25.4984C 3.0166 25.6712 3.22949 25.7771 3.45801 25.793L 3.45801 54.1336C 3.45801 54.6121 3.84473 55 4.32227 55L 58.1357 55C 58.6133 55 59 54.6121 59 54.1336L 59 40.4099C 59 40.0865 58.8203 39.79 58.5342 39.641ZM 38.9766 1.73283L 45.646 1.73283L 45.646 3.59218L 38.9766 3.59218L 38.9766 1.73283ZM 44.4478 11.7951L 44.4478 5.32501L 40.1753 5.32501L 40.1753 11.7951L 44.4478 11.7951ZM 7.72168 11.2719L 11.6733 11.2719L 4.95752 17.1495L 7.72168 11.2719ZM 21.0503 53.267L 21.0503 37.8616L 13.6982 37.8616L 13.6982 53.267L 21.0503 53.267ZM 29.562 53.267L 22.7788 53.267L 22.7788 36.9952C 22.7788 36.5167 22.3921 36.1288 21.9146 36.1288L 12.834 36.1288C 12.3564 36.1288 11.9697 36.5167 11.9697 36.9952L 11.9697 53.267L 5.18652 53.267L 5.18652 24.6176L 17.374 13.9511L 29.562 24.6176L 29.562 53.267ZM 16.8057 12.1483C 17.1313 11.8633 17.6167 11.8633 17.9424 12.1483L 31.1479 23.7059L 32.6646 21.9648L 27.623 17.5523C 27.2632 17.2375 27.2261 16.6903 27.54 16.3297C 27.8545 15.9693 28.4004 15.9323 28.7598 16.2469L 32.6587 19.6593L 56.3706 19.6593L 52.4258 11.2719L 46.1758 11.2719L 46.1758 12.6615C 46.1758 13.14 45.7891 13.5279 45.3115 13.5279L 39.3105 13.5279C 38.833 13.5279 38.4463 13.14 38.4463 12.6615L 38.4463 11.2719L 23.0752 11.2719L 26.1494 13.9624C 26.5063 14.2749 26.5386 14.8329 26.2319 15.185C 25.9185 15.5454 25.3726 15.5825 25.0127 15.2678L 18.1323 9.24597C 17.7002 8.86775 17.0483 8.86763 16.6157 9.24597L 2.0835 21.9647L 3.59961 23.7059L 16.8057 12.1483ZM 34.021 53.2671L 31.2905 53.2671L 31.2905 52.2278L 34.021 52.2278L 34.021 53.2671ZM 31.2905 50.495L 34.021 50.495L 34.021 48.7534L 31.2905 48.7534L 31.2905 50.495ZM 34.021 47.0205L 31.2905 47.0205L 31.2905 44.7508L 34.021 44.7508L 34.021 47.0205ZM 31.2905 43.018L 34.021 43.018L 34.021 41.2764L 31.2905 41.2764L 31.2905 43.018ZM 35.7495 53.2669L 35.7495 40.9362L 37.6973 39.9225L 39.645 40.9362L 39.645 53.2669L 35.7495 53.2669ZM 41.3735 53.2671L 42.834 53.2671L 42.834 52.2278L 41.3735 52.2278L 41.3735 53.2671ZM 42.834 50.495L 41.3735 50.495L 41.3735 48.7534L 42.834 48.7534L 42.834 50.495ZM 41.3735 47.0205L 42.834 47.0205L 42.834 44.7508L 41.3735 44.7508L 41.3735 47.0205ZM 42.834 43.018L 41.3735 43.018L 41.3735 41.2764L 42.834 41.2764L 42.834 43.018ZM 44.5625 40.9364L 44.5625 53.267L 48.458 53.267L 48.458 40.9364L 46.5103 39.9227L 44.5625 40.9364ZM 51.6475 53.2671L 50.187 53.2671L 50.187 52.2278L 51.6475 52.2278L 51.6475 53.2671ZM 50.187 50.495L 51.6475 50.495L 51.6475 48.7534L 50.187 48.7534L 50.187 50.495ZM 51.6475 47.0205L 50.187 47.0205L 50.187 44.7508L 51.6475 44.7508L 51.6475 47.0205ZM 50.187 43.018L 51.6475 43.018L 51.6475 41.2764L 50.187 41.2764L 50.187 43.018ZM 49.5337 39.5435L 46.9087 38.1774C 46.6592 38.0474 46.3623 38.0474 46.1123 38.1774L 43.4873 39.5435L 40.7207 39.5435L 38.0957 38.1774C 37.8457 38.0474 37.5488 38.0474 37.2993 38.1774L 34.6743 39.5435L 31.2905 39.5435L 31.2905 25.7929C 31.2905 25.7968 31.4673 25.762 31.4819 25.7572C 31.6367 25.7052 31.7744 25.6224 31.8823 25.4983L 34.5356 22.4516C 34.7842 22.1659 34.8149 21.7207 34.6035 21.4024L 34.5972 21.392L 54.4595 21.392L 54.4595 38.42L 52.3008 39.5435L 49.5337 39.5435ZM 53.376 40.9364L 53.376 53.267L 57.2715 53.267L 57.2715 40.9364L 55.3237 39.9227L 53.376 40.9364Z"/></defs></svg>