<svg xmlns="http://www.w3.org/2000/svg" xmlns:xlink="http://www.w3.org/1999/xlink" width="65" height="48" version="1.1" viewBox="0 0 65 48"><title>clients</title><desc>Created using Figma</desc><g id="Canvas" transform="translate(-5566 -233)"><g id="clients"><g id="Shape"><use fill="#FFF" transform="translate(5615 253)" xlink:href="#path0_fill"/></g><g id="Shape"><use fill="#FFF" transform="translate(5566 233)" xlink:href="#path1_fill"/></g><g id="Shape"><use fill="#FFF" transform="translate(5625 273)" xlink:href="#path2_fill"/></g><g id="Shape"><use fill="#FFF" transform="translate(5570 275)" xlink:href="#path3_fill"/></g><g id="Shape"><use fill="#FFF" transform="translate(5590 242)" xlink:href="#path4_fill"/></g><g id="Shape"><use fill="#FFF" transform="translate(5586 275)" xlink:href="#path5_fill"/></g><g id="Shape"><use fill="#FFF" transform="translate(5609 275)" xlink:href="#path5_fill"/></g></g></g><defs><path id="path0_fill" d="M 7.47428 1.14821C 5.26605 0.0131619 1.12579 0 0.950619 0C 0.425624 0 0 0.4376 0 0.977368C 0 1.51714 0.425624 1.95474 0.950619 1.95474C 2.01899 1.95487 5.12092 2.12402 6.62404 2.89666C 6.76055 2.9669 6.90555 3 7.0484 3C 7.39709 3 7.73284 2.80192 7.89939 2.45958C 8.13426 1.97676 7.94388 1.38969 7.47428 1.14821Z"/><path id="path1_fill" fill-rule="evenodd" d="M 62.0942 35.2433L 58.1621 34.1131C 57.9922 34.0643 57.8735 33.9062 57.8735 33.7286L 57.8735 32.4083C 58.1934 32.1853 58.4985 31.9358 58.7842 31.6572C 60.1665 30.3076 60.9277 28.4974 60.9277 26.5599L 60.9277 24.7379L 61.3081 23.9731C 61.7256 23.1335 61.9458 22.1934 61.9458 21.2548L 61.9458 16.319C 61.9458 15.7901 61.5195 15.3612 60.9937 15.3612L 51.8311 15.3612C 48.4995 15.3612 45.7886 18.088 45.7886 21.4395L 45.7886 21.4965C 45.7886 22.2771 45.9722 23.0587 46.3193 23.7568L 46.8066 24.7378L 46.8066 26.3022C 46.8066 28.7815 48.0215 31.006 49.8608 32.3445L 49.8613 33.7284C 49.8613 33.9417 49.8613 34.0301 49.0752 34.2562L 47.1562 34.8076L 41.6055 32.7773C 41.6255 32.5139 41.5371 32.246 41.3462 32.0441L 39.5728 30.1696L 39.5728 27.0229C 39.7603 26.8676 39.9448 26.7079 40.124 26.5391C 42.3618 24.4294 43.645 21.4508 43.645 18.3671L 43.645 15.8542C 44.3203 14.3752 44.6631 12.8102 44.6631 11.1984L 44.6631 0.957779C 44.6631 0.428833 44.2363 0 43.7109 0L 29.458 0C 24.4419 0 20.3613 4.10493 20.3613 9.15042L 20.3613 11.1987C 20.3613 12.8104 20.7036 14.3755 21.3794 15.8544L 21.3794 18.0166C 21.3794 21.5969 22.9619 24.8225 25.4517 26.949L 25.4517 30.1697L 23.6777 32.0442C 23.4868 32.2461 23.3984 32.514 23.4185 32.7775L 17.5601 34.9202C 17.1357 35.0755 16.7412 35.2859 16.3828 35.5406L 15.4634 35.0779C 18.2017 33.8789 19.0688 32.1926 19.1108 32.1088C 19.2446 31.8392 19.2446 31.5218 19.1108 31.2522C 18.4243 29.8712 18.3408 27.3399 18.2744 25.3061L 18.2739 25.2851L 18.2734 25.2637L 18.2725 25.2421C 18.2505 24.5887 18.2295 23.9714 18.1909 23.4198C 17.8662 18.8257 14.394 15.3612 10.1147 15.3612C 5.83496 15.3612 2.36279 18.8256 2.03857 23.4198C 1.99805 23.9895 1.97705 24.6292 1.95508 25.3064C 1.88818 27.3401 1.80469 29.871 1.11865 31.252C 0.984375 31.5216 0.984375 31.8391 1.11865 32.1087C 1.16016 32.1924 2.02588 33.8753 4.76953 35.0758L 2.21436 36.3609C 0.848633 37.0484 0 38.4295 0 39.9657L 0 47.0417C 0 47.5706 0.42627 47.9995 0.952148 47.9995C 1.47803 47.9995 1.9043 47.5706 1.9043 47.0417L 1.9043 39.9657C 1.9043 39.1596 2.34961 38.4349 3.06641 38.0744L 6.24805 36.4741L 7.35498 37.5322C 8.12891 38.272 9.12158 38.6417 10.1147 38.6417C 11.1074 38.6417 12.1006 38.2717 12.8745 37.5322L 13.981 36.4743L 15.0186 36.9961C 14.5303 37.7823 14.2529 38.7044 14.2529 39.6702L 14.2529 47.042C 14.2529 47.5709 14.6792 47.9998 15.2051 47.9998C 15.731 47.9998 16.1572 47.5709 16.1572 47.042L 16.1572 39.6702C 16.1572 38.3553 16.9824 37.17 18.2109 36.7206L 24.3872 34.4614L 26.9585 38.3412C 27.2871 38.8372 27.814 39.1553 28.4038 39.2141C 28.4697 39.2206 28.5347 39.2238 28.6001 39.2238C 29.1206 39.2238 29.6187 39.0178 29.9912 38.6432L 31.5596 37.0653L 31.5596 47.0421C 31.5596 47.571 31.9863 47.9999 32.5117 47.9999C 33.0376 47.9999 33.4639 47.571 33.4639 47.0421L 33.4639 37.0653L 35.0327 38.6432C 35.4053 39.0179 35.9033 39.2239 36.4238 39.2239C 36.4888 39.2239 36.5542 39.2207 36.6201 39.2142C 37.21 39.1554 37.7363 38.8373 38.0654 38.3413L 40.6367 34.4616L 46.813 36.7209C 48.0415 37.1703 48.8667 38.3556 48.8667 39.6705L 48.8667 47.0422C 48.8667 47.5712 49.293 48 49.8188 48C 50.3447 48 50.771 47.5712 50.771 47.0422L 50.771 39.6705C 50.771 38.3387 50.2451 37.0898 49.3628 36.1661L 49.5981 36.0986C 49.8354 36.0304 50.1592 35.937 50.4839 35.7767L 52.915 38.2222L 52.915 47.0422C 52.915 47.5712 53.3413 48 53.8672 48C 54.3931 48 54.8193 47.5712 54.8193 47.0422L 54.8193 38.2222L 57.2334 35.7937C 57.3618 35.8594 57.4966 35.9148 57.6387 35.9555L 61.5713 37.0857C 62.4688 37.3437 63.0957 38.1797 63.0957 39.1189L 63.0957 47.0422C 63.0957 47.5712 63.522 48 64.0479 48C 64.5737 48 65 47.5712 65 47.0422L 65 39.1189C 65 37.3287 63.8052 35.7351 62.0942 35.2433ZM 6.1084 33.5516C 4.32764 32.907 3.43408 32.0475 3.05273 31.5782C 3.3125 30.8944 3.48145 30.1114 3.5957 29.2847C 4.12061 30.5512 5 31.6323 6.1084 32.4037L 6.1084 33.5516ZM 7.78125 35.2972L 8.66699 36.1436C 9.47852 36.9198 10.751 36.92 11.563 36.1438L 12.4482 35.2975C 12.2988 35.0157 12.2168 34.6964 12.2168 34.3618L 12.2168 33.3417C 11.5513 33.5493 10.8457 33.6625 10.1147 33.6625C 9.3833 33.6625 8.67725 33.5498 8.0127 33.341L 8.0127 34.3619C 8.0127 34.6964 7.93066 35.0156 7.78125 35.2972ZM 10.1152 31.7469C 7.27197 31.7469 4.95898 29.4201 4.95898 26.5602C 4.95898 26.0312 4.53271 25.6024 4.00684 25.6024C 3.95361 25.6024 3.90137 25.6079 3.85059 25.6164L 3.85889 25.37C 3.87988 24.7114 3.90039 24.0893 3.93799 23.5558C 4.05957 21.8348 4.74365 20.249 5.86328 19.0902C 6.99316 17.9209 8.50293 17.2771 10.1147 17.2771C 11.7271 17.2771 13.2368 17.9209 14.3667 19.0902C 15.4863 20.249 16.1699 21.8348 16.2915 23.5558C 16.3291 24.0892 16.3501 24.7111 16.3716 25.3696L 16.377 25.5404C 15.3413 23.9349 13.7412 22.7518 11.6743 22.0836C 9.76465 21.4664 8.12207 21.5046 8.05273 21.5064C 7.80322 21.5134 7.56641 21.6184 7.39355 21.799L 5.67578 23.5912C 5.31055 23.972 5.32178 24.5783 5.7002 24.9455C 6.07861 25.3126 6.68164 25.3015 7.04639 24.9208L 8.47607 23.4296C 9.70703 23.4901 13.6675 23.9535 15.208 27.3654C 14.8203 29.8796 12.6719 31.7469 10.1152 31.7469ZM 14.1211 32.4125L 14.1211 33.5548C 15.9004 32.9104 16.7979 32.0433 17.1772 31.5784C 16.9175 30.8962 16.749 30.1149 16.6353 29.2902C 16.1094 30.5663 15.229 31.6454 14.1211 32.4125ZM 23.2837 18.0164L 23.2837 15.6401C 23.2837 15.4959 23.2515 15.3536 23.189 15.2237C 22.5762 13.9474 22.2656 12.5932 22.2656 11.1987L 22.2656 9.15056C 22.2656 5.16118 25.4922 1.9157 29.458 1.9157L 42.7588 1.9157L 42.7588 11.1988C 42.7588 12.5933 42.4478 13.9475 41.8354 15.2238C 41.7729 15.3537 41.7407 15.4961 41.7407 15.6403L 41.7407 18.3674C 41.7407 20.9612 40.7041 23.367 38.8218 25.1418C 38.5869 25.3632 38.3428 25.5708 38.0908 25.7643L 38.0742 25.7763C 36.311 27.123 34.1514 27.7774 31.896 27.6305C 27.0664 27.3159 23.2837 23.093 23.2837 18.0164ZM 28.5918 37.3075C 28.6226 37.3109 28.6382 37.2951 28.6445 37.2885L 31.0273 34.8918L 26.5352 31.8029L 25.582 32.8102L 28.543 37.2783C 28.5483 37.2862 28.5605 37.3045 28.5918 37.3075ZM 32.5122 33.5923L 27.356 30.047L 27.356 28.2592C 28.6899 28.9846 30.1841 29.4384 31.7729 29.5418C 32.0239 29.5582 32.2734 29.5662 32.522 29.5662C 34.3428 29.5662 36.0947 29.1284 37.6685 28.2975L 37.6685 30.047L 32.5122 33.5923ZM 36.4326 37.3078C 36.4639 37.3047 36.4761 37.2865 36.481 37.2786L 39.4424 32.8104L 38.4893 31.8032L 33.9971 34.8922L 36.3794 37.2888C 36.3862 37.2953 36.4014 37.3118 36.4326 37.3078ZM 53.8672 36.4704L 51.7065 34.297C 51.7441 34.1248 51.7656 33.9361 51.7656 33.7281L 51.7651 33.3239C 52.3647 33.5219 52.9971 33.6393 53.6509 33.659C 53.7241 33.6613 53.7969 33.6623 53.8701 33.6623C 54.5928 33.6623 55.2979 33.5525 55.9692 33.343L 55.9692 33.7286C 55.9692 33.9196 55.9932 34.1069 56.0381 34.2868L 53.8672 36.4704ZM 53.708 31.7443C 55.1152 31.788 56.4487 31.2677 57.4575 30.2826C 58.4673 29.297 59.0234 27.975 59.0234 26.56L 59.0234 24.5119C 59.0234 24.3631 59.0576 24.2166 59.124 24.0836L 59.6045 23.1166C 59.8906 22.5415 60.0415 21.8978 60.0415 21.2549L 60.0415 17.2769L 51.8311 17.2769C 49.5493 17.2769 47.6929 19.1442 47.6929 21.4396L 47.6929 21.4967C 47.6929 21.9814 47.8066 22.4667 48.022 22.9003L 48.6104 24.0836C 48.6763 24.2165 48.7109 24.3631 48.7109 24.5119L 48.7109 26.3025C 48.7109 29.2199 50.9526 31.6612 53.708 31.7443Z"/><path id="path2_fill" d="M 1 0C 0.447733 0 0 0.425636 0 0.950646L 0 7.04935C 0 7.57436 0.447733 8 1 8C 1.55227 8 2 7.57436 2 7.04935L 2 0.950646C 2 0.425762 1.55227 0 1 0Z"/><path id="path3_fill" d="M 1 0C 0.447733 0 0 0.378715 0 0.845849L 0 5.15415C 0 5.62129 0.447733 6 1 6C 1.55227 6 2 5.62129 2 5.15415L 2 0.845849C 2 0.378827 1.55227 0 1 0Z"/><path id="path4_fill" d="M 15.7238 3.10097C 12.1577 -0.848405 4.69646 -0.0933651 1.65382 0.414543C 0.695473 0.574517 0 1.47268 0 2.55018L 0 4.95578C 0 5.53247 0.422162 6 0.942887 6C 1.46361 6 1.88577 5.53247 1.88577 4.95578L 1.88577 2.55004C 1.88577 2.51454 1.90689 2.48418 1.93505 2.47945C 3.15037 2.27659 5.56203 1.96361 8.06067 2.14809C 11.001 2.36487 13.1306 3.18228 14.3905 4.57763C 14.7587 4.98544 15.3557 4.98544 15.7238 4.57763C 16.0921 4.16983 16.0921 3.50863 15.7238 3.10097Z"/><path id="path5_fill" d="M 1 0C 0.447733 0 0 0.42798 0 0.955881L 0 5.04412C 0 5.57202 0.447733 6 1 6C 1.55227 6 2 5.57202 2 5.04412L 2 0.955881C 2 0.428107 1.55227 0 1 0Z"/></defs></svg>