<svg xmlns="http://www.w3.org/2000/svg" xmlns:xlink="http://www.w3.org/1999/xlink" width="46" height="61" version="1.1" viewBox="0 0 46 61"><title>bookings</title><desc>Created using Figma</desc><g id="Canvas" transform="translate(-5892 -224)"><g id="bookings"><g id="Shape"><use fill="#FFF" transform="translate(5892 224)" xlink:href="#path0_fill"/></g><g id="Shape"><use fill="#FFF" transform="translate(5911 273)" xlink:href="#path1_fill"/></g></g></g><defs><path id="path0_fill" fill-rule="evenodd" d="M 40.7134 59.2129L 45.1011 59.2129C 45.5977 59.2129 46 59.613 46 60.1064C 46 60.5999 45.5977 61 45.1011 61L 0.898926 61C 0.402344 61 0 60.5999 0 60.1064C 0 59.613 0.402344 59.2129 0.898926 59.2129L 5.39111 59.2129L 4.91162 42.0005C 4.83691 39.3072 6.38867 36.8596 8.86572 35.765L 13.873 33.5518L 14.6929 32.8557C 11.0439 31.7556 8.31445 30.4089 8.18457 30.3442C 7.74023 30.1234 7.56006 29.5867 7.78223 29.1452C 7.79932 29.1111 9.60938 25.3531 9.60938 17.1293L 9.60938 13.3091C 9.60938 5.97037 15.6162 0 23 0C 30.3838 0 36.3911 5.97037 36.3911 13.3091L 36.3911 17.1293C 36.3911 25.3531 38.2007 29.1111 38.2192 29.1481C 38.437 29.5888 38.2578 30.1246 37.8159 30.3442C 37.6865 30.4084 34.957 31.7551 31.3071 32.8554L 32.0293 33.4686C 32.061 33.4786 32.0923 33.49 32.123 33.5037L 37.2388 35.7648C 39.7158 36.8596 41.2676 39.3072 41.1929 42.0004L 40.7134 59.2129ZM 23 1.78711C 16.6079 1.78711 11.4072 6.9559 11.4072 13.3093L 11.4072 15.4711C 11.5732 15.4063 11.7466 15.3563 11.9272 15.3247C 12.8125 15.1703 13.7002 15.4355 14.3418 16.0249C 14.7876 15.6559 15.1748 15.2156 15.4961 14.7115C 15.7617 14.2947 16.3174 14.1709 16.7368 14.4351C 17.1562 14.6993 17.2808 15.2513 17.0146 15.6682C 16.4868 16.4967 15.8203 17.1965 15.0337 17.7481C 14.709 17.9761 14.2866 18.0434 13.9033 17.9284C 13.6421 17.8499 13.4126 17.6905 13.2407 17.4674C 13.0034 17.1598 12.6284 17.0169 12.2383 17.085C 11.7646 17.1676 11.4072 17.6389 11.4072 18.1813L 11.4072 18.9143C 11.4072 19.4438 11.7451 19.9225 12.1929 20.0278C 12.2964 20.0521 12.3994 20.0609 12.5 20.0535C 13.4204 19.9866 14.2754 20.6523 14.4448 21.5697C 15.2031 25.6731 18.8013 28.6515 23 28.6515C 26.4434 28.6515 29.5679 26.6263 30.96 23.4919C 31.3604 22.5909 31.5854 21.5885 31.6113 20.5932C 31.6772 18.0475 29.7847 17.3784 25.8418 16.2216C 22.7192 15.3053 18.8335 14.165 15.647 11.0846C 15.291 10.7405 15.2832 10.1749 15.6294 9.821C 15.9756 9.46739 16.5449 9.45953 16.9009 9.8036C 19.7686 12.5761 23.2656 13.6022 26.3511 14.5075C 30.0342 15.5882 33.5127 16.609 33.4087 20.6391C 33.377 21.8652 33.0991 23.1012 32.605 24.2137C 31.7607 26.1145 30.3877 27.6767 28.7036 28.761L 28.7036 30.9826C 28.938 30.9667 29.1699 31.041 29.3496 31.1934L 29.6689 31.4644C 32.5664 30.6813 35.0635 29.6336 36.2593 29.096C 35.6807 27.5086 34.5933 23.6574 34.5933 17.1293L 34.5933 13.3091C 34.5933 6.9559 29.3926 1.78711 23 1.78711ZM 19.0942 32.9131L 19.0942 29.6889C 20.3071 30.1725 21.6265 30.4384 23 30.4384C 24.3633 30.4384 25.6851 30.1737 26.9053 29.6864L 26.9053 32.913L 24.1919 36.6636L 24.1831 36.677L 24.1733 36.6896L 23.0513 38.3627C 23.0449 38.3723 23.0332 38.3901 23 38.3901C 22.9668 38.3901 22.9546 38.3723 22.9482 38.3627L 21.8262 36.6896L 21.8164 36.677L 21.8076 36.6636L 19.0942 32.9131ZM 18.5376 37.9622L 19.834 36.9959L 17.0752 33.1832L 15.4707 34.5457L 17.0088 37.6038C 17.145 37.8741 17.3931 38.069 17.689 38.1385C 17.9849 38.2079 18.2939 38.1437 18.5376 37.9622ZM 28.9248 33.1832L 30.5298 34.5457L 28.9912 37.6038C 28.8555 37.8742 28.6074 38.069 28.3115 38.1385C 28.0156 38.2079 27.7061 38.1437 27.4629 37.9624L 26.1665 36.9959L 28.9248 33.1832ZM 11.2251 21.5658C 10.8906 25.4563 10.1733 27.9093 9.74072 29.0962C 10.9365 29.6336 13.4336 30.6812 16.3311 31.4644L 16.6504 31.1934C 16.8301 31.041 17.062 30.9667 17.2964 30.9826L 17.2964 28.7636C 14.938 27.2454 13.2139 24.8042 12.6758 21.8925C 12.6709 21.8751 12.6411 21.8449 12.6201 21.8366C 12.3408 21.8559 12.0571 21.8323 11.7783 21.7668C 11.5845 21.7211 11.4004 21.6517 11.2251 21.5658ZM 9.59619 37.3978L 13.9312 35.4818L 15.4004 38.403C 15.7759 39.1487 16.459 39.6862 17.2754 39.8777C 17.4912 39.9283 17.7095 39.9532 17.9263 39.9532C 18.5298 39.9532 19.1226 39.7601 19.6162 39.3921L 20.8574 38.4668L 21.4526 39.354C 21.7983 39.8696 22.377 40.1773 23 40.1773C 23.6235 40.1773 24.2021 39.8696 24.5479 39.354L 25.1426 38.4668L 26.3838 39.3921C 26.8779 39.7601 27.4702 39.9532 28.0737 39.9532C 28.2905 39.9532 28.5088 39.9283 28.7246 39.8777C 29.541 39.6862 30.2241 39.1487 30.5996 38.403L 32.0879 35.444L 36.5083 37.3978C 36.856 37.5512 37.1777 37.7414 37.4717 37.9619L 34.2036 42.022L 11.9014 42.022L 8.6333 37.9619C 8.92676 37.7415 9.24902 37.5513 9.59619 37.3978ZM 9.50977 58.3517L 8.76221 44.9812C 8.71924 44.2152 8.99902 43.4563 9.5293 42.899C 9.66943 42.7521 9.82471 42.6222 9.99121 42.5097L 7.41162 39.3056C 6.93652 40.0834 6.68213 40.9958 6.70898 41.951L 7.18994 59.2129L 9.69775 59.2129C 9.59229 58.9439 9.52686 58.6547 9.50977 58.3517ZM 35.4429 44.8822L 34.6953 58.2529C 34.665 58.7913 34.2168 59.213 33.6738 59.213L 12.3262 59.213C 11.7837 59.2129 11.3354 58.7911 11.3052 58.2527L 10.5576 44.8821C 10.542 44.6003 10.6406 44.3322 10.8359 44.1272C 11.0312 43.9221 11.2949 43.8093 11.5791 43.8093L 34.4214 43.8093C 34.7056 43.8093 34.9692 43.9221 35.1646 44.1272C 35.3594 44.3322 35.4585 44.6003 35.4429 44.8822ZM 36.3022 59.2129L 38.9146 59.2129L 39.3955 41.951C 39.4219 40.9959 39.1675 40.0834 38.6924 39.3055L 36.0757 42.5565C 36.2168 42.658 36.3491 42.772 36.4702 42.899C 37.0005 43.4563 37.2803 44.2152 37.2373 44.9813L 36.4902 58.3519C 36.4731 58.6547 36.4077 58.9439 36.3022 59.2129Z"/><path id="path1_fill" fill-rule="evenodd" d="M 0 3C 0 1.3457 1.3457 0 3 0C 4.6543 0 6 1.3457 6 3C 6 4.6543 4.6543 6 3 6C 1.3457 6 0 4.6543 0 3ZM 1.63379 2.99988C 1.63379 3.75314 2.24658 4.36597 3 4.36597C 3.75293 4.36597 4.36572 3.75314 4.36572 2.99988C 4.36572 2.24664 3.75342 1.63382 3 1.63382C 2.24658 1.63382 1.63379 2.24664 1.63379 2.99988Z"/></defs></svg>