<svg xmlns="http://www.w3.org/2000/svg" xmlns:xlink="http://www.w3.org/1999/xlink" width="450" height="19" version="1.1" viewBox="0 0 450 19"><title>progress-bar</title><desc>Created using Figma</desc><g id="Canvas" transform="translate(-9722 -812)"><g id="progress-bar"><g id="progress-bar__start"><use fill="#36A8C8" transform="translate(9722 812)" xlink:href="#path0_fill"/></g><g id="progress-bar__finish"><use fill="#D8D8D8" transform="translate(10153 812)" xlink:href="#path0_fill"/></g><g id="progress-bar__background-line"><use fill="#D8D8D8" transform="translate(9732 820)" xlink:href="#path1_stroke"/></g><g id="progress-bar__progress-position"><use fill="url(#paint3_linear)" transform="translate(9732 820)" xlink:href="#path2_stroke"/></g></g></g><defs><linearGradient id="paint3_linear" x1="0" x2="1" y1="0" y2="0" gradientTransform="matrix(49 0 0 3 0 0)" gradientUnits="userSpaceOnUse"><stop offset="0" stop-color="#36A8C8"/><stop offset="1" stop-color="#A24C8C"/></linearGradient><path id="path0_fill" fill-rule="evenodd" d="M 9.5 19C 14.7467 19 19 14.7467 19 9.5C 19 4.25329 14.7467 0 9.5 0C 4.25329 0 0 4.25329 0 9.5C 0 14.7467 4.25329 19 9.5 19Z"/><path id="path1_stroke" d="M 0.5 -1C -0.880712 -1 -2 0.119288 -2 1.5C -2 2.88071 -0.880712 4 0.5 4L 0.5 -1ZM 430.079 4C 431.46 4 432.579 2.88071 432.579 1.5C 432.579 0.119288 431.46 -1 430.079 -1L 430.079 4ZM 0.5 4L 430.079 4L 430.079 -1L 0.5 -1L 0.5 4Z"/><path id="path2_stroke" d="M 0.5 -1C -0.880712 -1 -2 0.119288 -2 1.5C -2 2.88071 -0.880712 4 0.5 4L 0.5 -1ZM 48.5 4C 49.8807 4 51 2.88071 51 1.5C 51 0.119288 49.8807 -1 48.5 -1L 48.5 4ZM 0.5 4L 48.5 4L 48.5 -1L 0.5 -1L 0.5 4Z"/></defs></svg>