<svg width="49" height="48" viewBox="0 0 49 48" version="1.1" xmlns="http://www.w3.org/2000/svg" xmlns:xlink="http://www.w3.org/1999/xlink">
<title>apartaments</title>
<desc>Created using Figma</desc>
<g id="Canvas" transform="translate(-787 -156)">
<g id="apartaments">
<g id="Shape">
<use xlink:href="#path0_fill" transform="translate(798 176)"/>
</g>
<g id="Shape">
<use xlink:href="#path1_fill" transform="translate(798 188)"/>
</g>
<g id="Shape">
<use xlink:href="#path2_fill" transform="translate(813 176)"/>
</g>
<g id="Shape">
<use xlink:href="#path3_fill" transform="translate(787 156)"/>
</g>
</g>
</g>
<defs>
<path id="path0_fill" fill-rule="evenodd" d="M 0 8L 11 8L 11 0L 0 0L 0 8ZM 1.57141 6.39999L 1.57141 4L 9.42853 4L 9.42853 6.39999L 1.57141 6.39999ZM 9.42853 2.40001L 9.42853 1.60001L 1.57141 1.60001L 1.57141 2.40001L 9.42853 2.40001Z"/>
<path id="path1_fill" fill-rule="evenodd" d="M 0 0L 0 10L 11 10L 11 0L 0 0ZM 4.71429 1.66667L 4.71429 4.16667L 1.57141 4.16667L 1.57141 1.66667L 4.71429 1.66667ZM 4.71429 5.83333L 1.57141 5.83333L 1.57141 8.33333L 4.71429 8.33333L 4.71429 5.83333ZM 6.28571 8.33333L 6.28571 5.83333L 9.42859 5.83333L 9.42859 8.33333L 6.28571 8.33333ZM 6.28571 4.16667L 9.42859 4.16667L 9.42859 1.66667L 6.28571 1.66667L 6.28571 4.16667Z"/>
<path id="path2_fill" fill-rule="evenodd" d="M 0 8L 11 8L 11 0L 0 0L 0 8ZM 1.57141 6.40001L 1.57141 5.60001L 9.42853 5.60001L 9.42853 6.40001L 1.57141 6.40001ZM 9.42853 4L 9.42853 1.60001L 1.57141 1.60001L 1.57141 4L 9.42853 4Z"/>
<path id="path3_fill" fill-rule="evenodd" d="M 47.3666 39.7751C 47.3666 39.3211 47.7317 38.9527 48.1833 38.9527C 48.6349 38.9527 49 39.3211 49 39.7759L 49 47.1776C 49 47.6316 48.6349 48 48.1833 48C 47.7317 48 47.3666 47.6316 47.3666 47.1776L 47.3666 46.3552L 46.55 46.3552L 46.55 47.1776C 46.55 47.6316 46.1849 48 45.7333 48C 45.2817 48 44.9167 47.6316 44.9167 47.1776L 44.9167 46.3552L 44.1 46.3552L 44.1 48L 37.5667 48L 26.1334 48L 4.90002 48L 4.90002 46.3552L 4.08331 46.3552L 4.08331 47.1776C 4.08331 47.6316 3.71826 48 3.26666 48C 2.81506 48 2.45001 47.6316 2.45001 47.1776L 2.45001 46.3552L 1.63336 46.3552L 1.63336 47.1776C 1.63336 47.6316 1.26831 48 0.81665 48C 0.365051 48 0 47.6316 0 47.1776L 0 39.7759C 0 39.3219 0.365051 38.9535 0.81665 38.9535C 1.26831 38.9535 1.63336 39.3219 1.63336 39.7759L 1.63336 40.5983L 2.45001 40.5983L 2.45001 39.7759C 2.45001 39.3219 2.81506 38.9535 3.26666 38.9535C 3.71826 38.9535 4.08331 39.3219 4.08331 39.7759L 4.08331 40.5983L 4.90082 40.5983L 4.90082 23.9823C 3.64966 24.5481 2.15765 24.2817 1.18256 23.2241C 0.56189 22.5513 0.247437 21.6409 0.319336 20.7256C 0.391174 19.8111 0.844421 18.9615 1.56226 18.3957L 22.3301 2.033L 24.5 0L 26.723 2.07823L 47.4385 18.3957C 48.1556 18.9615 48.6088 19.8111 48.6815 20.7256C 48.7534 21.6409 48.439 22.5513 47.8183 23.2241C 47.1747 23.9215 46.3042 24.28 45.4279 24.28C 44.9763 24.28 44.5255 24.1739 44.1 23.9815L 44.1 40.5975L 44.9167 40.5975L 44.9167 39.7751C 44.9167 39.3211 45.2817 38.9527 45.7333 38.9527C 46.1849 38.9527 46.55 39.3211 46.55 39.7751L 46.55 40.5975L 47.3666 40.5975L 47.3666 39.7751ZM 1.94775 20.8555C 1.91101 21.3194 2.06372 21.7626 2.37811 22.1039C 2.95636 22.7306 3.89716 22.8096 4.57172 22.2873L 5.21771 21.7865L 5.21851 21.7857L 24.5 6.81778L 44.1 22.0324L 44.4291 22.2873C 45.1028 22.8096 46.0445 22.7306 46.6227 22.1039C 46.9363 21.7634 47.0898 21.3194 47.0531 20.8555C 47.0163 20.3917 46.7958 19.978 46.4316 19.691L 25.6638 3.32829L 24.5008 2.24353L 23.3893 3.28387L 2.56921 19.691C 2.20416 19.978 1.9845 20.3917 1.94775 20.8555ZM 1.63336 44.7095L 1.63336 42.2423L 2.45001 42.2423L 2.45001 44.7095L 1.63336 44.7095ZM 4.08331 42.2423L 4.08331 44.7095L 4.89996 44.7095L 4.89996 42.2423L 4.08331 42.2423ZM 27.7667 46.3544L 27.7667 34.0182L 35.9333 34.0182L 35.9333 46.3544L 27.7667 46.3544ZM 37.5667 46.3544L 42.4667 46.3544L 42.4667 22.8408L 24.5 8.89355L 6.53333 22.8408L 6.53333 46.3544L 26.1333 46.3544L 26.1333 32.3734L 37.5667 32.3734L 37.5667 46.3544ZM 44.1 44.7095L 44.1 42.2423L 44.9166 42.2423L 44.9166 44.7095L 44.1 44.7095ZM 46.55 42.2423L 46.55 44.7095L 47.3666 44.7095L 47.3666 42.2423L 46.55 42.2423Z"/>
</defs>
</svg>
