<svg width="1068" height="201" viewBox="0 0 1068 201" version="1.1" xmlns="http://www.w3.org/2000/svg" xmlns:xlink="http://www.w3.org/1999/xlink">
<title>chart</title>
<desc>Created using Figma</desc>
<g id="Canvas" transform="translate(-6413 -486)">
<g id="chart">
<g id="Line 2">
<use xlink:href="#path0_stroke" transform="translate(6414 685)" fill="url(#paint0_linear)"/>
</g>
<g id="Rectangle">
<use xlink:href="#path1_fill" transform="translate(6485 526)" fill="url(#paint1_linear)"/>
</g>
<g id="Rectangle Copy">
<use xlink:href="#path2_fill" transform="translate(6840 586)" fill="url(#paint2_linear)"/>
</g>
<g id="&#226;&#130;&#172;300 &#208;&#188;&#208;&#187;&#208;&#189;">
<use xlink:href="#path3_fill" transform="translate(6519 479)" fill="#A24C8C"/>
</g>
<g id="&#226;&#130;&#172;200 &#208;&#188;&#208;&#187;&#208;&#189;">
<use xlink:href="#path4_fill" transform="translate(6869 539)" fill="#F6A760"/>
</g>
<g id="&#226;&#130;&#172;0.2 &#208;&#188;&#208;&#187;&#208;&#189;">
<use xlink:href="#path5_fill" transform="translate(7236 621)" fill="#32B0CB"/>
</g>
<g id="Rectangle Copy 2">
<use xlink:href="#path6_fill" transform="translate(7201 668)" fill="url(#paint6_linear)"/>
</g>
</g>
</g>
<defs>
<linearGradient id="paint0_linear" x1="0" y1="0" x2="1" y2="0" gradientUnits="userSpaceOnUse" gradientTransform="matrix(1056.52 0 0 1.98222 0 0)">
<stop offset="0" stop-color="#7E4C94"/>
<stop offset="0.519551" stop-color="#E47464"/>
<stop offset="1" stop-color="#399EC3"/>
</linearGradient>
<linearGradient id="paint1_linear" x1="0" y1="0" x2="1" y2="0" gradientUnits="userSpaceOnUse" gradientTransform="matrix(0 -159 214 0 107 159)">
<stop offset="0" stop-color="#774C96"/>
<stop offset="1" stop-color="#A34C8C"/>
</linearGradient>
<linearGradient id="paint2_linear" x1="0" y1="0" x2="1" y2="0" gradientUnits="userSpaceOnUse" gradientTransform="matrix(0 -99 214 0 107 99)">
<stop offset="0" stop-color="#D03868"/>
<stop offset="1" stop-color="#F6A95F"/>
</linearGradient>
<linearGradient id="paint6_linear" x1="0" y1="0" x2="1" y2="0" gradientUnits="userSpaceOnUse" gradientTransform="matrix(0 -49.2967 620.558 0 107 49.2967)">
<stop offset="0" stop-color="#5A469B"/>
<stop offset="1" stop-color="#32B2CC"/>
</linearGradient>
<path id="path0_stroke" d="M 0 0L -1 0L -1 2L 0 2L 0 0ZM 1066 2L 1067 2L 1067 0L 1066 0L 1066 2ZM 0 2L 1066 2L 1066 0L 0 0L 0 2Z"/>
<path id="path1_fill" fill-rule="evenodd" d="M 0 0L 214 0L 214 159L 0 159L 0 0Z"/>
<path id="path2_fill" fill-rule="evenodd" d="M 0 0L 214 0L 214 99L 0 99L 0 0Z"/>
<path id="path3_fill" d="M 14.6133 23.1035L 7.24805 23.1035L 7.24805 23.4023C 7.24805 25.9922 7.88086 27.9961 9.14648 29.4141C 10.4238 30.832 12.2227 31.541 14.543 31.541C 15.9141 31.541 17.1973 31.3418 18.3926 30.9434L 18.5684 32.8242C 17.209 33.1758 15.8613 33.3516 14.5254 33.3516C 11.6074 33.3516 9.31055 32.4902 7.63477 30.7676C 5.9707 29.0449 5.12109 26.6484 5.08594 23.5781L 5.08594 23.1035L 1.71094 23.1035L 1.71094 21.5391L 5.08594 21.5391L 5.08594 18.6562L 1.71094 18.6562L 1.71094 17.0742L 5.08594 17.0742C 5.08594 13.9102 5.92383 11.4492 7.59961 9.69141C 9.27539 7.93359 11.5723 7.05469 14.4902 7.05469C 15.6504 7.05469 17.0098 7.23633 18.5684 7.59961L 18.3926 9.51562C 17.0801 9.10547 15.7852 8.90039 14.5078 8.90039C 12.1875 8.90039 10.3945 9.59766 9.12891 10.9922C 7.875 12.375 7.24805 14.4023 7.24805 17.0742L 14.6133 17.0742L 14.6133 18.6562L 7.24805 18.6562L 7.24805 21.5391L 14.6133 21.5391L 14.6133 23.1035ZM 27.3047 19.0605L 29.4844 19.0605C 30.6914 19.0605 31.7461 18.8496 32.6484 18.4277C 33.5508 17.9941 34.2363 17.4082 34.7051 16.6699C 35.1855 15.9199 35.4258 15.0586 35.4258 14.0859C 35.4258 12.4453 34.9629 11.1621 34.0371 10.2363C 33.1113 9.31055 31.7813 8.84766 30.0469 8.84766C 28.4062 8.84766 27.0586 9.33398 26.0039 10.3066C 24.9609 11.2676 24.4395 12.5391 24.4395 14.1211L 22.3301 14.1211C 22.3301 12.7969 22.6641 11.5898 23.332 10.5C 24 9.39844 24.9258 8.54883 26.1094 7.95117C 27.293 7.35352 28.6055 7.05469 30.0469 7.05469C 32.3672 7.05469 34.1953 7.6875 35.5312 8.95312C 36.8672 10.2188 37.5352 11.9531 37.5352 14.1562C 37.5352 15.3867 37.1426 16.5234 36.3574 17.5664C 35.584 18.5977 34.5176 19.3711 33.1582 19.8867C 34.752 20.332 35.959 21.0996 36.7793 22.1895C 37.5996 23.2676 38.0098 24.5566 38.0098 26.0566C 38.0098 28.248 37.2949 30.0117 35.8652 31.3477C 34.4355 32.6836 32.5254 33.3516 30.1348 33.3516C 28.6113 33.3516 27.2109 33.0469 25.9336 32.4375C 24.668 31.8281 23.6836 30.9785 22.9805 29.8887C 22.2891 28.7871 21.9434 27.5098 21.9434 26.0566L 24.0527 26.0566C 24.0527 27.6855 24.6211 29.0156 25.7578 30.0469C 26.8945 31.0664 28.3535 31.5762 30.1348 31.5762C 31.9512 31.5762 33.3633 31.1133 34.3711 30.1875C 35.3906 29.25 35.9004 27.8965 35.9004 26.127C 35.9004 24.416 35.3496 23.1094 34.248 22.207C 33.1582 21.3047 31.5469 20.8535 29.4141 20.8535L 27.3047 20.8535L 27.3047 19.0605ZM 58.0312 22.3301C 58.0312 25.9395 57.3691 28.6816 56.0449 30.5566C 54.7207 32.4199 52.7695 33.3516 50.1914 33.3516C 47.6602 33.3516 45.7207 32.4375 44.373 30.6094C 43.0254 28.7695 42.334 26.0977 42.2988 22.5938L 42.2988 18.0059C 42.2988 14.4082 42.9668 11.6836 44.3027 9.83203C 45.6387 7.98047 47.5898 7.05469 50.1562 7.05469C 52.6875 7.05469 54.6211 7.95117 55.957 9.74414C 57.293 11.5254 57.9844 14.1562 58.0312 17.6367L 58.0312 22.3301ZM 55.9219 17.7422C 55.9219 14.8125 55.4414 12.5977 54.4805 11.0977C 53.5312 9.59766 52.0898 8.84766 50.1562 8.84766C 48.2578 8.84766 46.8281 9.58008 45.8672 11.0449C 44.9063 12.5098 44.4141 14.6719 44.3906 17.5312L 44.3906 22.5586C 44.3906 25.4766 44.8828 27.709 45.8672 29.2559C 46.8633 30.8027 48.3047 31.5762 50.1914 31.5762C 52.0664 31.5762 53.4844 30.8203 54.4453 29.3086C 55.418 27.7969 55.9102 25.582 55.9219 22.6641L 55.9219 17.7422ZM 78 22.3301C 78 25.9395 77.3379 28.6816 76.0137 30.5566C 74.6895 32.4199 72.7383 33.3516 70.1602 33.3516C 67.6289 33.3516 65.6895 32.4375 64.3418 30.6094C 62.9941 28.7695 62.3027 26.0977 62.2676 22.5938L 62.2676 18.0059C 62.2676 14.4082 62.9355 11.6836 64.2715 9.83203C 65.6074 7.98047 67.5586 7.05469 70.125 7.05469C 72.6562 7.05469 74.5898 7.95117 75.9258 9.74414C 77.2617 11.5254 77.9531 14.1562 78 17.6367L 78 22.3301ZM 75.8906 17.7422C 75.8906 14.8125 75.4102 12.5977 74.4492 11.0977C 73.5 9.59766 72.0586 8.84766 70.125 8.84766C 68.2266 8.84766 66.7969 9.58008 65.8359 11.0449C 64.875 12.5098 64.3828 14.6719 64.3594 17.5312L 64.3594 22.5586C 64.3594 25.4766 64.8516 27.709 65.8359 29.2559C 66.832 30.8027 68.2734 31.5762 70.1602 31.5762C 72.0352 31.5762 73.4531 30.8203 74.4141 29.3086C 75.3867 27.7969 75.8789 25.582 75.8906 22.6641L 75.8906 17.7422ZM 102.152 30.1523L 109.711 13.9805L 112.312 13.9805L 112.312 33L 110.203 33L 110.203 17.3906L 102.891 33L 101.396 33L 93.9434 17.0391L 93.9434 33L 91.8516 33L 91.8516 13.9805L 94.6113 13.9805L 102.152 30.1523ZM 132.58 13.9805L 132.58 33L 130.471 33L 130.471 15.791L 122.684 15.791L 122.35 22.9102C 122.209 25.5469 121.945 27.5625 121.559 28.957C 121.172 30.3398 120.598 31.3594 119.836 32.0156C 119.074 32.6719 118.061 33 116.795 33L 115.986 33L 115.986 31.1367L 116.637 31.1016C 117.844 31.0781 118.711 30.4922 119.238 29.3438C 119.766 28.1953 120.111 26.1445 120.275 23.1914L 120.662 13.9805L 132.58 13.9805ZM 152.848 33L 150.738 33L 150.738 24.2812L 140.49 24.2812L 140.49 33L 138.381 33L 138.381 13.9805L 140.49 13.9805L 140.49 22.5059L 150.738 22.5059L 150.738 13.9805L 152.848 13.9805L 152.848 33Z"/>
<path id="path4_fill" d="M 14.6133 23.1035L 7.24805 23.1035L 7.24805 23.4023C 7.24805 25.9922 7.88086 27.9961 9.14648 29.4141C 10.4238 30.832 12.2227 31.541 14.543 31.541C 15.9141 31.541 17.1973 31.3418 18.3926 30.9434L 18.5684 32.8242C 17.209 33.1758 15.8613 33.3516 14.5254 33.3516C 11.6074 33.3516 9.31055 32.4902 7.63477 30.7676C 5.9707 29.0449 5.12109 26.6484 5.08594 23.5781L 5.08594 23.1035L 1.71094 23.1035L 1.71094 21.5391L 5.08594 21.5391L 5.08594 18.6562L 1.71094 18.6562L 1.71094 17.0742L 5.08594 17.0742C 5.08594 13.9102 5.92383 11.4492 7.59961 9.69141C 9.27539 7.93359 11.5723 7.05469 14.4902 7.05469C 15.6504 7.05469 17.0098 7.23633 18.5684 7.59961L 18.3926 9.51562C 17.0801 9.10547 15.7852 8.90039 14.5078 8.90039C 12.1875 8.90039 10.3945 9.59766 9.12891 10.9922C 7.875 12.375 7.24805 14.4023 7.24805 17.0742L 14.6133 17.0742L 14.6133 18.6562L 7.24805 18.6562L 7.24805 21.5391L 14.6133 21.5391L 14.6133 23.1035ZM 38.6602 33L 22.6289 33L 22.6289 31.3828L 31.4004 21.4336C 32.8535 19.7578 33.8613 18.375 34.4238 17.2852C 34.9863 16.1953 35.2676 15.1348 35.2676 14.1035C 35.2676 12.4863 34.793 11.209 33.8438 10.2715C 32.8945 9.32227 31.5879 8.84766 29.9238 8.84766C 28.2012 8.84766 26.8066 9.39844 25.7402 10.5C 24.6855 11.6016 24.1582 13.0312 24.1582 14.7891L 22.0664 14.7891C 22.0664 13.3477 22.3887 12.0352 23.0332 10.8516C 23.6895 9.66797 24.6152 8.74219 25.8105 8.07422C 27.0176 7.39453 28.3887 7.05469 29.9238 7.05469C 32.2676 7.05469 34.0957 7.66992 35.4082 8.90039C 36.7324 10.1309 37.3945 11.8066 37.3945 13.9277C 37.3945 15.123 37.0195 16.4297 36.2695 17.8477C 35.5312 19.2656 34.2246 21.0352 32.3496 23.1562L 25.2129 31.2246L 38.6602 31.2246L 38.6602 33ZM 58.0312 22.3301C 58.0312 25.9395 57.3691 28.6816 56.0449 30.5566C 54.7207 32.4199 52.7695 33.3516 50.1914 33.3516C 47.6602 33.3516 45.7207 32.4375 44.373 30.6094C 43.0254 28.7695 42.334 26.0977 42.2988 22.5938L 42.2988 18.0059C 42.2988 14.4082 42.9668 11.6836 44.3027 9.83203C 45.6387 7.98047 47.5898 7.05469 50.1562 7.05469C 52.6875 7.05469 54.6211 7.95117 55.957 9.74414C 57.293 11.5254 57.9844 14.1562 58.0312 17.6367L 58.0312 22.3301ZM 55.9219 17.7422C 55.9219 14.8125 55.4414 12.5977 54.4805 11.0977C 53.5312 9.59766 52.0898 8.84766 50.1562 8.84766C 48.2578 8.84766 46.8281 9.58008 45.8672 11.0449C 44.9063 12.5098 44.4141 14.6719 44.3906 17.5312L 44.3906 22.5586C 44.3906 25.4766 44.8828 27.709 45.8672 29.2559C 46.8633 30.8027 48.3047 31.5762 50.1914 31.5762C 52.0664 31.5762 53.4844 30.8203 54.4453 29.3086C 55.418 27.7969 55.9102 25.582 55.9219 22.6641L 55.9219 17.7422ZM 78 22.3301C 78 25.9395 77.3379 28.6816 76.0137 30.5566C 74.6895 32.4199 72.7383 33.3516 70.1602 33.3516C 67.6289 33.3516 65.6895 32.4375 64.3418 30.6094C 62.9941 28.7695 62.3027 26.0977 62.2676 22.5938L 62.2676 18.0059C 62.2676 14.4082 62.9355 11.6836 64.2715 9.83203C 65.6074 7.98047 67.5586 7.05469 70.125 7.05469C 72.6562 7.05469 74.5898 7.95117 75.9258 9.74414C 77.2617 11.5254 77.9531 14.1562 78 17.6367L 78 22.3301ZM 75.8906 17.7422C 75.8906 14.8125 75.4102 12.5977 74.4492 11.0977C 73.5 9.59766 72.0586 8.84766 70.125 8.84766C 68.2266 8.84766 66.7969 9.58008 65.8359 11.0449C 64.875 12.5098 64.3828 14.6719 64.3594 17.5312L 64.3594 22.5586C 64.3594 25.4766 64.8516 27.709 65.8359 29.2559C 66.832 30.8027 68.2734 31.5762 70.1602 31.5762C 72.0352 31.5762 73.4531 30.8203 74.4141 29.3086C 75.3867 27.7969 75.8789 25.582 75.8906 22.6641L 75.8906 17.7422ZM 102.152 30.1523L 109.711 13.9805L 112.312 13.9805L 112.312 33L 110.203 33L 110.203 17.3906L 102.891 33L 101.396 33L 93.9434 17.0391L 93.9434 33L 91.8516 33L 91.8516 13.9805L 94.6113 13.9805L 102.152 30.1523ZM 132.58 13.9805L 132.58 33L 130.471 33L 130.471 15.791L 122.684 15.791L 122.35 22.9102C 122.209 25.5469 121.945 27.5625 121.559 28.957C 121.172 30.3398 120.598 31.3594 119.836 32.0156C 119.074 32.6719 118.061 33 116.795 33L 115.986 33L 115.986 31.1367L 116.637 31.1016C 117.844 31.0781 118.711 30.4922 119.238 29.3438C 119.766 28.1953 120.111 26.1445 120.275 23.1914L 120.662 13.9805L 132.58 13.9805ZM 152.848 33L 150.738 33L 150.738 24.2812L 140.49 24.2812L 140.49 33L 138.381 33L 138.381 13.9805L 140.49 13.9805L 140.49 22.5059L 150.738 22.5059L 150.738 13.9805L 152.848 13.9805L 152.848 33Z"/>
<path id="path5_fill" d="M 14.791 23.1035L 7.42578 23.1035L 7.42578 23.4023C 7.42578 25.9922 8.05859 27.9961 9.32422 29.4141C 10.6016 30.832 12.4004 31.541 14.7207 31.541C 16.0918 31.541 17.375 31.3418 18.5703 30.9434L 18.7461 32.8242C 17.3867 33.1758 16.0391 33.3516 14.7031 33.3516C 11.7852 33.3516 9.48828 32.4902 7.8125 30.7676C 6.14844 29.0449 5.29883 26.6484 5.26367 23.5781L 5.26367 23.1035L 1.88867 23.1035L 1.88867 21.5391L 5.26367 21.5391L 5.26367 18.6562L 1.88867 18.6562L 1.88867 17.0742L 5.26367 17.0742C 5.26367 13.9102 6.10156 11.4492 7.77734 9.69141C 9.45312 7.93359 11.75 7.05469 14.668 7.05469C 15.8281 7.05469 17.1875 7.23633 18.7461 7.59961L 18.5703 9.51562C 17.2578 9.10547 15.9629 8.90039 14.6855 8.90039C 12.3652 8.90039 10.5723 9.59766 9.30664 10.9922C 8.05273 12.375 7.42578 14.4023 7.42578 17.0742L 14.791 17.0742L 14.791 18.6562L 7.42578 18.6562L 7.42578 21.5391L 14.791 21.5391L 14.791 23.1035ZM 38.2402 22.3301C 38.2402 25.9395 37.5781 28.6816 36.2539 30.5566C 34.9297 32.4199 32.9785 33.3516 30.4004 33.3516C 27.8691 33.3516 25.9297 32.4375 24.582 30.6094C 23.2344 28.7695 22.543 26.0977 22.5078 22.5938L 22.5078 18.0059C 22.5078 14.4082 23.1758 11.6836 24.5117 9.83203C 25.8477 7.98047 27.7988 7.05469 30.3652 7.05469C 32.8965 7.05469 34.8301 7.95117 36.166 9.74414C 37.502 11.5254 38.1934 14.1562 38.2402 17.6367L 38.2402 22.3301ZM 36.1309 17.7422C 36.1309 14.8125 35.6504 12.5977 34.6895 11.0977C 33.7402 9.59766 32.2988 8.84766 30.3652 8.84766C 28.4668 8.84766 27.0371 9.58008 26.0762 11.0449C 25.1152 12.5098 24.623 14.6719 24.5996 17.5312L 24.5996 22.5586C 24.5996 25.4766 25.0918 27.709 26.0762 29.2559C 27.0723 30.8027 28.5137 31.5762 30.4004 31.5762C 32.2754 31.5762 33.6934 30.8203 34.6543 29.3086C 35.627 27.7969 36.1191 25.582 36.1309 22.6641L 36.1309 17.7422ZM 42.916 31.7344C 42.916 31.3242 43.0449 30.9785 43.3027 30.6973C 43.5723 30.4043 43.9414 30.2578 44.4102 30.2578C 44.8789 30.2578 45.248 30.4043 45.5176 30.6973C 45.7871 30.9785 45.9219 31.3242 45.9219 31.7344C 45.9219 32.1445 45.7871 32.4844 45.5176 32.7539C 45.248 33.0117 44.8789 33.1406 44.4102 33.1406C 43.9414 33.1406 43.5723 33.0117 43.3027 32.7539C 43.0449 32.4844 42.916 32.1445 42.916 31.7344ZM 67.4199 33L 51.3887 33L 51.3887 31.3828L 60.1602 21.4336C 61.6133 19.7578 62.6211 18.375 63.1836 17.2852C 63.7461 16.1953 64.0273 15.1348 64.0273 14.1035C 64.0273 12.4863 63.5527 11.209 62.6035 10.2715C 61.6543 9.32227 60.3477 8.84766 58.6836 8.84766C 56.9609 8.84766 55.5664 9.39844 54.5 10.5C 53.4453 11.6016 52.918 13.0312 52.918 14.7891L 50.8262 14.7891C 50.8262 13.3477 51.1484 12.0352 51.793 10.8516C 52.4492 9.66797 53.375 8.74219 54.5703 8.07422C 55.7773 7.39453 57.1484 7.05469 58.6836 7.05469C 61.0273 7.05469 62.8555 7.66992 64.168 8.90039C 65.4922 10.1309 66.1543 11.8066 66.1543 13.9277C 66.1543 15.123 65.7793 16.4297 65.0293 17.8477C 64.291 19.2656 62.9844 21.0352 61.1094 23.1562L 53.9727 31.2246L 67.4199 31.2246L 67.4199 33ZM 90.9746 30.1523L 98.5332 13.9805L 101.135 13.9805L 101.135 33L 99.0254 33L 99.0254 17.3906L 91.7129 33L 90.2188 33L 82.7656 17.0391L 82.7656 33L 80.6738 33L 80.6738 13.9805L 83.4336 13.9805L 90.9746 30.1523ZM 121.402 13.9805L 121.402 33L 119.293 33L 119.293 15.791L 111.506 15.791L 111.172 22.9102C 111.031 25.5469 110.768 27.5625 110.381 28.957C 109.994 30.3398 109.42 31.3594 108.658 32.0156C 107.896 32.6719 106.883 33 105.617 33L 104.809 33L 104.809 31.1367L 105.459 31.1016C 106.666 31.0781 107.533 30.4922 108.061 29.3438C 108.588 28.1953 108.934 26.1445 109.098 23.1914L 109.484 13.9805L 121.402 13.9805ZM 141.67 33L 139.561 33L 139.561 24.2812L 129.312 24.2812L 129.312 33L 127.203 33L 127.203 13.9805L 129.312 13.9805L 129.312 22.5059L 139.561 22.5059L 139.561 13.9805L 141.67 13.9805L 141.67 33Z"/>
<path id="path6_fill" fill-rule="evenodd" d="M 0 0L 214 0L 214 17L 0 17L 0 0Z"/>
</defs>
</svg>
