<svg width="22" height="22" viewBox="0 0 22 22" version="1.1" xmlns="http://www.w3.org/2000/svg" xmlns:xlink="http://www.w3.org/1999/xlink">
<title>icon_calendar</title>
<desc>Created using Figma</desc>
<g id="Canvas" transform="translate(-6492 -349)">
<g id="icon_calendar">
<g id="Shape">
<use xlink:href="#path0_fill" transform="translate(6492 349)" fill="#F6A760"/>
</g>
</g>
</g>
<defs>
<path id="path0_fill" fill-rule="evenodd" d="M 5.78955 4.63159C 6.42871 4.63159 6.94775 4.11292 6.94775 3.47366L 6.94775 1.15799C 6.94775 0.518066 6.42969 0 5.78955 0C 5.15039 0 4.63184 0.518066 4.63184 1.15793L 4.63184 3.4736C 4.63184 4.11292 5.15039 4.63159 5.78955 4.63159ZM 19.6841 2.31567L 18.5269 2.31567L 18.5269 4.6315L 19.6841 4.6315L 19.6841 19.684L 2.31592 19.684L 2.31592 4.63156L 3.47363 4.63156L 3.47363 2.31567L 2.31592 2.31567C 1.03711 2.31567 0 3.3522 0 4.63156L 0 19.6836C 0 20.9633 1.03711 22 2.31592 22L 19.6841 22C 20.9634 22 22 20.9632 22 19.6836L 22 4.63156C 22 3.3522 20.9634 2.31567 19.6841 2.31567ZM 8.10547 2.31567L 13.895 2.31567L 13.895 4.6315L 8.10547 4.6315L 8.10547 2.31567ZM 10.4214 9.26309C 10.4214 9.90234 9.90234 10.421 9.26318 10.421C 8.62402 10.421 8.10547 9.90234 8.10547 9.26309C 8.10547 8.62338 8.62402 8.10532 9.26318 8.10532C 9.90234 8.10532 10.4214 8.62338 10.4214 9.26309ZM 11.5791 12.7368C 11.5791 12.0967 12.0967 11.5783 12.7368 11.5783C 13.377 11.5783 13.895 12.0967 13.895 12.7368C 13.895 13.3758 13.376 13.8947 12.7368 13.8947C 12.0981 13.8947 11.5791 13.3758 11.5791 12.7368ZM 12.7368 8.10532C 12.0967 8.10532 11.5791 8.62338 11.5791 9.26309C 11.5791 9.90234 12.0967 10.421 12.7368 10.421C 13.376 10.421 13.895 9.90234 13.895 9.26309C 13.895 8.62338 13.377 8.10532 12.7368 8.10532ZM 16.2104 10.421C 16.8491 10.421 17.3687 9.90234 17.3687 9.26309C 17.3687 8.62338 16.8506 8.10532 16.2104 8.10532C 15.5703 8.10532 15.0527 8.62338 15.0527 9.26309C 15.0527 9.90234 15.5718 10.421 16.2104 10.421ZM 17.3687 12.7368C 17.3687 13.3758 16.8491 13.8947 16.2104 13.8947C 15.5718 13.8947 15.0527 13.3758 15.0527 12.7368C 15.0527 12.0967 15.5703 11.5789 16.2104 11.5789C 16.8506 11.5789 17.3687 12.0967 17.3687 12.7368ZM 9.26318 13.8947C 9.90234 13.8947 10.4214 13.3758 10.4214 12.7368C 10.4214 12.0967 9.90332 11.5783 9.26318 11.5783C 8.62354 11.5783 8.10547 12.0967 8.10547 12.7368C 8.10547 13.3758 8.62402 13.8947 9.26318 13.8947ZM 6.94775 16.2107C 6.94775 16.8493 6.42871 17.3686 5.78955 17.3686C 5.15039 17.3686 4.63184 16.8493 4.63184 16.2107C 4.63184 15.5705 5.1499 15.0527 5.78955 15.0527C 6.42871 15.0527 6.94775 15.5705 6.94775 16.2107ZM 6.94775 12.7368C 6.94775 13.3758 6.42871 13.8947 5.78955 13.8947C 5.15039 13.8947 4.63184 13.3758 4.63184 12.7368C 4.63184 12.0967 5.1499 11.5783 5.78955 11.5783C 6.42871 11.5783 6.94775 12.0967 6.94775 12.7368ZM 5.78955 10.421C 6.42871 10.421 6.94775 9.90234 6.94775 9.26309C 6.94775 8.62338 6.42871 8.10532 5.78955 8.10532C 5.1499 8.10532 4.63184 8.62338 4.63184 9.26309C 4.63184 9.90234 5.15039 10.421 5.78955 10.421ZM 10.4214 16.2107C 10.4214 16.8493 9.90234 17.3686 9.26318 17.3686C 8.62402 17.3686 8.10547 16.8493 8.10547 16.2107C 8.10547 15.5705 8.62402 15.0527 9.26318 15.0527C 9.90234 15.0527 10.4214 15.5705 10.4214 16.2107ZM 17.3687 3.47366C 17.3687 4.11292 16.8491 4.63159 16.2104 4.63159C 15.5718 4.63159 15.0527 4.11292 15.0527 3.4736L 15.0527 1.15793C 15.0527 0.518066 15.5703 0 16.2104 0C 16.8491 0 17.3687 0.518066 17.3687 1.15799L 17.3687 3.47366Z"/>
</defs>
</svg>
