<svg xmlns="http://www.w3.org/2000/svg" xmlns:xlink="http://www.w3.org/1999/xlink" width="12" height="23" version="1.1" viewBox="0 0 12 23"><title>icon_user</title><desc>Created using Figma</desc><g id="Canvas" transform="translate(-6624 -349)"><g id="icon_user"><g id="standing-up-man- copy"><g id="Oval"><use fill="#F6A760" transform="translate(6627.6 349)" xlink:href="#path0_fill"/></g><g id="Shape"><use fill="#F6A760" transform="translate(6624 355.053)" xlink:href="#path1_fill"/></g></g></g></g><defs><path id="path0_fill" d="M 2.4 4.84211C 3.72548 4.84211 4.8 3.75816 4.8 2.42105C 4.8 1.08394 3.72548 0 2.4 0C 1.07452 0 0 1.08394 0 2.42105C 0 3.75816 1.07452 4.84211 2.4 4.84211Z"/><path id="path1_fill" d="M 6.78662 0.0775462C 6.19106 -0.0312439 5.54353 -0.0264724 4.95857 0.0975865C 0.984816 0.516524 -0.305475 4.65484 0.0588611 7.81024C 0.216899 9.17441 2.60709 9.18872 2.44746 7.81024C 2.31488 6.66031 2.37163 4.92491 3.05098 3.69148C 3.05098 5.19068 3.05098 6.68989 3.05098 8.18862C 3.05098 8.24158 3.05681 8.2912 3.05946 8.34226C 3.05787 8.36659 3.05151 8.38711 3.05151 8.41192C 3.05151 11.9805 3.04462 12.1951 2.88074 15.7609C 2.80809 17.346 5.53981 17.3398 5.61194 15.7609C 5.74028 12.9662 5.77263 11.7387 5.78005 8.94217C 5.90945 8.9498 6.03886 8.9498 6.16826 8.94312C 6.17621 11.7397 6.2075 12.9672 6.33478 15.7609C 6.40743 17.3398 9.13916 17.346 9.06598 15.7609C 8.9021 12.1951 8.89627 11.9805 8.89627 8.41192C 8.89627 8.30122 8.87983 8.20055 8.8549 8.10368C 8.85119 6.55438 8.78543 5.00364 8.80558 3.45529C 9.61911 4.69445 9.69335 6.58444 9.55229 7.80928C 9.39213 9.18681 11.7829 9.17298 11.9409 7.80928C 12.3137 4.58852 10.9614 0.342842 6.78662 0.0775462Z"/></defs></svg>