<svg xmlns="http://www.w3.org/2000/svg" xmlns:xlink="http://www.w3.org/1999/xlink" width="49" height="49" version="1.1" viewBox="0 0 49 49"><title>investments</title><desc>Created using Figma</desc><g id="Canvas" transform="translate(-369 -155)"><g id="investments"><g id="Shape"><use transform="translate(369 155)" xlink:href="#path0_fill"/></g><g id="Shape"><use transform="translate(389 179)" xlink:href="#path1_fill"/></g></g></g><defs><path id="path0_fill" fill-rule="evenodd" d="M 37.4199 10.6432L 37.4199 20.3679C 43.9237 21.0795 49 26.5664 49 33.2089C 49 40.333 43.1612 46.1289 35.9844 46.1289C 35.2579 46.1289 34.5327 46.0677 33.8203 45.9476C 31.2061 47.8654 27.9833 49 24.5 49C 21.0167 49 17.7939 47.8654 15.1797 45.9476C 14.4673 46.0677 13.7421 46.1289 13.0156 46.1289C 5.83875 46.1289 0 40.333 0 33.2089C 0 26.5664 5.07629 21.0795 11.5801 20.3679L 11.5801 10.6432L 9.72421 12.4993C 9.16357 13.06 8.25458 13.06 7.69406 12.4993C 7.13342 11.9387 7.13342 11.0298 7.69406 10.4691L 12.0009 6.16229C 12.5514 5.6122 13.4634 5.59555 14.0308 6.16249L 18.3374 10.4691C 18.898 11.0298 18.898 11.9387 18.3374 12.4993C 17.7768 13.06 16.8678 13.0598 16.3073 12.4993L 14.4512 10.6432L 14.4512 20.3683C 14.6952 20.3952 14.9382 20.4294 15.1797 20.4702C 17.4307 18.8188 20.1331 17.7492 23.0645 17.4837L 23.0645 4.90102L 21.2085 6.7571C 20.6479 7.31773 19.7389 7.31773 19.1783 6.7571C 18.6177 6.19647 18.6177 5.28757 19.1783 4.72694L 23.4852 0.42009C 24.0494 -0.143799 24.9583 -0.136047 25.515 0.420273L 29.8217 4.72694C 30.3823 5.28757 30.3823 6.19647 29.8217 6.7571C 29.5414 7.03741 29.174 7.17752 28.8066 7.17752C 28.4393 7.17752 28.0719 7.03741 27.7916 6.7571L 25.9355 4.90102L 25.9355 17.4837C 28.8669 17.7492 31.5693 18.8188 33.8203 20.4702C 34.0618 20.4294 34.3048 20.3952 34.5488 20.3683L 34.5488 10.6432L 32.693 12.4993C 32.1323 13.06 31.2233 13.06 30.6628 12.4993C 30.1022 11.9387 30.1022 11.0298 30.6628 10.4691L 34.9696 6.16229C 35.5225 5.6098 36.4339 5.59726 36.9995 6.16249L 41.3062 10.4691C 41.8668 11.0298 41.8668 11.9387 41.3062 12.4993C 40.7455 13.06 39.8365 13.0598 39.276 12.4993L 37.4199 10.6432ZM 12.3074 23.1849C 7.04288 23.5463 2.87109 27.9038 2.87109 33.2089C 2.87109 38.514 7.04288 42.8715 12.3074 43.2329C 10.0602 40.5043 8.70898 37.0115 8.70898 33.2089C 8.70898 29.4063 10.0602 25.9135 12.3074 23.1849ZM 24.5 46.1289C 17.3759 46.1289 11.5801 40.333 11.5801 33.2089C 11.5801 26.0848 17.3759 20.2889 24.5 20.2889C 31.6241 20.2889 37.4199 26.0848 37.4199 33.2089C 37.4199 40.333 31.6241 46.1289 24.5 46.1289ZM 40.291 33.2089C 40.291 37.0115 38.9399 40.5043 36.6926 43.2329C 41.957 42.8715 46.1289 38.514 46.1289 33.2089C 46.1289 27.9038 41.9571 23.5463 36.6926 23.1849C 38.9398 25.9134 40.291 29.4063 40.291 33.2089Z"/><path id="path1_fill" d="M 4 8.57147C 3.26293 8.57147 2.66667 7.93232 2.66667 7.14289C 2.66667 6.35336 3.26293 5.71431 4 5.71431C 4.35609 5.71431 4.69093 5.86288 4.94276 6.1327C 5.46338 6.6906 6.30764 6.69051 6.82836 6.1327C 7.34907 5.57479 7.34907 4.67031 6.82836 4.1124C 6.39911 3.65249 5.88933 3.3104 5.33333 3.1003L 5.33333 1.42858C 5.33333 0.639622 4.73636 0 4 0C 3.26364 0 2.66667 0.639622 2.66667 1.42858L 2.66667 3.1003C 1.13671 3.67821 0 5.24936 0 7.14289C 0 9.51176 1.78907 11.4286 4 11.4286C 4.73689 11.4286 5.33333 12.0675 5.33333 12.8572C 5.33333 13.6467 4.73707 14.2858 4 14.2858C 3.64391 14.2858 3.30907 14.1372 3.05716 13.8673C 2.53644 13.3095 1.69227 13.3095 1.17156 13.8673C 0.650933 14.4252 0.650933 15.3297 1.17156 15.8876C 1.6008 16.3475 2.11058 16.6896 2.66667 16.8997L 2.66667 18.5714C 2.66667 19.3604 3.26364 20 4 20C 4.73636 20 5.33333 19.3604 5.33333 18.5714L 5.33333 16.8997C 6.85609 16.3245 8 14.7584 8 12.8571C 8 10.4887 6.21111 8.57147 4 8.57147Z"/></defs></svg>