<svg width="126" height="51" viewBox="0 0 126 51" version="1.1" xmlns="http://www.w3.org/2000/svg" xmlns:xlink="http://www.w3.org/1999/xlink">
<title>vput_logo</title>
<desc>Created using Figma</desc>
<g id="Canvas" transform="translate(-7244 -266)">
<g id="vput_logo">
<g id="Shape">
<use xlink:href="#path0_fill" transform="translate(7244 278)" fill="#14A4D8"/>
</g>
<g id="Shape">
<use xlink:href="#path1_fill" transform="translate(7351 266)" fill="#FEE900"/>
</g>
<g id="Shape">
<use xlink:href="#path2_fill" transform="translate(7316 277)" fill="#FB6E52"/>
</g>
<g id="Shape">
<use xlink:href="#path3_fill" transform="translate(7279 277)" fill="#9EE712"/>
</g>
</g>
</g>
<defs>
<path id="path0_fill" d="M 22.6256 4.39763e-15L 14.0574 23.3484L 14.0419 23.3794C 13.8397 24.1375 13.4976 24.2304 13.2488 24.2304C 13.14 24.2304 12.86 24.1375 12.4402 23.333L 3.35885 4.39763e-15L 0 4.39763e-15L 10.0921 24.8029C 10.3098 25.6384 10.7452 26.2109 11.3361 26.4275C 11.9581 26.8298 12.549 27 13.2799 27C 14.0263 27 14.6328 26.8143 15.2548 26.412C 15.799 26.0562 16.2344 25.4837 16.4677 24.8183L 26 0L 22.6256 4.39763e-15Z"/>
<path id="path1_fill" d="M 16.3416 33.2388L 15.8361 33.8534C 15.1674 34.6572 14.1562 35.3507 13.1124 35.6816L 13.0309 35.7132C 12.1013 36.1702 11.1064 36.3751 9.91588 36.3751C 8.23605 36.3751 6.84979 35.9023 5.39828 34.8621C 4.1588 33.948 3.57167 32.7817 3.57167 31.1584L 3.57167 15.1615L 13.9768 15.1615L 13.9768 11.8834L 3.57167 11.8834L 3.57167 0L 0 0L 0 31.3318C 0 33.8534 0.99485 36.0284 2.85408 37.6517L 2.8867 37.6675C 4.94163 39.2593 7.17597 40 9.91588 40C 11.2532 40 12.8678 39.6533 14.3356 39.0386C 15.7056 38.4712 17.0755 37.7147 18.4292 36.7849L 19 36.3909L 16.3416 33.2388Z"/>
<path id="path2_fill" d="M 18.6166 0L 18.6166 17.5C 18.6166 19.5597 17.8596 21.2323 16.3146 22.5951C 14.8315 23.9115 12.993 24.5929 10.8146 24.5929C 8.66714 24.5929 6.89045 24.0199 5.66994 22.9513L 5.65449 22.9358C 4.125 21.7124 3.38343 19.9934 3.38343 17.6704L 3.38343 0L 0 0L 0 18.3982C 0 21.2478 1.12781 23.5708 3.46067 25.5221C 5.5 27.1947 7.97191 28 11.0154 28C 13.9199 28 16.3919 27.1327 18.5857 25.3518C 20.8258 23.4469 22 20.9226 22 18.042L 22 0L 18.6166 0Z"/>
<path id="path3_fill" fill-rule="evenodd" d="M 13.5879 0C 17.0166 0 20.1104 1.22699 22.5347 3.55829C 25.5327 6.25766 27 9.61658 27 13.7883C 27 17.6534 25.8359 21.1963 23.7148 23.773C 21.1792 26.7638 17.7183 28.2669 13.4121 28.2669C 11.2754 28.2669 9.32959 27.8834 7.7666 27.1319L 7.73486 27.1166C 5.86865 26.1196 4.41748 24.7853 3.49268 23.2669L 3.49268 40L 0 40L 0 13.6043C 0 10.3681 1.10059 7.36197 3.26953 4.67792C 5.75732 1.57974 9.21777 0 13.5879 0ZM 6.29932 6.54907C 4.41748 8.51227 3.50879 10.9969 3.50879 14.1411L 3.49268 14.1411L 3.49268 16.9632L 4.01904 18.3589C 4.7207 20.2147 5.94873 21.8865 7.49561 23.0522C 9.31348 24.2791 11.2114 24.8773 13.3325 24.8926C 15.8203 24.3865 19.1694 23.2975 20.5093 21.9018C 22.5186 19.6319 23.4917 17.0859 23.4917 14.1411C 23.4917 10.9969 22.5825 8.51227 20.7007 6.54907L 20.6846 6.53372C 18.978 4.53986 16.5859 3.54294 13.6035 3.54294C 10.5415 3.54294 8.29297 4.4632 6.29932 6.54907Z"/>
</defs>
</svg>
