<svg width="164" height="52" viewBox="0 0 164 52" version="1.1" xmlns="http://www.w3.org/2000/svg" xmlns:xlink="http://www.w3.org/1999/xlink">
<title>airbnb_logo</title>
<desc>Created using Figma</desc>
<g id="Canvas" transform="translate(-6864 -264)">
<g id="airbnb_logo">
<g id="Group 15">
<g id="Fill 14">
<use xlink:href="#path0_fill" transform="translate(6864 264.101)" fill="#E0575B"/>
</g>
</g>
</g>
</g>
<defs>
<path id="path0_fill" fill-rule="evenodd" d="M 44.1888 41.3661C 43.8302 44.0253 42.0387 46.3265 39.5295 47.349C 38.301 47.8603 36.9697 48.0135 35.6384 47.8603C 34.3588 47.7071 33.0786 47.298 31.7472 46.5307C 29.9046 45.5081 28.0613 43.9232 25.9106 41.571C 29.2897 37.429 31.3382 33.6457 32.1058 30.2709C 32.4644 28.6853 32.5155 27.2536 32.3621 25.9246C 32.1569 24.646 31.6961 23.4696 30.9796 22.4471C 29.392 20.1465 26.73 18.8169 23.7605 18.8169C 20.7911 18.8169 18.1284 20.1976 16.5414 22.4471C 15.8243 23.4696 15.3635 24.646 15.1589 25.9246C 14.9544 27.2536 15.0055 28.7364 15.4152 30.2709C 16.1828 33.6457 18.2824 37.48 21.6098 41.6221C 19.5109 43.9743 17.6164 45.5592 15.7732 46.5818C 14.4424 47.349 13.1622 47.7582 11.882 47.9114C 10.4996 48.0646 9.16888 47.8603 7.99095 47.4001C 5.48231 46.3775 3.69015 44.0764 3.33222 41.4178C 3.1782 40.1393 3.28109 38.8607 3.79304 37.429C 3.94644 36.9177 4.20273 36.4064 4.4584 35.793C 4.81695 34.9747 5.22664 34.1053 5.63571 33.2365L 5.68746 33.1338C 9.22001 25.5154 13.0088 17.7433 16.9511 10.1754L 17.1045 9.86839C 17.5142 9.10176 17.9239 8.28344 18.3335 7.51619C 18.7426 6.6985 19.2034 5.93125 19.7671 5.26676C 20.8422 4.03928 22.2758 3.37479 23.8628 3.37479C 25.4498 3.37479 26.8834 4.03928 27.9584 5.26676C 28.5221 5.93125 28.9829 6.6985 29.392 7.51619C 29.8017 8.28344 30.2114 9.10176 30.6211 9.86839L 30.7745 10.1754C 34.6656 17.7944 38.4544 25.5665 41.9876 33.1854L 41.9876 33.2365C 42.3966 34.0542 42.7552 34.9747 43.1649 35.793C 43.4206 36.4064 43.6768 36.9177 43.8302 37.429C 44.2399 38.7586 44.394 40.0371 44.1888 41.3661ZM 23.7606 38.9635C 20.9957 35.4859 19.2035 32.2139 18.5893 29.4526C 18.3336 28.2762 18.2825 27.2536 18.4359 26.3331C 18.5382 25.5154 18.8456 24.7992 19.2553 24.1858C 20.228 22.8051 21.8662 21.9358 23.7606 21.9358C 25.655 21.9358 27.3443 22.7541 28.2659 24.1858C 28.6756 24.7992 28.983 25.5154 29.0853 26.3331C 29.2387 27.2536 29.1876 28.3272 28.9313 29.4526C 28.3171 32.1622 26.5255 35.4349 23.7606 38.9635ZM 46.8509 36.3043C 46.5952 35.6908 46.3396 35.0257 46.0833 34.4634C 45.6736 33.5429 45.2639 32.6741 44.9053 31.8558L 44.8542 31.8048C 41.3216 24.1347 37.5328 16.3626 33.5394 8.69259L 33.386 8.38557C 32.9764 7.61894 32.5667 6.80062 32.157 5.98231C 31.645 5.06186 31.1331 4.09034 30.3137 3.17051C 28.6756 1.12472 26.3203 0 23.8117 0C 21.2519 0 18.9478 1.12472 17.2579 3.06775C 16.4903 3.98821 15.9272 4.95972 15.4153 5.88017C 15.0056 6.69849 14.5959 7.51618 14.1862 8.28343L 14.0328 8.59046C 10.0906 16.2605 6.25059 24.0326 2.71742 31.702L 2.66629 31.8048C 2.30835 32.6224 1.89867 33.4918 1.48898 34.4123C 1.23269 34.9746 0.977023 35.5881 0.720734 36.2532C 0.0553808 38.1452 -0.149152 39.9344 0.106514 41.7753C 0.669601 45.6103 3.22937 48.8319 6.76254 50.2636C 8.09325 50.826 9.47572 51.0819 10.9093 51.0819C 11.319 51.0819 11.831 51.0302 12.2406 50.9792C 13.9305 50.7749 15.6709 50.2125 17.3608 49.241C 19.4598 48.0646 21.4564 46.3775 23.7094 43.9232C 25.9618 46.3775 28.0102 48.0646 30.058 49.241C 31.7473 50.2125 33.4883 50.7749 35.1776 50.9792C 35.5873 51.0302 36.0992 51.0819 36.5089 51.0819C 37.9425 51.0819 39.3761 50.826 40.6563 50.2636C 44.24 48.8319 46.7486 45.5592 47.3117 41.7753C 47.7214 39.9861 47.5169 38.1962 46.8509 36.3043ZM 97.8967 18.3056C 99.3814 18.3056 100.15 18.561 100.15 18.561L 100.15 23.1122C 100.15 23.1122 96.0534 21.7315 93.4936 24.646L 93.4936 38.0941L 88.5786 38.0941L 88.5786 18.8169C 88.5786 18.8169 92.3668 18.8169 92.7254 18.8169C 93.1351 18.8169 93.4425 19.175 93.4425 19.5325L 93.4425 20.3508C 94.3641 19.2772 96.3608 18.3056 97.8967 18.3056ZM 111.208 33.901C 109.314 33.901 107.829 32.9295 107.062 31.8048L 107.062 24.9531C 107.829 23.9299 109.468 22.8562 111.208 22.8562C 114.485 22.8562 116.994 24.9014 116.994 28.3789C 116.994 31.8558 114.485 33.901 111.208 33.901ZM 112.028 18.3056C 108.648 18.3056 107.061 20.3508 107.061 20.3508L 107.061 9.56198L 102.146 9.56198L 102.146 38.043C 102.146 38.043 105.935 38.043 106.293 38.043C 106.703 38.043 107.01 37.6849 107.01 37.3268L 107.01 36.4575C 107.01 36.4575 108.597 38.5543 111.977 38.5543C 117.557 38.5543 121.909 34.2591 121.909 28.43C 121.961 22.6009 117.609 18.3056 112.028 18.3056ZM 141.569 26.6401L 141.569 38.0941L 136.654 38.0941L 136.654 27.2025C 136.654 24.0326 135.63 22.7541 132.865 22.7541C 131.381 22.7541 129.845 23.5213 128.872 24.646L 128.872 38.043L 123.957 38.043L 123.957 18.8169L 127.848 18.8169C 128.258 18.8169 128.565 19.175 128.565 19.5325L 128.565 20.3508C 129.998 18.868 131.893 18.3056 133.787 18.3056C 135.937 18.3056 137.729 18.9191 139.163 20.1465C 140.904 21.5783 141.569 23.4186 141.569 26.6401ZM 153.191 33.901C 151.297 33.901 149.812 32.9295 149.044 31.8048L 149.044 24.9531C 149.812 23.9299 151.45 22.8562 153.191 22.8562C 156.468 22.8562 158.977 24.9014 158.977 28.3789C 158.977 31.8558 156.468 33.901 153.191 33.901ZM 154.011 18.3056C 150.632 18.3056 149.044 20.3508 149.044 20.3508L 149.044 9.56198L 144.129 9.56198L 144.129 38.043C 144.129 38.043 147.918 38.043 148.276 38.043C 148.686 38.043 148.993 37.6849 148.993 37.3268L 148.993 36.4575C 148.993 36.4575 150.58 38.5543 153.96 38.5543C 159.54 38.5543 163.892 34.2591 163.892 28.43C 163.892 22.6009 159.54 18.3056 154.011 18.3056ZM 80.5913 38.043L 85.5063 38.043L 85.5063 18.8169L 80.5913 18.8169L 80.5913 38.043ZM 72.6556 31.8558C 71.8873 32.9805 70.3515 33.952 68.5082 33.952C 65.2313 33.952 62.7227 31.9069 62.7227 28.43C 62.7227 24.953 65.2313 22.9073 68.5082 22.9073C 70.3003 22.9073 71.9385 23.9298 72.6556 25.0041L 72.6556 31.8558ZM 72.6554 19.5325C 72.6554 19.8395 72.6554 20.3508 72.6554 20.3508C 72.6554 20.3508 71.0678 18.3056 67.6893 18.3056C 62.1083 18.3056 57.7563 22.5498 57.7563 28.43C 57.7563 34.2591 62.0571 38.5543 67.6893 38.5543C 71.1195 38.5543 72.6554 36.4575 72.6554 36.4575L 72.6554 37.3268C 72.6554 37.736 72.9622 38.043 73.3719 38.043L 77.5193 38.043L 77.5193 18.8169C 77.5193 18.8169 73.7304 18.8169 73.3719 18.8169C 72.9622 18.8169 72.6554 19.175 72.6554 19.5325ZM 86.3767 12.834C 86.3767 14.6749 84.892 16.1577 83.0487 16.1577C 81.2054 16.1577 79.7207 14.6749 79.7207 12.834C 79.7207 10.9937 81.1543 9.51093 83.0487 9.51093C 84.9431 9.56199 86.3767 11.0448 86.3767 12.834Z"/>
</defs>
</svg>
