<svg width="208" height="35" viewBox="0 0 208 35" version="1.1" xmlns="http://www.w3.org/2000/svg" xmlns:xlink="http://www.w3.org/1999/xlink">
<title>Booking.com_logo</title>
<desc>Created using Figma</desc>
<g id="Canvas" transform="translate(-6493 -273)">
<g id="Booking.com_logo">
<g id="Fill 9">
<use xlink:href="#path0_fill" transform="translate(6574 273)" fill="#253764"/>
</g>
<g id="Fill 11">
<use xlink:href="#path1_fill" transform="translate(6556 274)" fill="#253764"/>
</g>
<g id="Fill 12">
<use xlink:href="#path2_fill" transform="translate(6583 281)" fill="#253764"/>
</g>
<g id="Group 16">
<g id="Fill 13">
<use xlink:href="#path3_fill" transform="translate(6631.22 281.428)" fill="#38A1CE"/>
</g>
<g id="Fill 15">
<use xlink:href="#path4_fill" transform="translate(6671.85 281.428)" fill="#38A1CE"/>
</g>
</g>
<g id="Fill 17">
<use xlink:href="#path5_fill" transform="translate(6575 282)" fill="#253764"/>
</g>
<g id="Fill 18">
<use xlink:href="#path6_fill" transform="translate(6513 281)" fill="#253764"/>
</g>
<g id="Fill 19">
<use xlink:href="#path7_fill" transform="translate(6534 281)" fill="#253764"/>
</g>
<g id="Fill 20">
<use xlink:href="#path8_fill" transform="translate(6650 281)" fill="#38A1CE"/>
</g>
<g id="Group 24">
<mask id="mask0_outline" mask-type="alpha">
<g id="Clip 22">
<use xlink:href="#path9_fill" transform="translate(6493.04 274.524)" fill="#FFFFFF"/>
</g>
</mask>
<g id="Fill 21" mask="url(#mask0_outline)">
<use xlink:href="#path10_fill" transform="translate(6603.95 281.237)" fill="#253764"/>
</g>
<g id="Fill 23" mask="url(#mask0_outline)">
<use xlink:href="#path11_fill" transform="translate(6493 274.524)" fill="#253764"/>
</g>
</g>
<g id="Fill 25">
<use xlink:href="#path12_fill" transform="translate(6624 294)" fill="#38A1CE"/>
</g>
</g>
</g>
<defs>
<path id="path0_fill" fill-rule="evenodd" d="M 2.16586 0.127859C 3.81293 -0.403776 5.72675 0.786934 5.94913 2.506C 6.27723 4.14466 4.97415 5.85606 3.30791 5.97749C 1.75505 6.1815 0.198914 4.97274 0.0340425 3.41667C -0.19601 1.98804 0.764733 0.498691 2.16586 0.127859Z"/>
<path id="path1_fill" fill-rule="evenodd" d="M 0.000622125 0.00421613C 1.04179 0.0105527 2.08472 -0.00788093 3.12766 0.00421613C 3.80188 0.0168892 4.53991 0.157446 5.01913 0.659762C 5.5533 1.21104 5.62066 2.0129 5.62303 2.7347C 5.61475 6.32234 5.62303 9.90998 5.61653 13.4982C 6.36106 13.4527 7.36972 13.6428 7.82354 12.9008C 9.09988 11.0016 10.3526 9.08796 11.6272 7.18411C 13.7319 7.18814 15.8397 7.18641 17.9468 7.18641C 16.2675 9.63751 14.5716 12.0765 12.884 14.5213C 12.5726 14.9861 12.2056 15.4118 11.818 15.8168C 12.5874 16.557 12.9963 17.5432 13.5074 18.4499C 14.8387 21.0566 16.482 23.4909 18 25.9956C 16.3272 25.9749 14.652 26.0331 12.9791 25.9685C 11.9982 25.9507 11.0717 25.419 10.6031 24.5739C 9.4751 22.6269 8.45521 20.6182 7.35082 18.6567C 7.014 18.0571 6.19561 18.2495 5.62066 18.1752C 5.61475 20.7835 5.62539 23.3896 5.61475 25.9956C 3.74456 25.9956 1.87495 25.9916 0.00298572 25.9956C -0.00351417 17.3318 0.00298572 8.66801 0.000622125 0.00421613Z"/>
<path id="path2_fill" fill-rule="evenodd" d="M 5.35673 2.62702C 6.57755 1.17641 8.3323 0.234895 10.1894 0.05282C 12.1594 -0.138838 14.3399 0.15344 15.8713 1.55494C 17.2613 2.80311 17.8185 4.74125 17.9314 6.57876C 18 11.0486 17.8668 15.522 18 19.9894C 16.9211 19.972 15.8404 20.0457 14.7656 19.9487C 14.006 19.893 13.2359 19.5252 12.8457 18.8269C 12.385 17.9782 12.4723 16.9684 12.4659 16.0293C 12.4641 13.3688 12.4787 10.7066 12.4601 8.04435C 12.4368 7.03635 12.1884 5.75344 11.1247 5.39648C 9.69038 5.00178 8.07173 5.46116 7.01551 6.53145C 5.96568 7.59096 5.51725 9.14638 5.4777 10.6269C 5.47538 13.7474 5.47945 16.869 5.4777 19.9918C 3.652 19.9936 1.82571 19.996 0 19.9918C 0 13.4719 0 6.95429 0 0.437333C 1.32493 0.514595 2.71268 0.222317 3.98585 0.720627C 4.7722 1.01949 5.16014 1.84063 5.35673 2.62702Z"/>
<path id="path3_fill" fill-rule="evenodd" d="M 2.76738 2.88931C 5.44838 0.261315 9.62563 -0.559257 13.2359 0.367601C 14.6318 0.749315 16.0971 1.38874 16.8794 2.64931C 17.6581 3.90417 17.2457 5.43389 17.3484 6.81731C 16.2599 6.79503 15.1714 6.86246 14.0899 6.78874C 13.328 6.70474 12.8112 6.05903 12.5825 5.39274C 12.4157 4.88417 11.84 4.70989 11.3733 4.57446C 9.43546 4.12589 7.23163 4.9396 6.16821 6.61046C 5.13629 8.21789 5.02138 10.3602 5.81471 12.0847C 6.59929 13.7819 8.49104 14.7699 10.3455 14.8196C 12.575 14.9339 14.6487 13.7327 16.1362 12.1893C 16.8922 13.4316 17.6645 14.6636 18.4176 15.9082C 14.6674 20.1722 7.28179 20.6665 3.04971 16.8265C -0.915791 13.3185 -1.01846 6.55903 2.76738 2.88931Z"/>
<path id="path4_fill" fill-rule="evenodd" d="M 5.16892 2.69324C 6.30525 1.3561 7.88142 0.314959 9.66642 0.0749587C 11.4036 -0.161041 13.3373 0.136673 14.6889 1.30524C 15.309 1.81324 15.7022 2.51896 16.1274 3.18124C 17.3979 1.43039 19.432 0.210387 21.6294 0.0361016C 23.5865 -0.138184 25.7903 0.298387 27.1087 1.8361C 28.3833 3.32067 28.651 5.34182 28.672 7.21553C 28.6679 11.1498 28.6802 15.0864 28.6632 19.0207C 27.2948 18.9327 25.8364 19.2441 24.5408 18.6904C 23.5422 18.223 23.3666 17.0195 23.3853 16.0498C 23.3853 13.1795 23.3958 10.3075 23.3835 7.43724C 23.3269 6.54124 23.2009 5.38467 22.2553 4.95839C 21.0332 4.47439 19.6076 4.94639 18.7116 5.83382C 17.5233 7.00467 17.0333 8.6961 16.9499 10.3075C 16.954 13.2064 16.9435 16.1052 16.9581 19.0064C 15.1935 19.0287 13.4295 19.0104 11.6672 19.0167C 11.669 15.355 11.6649 11.6955 11.669 8.03382C 11.6486 7.12353 11.5693 6.11496 10.9241 5.39953C 10.2923 4.67782 9.177 4.64296 8.31425 4.91553C 7.10908 5.34582 6.30758 6.44924 5.83858 7.57039C 5.27333 8.88467 5.17942 10.3298 5.17708 11.7384C 5.17942 14.1635 5.17708 16.5915 5.17942 19.0167C 3.45275 19.0167 1.72783 19.0167 0.00175 19.0144C -0.000583333 12.815 -0.000583333 6.61496 0.00175 0.413244C 1.34925 0.478959 2.81867 0.177244 4.06175 0.83153C 4.76758 1.19839 4.97642 2.0001 5.16892 2.69324Z"/>
<path id="path5_fill" fill-rule="evenodd" d="M 0 0.015955C 1.22419 0.0845624 2.49242 -0.174169 3.67628 0.253755C 4.56192 0.593304 4.99598 1.64916 4.99386 2.62129C 5.00712 8.08023 4.99386 13.5392 4.9997 18.9987C 3.34887 19.0004 1.70017 19.0004 0.0498802 18.9987C 0.0742897 12.6694 0.0137967 6.3447 0 0.015955Z"/>
<path id="path6_fill" fill-rule="evenodd" d="M 8.67103 4.90469C 7.51012 5.2489 6.53501 6.11829 6.0051 7.21123C 4.8331 9.6751 5.28355 13.21 7.75317 14.6868C 9.68353 15.8306 12.461 15.2729 13.6874 13.3348C 15.016 11.2175 14.9342 8.19359 13.3456 6.23539C 12.2285 4.89463 10.3104 4.42091 8.67103 4.90469ZM 7.80361 0.207028C 10.9457 -0.395631 14.4208 0.302247 16.8378 2.50056C 20.7915 6.03549 21.0555 12.8575 17.5296 16.7852C 13.7145 21.0866 6.15603 21.0825 2.39756 16.7071C -1.23296 12.5796 -0.708887 5.31869 3.75594 2.00436C 4.94021 1.09416 6.34474 0.495642 7.80361 0.207028Z"/>
<path id="path7_fill" fill-rule="evenodd" d="M 8.72096 4.89018C 7.1428 5.32077 5.96896 6.73851 5.60203 8.3195C 5.04228 10.5606 5.60436 13.3381 7.65639 14.6239C 9.30993 15.6424 11.6225 15.4579 13.0459 14.1064C 14.2489 12.9879 14.6807 11.2496 14.6013 9.6432C 14.5469 8.1326 13.9369 6.57054 12.7251 5.63484C 11.612 4.74113 10.0736 4.52288 8.72096 4.89018ZM 7.68143 0.227651C 10.4422 -0.315315 13.4653 0.0880651 15.8212 1.70691C 17.813 3.02292 19.213 5.16994 19.7289 7.51096C 20.4248 10.6493 19.7961 14.1803 17.6681 16.6337C 13.9345 21.0348 6.37087 21.1366 2.5204 16.8437C -0.930415 13.0536 -0.834008 6.50074 2.78683 2.85672C 4.10499 1.50108 5.85143 0.620384 7.68143 0.227651Z"/>
<path id="path8_fill" fill-rule="evenodd" d="M 8.81806 4.86388C 7.63169 5.16966 6.60712 6.0243 6.04986 7.12379C 4.94936 9.33698 5.17133 12.3605 7.00141 14.1182C 8.66969 15.737 11.616 15.6353 13.2025 13.9438C 14.2359 12.8573 14.6483 11.3024 14.5986 9.82315C 14.5922 8.18485 13.9128 6.47025 12.5547 5.51743C 11.4858 4.74086 10.078 4.56047 8.81806 4.86388ZM 7.96268 0.178438C 11.0983 -0.379295 14.5517 0.356463 16.9262 2.58266C 20.8077 6.15204 21.0279 12.9253 17.5027 16.8211C 13.6971 21.0588 6.24884 21.0695 2.46776 16.7939C -0.975686 12.9383 -0.813882 6.28984 2.94324 2.70391C 4.31245 1.37138 6.09988 0.509647 7.96268 0.178438Z"/>
<path id="path9_fill" fill-rule="evenodd" d="M 1.21899e-17 3.27572e-14L 1.21899e-17 33.2882L 129.653 33.2882L 129.653 0L 0 0L 1.21899e-17 3.27572e-14Z"/>
<path id="path10_fill" fill-rule="evenodd" d="M 7.85421 5.05445C 6.62096 5.51374 5.93993 6.77462 5.73204 7.99459C 5.43808 9.62025 5.6483 11.4436 6.67542 12.7955C 8.00119 14.5652 11.1065 14.6586 12.4446 12.8577C 13.3564 11.5899 13.4003 9.94238 13.2914 8.45157C 13.1819 7.19472 12.6695 5.79669 11.4462 5.20774C 10.3394 4.69486 8.99902 4.62859 7.85421 5.05445ZM 5.11038 0.663277C 7.92353 -0.443163 11.4634 -0.232248 13.7934 1.80429C 14.1214 1.17385 14.68 0.642531 15.4091 0.514599C 16.5082 0.330193 17.6279 0.456396 18.7352 0.419514C 18.7393 6.18799 18.737 11.9542 18.737 17.7226C 18.737 19.8295 18.0922 22.0003 16.6066 23.5631C 14.6888 25.6187 11.7872 26.4848 9.01799 26.5736C 6.44025 26.6151 3.83907 26.0094 1.57871 24.7768C 2.01322 23.7285 2.35344 22.6348 2.90038 21.6344C 3.17502 21.1134 3.8016 20.842 4.38308 20.9457C 5.29953 21.1094 6.16502 21.4897 7.09552 21.605C 8.72579 21.8453 10.5727 21.8119 11.9465 20.8011C 12.9888 20.0196 13.3086 18.6568 13.2348 17.427C 11.4886 18.8677 9.05606 19.1161 6.88353 18.7276C 4.70457 18.3346 2.73232 16.9931 1.56993 15.1404C -0.00353777 12.6693 -0.310385 9.57243 0.278129 6.75446C 0.811597 4.14107 2.54083 1.66829 5.11038 0.663277Z"/>
<path id="path11_fill" fill-rule="evenodd" d="M 5.75039 14.7671C 5.20638 15.1066 5.11561 15.7866 5.10097 16.3674C 5.09688 18.0634 5.10332 19.7582 5.10332 21.4519C 6.69142 21.4432 8.28187 21.464 9.87233 21.4478C 10.9586 21.4265 12.0677 20.8583 12.5807 19.8925C 13.3536 18.4311 13.2026 16.3721 11.8809 15.2593C 10.7987 14.3661 9.30489 14.4778 7.98557 14.4698C 7.24188 14.5009 6.4121 14.3476 5.75039 14.7671ZM 5.60137 4.69854C 5.15574 5.08522 5.11826 5.70528 5.10128 6.24928C 5.09718 7.64674 5.10538 9.04247 5.10128 10.4399C 6.48385 10.4336 7.86642 10.4584 9.24898 10.4336C 10.0764 10.4175 10.9103 10.0619 11.4168 9.40437C 12.4147 8.06454 12.3579 5.85627 10.9355 4.82244C 9.96106 4.12169 8.69619 4.31762 7.56542 4.28708C 6.90606 4.30322 6.11786 4.20006 5.60137 4.69854ZM 0.00426851 2.74036C -0.0859117 1.28067 1.26679 -0.036113 2.73778 0.000768362C 4.9794 0.000768362 7.22102 -0.000960452 9.46265 0.000768362C 11.6709 0.0503277 14.0074 0.689412 15.568 2.30585C 17.9759 4.74982 17.8313 9.09606 15.3495 11.4409C 15.0579 11.7094 14.7487 11.9555 14.4466 12.2097C 15.7237 12.8407 16.9066 13.7523 17.5431 15.0426C 18.6967 17.3598 18.558 20.3143 17.0893 22.469C 15.4737 24.83 12.4714 25.8304 9.68575 25.8926C 6.46035 25.903 3.23319 25.8926 0.00661086 25.8967C 0.00426851 18.1787 0.00836761 10.4607 0.00426851 2.74036Z"/>
<path id="path12_fill" fill-rule="evenodd" d="M 2.21481 0.115728C 3.93566 -0.414253 5.89059 0.947618 5.98324 2.74157C 6.16195 4.31893 4.88791 5.87333 3.29425 5.97889C 1.72307 6.17906 0.163396 4.92932 0.0274391 3.35578C -0.179238 1.92499 0.804258 0.459204 2.21481 0.115728Z"/>
</defs>
</svg>
