<svg width="65" height="48" viewBox="0 0 65 48" version="1.1" xmlns="http://www.w3.org/2000/svg" xmlns:xlink="http://www.w3.org/1999/xlink">
<title>workers</title>
<desc>Created using Figma</desc>
<g id="Canvas" transform="translate(-567 -156)">
<g id="workers">
<g id="Shape">
<use xlink:href="#path0_fill" transform="translate(617 177)"/>
</g>
<g id="Shape">
<use xlink:href="#path1_fill" transform="translate(567 156)"/>
</g>
<g id="Shape">
<use xlink:href="#path2_fill" transform="translate(627 196)"/>
</g>
<g id="Shape">
<use xlink:href="#path3_fill" transform="translate(571 197)"/>
</g>
<g id="Shape">
<use xlink:href="#path4_fill" transform="translate(592 165)"/>
</g>
<g id="Shape">
<use xlink:href="#path5_fill" transform="translate(588 199)"/>
</g>
<g id="Shape">
<use xlink:href="#path5_fill" transform="translate(609 199)"/>
</g>
</g>
</g>
<defs>
<path id="path0_fill" d="M 7.47428 1.14821C 5.26605 0.0131619 1.12579 0 0.950619 0C 0.425624 0 0 0.4376 0 0.977368C 0 1.51714 0.425624 1.95474 0.950619 1.95474C 2.01899 1.95487 5.12092 2.12402 6.62404 2.89666C 6.76055 2.9669 6.90555 3 7.0484 3C 7.39709 3 7.73285 2.80192 7.89939 2.45958C 8.13426 1.97676 7.94388 1.38969 7.47428 1.14821Z"/>
<path id="path1_fill" fill-rule="evenodd" d="M 62.0943 35.2433L 58.1619 34.1131C 57.9922 34.0643 57.8736 33.9062 57.8736 33.7286L 57.8736 32.4083C 58.1935 32.1853 58.4987 31.9358 58.784 31.6572C 60.1665 30.3077 60.9279 28.4974 60.9279 26.5599L 60.9279 24.7379L 61.3081 23.9731C 61.7253 23.1335 61.9459 22.1934 61.9459 21.2548L 61.9459 16.319C 61.9459 15.7901 61.5196 15.3612 60.9937 15.3612L 51.8312 15.3612C 48.4994 15.3612 45.7887 18.088 45.7887 21.4395L 45.7887 21.4965C 45.7887 22.2771 45.9722 23.0587 46.3191 23.7568L 46.8067 24.7378L 46.8067 26.3022C 46.8067 28.7815 48.0213 31.006 49.861 32.3445L 49.8612 33.7284C 49.8612 33.9418 49.8612 34.0301 49.075 34.2562L 47.1562 34.8076L 41.6057 32.7773C 41.6257 32.5139 41.5373 32.246 41.3462 32.0441L 39.5726 30.1696L 39.5726 27.023C 39.7601 26.8675 39.9449 26.7079 40.124 26.5391C 42.3616 24.4294 43.6448 21.4508 43.6448 18.3671L 43.6448 15.8542C 44.3205 14.3752 44.6628 12.8102 44.6628 11.1984L 44.6628 0.957779C 44.6628 0.428833 44.2366 0 43.7107 0L 29.4578 0C 24.4419 0 20.3613 4.10493 20.3613 9.15042L 20.3613 11.1987C 20.3613 12.8104 20.7036 14.3755 21.3793 15.8544L 21.3793 18.0166C 21.3793 21.5969 22.9619 24.8225 25.4515 26.949L 25.4515 30.1697L 23.6779 32.0442C 23.4868 32.2461 23.3985 32.514 23.4184 32.7775L 17.5602 34.9202C 17.1356 35.0755 16.7412 35.2858 16.3831 35.5406L 15.4631 35.0779C 18.2015 33.8789 19.069 32.1926 19.1107 32.1088C 19.2447 31.8392 19.2447 31.5217 19.1107 31.2522C 18.4242 29.8712 18.3411 27.3399 18.2743 25.3061C 18.2521 24.629 18.231 23.9893 18.1907 23.4198C 17.8661 18.8257 14.3942 15.3612 10.1146 15.3612C 5.83502 15.3612 2.36298 18.8256 2.03851 23.4198C 1.99823 23.9895 1.97717 24.6291 1.95496 25.3064C 1.88818 27.3401 1.80487 29.871 1.11859 31.252C 0.984497 31.5216 0.984497 31.8391 1.11859 32.1087C 1.16022 32.1924 2.02594 33.8753 4.76978 35.0758L 2.2146 36.3609C 0.848572 37.0484 0 38.4296 0 39.9657L 0 47.0417C 0 47.5706 0.426331 47.9995 0.952148 47.9995C 1.47797 47.9995 1.9043 47.5706 1.9043 47.0417L 1.9043 39.9657C 1.9043 39.1596 2.34955 38.4349 3.06616 38.0744L 6.24799 36.4741L 7.3548 37.5322C 8.12866 38.272 9.12146 38.6417 10.1146 38.6417C 11.1075 38.6417 12.1008 38.2717 12.8745 37.5322L 13.9811 36.4743L 15.0186 36.9961C 14.53 37.7823 14.2527 38.7044 14.2527 39.6702L 14.2527 47.042C 14.2527 47.5709 14.6791 47.9997 15.2049 47.9997C 15.7308 47.9997 16.157 47.5709 16.157 47.042L 16.157 39.6702C 16.157 38.3554 16.9824 37.17 18.2109 36.7206L 24.3875 34.4614L 26.9586 38.3412C 27.2873 38.8372 27.814 39.1553 28.4037 39.2141C 28.4695 39.2206 28.5349 39.2238 28.6001 39.2238C 29.1204 39.2238 29.6187 39.0178 29.9911 38.6432L 31.5598 37.0653L 31.5598 47.0421C 31.5598 47.571 31.9861 47.9999 32.512 47.9999C 33.0378 47.9999 33.4641 47.571 33.4641 47.0421L 33.4641 37.0653L 35.0327 38.6432C 35.4051 39.0179 35.9034 39.2239 36.4238 39.2239C 36.4889 39.2239 36.5544 39.2207 36.62 39.2142C 37.2098 39.1554 37.7366 38.8373 38.0652 38.3413L 40.6365 34.4616L 46.8129 36.7209C 48.0413 37.1703 48.8668 38.3556 48.8668 39.6705L 48.8668 47.0422C 48.8668 47.5712 49.2931 48 49.819 48C 50.3448 48 50.7711 47.5712 50.7711 47.0422L 50.7711 39.6705C 50.7711 38.3388 50.2451 37.0898 49.3628 36.1661L 49.598 36.0986C 49.8353 36.0304 50.1591 35.937 50.4841 35.7767L 52.9151 38.2222L 52.9151 47.0422C 52.9151 47.5712 53.3414 48 53.8672 48C 54.3931 48 54.8194 47.5712 54.8194 47.0422L 54.8194 38.2222L 57.2335 35.7937C 57.3619 35.8594 57.4967 35.9148 57.6386 35.9555L 61.5711 37.0857C 62.4687 37.3437 63.0957 38.1798 63.0957 39.1189L 63.0957 47.0422C 63.0957 47.5712 63.522 48 64.0479 48C 64.5737 48 65 47.5712 65 47.0422L 65 39.1189C 65 37.3287 63.8051 35.7351 62.0943 35.2433ZM 6.1084 33.5516C 4.32733 32.907 3.43396 32.0475 3.05261 31.5782C 3.31262 30.8945 3.4812 30.1114 3.59534 29.2847C 4.12042 30.5512 4.99982 31.6323 6.1084 32.4037L 6.1084 33.5516ZM 8.66669 36.1436C 9.47858 36.9198 10.7507 36.92 11.5629 36.1438L 12.4482 35.2975C 12.2987 35.0157 12.2167 34.6964 12.2167 34.3618L 12.2168 33.3417C 11.5515 33.5493 10.8457 33.6625 10.1149 33.6625C 9.38306 33.6625 8.67694 33.5498 8.01276 33.341L 8.01276 34.3619C 8.01276 34.6964 7.9306 35.0156 7.78119 35.2972L 8.66669 36.1436ZM 10.1151 31.7469C 7.27185 31.7469 4.95886 29.4201 4.95886 26.5602C 4.95886 26.0312 4.53259 25.6024 4.00671 25.6024C 3.95343 25.6024 3.90137 25.6079 3.85046 25.6164L 3.8587 25.37C 3.87994 24.7114 3.90033 24.0893 3.93805 23.5558C 4.05969 21.8348 4.74335 20.249 5.86304 19.0902C 6.9928 17.9209 8.50281 17.2771 10.1149 17.2771C 11.7269 17.2771 13.2368 17.9209 14.3666 19.0902C 15.4863 20.249 16.17 21.8348 16.2916 23.5558C 16.3292 24.0892 16.3497 24.7111 16.3713 25.3696L 16.3771 25.5405C 15.3411 23.9349 13.7413 22.7518 11.6741 22.0836C 9.76434 21.4664 8.12183 21.5046 8.05249 21.5064C 7.80316 21.5134 7.56653 21.6184 7.39349 21.799L 5.67554 23.5912C 5.31055 23.972 5.32147 24.5783 5.70007 24.9455C 6.07861 25.3126 6.6814 25.3015 7.04639 24.9208L 8.47589 23.4296C 9.70691 23.4901 13.6675 23.9535 15.2078 27.3653C 14.8203 29.8796 12.6719 31.7469 10.1151 31.7469ZM 14.121 32.4125L 14.1208 33.5548C 15.9001 32.9104 16.7977 32.0433 17.1769 31.5784C 16.9174 30.8963 16.7489 30.115 16.6348 29.2902C 16.1093 30.5663 15.2286 31.6454 14.121 32.4125ZM 23.2836 18.0164L 23.2836 15.6401C 23.2836 15.4959 23.2512 15.3536 23.1889 15.2237C 22.5762 13.9474 22.2656 12.5932 22.2656 11.1987L 22.2656 9.15056C 22.2656 5.16118 25.4921 1.9157 29.4578 1.9157L 42.7586 1.9157L 42.7586 11.1988C 42.7586 12.5933 42.4479 13.9475 41.8353 15.2238C 41.7729 15.3537 41.7405 15.4961 41.7405 15.6403L 41.7405 18.3674C 41.7405 20.9612 40.704 23.367 38.8218 25.1417C 38.5868 25.3632 38.3429 25.5708 38.0908 25.7643C 38.0873 25.7667 38.0839 25.7692 38.0805 25.7718L 38.0744 25.7763C 36.3112 27.123 34.1514 27.7774 31.896 27.6304C 27.0665 27.3159 23.2836 23.093 23.2836 18.0164ZM 28.5916 37.3075C 28.6227 37.3109 28.6381 37.2952 28.6447 37.2885L 31.0272 34.8917L 26.535 31.8029L 25.5821 32.8102L 28.5433 37.2783C 28.5485 37.2862 28.5607 37.3045 28.5916 37.3075ZM 32.512 33.5923L 27.3558 30.047L 27.3558 28.2591C 28.69 28.9846 30.1838 29.4384 31.7726 29.5418C 32.0236 29.5582 32.2731 29.5662 32.5218 29.5662C 34.3425 29.5662 36.0947 29.1284 37.6682 28.2975L 37.6682 30.047L 32.512 33.5923ZM 36.4325 37.3078C 36.4634 37.3047 36.4756 37.2865 36.4808 37.2785L 39.4421 32.8104L 38.4891 31.8032L 33.9969 34.8921L 36.3794 37.2888L 36.3804 37.2897C 36.3876 37.2968 36.4028 37.3116 36.4325 37.3078ZM 53.8672 36.4704L 51.7065 34.297C 51.7442 34.1248 51.7655 33.9361 51.7654 33.7281L 51.7653 33.3239C 52.3649 33.5219 52.9968 33.6393 53.6508 33.659C 53.7241 33.6613 53.7969 33.6623 53.87 33.6623C 54.5927 33.6623 55.298 33.5525 55.9693 33.3429L 55.9693 33.7286C 55.9693 33.9197 55.9932 34.1069 56.0381 34.2868L 53.8672 36.4704ZM 53.708 31.7443C 55.1155 31.788 56.4487 31.2677 57.4578 30.2826C 58.4675 29.297 59.0236 27.975 59.0236 26.56L 59.0236 24.5119C 59.0236 24.3631 59.058 24.2166 59.1241 24.0836L 59.6047 23.1166C 59.8905 22.5415 60.0416 21.8978 60.0416 21.2549L 60.0416 17.2769L 51.8312 17.2769C 49.5494 17.2769 47.693 19.1442 47.693 21.4396L 47.693 21.4967C 47.693 21.9814 47.8069 22.4667 48.0223 22.9003L 48.6105 24.0836C 48.6766 24.2165 48.7111 24.3631 48.7111 24.5119L 48.7111 26.3024C 48.7111 29.2199 50.9526 31.6612 53.708 31.7443Z"/>
<path id="path2_fill" d="M 1 0C 0.447733 0 0 0.425636 0 0.950646L 0 7.04935C 0 7.57436 0.447733 8 1 8C 1.55227 8 2 7.57436 2 7.04935L 2 0.950646C 2 0.425762 1.55227 0 1 0Z"/>
<path id="path3_fill" d="M 1 0C 0.447733 0 0 0.441834 0 0.986824L 0 6.01318C 0 6.55817 0.447733 7 1 7C 1.55227 7 2 6.55817 2 6.01318L 2 0.986824C 2 0.441965 1.55227 0 1 0Z"/>
<path id="path4_fill" d="M 15.7238 2.58414C 12.1577 -0.707004 4.69646 -0.0778043 1.65382 0.345452C 0.695473 0.478764 0 1.22724 0 2.12515L 0 4.12982C 0 4.61039 0.422162 5 0.942887 5C 1.46361 5 1.88577 4.61039 1.88577 4.12982L 1.88577 2.12503C 1.88577 2.09545 1.90689 2.07015 1.93505 2.06621C 3.15037 1.89716 5.56203 1.63634 8.06067 1.79007C 11.001 1.97072 13.1306 2.6519 14.3905 3.8147C 14.7587 4.15453 15.3557 4.15453 15.7238 3.8147C 16.0921 3.47486 16.0921 2.92386 15.7238 2.58414Z"/>
<path id="path5_fill" d="M 1 0C 0.447733 0 0 0.35665 0 0.796567L 0 4.20343C 0 4.64335 0.447733 5 1 5C 1.55227 5 2 4.64335 2 4.20343L 2 0.796567C 2 0.356756 1.55227 0 1 0Z"/>
</defs>
</svg>
