<svg width="167" height="64" xmlns="http://www.w3.org/2000/svg" xmlns:xlink="http://www.w3.org/1999/xlink"><g transform="translate(-7856 -424)"><use xlink:href="#path0_fill" transform="translate(7856 424)" fill="#FFF" fill-opacity=".82"/><mask id="a"><use xlink:href="#path0_fill" transform="translate(7856 424)" fill="#FFF"/></mask><g opacity=".663" mask="url(#a)"><use xlink:href="#path1_fill" transform="translate(7854.3 421.091)" fill="#FFF"/></g><g mask="url(#a)"><use xlink:href="#path2_fill" transform="translate(7864 432.5)" fill="#14A4D8"/><use xlink:href="#path3_fill" transform="translate(7892.19 429)" fill="#FEE900"/><use xlink:href="#path4_fill" transform="translate(7883.25 431.8)" fill="#FB6E52"/><use xlink:href="#path5_fill" transform="translate(7873.62 431.8)" fill="#9EE712"/></g></g><use xlink:href="#path6_fill" transform="translate(52 7)" fill="#262626"/><use xlink:href="#path7_fill" transform="translate(9 27)" fill="#262626"/><defs><path id="path0_fill" fill-rule="evenodd" d="M0 10C0 4.477 4.477 0 10 0h147c5.523 0 10 4.477 10 10v44c0 5.523-4.477 10-10 10H10C4.477 64 0 59.523 0 54V10z"/><path id="path1_fill" fill-rule="evenodd" d="M0 0h177.173v25.212H0V0z"/><path id="path2_fill" d="M5.983 0L3.717 6.659l-.004.008c-.053.217-.144.243-.21.243-.028 0-.103-.026-.214-.256L.89 0H0l2.669 7.073c.057.239.172.402.329.464.164.114.32.163.514.163a.863.863 0 0 0 .522-.168.895.895 0 0 0 .32-.454L6.875 0h-.892z"/><path id="path3_fill" d="M4.14 8.725l-.129.162c-.17.21-.425.393-.69.48l-.02.008c-.236.12-.488.173-.79.173-.425 0-.776-.124-1.144-.397-.314-.24-.462-.546-.462-.972v-4.2H3.54v-.86H.905V0H0v8.225c0 .662.252 1.232.723 1.659l.008.004c.52.418 1.087.612 1.78.612.34 0 .748-.091 1.12-.252a5.618 5.618 0 0 0 1.037-.592l.144-.103-.673-.828z"/><path id="path4_fill" d="M5.236 0v4.813c0 .566-.213 1.026-.648 1.4-.417.363-.934.55-1.546.55-.604 0-1.104-.158-1.447-.451l-.005-.005C1.16 5.971.952 5.498.952 4.86V0H0v5.06c0 .783.317 1.422.973 1.959.574.46 1.27.681 2.125.681.817 0 1.512-.239 2.13-.728.63-.524.96-1.218.96-2.01V0h-.952z"/><path id="path5_fill" fill-rule="evenodd" d="M3.46 0c.873 0 1.66.344 2.278.996.763.756 1.137 1.697 1.137 2.865 0 1.082-.296 2.074-.836 2.795-.646.838-1.527 1.259-2.624 1.259-.544 0-1.04-.108-1.437-.318l-.008-.004A2.9 2.9 0 0 1 .89 6.515V11.2H0V3.81c0-.907.28-1.749.833-2.5C1.466.442 2.347 0 3.46 0zM1.604 1.834c-.48.55-.71 1.245-.71 2.125H.888v.79l.134.391c.179.52.492.988.885 1.315.464.343.946.51 1.487.515.633-.142 1.486-.447 1.827-.837a3.34 3.34 0 0 0 .76-2.174c0-.88-.232-1.576-.711-2.125l-.004-.005C4.832 1.271 4.223.992 3.464.992c-.78 0-1.353.258-1.86.842z"/><path id="path6_fill" d="M2.905 6.607L4.53 1.602h1.221L3.45 8H2.373L.08 1.602h1.217l1.609 5.005zm3.186.268c.199 0 .353.057.461.171a.58.58 0 0 1 .163.422.575.575 0 0 1-.163.418c-.108.108-.262.162-.461.162a.621.621 0 0 1-.453-.162.557.557 0 0 1-.167-.418c0-.17.054-.31.163-.422.108-.114.26-.171.457-.171zm3.063-1.252V8H8.042V1.602h2.448c.715 0 1.281.186 1.7.558.422.372.633.864.633 1.476 0 .627-.206 1.115-.62 1.464-.41.348-.985.523-1.726.523H9.154zm0-.893h1.336c.395 0 .697-.092.905-.276.208-.188.312-.457.312-.809 0-.346-.105-.621-.316-.826-.211-.208-.501-.315-.87-.32l-1.367-.001V4.73zm3.432 2.145c.2 0 .353.057.461.171a.58.58 0 0 1 .163.422.575.575 0 0 1-.163.418c-.108.108-.262.162-.461.162a.621.621 0 0 1-.453-.162.557.557 0 0 1-.167-.418c0-.17.055-.31.163-.422.108-.114.26-.171.457-.171zm6.631-5.273v4.275c0 .68-.218 1.22-.654 1.618-.434.395-1.013.593-1.736.593-.733 0-1.314-.195-1.745-.585-.43-.392-.646-.936-.646-1.63V1.602h1.107v4.28c0 .428.109.754.326.98.216.225.536.338.958.338.855 0 1.283-.451 1.283-1.353V1.602h1.107zm1.754 5.273c.199 0 .353.057.461.171a.58.58 0 0 1 .163.422.575.575 0 0 1-.163.418c-.108.108-.262.162-.461.162a.621.621 0 0 1-.453-.162.557.557 0 0 1-.167-.418c0-.17.054-.31.163-.422.108-.114.26-.171.457-.171zm6.574-4.377H25.55V8h-1.103V2.498h-1.978v-.896h5.076v.896zm.272 4.377c.2 0 .353.057.462.171a.58.58 0 0 1 .162.422.575.575 0 0 1-.162.418c-.109.108-.262.162-.462.162a.621.621 0 0 1-.452-.162.557.557 0 0 1-.167-.418c0-.17.054-.31.162-.422.109-.114.261-.171.457-.171z"/><path id="path7_fill" d="M1.35 5.394V8H.808V1.602h2.18c.664 0 1.189.17 1.573.51.386.34.58.806.58 1.401 0 .6-.186 1.065-.559 1.393-.369.325-.905.488-1.608.488H1.35zm0-.457h1.638c.525 0 .925-.125 1.2-.374.275-.249.413-.596.413-1.041 0-.442-.138-.794-.413-1.055-.272-.263-.66-.398-1.165-.404H1.35v2.874zM9.18 8c-.053-.15-.086-.37-.1-.664a1.85 1.85 0 0 1-.708.559 2.166 2.166 0 0 1-.906.193c-.457 0-.827-.128-1.112-.382a1.248 1.248 0 0 1-.421-.967c0-.463.192-.83.575-1.099.387-.27.925-.404 1.613-.404h.954v-.54c0-.34-.106-.607-.317-.8-.208-.197-.512-.295-.914-.295-.366 0-.67.094-.91.281-.24.188-.36.413-.36.677l-.527-.004c0-.378.176-.705.527-.98.352-.279.784-.418 1.297-.418.53 0 .947.134 1.252.4.308.264.466.633.475 1.108v2.25c0 .46.048.804.145 1.032V8H9.18zm-1.652-.378c.351 0 .665-.085.94-.255.279-.17.48-.397.607-.681V5.64h-.94c-.525.006-.935.103-1.231.29-.296.185-.444.44-.444.765 0 .266.098.488.294.663.2.176.457.264.774.264zm6.324-.83c0-.261-.106-.47-.317-.629-.208-.158-.523-.281-.945-.37-.421-.09-.75-.192-.984-.307a1.346 1.346 0 0 1-.519-.426 1.068 1.068 0 0 1-.167-.606c0-.375.157-.684.47-.928.314-.246.715-.369 1.205-.369.53 0 .955.132 1.274.396.322.26.483.602.483 1.024h-.527a.85.85 0 0 0-.351-.695c-.232-.184-.525-.277-.88-.277-.345 0-.623.078-.834.233a.708.708 0 0 0-.312.598c0 .237.086.422.259.554.176.129.494.247.954.356.463.108.808.224 1.037.347.231.123.403.27.514.444.111.173.167.382.167.628 0 .402-.163.722-.488.963-.322.24-.744.36-1.265.36-.554 0-1.004-.133-1.35-.4-.342-.27-.514-.61-.514-1.02h.528c.02.308.149.548.386.721.24.17.557.255.95.255.366 0 .662-.08.887-.242.226-.16.339-.364.339-.61zm2.53-4.764v1.217h.985v.43h-.984v3.17c0 .263.047.46.14.588.097.129.257.193.48.193.087 0 .23-.014.426-.043l.022.43c-.138.05-.326.075-.563.075-.36 0-.622-.104-.786-.312-.165-.211-.247-.52-.247-.927V3.676h-.874v-.43h.874V2.027h.528zM21.459 8c-.052-.15-.086-.37-.1-.664-.185.24-.421.427-.708.559a2.166 2.166 0 0 1-.905.193c-.457 0-.828-.128-1.112-.382a1.249 1.249 0 0 1-.422-.967c0-.463.192-.83.576-1.099.386-.27.924-.404 1.612-.404h.954v-.54c0-.34-.105-.607-.316-.8-.208-.197-.513-.295-.914-.295-.367 0-.67.094-.91.281-.24.188-.36.413-.36.677l-.528-.004c0-.378.176-.705.527-.98.352-.279.784-.418 1.297-.418.53 0 .948.134 1.252.4.308.264.466.633.475 1.108v2.25c0 .46.048.804.145 1.032V8h-.563zm-1.652-.378c.352 0 .665-.085.94-.255.279-.17.481-.397.607-.681V5.64h-.94c-.525.006-.935.103-1.23.29-.297.185-.445.44-.445.765 0 .266.098.488.295.663.199.176.457.264.773.264zM25.594 8V1.602h1.89c.685 0 1.205.142 1.56.426.354.281.531.697.531 1.248 0 .33-.09.62-.272.866a1.469 1.469 0 0 1-.739.523c.372.082.671.265.897.549.229.284.343.612.343.984 0 .566-.183 1.008-.55 1.327-.363.317-.87.475-1.52.475h-2.14zm.54-3.076v2.619h1.622c.463 0 .829-.117 1.099-.352.272-.237.408-.565.408-.984 0-.395-.13-.707-.39-.936-.259-.231-.616-.347-1.073-.347h-1.666zm0-.453h1.477c.451-.009.8-.114 1.046-.316.249-.205.373-.503.373-.892 0-.41-.129-.712-.386-.906-.255-.196-.642-.294-1.16-.294h-1.35v2.408zM33.992 8c-.053-.15-.087-.37-.101-.664-.185.24-.42.427-.708.559a2.166 2.166 0 0 1-.905.193c-.457 0-.828-.128-1.112-.382a1.249 1.249 0 0 1-.422-.967c0-.463.192-.83.576-1.099.386-.27.924-.404 1.613-.404h.953v-.54c0-.34-.105-.607-.316-.8-.208-.197-.513-.295-.914-.295-.366 0-.67.094-.91.281-.24.188-.36.413-.36.677l-.528-.004c0-.378.176-.705.528-.98.351-.279.783-.418 1.296-.418.53 0 .948.134 1.253.4.307.264.465.633.474 1.108v2.25c0 .46.049.804.145 1.032V8h-.562zm-1.653-.378c.352 0 .665-.085.94-.255.28-.17.481-.397.607-.681V5.64h-.94c-.525.006-.935.103-1.23.29-.297.185-.445.44-.445.765 0 .266.099.488.295.663.2.176.457.264.773.264zm3.977-4.377l.018.813a1.87 1.87 0 0 1 .668-.668c.267-.155.561-.233.883-.233.51 0 .89.144 1.138.43.25.288.375.719.378 1.293V8h-.523V4.875c-.002-.424-.093-.74-.272-.949-.176-.208-.459-.312-.848-.312-.325 0-.614.103-.866.308a1.782 1.782 0 0 0-.554.822V8h-.523V3.245h.501zm5.577 2.36l-.602.58V8h-.527V1.25h.527v4.32l.497-.536 1.819-1.789h.663L42.253 5.25 44.446 8h-.628l-1.925-2.395zm3.155 2.079a.37.37 0 0 1 .097-.26.358.358 0 0 1 .277-.11.36.36 0 0 1 .378.37.346.346 0 0 1-.101.254.384.384 0 0 1-.277.097.384.384 0 0 1-.277-.097.354.354 0 0 1-.097-.254zm.01-4.057a.37.37 0 0 1 .096-.259.358.358 0 0 1 .277-.11.36.36 0 0 1 .378.37.345.345 0 0 1-.101.254.384.384 0 0 1-.277.097.384.384 0 0 1-.277-.097.354.354 0 0 1-.097-.255zM50.035 8h-.54V1.602h.54V8zm2.118-4.755l.018.813a1.87 1.87 0 0 1 .668-.668c.266-.155.56-.233.883-.233.51 0 .89.144 1.138.43.25.288.375.719.378 1.293V8h-.523V4.875c-.003-.424-.093-.74-.272-.949-.176-.208-.459-.312-.848-.312-.325 0-.614.103-.866.308a1.782 1.782 0 0 0-.554.822V8h-.523V3.245h.501zm5.928 4.03l1.446-4.03h.54L58.295 8h-.427l-1.784-4.755h.54l1.46 4.03zm2.492-1.723c0-.457.088-.868.264-1.235.179-.366.43-.65.751-.852a2.024 2.024 0 0 1 1.103-.308c.633 0 1.146.223 1.539.668.392.443.588 1.03.588 1.762v.11c0 .46-.089.875-.268 1.244a1.974 1.974 0 0 1-.747.848c-.322.2-.69.299-1.103.299-.63 0-1.142-.221-1.538-.664-.392-.445-.589-1.034-.589-1.766v-.106zm.528.145c0 .569.146 1.036.439 1.402.296.363.683.545 1.16.545.475 0 .859-.182 1.151-.545.296-.366.444-.848.444-1.446v-.1c0-.364-.067-.697-.202-.998a1.609 1.609 0 0 0-.567-.699 1.439 1.439 0 0 0-.835-.25c-.468 0-.85.184-1.147.553-.296.366-.443.847-.443 1.442v.096zM66.498 8h-.527V3.245h.527V8zm-.62-6.13c0-.1.033-.183.097-.25a.34.34 0 0 1 .264-.106c.111 0 .199.035.263.105a.34.34 0 0 1 .102.25.347.347 0 0 1-.365.352.348.348 0 0 1-.264-.1.348.348 0 0 1-.097-.251zm3.81 5.774c.367 0 .673-.103.919-.308.249-.208.384-.476.404-.804h.506a1.5 1.5 0 0 1-.273.796 1.71 1.71 0 0 1-.668.558 1.993 1.993 0 0 1-.887.202c-.624 0-1.12-.217-1.486-.65-.363-.434-.545-1.017-.545-1.75V5.53c0-.468.082-.883.246-1.243.164-.36.399-.64.703-.835a1.958 1.958 0 0 1 1.077-.295c.522 0 .95.155 1.288.466.34.31.521.72.545 1.226h-.506c-.023-.372-.158-.672-.404-.9-.243-.23-.55-.344-.923-.344-.474 0-.844.172-1.107.515-.261.342-.391.823-.391 1.441v.154c0 .606.13 1.08.39 1.42.264.34.635.509 1.113.509zm4.725.444c-.405 0-.77-.1-1.099-.299a2.045 2.045 0 0 1-.76-.83 2.61 2.61 0 0 1-.273-1.2v-.19c0-.456.088-.868.264-1.234.179-.366.426-.653.743-.861.316-.211.659-.317 1.028-.317.577 0 1.034.198 1.371.593.34.393.51.93.51 1.613v.295h-3.393v.1c0 .54.154.99.462 1.35.31.357.7.536 1.169.536.28 0 .528-.051.742-.154.217-.102.413-.266.59-.492l.329.25c-.387.56-.948.84-1.683.84zm-.097-4.483c-.396 0-.73.145-1.002.436-.27.29-.434.68-.492 1.168h2.852v-.057c-.015-.457-.145-.829-.391-1.116-.246-.287-.569-.43-.967-.43zM87.24 6.097h-2.623v-.426h2.623v.426zm-2.764-3.072c0-.448.129-.808.387-1.08.26-.276.605-.414 1.032-.414.428 0 .773.136 1.033.409.261.272.391.642.391 1.107V3.5c0 .442-.127.801-.382 1.077-.255.272-.6.408-1.033.408-.436 0-.783-.136-1.041-.408-.258-.273-.387-.638-.387-1.095v-.457zm.475.475c0 .334.083.596.25.787.167.187.402.28.703.28.287 0 .516-.093.686-.28.17-.188.255-.454.255-.8v-.462c0-.328-.084-.587-.25-.777-.168-.194-.4-.29-.7-.29-.298 0-.531.098-.698.294-.164.193-.246.458-.246.795V3.5zM83.632 8h-.567L80.03 2.524V8H79.5V1.602h.567l3.046 5.48v-5.48h.518V8zm8.877 0h-4.008v-.404l2.193-2.488c.364-.419.616-.764.756-1.037.14-.272.211-.537.211-.795 0-.404-.118-.724-.356-.958-.237-.237-.564-.356-.98-.356-.43 0-.78.138-1.046.413-.263.275-.395.633-.395 1.072h-.523c0-.36.08-.688.242-.984.164-.296.395-.527.694-.694.302-.17.644-.255 1.028-.255.586 0 1.043.153 1.371.461.331.308.497.727.497 1.257 0 .299-.094.625-.281.98-.185.354-.512.797-.98 1.327l-1.785 2.017h3.362V8zm4.843-2.667c0 .902-.166 1.587-.496 2.056-.332.466-.82.699-1.464.699-.633 0-1.118-.229-1.454-.686-.337-.46-.51-1.128-.52-2.004V4.251c0-.899.168-1.58.502-2.043.334-.463.822-.694 1.463-.694.633 0 1.117.224 1.45.672.335.445.507 1.103.52 1.973v1.174zm-.527-1.147c0-.733-.12-1.287-.36-1.662-.238-.375-.598-.562-1.082-.562-.474 0-.832.183-1.072.55-.24.365-.363.906-.37 1.62V5.39c0 .73.124 1.287.37 1.674.25.387.61.58 1.081.58.469 0 .823-.189 1.064-.567.243-.378.366-.931.369-1.661v-1.23zm2.017.536l.312-3.12h3.199v.487h-2.747l-.224 2.162a2.08 2.08 0 0 1 1.204-.351c.578 0 1.038.187 1.38.562.343.375.514.875.514 1.499 0 .674-.167 1.197-.501 1.569-.333.372-.804.558-1.41.558-.557 0-1.008-.155-1.354-.466-.345-.31-.543-.746-.593-1.305h.505c.05.436.198.767.444.993.246.223.579.334.998.334.457 0 .801-.145 1.033-.435.234-.29.351-.703.351-1.24 0-.468-.13-.85-.391-1.146-.261-.296-.617-.444-1.068-.444-.249 0-.466.032-.65.097-.185.061-.38.183-.585.364l-.417-.118zm7.919.316c-.188.275-.421.49-.699.642-.278.15-.58.224-.905.224-.364 0-.684-.094-.963-.281a1.848 1.848 0 0 1-.646-.778 2.57 2.57 0 0 1-.228-1.086c0-.422.08-.805.242-1.151a1.92 1.92 0 0 1 .681-.804c.293-.194.63-.29 1.01-.29.642 0 1.142.225 1.499.676.357.449.536 1.086.536 1.912v.475c0 1.154-.246 2.021-.738 2.601-.492.58-1.244.87-2.255.87h-.096l.004-.457h.185c.764-.011 1.346-.228 1.744-.65.399-.422.608-1.056.629-1.903zm-1.538.413c.351 0 .666-.104.944-.312a1.7 1.7 0 0 0 .598-.817v-.303c0-.65-.136-1.155-.409-1.512a1.294 1.294 0 0 0-1.094-.54 1.25 1.25 0 0 0-1.024.505c-.266.334-.4.756-.4 1.265 0 .49.128.898.383 1.226a1.22 1.22 0 0 0 1.002.488zm6.042-1.402c.173-.284.394-.504.664-.659.269-.155.564-.233.883-.233.51 0 .889.144 1.138.43.249.288.375.719.378 1.293V8h-.523V4.875c-.003-.424-.094-.74-.272-.949-.176-.208-.459-.312-.848-.312-.326 0-.614.103-.866.308a1.782 1.782 0 0 0-.554.822V8h-.523V1.25h.523v2.8zM118.683 8c-.053-.15-.086-.37-.101-.664-.185.24-.42.427-.707.559a2.17 2.17 0 0 1-.906.193c-.457 0-.827-.128-1.112-.382a1.248 1.248 0 0 1-.421-.967c0-.463.191-.83.575-1.099.387-.27.925-.404 1.613-.404h.954v-.54c0-.34-.106-.607-.317-.8-.208-.197-.512-.295-.914-.295-.366 0-.669.094-.909.281-.241.188-.361.413-.361.677l-.527-.004c0-.378.176-.705.527-.98.352-.279.784-.418 1.297-.418.53 0 .947.134 1.252.4.308.264.466.633.475 1.108v2.25c0 .46.048.804.145 1.032V8h-.563zm-1.652-.378c.351 0 .665-.085.94-.255.279-.17.481-.397.607-.681V5.64h-.941c-.524.006-.934.103-1.23.29-.296.185-.444.44-.444.765 0 .266.098.488.294.663.2.176.457.264.774.264zm6.323-.83c0-.261-.105-.47-.316-.629-.208-.158-.523-.281-.945-.37-.422-.09-.75-.192-.984-.307a1.35 1.35 0 0 1-.519-.426 1.07 1.07 0 0 1-.167-.606c0-.375.157-.684.471-.928.313-.246.714-.369 1.204-.369.53 0 .955.132 1.274.396.322.26.483.602.483 1.024h-.527a.85.85 0 0 0-.351-.695c-.232-.184-.525-.277-.879-.277-.346 0-.624.078-.835.233a.708.708 0 0 0-.312.598c0 .237.086.422.259.554.176.129.494.247.954.356.462.108.808.224 1.037.347.231.123.403.27.514.444.111.173.167.382.167.628 0 .402-.163.722-.488.963-.322.24-.744.36-1.266.36-.553 0-1.003-.133-1.349-.4-.342-.27-.514-.61-.514-1.02h.527c.021.308.15.548.387.721.24.17.557.255.949.255.367 0 .663-.08.888-.242.226-.16.338-.364.338-.61zm7.73-1.121c0 .741-.164 1.33-.492 1.766-.328.434-.769.65-1.322.65-.663 0-1.164-.245-1.503-.737l-.022.65h-.493V1.25h.523v2.685c.334-.518.829-.778 1.486-.778.562 0 1.006.216 1.331.646.328.428.492 1.024.492 1.789v.079zm-.527-.092c0-.627-.121-1.11-.365-1.45-.243-.343-.586-.515-1.028-.515-.337 0-.622.084-.857.25-.234.165-.411.407-.532.726v2.144c.264.598.73.897 1.398.897.433 0 .772-.172 1.015-.514.246-.343.369-.856.369-1.538zm3.533 2.509c-.404 0-.77-.1-1.098-.299a2.05 2.05 0 0 1-.761-.83 2.618 2.618 0 0 1-.272-1.2v-.19c0-.456.088-.868.264-1.234.178-.366.426-.653.742-.861.317-.211.66-.317 1.029-.317.577 0 1.034.198 1.371.593.34.393.51.93.51 1.613v.295h-3.393v.1c0 .54.154.99.461 1.35.311.357.701.536 1.169.536.282 0 .529-.051.743-.154.217-.102.413-.266.589-.492l.329.25c-.386.56-.947.84-1.683.84zm-.096-4.483c-.396 0-.73.145-1.002.436-.27.29-.434.68-.492 1.168h2.852v-.057c-.015-.457-.145-.829-.392-1.116a1.21 1.21 0 0 0-.966-.43zm4.746 4.483c-.405 0-.771-.1-1.099-.299a2.041 2.041 0 0 1-.76-.83 2.606 2.606 0 0 1-.273-1.2v-.19c0-.456.088-.868.264-1.234.179-.366.426-.653.743-.861.316-.211.659-.317 1.028-.317.577 0 1.034.198 1.371.593.34.393.51.93.51 1.613v.295h-3.393v.1c0 .54.154.99.462 1.35.31.357.7.536 1.169.536.281 0 .529-.051.742-.154.217-.102.413-.266.589-.492l.33.25c-.387.56-.948.84-1.683.84zm-.097-4.483c-.395 0-.729.145-1.002.436-.269.29-.433.68-.492 1.168h2.852v-.057c-.015-.457-.145-.829-.391-1.116-.246-.287-.568-.43-.967-.43zm3.406-.36l.017.813c.179-.293.402-.516.668-.668.267-.155.561-.233.884-.233.509 0 .889.144 1.138.43.249.288.375.719.378 1.293V8h-.523V4.875c-.003-.424-.094-.74-.273-.949-.175-.208-.458-.312-.848-.312a1.33 1.33 0 0 0-.865.308c-.25.202-.434.476-.554.822V8h-.523V3.245h.501zM4.509 16.671c0 .741-.164 1.33-.492 1.767-.329.433-.768.65-1.319.65-.65 0-1.148-.229-1.494-.686v2.426H.681v-6.583h.488l.026.673c.343-.507.84-.76 1.49-.76.568 0 1.014.215 1.336.645.325.43.488 1.028.488 1.793v.075zm-.528-.092c0-.607-.124-1.086-.373-1.437-.25-.352-.596-.528-1.042-.528-.322 0-.599.078-.83.233-.232.155-.409.381-.532.677v2.28c.126.273.306.481.54.625.235.143.512.215.831.215.443 0 .787-.176 1.033-.527.249-.355.373-.867.373-1.538zM8.68 19c-.053-.15-.086-.37-.1-.664-.185.24-.421.427-.708.559a2.166 2.166 0 0 1-.906.193c-.457 0-.827-.128-1.111-.382a1.248 1.248 0 0 1-.422-.967c0-.463.192-.83.575-1.099.387-.27.925-.404 1.613-.404h.954v-.54c0-.34-.106-.607-.317-.8-.208-.197-.512-.295-.914-.295-.366 0-.67.094-.91.281-.24.188-.36.413-.36.677l-.527-.004c0-.378.176-.705.527-.98.352-.279.784-.418 1.297-.418.53 0 .947.133 1.252.4.308.264.466.633.475 1.108v2.25c0 .46.048.804.145 1.032V19h-.563zm-1.652-.378c.351 0 .665-.085.94-.255.279-.17.48-.397.607-.681V16.64h-.94c-.525.006-.935.103-1.231.29-.296.185-.444.44-.444.765 0 .266.098.488.294.663.2.176.457.264.774.264zm4.065.378h-.527v-4.755h.527V19zm-.62-6.13c0-.1.032-.183.097-.25a.34.34 0 0 1 .263-.106c.112 0 .2.035.264.105a.34.34 0 0 1 .101.25.348.348 0 0 1-.365.352.348.348 0 0 1-.263-.1.349.349 0 0 1-.097-.251zm1.841 3.709c0-.739.164-1.326.493-1.763.33-.439.779-.659 1.344-.659.642 0 1.131.254 1.468.76V12.25h.523V19h-.492l-.022-.633c-.337.48-.832.72-1.485.72-.548 0-.99-.219-1.327-.658-.335-.443-.502-1.039-.502-1.789v-.061zm.532.092c0 .606.122 1.085.365 1.437.243.348.586.523 1.028.523.648 0 1.108-.286 1.38-.857V15.54c-.272-.618-.73-.927-1.37-.927-.443 0-.788.175-1.034.523-.246.346-.369.857-.369 1.534zm4.57 3.524l-.311-.228c.266-.358.404-.728.413-1.112v-.681h.514v.55c0 .608-.205 1.1-.615 1.471zM24.439 19c-.053-.15-.086-.37-.101-.664-.185.24-.42.427-.708.559a2.166 2.166 0 0 1-.905.193c-.457 0-.828-.128-1.112-.382a1.249 1.249 0 0 1-.422-.967c0-.463.192-.83.576-1.099.387-.27.924-.404 1.613-.404h.953v-.54c0-.34-.105-.607-.316-.8-.208-.197-.513-.295-.914-.295-.366 0-.67.094-.91.281-.24.188-.36.413-.36.677l-.527-.004c0-.378.175-.705.527-.98.352-.279.784-.418 1.296-.418.53 0 .948.133 1.253.4.308.264.466.633.474 1.108v2.25c0 .46.049.804.145 1.032V19h-.562zm-1.652-.378c.351 0 .665-.085.94-.255.278-.17.48-.397.607-.681V16.64h-.94c-.525.006-.936.103-1.231.29-.296.185-.444.44-.444.765 0 .266.098.488.294.663.2.176.457.264.774.264zm3.955-4.377l.017.774c.176-.288.396-.503.66-.646.263-.144.556-.216.878-.216.75 0 1.227.308 1.429.923a1.77 1.77 0 0 1 .68-.681c.285-.161.598-.242.941-.242 1.02 0 1.54.557 1.56 1.67V19h-.527v-3.133c-.003-.425-.095-.74-.277-.945-.179-.205-.472-.308-.879-.308a1.395 1.395 0 0 0-.958.37c-.26.237-.406.527-.435.87V19h-.527v-3.173c-.003-.407-.1-.71-.29-.91-.188-.202-.478-.303-.87-.303a1.32 1.32 0 0 0-.853.286c-.237.187-.413.467-.527.84V19h-.528v-4.755h.506zm7.211 2.307c0-.457.088-.868.264-1.235.178-.366.429-.65.751-.852a2.025 2.025 0 0 1 1.103-.308c.633 0 1.146.223 1.538.668.393.443.59 1.03.59 1.762v.11c0 .46-.09.875-.269 1.244a1.974 1.974 0 0 1-.747.848c-.322.2-.69.299-1.103.299-.63 0-1.142-.221-1.538-.664-.393-.445-.589-1.034-.589-1.766v-.106zm.528.145c0 .569.146 1.036.439 1.402.296.363.683.545 1.16.545.475 0 .858-.182 1.151-.545.296-.366.444-.848.444-1.446v-.1a2.42 2.42 0 0 0-.202-.998 1.61 1.61 0 0 0-.567-.699 1.44 1.44 0 0 0-.835-.25c-.468 0-.85.184-1.147.553-.296.366-.444.847-.444 1.442v.096zm7.866 1.7c-.317.46-.822.69-1.516.69-.507 0-.892-.146-1.156-.439-.264-.296-.399-.732-.404-1.31v-3.093h.522v3.028c0 .905.367 1.358 1.1 1.358.76 0 1.243-.315 1.445-.945v-3.44h.527V19h-.51l-.008-.602zm2.39-4.152l.018.813a1.87 1.87 0 0 1 .668-.668c.267-.155.56-.233.883-.233.51 0 .89.144 1.138.43.25.288.375.719.378 1.293V19h-.523v-3.124c-.003-.425-.093-.742-.272-.95-.176-.208-.459-.312-.848-.312-.325 0-.614.103-.866.308a1.781 1.781 0 0 0-.554.822V19h-.523v-4.755h.501zm5.265-1.217v1.217h.984v.43h-.984v3.17c0 .263.047.46.14.588.097.129.257.194.48.194.087 0 .23-.015.426-.044l.022.43c-.138.05-.325.075-.563.075-.36 0-.622-.104-.786-.312-.164-.211-.246-.52-.246-.927v-3.173h-.875v-.43h.875v-1.218H50zm7.168 3.498h-1.842v.075c0 .647.158 1.148.475 1.503.32.354.769.531 1.349.531.343 0 .663-.05.962-.15l.044.471c-.34.088-.676.132-1.01.132-.73 0-1.304-.215-1.723-.646-.416-.43-.629-1.03-.637-1.797v-.12h-.844v-.39h.844v-.72h-.844v-.396h.844c0-.792.21-1.407.628-1.846.419-.44.993-.66 1.723-.66.29 0 .63.046 1.02.137l-.045.479a3.245 3.245 0 0 0-.97-.154c-.581 0-1.03.174-1.346.523-.313.346-.47.853-.47 1.52h1.842v.396h-1.842v.72h1.842v.392zM63.18 19h-4.008v-.404l2.193-2.488c.363-.418.615-.764.756-1.037.14-.272.211-.537.211-.795 0-.404-.119-.724-.356-.958-.237-.237-.564-.356-.98-.356-.43 0-.78.138-1.046.413-.264.275-.395.633-.395 1.072h-.523c0-.36.08-.688.241-.984.164-.296.396-.527.695-.694.301-.17.644-.255 1.028-.255.586 0 1.043.154 1.371.461.331.308.497.727.497 1.257 0 .299-.094.625-.281.98-.185.354-.512.797-.98 1.327l-1.785 2.017h3.362V19zm4.755-4.75c0 .33-.097.628-.29.892-.193.26-.448.452-.765.575.37.126.665.33.888.611.223.281.334.607.334.976 0 .548-.186.983-.558 1.305-.372.32-.864.479-1.477.479-.618 0-1.113-.16-1.485-.48-.37-.318-.554-.753-.554-1.304 0-.364.107-.687.321-.971.214-.285.507-.49.879-.616a1.639 1.639 0 0 1-.756-.575 1.502 1.502 0 0 1-.281-.893c0-.53.17-.952.51-1.265.343-.314.795-.47 1.358-.47.562 0 1.015.158 1.358.474.345.317.518.737.518 1.261zm-.36 3.058c0-.398-.142-.725-.427-.98-.284-.258-.647-.387-1.09-.387-.442 0-.804.126-1.085.378-.281.252-.422.582-.422.99 0 .406.136.732.409.975.272.24.642.36 1.107.36.455 0 .82-.12 1.095-.36s.413-.566.413-.976zm-.167-3.063c0-.366-.128-.67-.383-.914-.252-.246-.574-.37-.966-.37-.399 0-.723.12-.972.357-.246.234-.369.543-.369.927 0 .375.123.677.37.905.248.229.574.343.975.343.395 0 .718-.114.967-.343.252-.231.378-.533.378-.905zM73.165 19h-4.008v-.404l2.193-2.488c.363-.418.615-.764.756-1.037.14-.272.21-.537.21-.795 0-.404-.118-.724-.356-.958-.237-.237-.563-.356-.98-.356-.43 0-.779.138-1.045.413-.264.275-.396.633-.396 1.072h-.523c0-.36.08-.688.242-.984.164-.296.395-.527.694-.694.302-.17.645-.255 1.029-.255.585 0 1.042.154 1.37.461.332.308.497.727.497 1.257 0 .299-.094.625-.281.98-.185.354-.511.797-.98 1.327l-1.784 2.017h3.362V19zm1.02-.316a.37.37 0 0 1 .096-.26.357.357 0 0 1 .277-.11.358.358 0 0 1 .377.37.346.346 0 0 1-.1.255.384.384 0 0 1-.277.096.384.384 0 0 1-.277-.096.354.354 0 0 1-.097-.255zm5.976-2.352c0 .903-.166 1.588-.497 2.057-.331.466-.819.699-1.463.699-.633 0-1.118-.229-1.455-.686-.337-.46-.51-1.128-.518-2.004v-1.146c0-.9.166-1.581.5-2.044.335-.463.822-.694 1.464-.694.633 0 1.116.224 1.45.672.334.445.507 1.103.519 1.973v1.173zm-.528-1.147c0-.732-.12-1.286-.36-1.66-.237-.376-.598-.563-1.081-.563-.475 0-.832.183-1.072.55-.24.365-.364.906-.37 1.62v1.258c0 .73.124 1.287.37 1.674.249.387.609.58 1.08.58.47 0 .824-.189 1.064-.567.243-.378.366-.932.37-1.661v-1.23zm5.52 1.147c0 .903-.166 1.588-.497 2.057-.33.466-.819.699-1.463.699-.633 0-1.118-.229-1.455-.686-.337-.46-.51-1.128-.518-2.004v-1.146c0-.9.167-1.581.5-2.044.335-.463.823-.694 1.464-.694.633 0 1.116.224 1.45.672.334.445.507 1.103.519 1.973v1.173zm-.528-1.147c0-.732-.12-1.286-.36-1.66-.237-.376-.597-.563-1.08-.563-.475 0-.833.183-1.073.55-.24.365-.363.906-.37 1.62v1.258c0 .73.124 1.287.37 1.674.249.387.61.58 1.08.58.47 0 .824-.189 1.064-.567.243-.378.367-.932.37-1.661v-1.23zm3.863 1.231c0-.639.082-1.258.246-1.859a5.989 5.989 0 0 1 .721-1.652c.317-.501.656-.86 1.02-1.077l.127.356a2.594 2.594 0 0 0-.576.602c-.19.264-.36.577-.51.94a6.88 6.88 0 0 0-.364 1.227c-.091.45-.136.963-.136 1.538 0 .612.069 1.2.206 1.766.14.566.333 1.064.576 1.494.243.434.511.76.804.976l-.127.338c-.372-.222-.717-.583-1.033-1.08a5.86 5.86 0 0 1-.716-1.635 7.536 7.536 0 0 1-.238-1.934zM91.556 19v-6.398h1.89c.685 0 1.205.142 1.56.426.354.281.531.697.531 1.248 0 .33-.09.62-.272.866a1.469 1.469 0 0 1-.739.523c.372.082.671.265.897.549.228.284.343.612.343.984 0 .566-.184 1.008-.55 1.327-.363.317-.87.475-1.52.475h-2.14zm.54-3.076v2.619h1.622c.463 0 .829-.117 1.098-.352.273-.237.41-.565.41-.984 0-.396-.131-.707-.392-.936-.258-.231-.615-.347-1.072-.347h-1.666zm0-.453h1.477c.45-.009.8-.114 1.046-.316.249-.205.373-.503.373-.892 0-.41-.129-.712-.386-.906-.255-.196-.642-.294-1.16-.294h-1.35v2.408zm4.566 1.081c0-.457.088-.868.264-1.235.178-.366.429-.65.751-.852a2.025 2.025 0 0 1 1.103-.308c.633 0 1.146.223 1.538.668.393.443.589 1.03.589 1.762v.11c0 .46-.089.875-.268 1.244a1.978 1.978 0 0 1-.747.848c-.322.2-.69.299-1.103.299-.63 0-1.142-.221-1.538-.664-.393-.445-.589-1.034-.589-1.766v-.106zm.527.145c0 .569.147 1.036.44 1.402.296.363.682.545 1.16.545.475 0 .858-.182 1.151-.545.296-.366.444-.848.444-1.446v-.1c0-.364-.067-.697-.202-.998a1.61 1.61 0 0 0-.567-.699 1.439 1.439 0 0 0-.835-.25c-.469 0-.85.184-1.147.553-.296.366-.444.847-.444 1.442v.096zm4.518-.145c0-.457.088-.868.264-1.235.178-.366.429-.65.751-.852a2.025 2.025 0 0 1 1.103-.308c.633 0 1.146.223 1.538.668.393.443.589 1.03.589 1.762v.11c0 .46-.089.875-.268 1.244a1.977 1.977 0 0 1-.747.848c-.322.2-.69.299-1.103.299-.63 0-1.143-.221-1.538-.664-.393-.445-.589-1.034-.589-1.766v-.106zm.527.145c0 .569.147 1.036.44 1.402.296.363.682.545 1.16.545.475 0 .858-.182 1.151-.545.296-.366.444-.848.444-1.446v-.1c0-.364-.067-.697-.202-.998a1.612 1.612 0 0 0-.567-.699 1.438 1.438 0 0 0-.835-.25c-.469 0-.851.184-1.147.553-.296.366-.444.847-.444 1.442v.096zm5.937-.092l-.602.58V19h-.527v-6.75h.527v4.32l.497-.536 1.819-1.789h.664l-2.017 2.004L110.725 19h-.629l-1.925-2.395zM112.043 19h-.527v-4.755h.527V19zm-.62-6.13c0-.1.033-.183.097-.25a.34.34 0 0 1 .264-.106c.111 0 .199.035.263.105.068.068.101.151.101.25a.346.346 0 0 1-.364.352.347.347 0 0 1-.264-.1.35.35 0 0 1-.097-.251zm2.554 1.375l.017.813c.179-.293.402-.515.668-.668.267-.155.561-.233.883-.233.51 0 .89.144 1.139.43.249.288.375.719.378 1.293V19h-.523v-3.124c-.003-.425-.094-.742-.273-.95-.176-.208-.458-.312-.848-.312-.325 0-.614.103-.866.308a1.78 1.78 0 0 0-.553.822V19h-.523v-4.755h.501zm4.236 2.334c0-.745.164-1.333.492-1.767.331-.436.779-.655 1.345-.655.647 0 1.139.258 1.476.774l.027-.686h.492v4.658c0 .613-.171 1.098-.514 1.455-.343.357-.807.536-1.393.536-.331 0-.648-.075-.95-.224a1.832 1.832 0 0 1-.707-.589l.294-.316c.372.457.815.685 1.328.685.439 0 .782-.13 1.028-.39.246-.259.373-.618.382-1.078v-.597c-.337.468-.827.703-1.472.703-.551 0-.993-.22-1.327-.66-.334-.439-.501-1.032-.501-1.78v-.07zm.532.092c0 .606.121 1.085.364 1.437.244.348.586.523 1.029.523.647 0 1.106-.29 1.375-.87v-2.21a1.482 1.482 0 0 0-.532-.695 1.421 1.421 0 0 0-.835-.242c-.442 0-.786.175-1.032.523-.246.346-.369.857-.369 1.534zM3.309 27.198H1.93L1.591 29h-.435l.338-1.802H.374v-.408h1.195l.365-1.938H.708v-.422h1.305l.347-1.828h.435l-.347 1.828h1.384l.347-1.828h.44L4.27 24.43h1.007v.422H4.192l-.364 1.938h1.12v.408h-1.2L3.41 29h-.44l.34-1.802zm-1.305-.408h1.384l.365-1.938H2.369l-.365 1.938zm6.939-4.237v.462H8.88c-.764 0-1.366.225-1.806.676-.44.449-.682 1.073-.73 1.873.176-.244.4-.431.673-.563.273-.135.577-.202.914-.202.563 0 1.01.195 1.34.584.334.387.501.894.501 1.52 0 .417-.077.792-.232 1.126a1.821 1.821 0 0 1-.668.782 1.81 1.81 0 0 1-.994.277c-.612 0-1.11-.221-1.494-.664-.384-.445-.575-1.02-.575-1.722v-.528c0-1.145.26-2.031.782-2.658.521-.63 1.261-.951 2.219-.963h.132zm-1.094 2.698c-.334 0-.646.1-.936.3a1.416 1.416 0 0 0-.576.75v.449c0 .557.142 1.01.426 1.362.287.352.66.528 1.116.528.41 0 .742-.163.994-.488.254-.325.382-.736.382-1.23 0-.505-.128-.909-.382-1.213-.252-.305-.594-.457-1.024-.457zm6.925-2.346L12.041 29h-.55l2.716-5.95H10.57v-.448h4.205v.303zm4.333 3.133c-.187.276-.42.49-.698.642-.279.15-.58.224-.906.224-.363 0-.684-.094-.962-.281a1.842 1.842 0 0 1-.646-.778 2.565 2.565 0 0 1-.229-1.086c0-.422.081-.805.242-1.151a1.92 1.92 0 0 1 .681-.804c.293-.194.63-.29 1.011-.29.642 0 1.141.225 1.499.676.357.449.536 1.086.536 1.912v.475c0 1.154-.246 2.021-.739 2.601-.492.58-1.243.87-2.254.87h-.097l.005-.457h.184c.765-.011 1.347-.228 1.745-.65.398-.422.608-1.056.628-1.903zm-1.538.413c.352 0 .667-.104.945-.312.281-.21.48-.483.598-.817v-.303c0-.65-.136-1.155-.409-1.512-.27-.36-.634-.54-1.094-.54a1.25 1.25 0 0 0-1.024.505c-.267.334-.4.755-.4 1.265 0 .49.128.898.382 1.226a1.22 1.22 0 0 0 1.002.488zm7.19-3.546L22.025 29h-.549l2.716-5.95h-3.639v-.448h4.206v.303zm2.707 3.577c0 .645-.08 1.266-.242 1.863a5.842 5.842 0 0 1-.707 1.635c-.314.495-.66.857-1.037 1.085l-.128-.338c.287-.205.552-.523.796-.954.246-.43.439-.931.58-1.503.14-.574.21-1.196.21-1.867a7.2 7.2 0 0 0-.21-1.754 6.04 6.04 0 0 0-.585-1.511c-.246-.446-.51-.77-.79-.972l.127-.338c.369.226.71.586 1.023 1.081a6 6 0 0 1 .717 1.648c.164.604.246 1.245.246 1.925z"/></defs></svg>