<svg width="26" height="25" viewBox="0 0 26 25" version="1.1" xmlns="http://www.w3.org/2000/svg" xmlns:xlink="http://www.w3.org/1999/xlink">
<title>arrow-right</title>
<desc>Created using Figma</desc>
<g id="Canvas" transform="translate(-8462 -404)">
<g id="arrow-right">
<g id="Line 2">
<use xlink:href="#path0_stroke" transform="translate(8464 416)" fill="#E67963"/>
</g>
<g id="Line 2 Copy">
<use xlink:href="#path1_stroke" transform="translate(8475 406)" fill="#E67963"/>
</g>
<g id="Line 2 Copy 2">
<use xlink:href="#path1_stroke" transform="matrix(-1 0 0 1 8486 417)" fill="#E67963"/>
</g>
</g>
</g>
<defs>
<path id="path0_stroke" d="M 0.392857 -0.5C -0.43557 -0.5 -1.10714 0.171573 -1.10714 1C -1.10714 1.82843 -0.43557 2.5 0.392857 2.5L 0.392857 -0.5ZM 21.6217 2.5C 22.4501 2.5 23.1217 1.82843 23.1217 1C 23.1217 0.171573 22.4501 -0.5 21.6217 -0.5L 21.6217 2.5ZM 0.392857 2.5L 21.6217 2.5L 21.6217 -0.5L 0.392857 -0.5L 0.392857 2.5Z"/>
<path id="path1_stroke" d="M 1.51011 -1.00366C 0.935866 -1.60077 -0.0137009 -1.6193 -0.610807 -1.04506C -1.20791 -0.470815 -1.22645 0.478752 -0.652202 1.07586L 1.51011 -1.00366ZM 9.21561 11.3365C 9.78985 11.9336 10.7394 11.9522 11.3365 11.3779C 11.9336 10.8037 11.9522 9.85411 11.3779 9.257L 9.21561 11.3365ZM -0.652202 1.07586L 9.21561 11.3365L 11.3779 9.257L 1.51011 -1.00366L -0.652202 1.07586Z"/>
</defs>
</svg>
