<svg xmlns="http://www.w3.org/2000/svg" xmlns:xlink="http://www.w3.org/1999/xlink" width="577" height="834" version="1.1" viewBox="0 0 577 834"><title>iPad Air</title><desc>Created using Figma</desc><g id="Canvas" transform="translate(-1503 -16)"><g id="iPad Air"><g id="Body"><g id="Rectangle 10" filter="url(#filter0_d)"><use fill="#24292F" transform="translate(1506 18)" xlink:href="#path0_fill"/><use fill="url(#paint1_linear)" transform="translate(1506 18)" xlink:href="#path0_fill"/><mask id="mask0_outline_ins"><use fill="#fff" transform="translate(1506 18)" xlink:href="#path0_fill"/></mask><g mask="url(#mask0_outline_ins)"><use fill="url(#paint2_linear)" transform="translate(1506 18)" xlink:href="#path1_stroke_2x"/></g></g><g id="Rectangle 10"><use fill="url(#paint3_linear)" transform="translate(1506 18)" xlink:href="#path2_fill"/></g></g><g id="Camera"><use fill="url(#paint4_linear)" transform="translate(1785 54)" xlink:href="#path3_fill"/><mask id="mask1_outline_ins"><use fill="#fff" transform="translate(1785 54)" xlink:href="#path3_fill"/></mask><g mask="url(#mask1_outline_ins)"><use fill="url(#paint5_linear)" transform="translate(1785 54)" xlink:href="#path4_stroke_2x"/></g></g><g id="Oval"><use fill="url(#paint6_linear)" transform="translate(1764 765)" xlink:href="#path5_fill"/></g><g id="Home button"><use fill="url(#paint7_linear)" transform="translate(1764 765)" xlink:href="#path5_fill"/></g><g id="Screen"><use transform="translate(1528 90)" xlink:href="#path6_fill"/><mask id="mask2_outline_ins"><use fill="#fff" transform="translate(1528 90)" xlink:href="#path6_fill"/></mask><g mask="url(#mask2_outline_ins)"><use fill="#2C2C2C" transform="translate(1528 90)" xlink:href="#path7_stroke_2x"/></g></g></g></g><defs><filter id="filter0_d" width="577" height="834" x="1503" y="16" color-interpolation-filters="sRGB" filterUnits="userSpaceOnUse"><feFlood flood-opacity="0" result="BackgroundImageFix"/><feColorMatrix in="SourceAlpha" type="matrix" values="0 0 0 0 0 0 0 0 0 0 0 0 0 0 0 0 0 0 255 0"/><feOffset dx="1" dy="2"/><feGaussianBlur stdDeviation="2"/><feColorMatrix type="matrix" values="0 0 0 0 0 0 0 0 0 0 0 0 0 0 0 0 0 0 0.5 0"/><feBlend in2="BackgroundImageFix" mode="normal" result="effect1_dropShadow"/><feBlend in="SourceGraphic" in2="effect1_dropShadow" mode="normal" result="shape"/></filter><linearGradient id="paint1_linear" x1="0" x2="1" y1="0" y2="0" gradientTransform="matrix(529.398 417.021 -287.27 768.51 -62.4688 130.48)" gradientUnits="userSpaceOnUse"><stop offset="0" stop-color="#33383E"/><stop offset="1" stop-color="#000" stop-opacity=".01"/></linearGradient><linearGradient id="paint2_linear" x1="0" x2="1" y1="0" y2="0" gradientTransform="matrix(0 826 -569 0 284.5 0)" gradientUnits="userSpaceOnUse"><stop offset="0" stop-color="#5D636B"/><stop offset="1" stop-color="#43484F"/></linearGradient><linearGradient id="paint3_linear" x1="0" x2="1" y1="0" y2="0" gradientTransform="matrix(0 826 -569 0 284.5 0)" gradientUnits="userSpaceOnUse"><stop offset="0" stop-color="#5D636B"/><stop offset="1" stop-color="#43484F"/></linearGradient><linearGradient id="paint4_linear" x1="0" x2="1" y1="0" y2="0" gradientTransform="matrix(0 10.8937 -10.8937 0 5.5 0)" gradientUnits="userSpaceOnUse"><stop offset="0"/><stop offset="1" stop-color="#585656"/></linearGradient><linearGradient id="paint5_linear" x1="0" x2="1" y1="0" y2="0" gradientTransform="matrix(0 10.8095 -10.8095 0 5.5 0)" gradientUnits="userSpaceOnUse"><stop offset="0"/><stop offset="1" stop-color="#333232"/></linearGradient><linearGradient id="paint6_linear" x1="0" x2="1" y1="0" y2="0" gradientTransform="matrix(8.30072 50.8818 -50.8818 8.30072 26 0)" gradientUnits="userSpaceOnUse"><stop offset="0" stop-color="#24292F"/><stop offset="1" stop-color="#85909F"/></linearGradient><linearGradient id="paint7_linear" x1="0" x2="1" y1="0" y2="0" gradientTransform="matrix(8.30072 50.8818 -50.8818 8.30072 26 0)" gradientUnits="userSpaceOnUse"><stop offset="0" stop-color="#24292F"/><stop offset="1" stop-color="#85909F"/></linearGradient><path id="path0_fill" fill-rule="evenodd" d="M 41.432 0L 527.568 0C 550.45 -4.20402e-15 569 18.5525 569 41.4381L 569 784.562C 569 807.448 550.45 826 527.568 826L 41.432 826C 18.5498 826 2.80227e-15 807.448 0 784.562L 0 41.4381C -2.80227e-15 18.5525 18.5498 4.20402e-15 41.432 0Z"/><path id="path1_stroke_2x" d="M 41.432 2L 527.568 2L 527.568 -2L 41.432 -2L 41.432 2ZM 527.568 2C 549.345 2 567 19.6568 567 41.4381L 571 41.4381C 571 17.4482 551.555 -2 527.568 -2L 527.568 2ZM 567 41.4381L 567 784.562L 571 784.562L 571 41.4381L 567 41.4381ZM 567 784.562C 567 806.343 549.345 824 527.568 824L 527.568 828C 551.555 828 571 808.552 571 784.562L 567 784.562ZM 527.568 824L 41.432 824L 41.432 828L 527.568 828L 527.568 824ZM 41.432 824C 19.6546 824 2 806.343 2 784.562L -2 784.562C -2 808.552 17.4449 828 41.432 828L 41.432 824ZM 2 784.562L 2 41.4381L -2 41.4381L -2 784.562L 2 784.562ZM 2 41.4381C 2 19.6568 19.6546 2 41.432 2L 41.432 -2C 17.4449 -2 -2 17.4482 -2 41.4381L 2 41.4381Z"/><path id="path2_fill" fill-rule="evenodd" d="M 527.568 0L 41.432 0C 18.5498 0 0 18.5525 0 41.4381L 0 784.562C 0 807.448 18.5498 826 41.432 826L 527.568 826C 550.45 826 569 807.448 569 784.562L 569 41.4381C 569 18.5525 550.45 0 527.568 0ZM 5.52429 41.4381C 5.52429 21.6039 21.6007 5.52508 41.432 5.52508L 527.568 5.52508C 547.399 5.52508 563.476 21.6039 563.476 41.4381L 563.476 784.562C 563.476 804.396 547.399 820.475 527.568 820.475L 41.432 820.475C 21.6007 820.475 5.52429 804.396 5.52429 784.562L 5.52429 41.4381Z"/><path id="path3_fill" fill-rule="evenodd" d="M 0 5.5C 0 2.46243 2.46243 0 5.5 0L 5.5 0C 8.53757 0 11 2.46243 11 5.5L 11 5.5C 11 8.53757 8.53757 11 5.5 11L 5.5 11C 2.46243 11 0 8.53757 0 5.5L 0 5.5Z"/><path id="path4_stroke_2x" d="M 5.5 10C 3.01472 10 1 7.98528 1 5.5L -1 5.5C -1 9.08985 1.91015 12 5.5 12L 5.5 10ZM 10 5.5C 10 7.98528 7.98528 10 5.5 10L 5.5 12C 9.08985 12 12 9.08985 12 5.5L 10 5.5ZM 5.5 1C 7.98528 1 10 3.01472 10 5.5L 12 5.5C 12 1.91015 9.08985 -1 5.5 -1L 5.5 1ZM 5.5 -1C 1.91015 -1 -1 1.91015 -1 5.5L 1 5.5C 1 3.01472 3.01472 1 5.5 1L 5.5 -1Z"/><path id="path5_fill" fill-rule="evenodd" d="M 0 26C 0 40.3594 11.6406 52 26 52C 40.3594 52 52 40.3594 52 26C 52 11.6406 40.3594 0 26 0C 11.6406 0 0 11.6406 0 26ZM 49.2632 26C 49.2632 38.8478 38.8479 49.2631 26 49.2631C 13.1521 49.2631 2.73682 38.8478 2.73682 26C 2.73682 13.1521 13.1521 2.73682 26 2.73682C 38.8479 2.73682 49.2632 13.1521 49.2632 26Z"/><path id="path6_fill" fill-rule="evenodd" d="M 0 0L 525 0L 525 655L 0 655L 0 0Z"/><path id="path7_stroke_2x" d="M 0 0L 0 -1L -1 -1L -1 0L 0 0ZM 525 0L 526 0L 526 -1L 525 -1L 525 0ZM 525 655L 525 656L 526 656L 526 655L 525 655ZM 0 655L -1 655L -1 656L 0 656L 0 655ZM 0 1L 525 1L 525 -1L 0 -1L 0 1ZM 524 0L 524 655L 526 655L 526 0L 524 0ZM 525 654L 0 654L 0 656L 525 656L 525 654ZM 1 655L 1 0L -1 0L -1 655L 1 655Z"/></defs></svg>