<svg width="226" height="105" viewBox="0 0 226 105" version="1.1" xmlns="http://www.w3.org/2000/svg" xmlns:xlink="http://www.w3.org/1999/xlink">
<title>message-1</title>
<desc>Created using Figma</desc>
<g id="Canvas" transform="translate(-7868 -1387)">
<g id="message-1">
<g id="Bubble #7">
<g id="Delivered">
<g id="Delivered">
<use xlink:href="#path0_fill" transform="translate(8043.06 1481)" fill="#858E99"/>
</g>
</g>
<g id="Bubble">
<use xlink:href="#path1_fill" transform="translate(7868 1387)" fill="#E5E6EA"/>
</g>
<g id="I&#39;m-a-good-programme">
<g id="VPUT.EU customer is">
<use xlink:href="#path2_fill" transform="translate(7885 1396)" fill="#434343"/>
</g>
</g>
</g>
</g>
</g>
<defs>
<path id="path0_fill" d="M 0.907715 10L 0.907715 2.17969L 3.11523 2.17969C 3.79557 2.17969 4.39714 2.33008 4.91992 2.63086C 5.44271 2.93164 5.84554 3.35954 6.12842 3.91455C 6.41488 4.46956 6.5599 5.10693 6.56348 5.82666L 6.56348 6.32617C 6.56348 7.0638 6.42025 7.71012 6.13379 8.26514C 5.85091 8.82015 5.4445 9.24626 4.91455 9.54346C 4.38818 9.84066 3.77409 9.99284 3.07227 10L 0.907715 10ZM 1.93896 3.02832L 1.93896 9.15674L 3.02393 9.15674C 3.81885 9.15674 4.43652 8.90967 4.87695 8.41553C 5.32096 7.92139 5.54297 7.21777 5.54297 6.30469L 5.54297 5.84814C 5.54297 4.96012 5.3335 4.27083 4.91455 3.78027C 4.49919 3.28613 3.90837 3.03548 3.14209 3.02832L 1.93896 3.02832ZM 10.3823 10.1074C 9.59456 10.1074 8.95361 9.84961 8.45947 9.33398C 7.96533 8.81478 7.71826 8.12191 7.71826 7.25537L 7.71826 7.07275C 7.71826 6.49626 7.82747 5.98242 8.0459 5.53125C 8.2679 5.0765 8.57585 4.72201 8.96973 4.46777C 9.36719 4.20996 9.79688 4.08105 10.2588 4.08105C 11.0143 4.08105 11.6016 4.32992 12.0205 4.82764C 12.4395 5.32536 12.6489 6.03792 12.6489 6.96533L 12.6489 7.37891L 8.71191 7.37891C 8.72624 7.95182 8.89274 8.41553 9.21143 8.77002C 9.53369 9.12093 9.94189 9.29639 10.436 9.29639C 10.7869 9.29639 11.0841 9.22477 11.3276 9.08154C 11.5711 8.93831 11.7842 8.74854 11.9668 8.51221L 12.5737 8.98486C 12.0868 9.73324 11.3563 10.1074 10.3823 10.1074ZM 10.2588 4.89746C 9.85775 4.89746 9.52116 5.04427 9.24902 5.33789C 8.97689 5.62793 8.80859 6.03613 8.74414 6.5625L 11.6553 6.5625L 11.6553 6.4873C 11.6266 5.98242 11.4906 5.59212 11.2471 5.31641C 11.0036 5.03711 10.6742 4.89746 10.2588 4.89746ZM 14.8833 10L 13.8896 10L 13.8896 1.75L 14.8833 1.75L 14.8833 10ZM 17.5581 10L 16.5645 10L 16.5645 4.18848L 17.5581 4.18848L 17.5581 10ZM 16.4839 2.64697C 16.4839 2.48584 16.5322 2.34977 16.6289 2.23877C 16.7292 2.12777 16.876 2.07227 17.0693 2.07227C 17.2627 2.07227 17.4095 2.12777 17.5098 2.23877C 17.61 2.34977 17.6602 2.48584 17.6602 2.64697C 17.6602 2.80811 17.61 2.94238 17.5098 3.0498C 17.4095 3.15723 17.2627 3.21094 17.0693 3.21094C 16.876 3.21094 16.7292 3.15723 16.6289 3.0498C 16.5322 2.94238 16.4839 2.80811 16.4839 2.64697ZM 21.0708 8.65186L 22.5103 4.18848L 23.5254 4.18848L 21.4414 10L 20.6841 10L 18.5786 4.18848L 19.5938 4.18848L 21.0708 8.65186ZM 26.8179 10.1074C 26.0301 10.1074 25.3892 9.84961 24.895 9.33398C 24.4009 8.81478 24.1538 8.12191 24.1538 7.25537L 24.1538 7.07275C 24.1538 6.49626 24.263 5.98242 24.4814 5.53125C 24.7035 5.0765 25.0114 4.72201 25.4053 4.46777C 25.8027 4.20996 26.2324 4.08105 26.6943 4.08105C 27.4499 4.08105 28.0371 4.32992 28.4561 4.82764C 28.875 5.32536 29.0845 6.03792 29.0845 6.96533L 29.0845 7.37891L 25.1475 7.37891C 25.1618 7.95182 25.3283 8.41553 25.647 8.77002C 25.9692 9.12093 26.3774 9.29639 26.8716 9.29639C 27.2225 9.29639 27.5197 9.22477 27.7632 9.08154C 28.0067 8.93831 28.2197 8.74854 28.4023 8.51221L 29.0093 8.98486C 28.5223 9.73324 27.7918 10.1074 26.8179 10.1074ZM 26.6943 4.89746C 26.2933 4.89746 25.9567 5.04427 25.6846 5.33789C 25.4124 5.62793 25.2441 6.03613 25.1797 6.5625L 28.0908 6.5625L 28.0908 6.4873C 28.0622 5.98242 27.9261 5.59212 27.6826 5.31641C 27.4391 5.03711 27.1097 4.89746 26.6943 4.89746ZM 33.0483 5.08008C 32.8979 5.05501 32.735 5.04248 32.5596 5.04248C 31.9079 5.04248 31.4657 5.31999 31.2329 5.875L 31.2329 10L 30.2393 10L 30.2393 4.18848L 31.2061 4.18848L 31.2222 4.85986C 31.548 4.34066 32.0099 4.08105 32.6079 4.08105C 32.8013 4.08105 32.9481 4.10612 33.0483 4.15625L 33.0483 5.08008ZM 36.271 10.1074C 35.4832 10.1074 34.8423 9.84961 34.3481 9.33398C 33.854 8.81478 33.6069 8.12191 33.6069 7.25537L 33.6069 7.07275C 33.6069 6.49626 33.7161 5.98242 33.9346 5.53125C 34.1566 5.0765 34.4645 4.72201 34.8584 4.46777C 35.2559 4.20996 35.6855 4.08105 36.1475 4.08105C 36.903 4.08105 37.4902 4.32992 37.9092 4.82764C 38.3281 5.32536 38.5376 6.03792 38.5376 6.96533L 38.5376 7.37891L 34.6006 7.37891C 34.6149 7.95182 34.7814 8.41553 35.1001 8.77002C 35.4224 9.12093 35.8306 9.29639 36.3247 9.29639C 36.6756 9.29639 36.9728 9.22477 37.2163 9.08154C 37.4598 8.93831 37.6729 8.74854 37.8555 8.51221L 38.4624 8.98486C 37.9754 9.73324 37.245 10.1074 36.271 10.1074ZM 36.1475 4.89746C 35.7464 4.89746 35.4098 5.04427 35.1377 5.33789C 34.8656 5.62793 34.6973 6.03613 34.6328 6.5625L 37.5439 6.5625L 37.5439 6.4873C 37.5153 5.98242 37.3792 5.59212 37.1357 5.31641C 36.8923 5.03711 36.5628 4.89746 36.1475 4.89746ZM 39.4507 7.0459C 39.4507 6.1543 39.6619 5.43815 40.0845 4.89746C 40.507 4.35319 41.0602 4.08105 41.7441 4.08105C 42.4245 4.08105 42.9634 4.3138 43.3608 4.7793L 43.3608 1.75L 44.3545 1.75L 44.3545 10L 43.4414 10L 43.3931 9.37695C 42.9956 9.86393 42.4424 10.1074 41.7334 10.1074C 41.0602 10.1074 40.5106 9.83171 40.0845 9.28027C 39.6619 8.72884 39.4507 8.00911 39.4507 7.12109L 39.4507 7.0459ZM 40.4443 7.15869C 40.4443 7.81755 40.5804 8.33317 40.8525 8.70557C 41.1247 9.07796 41.5007 9.26416 41.9805 9.26416C 42.6107 9.26416 43.0708 8.98128 43.3608 8.41553L 43.3608 5.74609C 43.0636 5.19824 42.6071 4.92432 41.9912 4.92432C 41.5042 4.92432 41.1247 5.1123 40.8525 5.48828C 40.5804 5.86426 40.4443 6.42106 40.4443 7.15869Z"/>
<path id="path1_fill" d="M 10.9407 84.2137C 13.9276 86.5842 17.7073 88 21.8181 88C 21.8181 88 120.475 88 191.804 88C 197.14 88 207.813 88 207.813 88C 217.474 88 225.315 80.1689 225.315 70.5088L 225.315 17.4912C 225.315 7.82874 217.479 0 207.813 0L 21.8181 0C 12.1565 0 4.31538 7.83107 4.31538 17.4912L 4.31538 70.5088C 4.31538 70.7849 4.32178 71.0594 4.33443 71.3324C 4.37705 72.8285 4.51667 79.0009 4.02782 82.1319C 3.46902 85.7109 0.144228 87.7399 0.144228 87.7399C -0.0787273 87.8927 -0.0392046 88.014 0.235177 88.0042C 0.235177 88.0042 5.73264 88.0868 10.549 84.5494C 10.6936 84.4432 10.8239 84.3311 10.9407 84.2137Z"/>
<path id="path2_fill" d="M 4.4502 11.2568L 7.29395 3.04688L 8.72949 3.04688L 5.03809 13L 3.87598 13L 0.191406 3.04688L 1.62012 3.04688L 4.4502 11.2568ZM 11.3818 9.10352L 11.3818 13L 10.0693 13L 10.0693 3.04688L 13.7402 3.04688C 14.8294 3.04688 15.6816 3.32487 16.2969 3.88086C 16.9167 4.43685 17.2266 5.17285 17.2266 6.08887C 17.2266 7.05501 16.9235 7.80013 16.3174 8.32422C 15.7158 8.84375 14.8522 9.10352 13.7266 9.10352L 11.3818 9.10352ZM 11.3818 8.03027L 13.7402 8.03027C 14.4421 8.03027 14.9798 7.86621 15.3535 7.53809C 15.7272 7.2054 15.9141 6.72689 15.9141 6.10254C 15.9141 5.51009 15.7272 5.03613 15.3535 4.68066C 14.9798 4.3252 14.4671 4.14062 13.8154 4.12695L 11.3818 4.12695L 11.3818 8.03027ZM 25.9082 3.04688L 25.9082 9.81445C 25.9036 10.7533 25.6074 11.5212 25.0195 12.1182C 24.4362 12.7152 23.6432 13.0501 22.6406 13.123L 22.292 13.1367C 21.2028 13.1367 20.3346 12.8428 19.6875 12.2549C 19.0404 11.667 18.7122 10.8581 18.7031 9.82812L 18.7031 3.04688L 20.002 3.04688L 20.002 9.78711C 20.002 10.5072 20.2002 11.0677 20.5967 11.4688C 20.9932 11.8652 21.5583 12.0635 22.292 12.0635C 23.0348 12.0635 23.6022 11.8652 23.9941 11.4688C 24.3906 11.0723 24.5889 10.514 24.5889 9.79395L 24.5889 3.04688L 25.9082 3.04688ZM 34.8564 4.12695L 31.6572 4.12695L 31.6572 13L 30.3516 13L 30.3516 4.12695L 27.1592 4.12695L 27.1592 3.04688L 34.8564 3.04688L 34.8564 4.12695ZM 34.6719 12.3369C 34.6719 12.1182 34.7357 11.9359 34.8633 11.79C 34.9954 11.6442 35.1914 11.5713 35.4512 11.5713C 35.7109 11.5713 35.9069 11.6442 36.0391 11.79C 36.1758 11.9359 36.2441 12.1182 36.2441 12.3369C 36.2441 12.5465 36.1758 12.722 36.0391 12.8633C 35.9069 13.0046 35.7109 13.0752 35.4512 13.0752C 35.1914 13.0752 34.9954 13.0046 34.8633 12.8633C 34.7357 12.722 34.6719 12.5465 34.6719 12.3369ZM 44.1602 8.39941L 39.8467 8.39941L 39.8467 11.9268L 44.8574 11.9268L 44.8574 13L 38.5342 13L 38.5342 3.04688L 44.7891 3.04688L 44.7891 4.12695L 39.8467 4.12695L 39.8467 7.32617L 44.1602 7.32617L 44.1602 8.39941ZM 53.498 3.04688L 53.498 9.81445C 53.4935 10.7533 53.1973 11.5212 52.6094 12.1182C 52.026 12.7152 51.2331 13.0501 50.2305 13.123L 49.8818 13.1367C 48.7926 13.1367 47.9245 12.8428 47.2773 12.2549C 46.6302 11.667 46.3021 10.8581 46.293 9.82812L 46.293 3.04688L 47.5918 3.04688L 47.5918 9.78711C 47.5918 10.5072 47.79 11.0677 48.1865 11.4688C 48.583 11.8652 49.1481 12.0635 49.8818 12.0635C 50.6247 12.0635 51.1921 11.8652 51.584 11.4688C 51.9805 11.0723 52.1787 10.514 52.1787 9.79395L 52.1787 3.04688L 53.498 3.04688ZM 3.92383 28.1045C 4.375 28.1045 4.76921 27.9678 5.10645 27.6943C 5.44368 27.4209 5.63053 27.0791 5.66699 26.6689L 6.86328 26.6689C 6.84049 27.0928 6.69466 27.4961 6.42578 27.8789C 6.1569 28.2617 5.79688 28.5671 5.3457 28.7949C 4.89909 29.0228 4.42513 29.1367 3.92383 29.1367C 2.91667 29.1367 2.11458 28.8018 1.51758 28.1318C 0.92513 27.4574 0.628906 26.5368 0.628906 25.3701L 0.628906 25.1582C 0.628906 24.4382 0.761068 23.7979 1.02539 23.2373C 1.28971 22.6768 1.66797 22.2415 2.16016 21.9316C 2.6569 21.6217 3.24251 21.4668 3.91699 21.4668C 4.74642 21.4668 5.43457 21.7152 5.98145 22.2119C 6.53288 22.7087 6.82682 23.3535 6.86328 24.1465L 5.66699 24.1465C 5.63053 23.668 5.44824 23.276 5.12012 22.9707C 4.79655 22.6608 4.39551 22.5059 3.91699 22.5059C 3.27441 22.5059 2.77539 22.7383 2.41992 23.2031C 2.06901 23.6634 1.89355 24.3311 1.89355 25.2061L 1.89355 25.4453C 1.89355 26.2975 2.06901 26.9538 2.41992 27.4141C 2.77083 27.8743 3.27214 28.1045 3.92383 28.1045ZM 12.8516 28.2686C 12.3594 28.8473 11.637 29.1367 10.6846 29.1367C 9.89616 29.1367 9.2946 28.9089 8.87988 28.4531C 8.46973 27.9928 8.26237 27.3138 8.25781 26.416L 8.25781 21.6035L 9.52246 21.6035L 9.52246 26.3818C 9.52246 27.5029 9.97819 28.0635 10.8896 28.0635C 11.8558 28.0635 12.4984 27.7035 12.8174 26.9834L 12.8174 21.6035L 14.082 21.6035L 14.082 29L 12.8789 29L 12.8516 28.2686ZM 20.3164 27.0381C 20.3164 26.6963 20.1865 26.432 19.9268 26.2451C 19.6715 26.0537 19.2227 25.8896 18.5801 25.7529C 17.9421 25.6162 17.4339 25.4521 17.0557 25.2607C 16.682 25.0693 16.404 24.8415 16.2217 24.5771C 16.0439 24.3128 15.9551 23.9984 15.9551 23.6338C 15.9551 23.0277 16.2103 22.515 16.7207 22.0957C 17.2357 21.6764 17.8919 21.4668 18.6895 21.4668C 19.528 21.4668 20.207 21.6833 20.7266 22.1162C 21.2507 22.5492 21.5127 23.1029 21.5127 23.7773L 20.2412 23.7773C 20.2412 23.431 20.0931 23.1325 19.7969 22.8818C 19.5052 22.6312 19.1361 22.5059 18.6895 22.5059C 18.2292 22.5059 17.8691 22.6061 17.6094 22.8066C 17.3496 23.0072 17.2197 23.2692 17.2197 23.5928C 17.2197 23.8981 17.3405 24.1283 17.582 24.2832C 17.8236 24.4382 18.2588 24.5863 18.8877 24.7275C 19.5212 24.8688 20.0339 25.0374 20.4258 25.2334C 20.8177 25.4294 21.1071 25.6663 21.2939 25.9443C 21.4854 26.2178 21.5811 26.5527 21.5811 26.9492C 21.5811 27.61 21.3167 28.141 20.7881 28.542C 20.2594 28.9385 19.5736 29.1367 18.7305 29.1367C 18.138 29.1367 17.6139 29.0319 17.1582 28.8223C 16.7025 28.6126 16.3447 28.321 16.085 27.9473C 15.8298 27.569 15.7021 27.1611 15.7021 26.7236L 16.9668 26.7236C 16.9896 27.1475 17.1582 27.4847 17.4727 27.7354C 17.7917 27.9814 18.2109 28.1045 18.7305 28.1045C 19.209 28.1045 19.5918 28.0088 19.8789 27.8174C 20.1706 27.6214 20.3164 27.3617 20.3164 27.0381ZM 24.9443 19.8125L 24.9443 21.6035L 26.3252 21.6035L 26.3252 22.5811L 24.9443 22.5811L 24.9443 27.168C 24.9443 27.4642 25.0059 27.6875 25.1289 27.8379C 25.252 27.9837 25.4616 28.0566 25.7578 28.0566C 25.9036 28.0566 26.1042 28.0293 26.3594 27.9746L 26.3594 29C 26.0267 29.0911 25.7031 29.1367 25.3887 29.1367C 24.8236 29.1367 24.3975 28.9658 24.1104 28.624C 23.8232 28.2822 23.6797 27.7969 23.6797 27.168L 23.6797 22.5811L 22.333 22.5811L 22.333 21.6035L 23.6797 21.6035L 23.6797 19.8125L 24.9443 19.8125ZM 27.3369 25.2334C 27.3369 24.5088 27.4782 23.8571 27.7607 23.2783C 28.0479 22.6995 28.4443 22.2529 28.9502 21.9385C 29.4606 21.624 30.0417 21.4668 30.6934 21.4668C 31.7005 21.4668 32.514 21.8154 33.1338 22.5127C 33.7581 23.21 34.0703 24.1374 34.0703 25.2949L 34.0703 25.3838C 34.0703 26.1038 33.9313 26.751 33.6533 27.3252C 33.3799 27.8949 32.9857 28.3392 32.4707 28.6582C 31.9603 28.9772 31.3724 29.1367 30.707 29.1367C 29.7044 29.1367 28.891 28.7881 28.2666 28.0908C 27.6468 27.3936 27.3369 26.4707 27.3369 25.3223L 27.3369 25.2334ZM 28.6084 25.3838C 28.6084 26.2041 28.7975 26.8626 29.1758 27.3594C 29.5586 27.8561 30.069 28.1045 30.707 28.1045C 31.3496 28.1045 31.86 27.8538 32.2383 27.3525C 32.6165 26.8467 32.8057 26.1403 32.8057 25.2334C 32.8057 24.4222 32.612 23.766 32.2246 23.2646C 31.8418 22.7588 31.3314 22.5059 30.6934 22.5059C 30.069 22.5059 29.5654 22.7542 29.1826 23.251C 28.7998 23.7477 28.6084 24.4587 28.6084 25.3838ZM 36.8457 21.6035L 36.8799 22.4238C 37.4222 21.7858 38.1536 21.4668 39.0742 21.4668C 40.1087 21.4668 40.8128 21.8633 41.1865 22.6562C 41.4326 22.3008 41.7516 22.0137 42.1436 21.7949C 42.54 21.5762 43.0072 21.4668 43.5449 21.4668C 45.1673 21.4668 45.9922 22.3258 46.0195 24.0439L 46.0195 29L 44.7549 29L 44.7549 24.1191C 44.7549 23.5905 44.6341 23.1963 44.3926 22.9365C 44.151 22.6722 43.7454 22.54 43.1758 22.54C 42.7064 22.54 42.3167 22.6813 42.0068 22.9639C 41.6969 23.2419 41.5169 23.6178 41.4668 24.0918L 41.4668 29L 40.1953 29L 40.1953 24.1533C 40.1953 23.0778 39.6689 22.54 38.6162 22.54C 37.7868 22.54 37.2194 22.8932 36.9141 23.5996L 36.9141 29L 35.6494 29L 35.6494 21.6035L 36.8457 21.6035ZM 51.0029 29.1367C 50.0003 29.1367 49.1846 28.8086 48.5557 28.1523C 47.9268 27.4915 47.6123 26.6097 47.6123 25.5068L 47.6123 25.2744C 47.6123 24.5407 47.7513 23.8867 48.0293 23.3125C 48.3118 22.7337 48.7038 22.2826 49.2051 21.959C 49.7109 21.6309 50.2578 21.4668 50.8457 21.4668C 51.8073 21.4668 52.5547 21.7835 53.0879 22.417C 53.6211 23.0505 53.8877 23.9574 53.8877 25.1377L 53.8877 25.6641L 48.877 25.6641C 48.8952 26.3932 49.1071 26.9834 49.5127 27.4346C 49.9229 27.8812 50.4424 28.1045 51.0713 28.1045C 51.5179 28.1045 51.8962 28.0133 52.2061 27.8311C 52.516 27.6488 52.7871 27.4072 53.0195 27.1064L 53.792 27.708C 53.1722 28.6605 52.2425 29.1367 51.0029 29.1367ZM 50.8457 22.5059C 50.3353 22.5059 49.9069 22.6927 49.5605 23.0664C 49.2142 23.4355 49 23.9551 48.918 24.625L 52.623 24.625L 52.623 24.5293C 52.5866 23.8867 52.4134 23.39 52.1035 23.0391C 51.7936 22.6836 51.3743 22.5059 50.8457 22.5059ZM 58.9326 22.7383C 58.7412 22.7064 58.5339 22.6904 58.3105 22.6904C 57.4811 22.6904 56.9183 23.0436 56.6221 23.75L 56.6221 29L 55.3574 29L 55.3574 21.6035L 56.5879 21.6035L 56.6084 22.458C 57.0231 21.7972 57.611 21.4668 58.3721 21.4668C 58.6182 21.4668 58.805 21.4987 58.9326 21.5625L 58.9326 22.7383ZM 64.9482 29L 63.6836 29L 63.6836 21.6035L 64.9482 21.6035L 64.9482 29ZM 63.5811 19.6416C 63.5811 19.4365 63.6426 19.2633 63.7656 19.1221C 63.8932 18.9808 64.0801 18.9102 64.3262 18.9102C 64.5723 18.9102 64.7591 18.9808 64.8867 19.1221C 65.0143 19.2633 65.0781 19.4365 65.0781 19.6416C 65.0781 19.8467 65.0143 20.0176 64.8867 20.1543C 64.7591 20.291 64.5723 20.3594 64.3262 20.3594C 64.0801 20.3594 63.8932 20.291 63.7656 20.1543C 63.6426 20.0176 63.5811 19.8467 63.5811 19.6416ZM 71.2852 27.0381C 71.2852 26.6963 71.1553 26.432 70.8955 26.2451C 70.6403 26.0537 70.1914 25.8896 69.5488 25.7529C 68.9108 25.6162 68.4027 25.4521 68.0244 25.2607C 67.6507 25.0693 67.3727 24.8415 67.1904 24.5771C 67.0127 24.3128 66.9238 23.9984 66.9238 23.6338C 66.9238 23.0277 67.179 22.515 67.6895 22.0957C 68.2044 21.6764 68.8607 21.4668 69.6582 21.4668C 70.4967 21.4668 71.1758 21.6833 71.6953 22.1162C 72.2194 22.5492 72.4814 23.1029 72.4814 23.7773L 71.21 23.7773C 71.21 23.431 71.0618 23.1325 70.7656 22.8818C 70.474 22.6312 70.1048 22.5059 69.6582 22.5059C 69.1979 22.5059 68.8379 22.6061 68.5781 22.8066C 68.3184 23.0072 68.1885 23.2692 68.1885 23.5928C 68.1885 23.8981 68.3092 24.1283 68.5508 24.2832C 68.7923 24.4382 69.2275 24.5863 69.8564 24.7275C 70.4899 24.8688 71.0026 25.0374 71.3945 25.2334C 71.7865 25.4294 72.0758 25.6663 72.2627 25.9443C 72.4541 26.2178 72.5498 26.5527 72.5498 26.9492C 72.5498 27.61 72.2855 28.141 71.7568 28.542C 71.2282 28.9385 70.5423 29.1367 69.6992 29.1367C 69.1068 29.1367 68.5827 29.0319 68.127 28.8223C 67.6712 28.6126 67.3135 28.321 67.0537 27.9473C 66.7985 27.569 66.6709 27.1611 66.6709 26.7236L 67.9355 26.7236C 67.9583 27.1475 68.127 27.4847 68.4414 27.7354C 68.7604 27.9814 69.1797 28.1045 69.6992 28.1045C 70.1777 28.1045 70.5605 28.0088 70.8477 27.8174C 71.1393 27.6214 71.2852 27.3617 71.2852 27.0381ZM 79.0439 29L 77.7793 29L 77.7793 21.6035L 79.0439 21.6035L 79.0439 29ZM 77.6768 19.6416C 77.6768 19.4365 77.7383 19.2633 77.8613 19.1221C 77.9889 18.9808 78.1758 18.9102 78.4219 18.9102C 78.668 18.9102 78.8548 18.9808 78.9824 19.1221C 79.11 19.2633 79.1738 19.4365 79.1738 19.6416C 79.1738 19.8467 79.11 20.0176 78.9824 20.1543C 78.8548 20.291 78.668 20.3594 78.4219 20.3594C 78.1758 20.3594 77.9889 20.291 77.8613 20.1543C 77.7383 20.0176 77.6768 19.8467 77.6768 19.6416ZM 82.2705 21.6035L 82.3115 22.5332C 82.8766 21.8223 83.6149 21.4668 84.5264 21.4668C 86.0895 21.4668 86.8779 22.3486 86.8916 24.1123L 86.8916 29L 85.627 29L 85.627 24.1055C 85.6224 23.5723 85.4993 23.1781 85.2578 22.9229C 85.0208 22.6676 84.6494 22.54 84.1436 22.54C 83.7334 22.54 83.3734 22.6494 83.0635 22.8682C 82.7536 23.0869 82.512 23.374 82.3389 23.7295L 82.3389 29L 81.0742 29L 81.0742 21.6035L 82.2705 21.6035ZM 90.5146 19.8125L 90.5146 21.6035L 91.8955 21.6035L 91.8955 22.5811L 90.5146 22.5811L 90.5146 27.168C 90.5146 27.4642 90.5762 27.6875 90.6992 27.8379C 90.8223 27.9837 91.0319 28.0566 91.3281 28.0566C 91.474 28.0566 91.6745 28.0293 91.9297 27.9746L 91.9297 29C 91.597 29.0911 91.2734 29.1367 90.959 29.1367C 90.3939 29.1367 89.9678 28.9658 89.6807 28.624C 89.3936 28.2822 89.25 27.7969 89.25 27.168L 89.25 22.5811L 87.9033 22.5811L 87.9033 21.6035L 89.25 21.6035L 89.25 19.8125L 90.5146 19.8125ZM 96.4482 29.1367C 95.4456 29.1367 94.6299 28.8086 94.001 28.1523C 93.3721 27.4915 93.0576 26.6097 93.0576 25.5068L 93.0576 25.2744C 93.0576 24.5407 93.1966 23.8867 93.4746 23.3125C 93.7572 22.7337 94.1491 22.2826 94.6504 21.959C 95.1562 21.6309 95.7031 21.4668 96.291 21.4668C 97.2526 21.4668 98 21.7835 98.5332 22.417C 99.0664 23.0505 99.333 23.9574 99.333 25.1377L 99.333 25.6641L 94.3223 25.6641C 94.3405 26.3932 94.5524 26.9834 94.958 27.4346C 95.3682 27.8812 95.8877 28.1045 96.5166 28.1045C 96.9632 28.1045 97.3415 28.0133 97.6514 27.8311C 97.9613 27.6488 98.2324 27.4072 98.4648 27.1064L 99.2373 27.708C 98.6175 28.6605 97.6878 29.1367 96.4482 29.1367ZM 96.291 22.5059C 95.7806 22.5059 95.3522 22.6927 95.0059 23.0664C 94.6595 23.4355 94.4453 23.9551 94.3633 24.625L 98.0684 24.625L 98.0684 24.5293C 98.0319 23.8867 97.8587 23.39 97.5488 23.0391C 97.2389 22.6836 96.8197 22.5059 96.291 22.5059ZM 104.378 22.7383C 104.187 22.7064 103.979 22.6904 103.756 22.6904C 102.926 22.6904 102.364 23.0436 102.067 23.75L 102.067 29L 100.803 29L 100.803 21.6035L 102.033 21.6035L 102.054 22.458C 102.468 21.7972 103.056 21.4668 103.817 21.4668C 104.063 21.4668 104.25 21.4987 104.378 21.5625L 104.378 22.7383ZM 108.479 29.1367C 107.477 29.1367 106.661 28.8086 106.032 28.1523C 105.403 27.4915 105.089 26.6097 105.089 25.5068L 105.089 25.2744C 105.089 24.5407 105.228 23.8867 105.506 23.3125C 105.788 22.7337 106.18 22.2826 106.682 21.959C 107.188 21.6309 107.734 21.4668 108.322 21.4668C 109.284 21.4668 110.031 21.7835 110.564 22.417C 111.098 23.0505 111.364 23.9574 111.364 25.1377L 111.364 25.6641L 106.354 25.6641C 106.372 26.3932 106.584 26.9834 106.989 27.4346C 107.399 27.8812 107.919 28.1045 108.548 28.1045C 108.994 28.1045 109.373 28.0133 109.683 27.8311C 109.993 27.6488 110.264 27.4072 110.496 27.1064L 111.269 27.708C 110.649 28.6605 109.719 29.1367 108.479 29.1367ZM 108.322 22.5059C 107.812 22.5059 107.383 22.6927 107.037 23.0664C 106.691 23.4355 106.477 23.9551 106.395 24.625L 110.1 24.625L 110.1 24.5293C 110.063 23.8867 109.89 23.39 109.58 23.0391C 109.27 22.6836 108.851 22.5059 108.322 22.5059ZM 117.141 27.0381C 117.141 26.6963 117.011 26.432 116.751 26.2451C 116.496 26.0537 116.047 25.8896 115.404 25.7529C 114.766 25.6162 114.258 25.4521 113.88 25.2607C 113.506 25.0693 113.228 24.8415 113.046 24.5771C 112.868 24.3128 112.779 23.9984 112.779 23.6338C 112.779 23.0277 113.035 22.515 113.545 22.0957C 114.06 21.6764 114.716 21.4668 115.514 21.4668C 116.352 21.4668 117.031 21.6833 117.551 22.1162C 118.075 22.5492 118.337 23.1029 118.337 23.7773L 117.065 23.7773C 117.065 23.431 116.917 23.1325 116.621 22.8818C 116.329 22.6312 115.96 22.5059 115.514 22.5059C 115.053 22.5059 114.693 22.6061 114.434 22.8066C 114.174 23.0072 114.044 23.2692 114.044 23.5928C 114.044 23.8981 114.165 24.1283 114.406 24.2832C 114.648 24.4382 115.083 24.5863 115.712 24.7275C 116.345 24.8688 116.858 25.0374 117.25 25.2334C 117.642 25.4294 117.931 25.6663 118.118 25.9443C 118.31 26.2178 118.405 26.5527 118.405 26.9492C 118.405 27.61 118.141 28.141 117.612 28.542C 117.084 28.9385 116.398 29.1367 115.555 29.1367C 114.962 29.1367 114.438 29.0319 113.982 28.8223C 113.527 28.6126 113.169 28.321 112.909 27.9473C 112.654 27.569 112.526 27.1611 112.526 26.7236L 113.791 26.7236C 113.814 27.1475 113.982 27.4847 114.297 27.7354C 114.616 27.9814 115.035 28.1045 115.555 28.1045C 116.033 28.1045 116.416 28.0088 116.703 27.8174C 116.995 27.6214 117.141 27.3617 117.141 27.0381ZM 121.769 19.8125L 121.769 21.6035L 123.149 21.6035L 123.149 22.5811L 121.769 22.5811L 121.769 27.168C 121.769 27.4642 121.83 27.6875 121.953 27.8379C 122.076 27.9837 122.286 28.0566 122.582 28.0566C 122.728 28.0566 122.928 28.0293 123.184 27.9746L 123.184 29C 122.851 29.0911 122.527 29.1367 122.213 29.1367C 121.648 29.1367 121.222 28.9658 120.935 28.624C 120.647 28.2822 120.504 27.7969 120.504 27.168L 120.504 22.5811L 119.157 22.5811L 119.157 21.6035L 120.504 21.6035L 120.504 19.8125L 121.769 19.8125ZM 127.702 29.1367C 126.7 29.1367 125.884 28.8086 125.255 28.1523C 124.626 27.4915 124.312 26.6097 124.312 25.5068L 124.312 25.2744C 124.312 24.5407 124.451 23.8867 124.729 23.3125C 125.011 22.7337 125.403 22.2826 125.904 21.959C 126.41 21.6309 126.957 21.4668 127.545 21.4668C 128.507 21.4668 129.254 21.7835 129.787 22.417C 130.32 23.0505 130.587 23.9574 130.587 25.1377L 130.587 25.6641L 125.576 25.6641C 125.594 26.3932 125.806 26.9834 126.212 27.4346C 126.622 27.8812 127.142 28.1045 127.771 28.1045C 128.217 28.1045 128.595 28.0133 128.905 27.8311C 129.215 27.6488 129.486 27.4072 129.719 27.1064L 130.491 27.708C 129.871 28.6605 128.942 29.1367 127.702 29.1367ZM 127.545 22.5059C 127.035 22.5059 126.606 22.6927 126.26 23.0664C 125.913 23.4355 125.699 23.9551 125.617 24.625L 129.322 24.625L 129.322 24.5293C 129.286 23.8867 129.113 23.39 128.803 23.0391C 128.493 22.6836 128.074 22.5059 127.545 22.5059ZM 131.749 25.2402C 131.749 24.1055 132.018 23.194 132.556 22.5059C 133.093 21.8132 133.798 21.4668 134.668 21.4668C 135.534 21.4668 136.22 21.763 136.726 22.3555L 136.726 18.5L 137.99 18.5L 137.99 29L 136.828 29L 136.767 28.207C 136.261 28.8268 135.557 29.1367 134.654 29.1367C 133.798 29.1367 133.098 28.7858 132.556 28.084C 132.018 27.3822 131.749 26.4661 131.749 25.3359L 131.749 25.2402ZM 133.014 25.3838C 133.014 26.2223 133.187 26.8786 133.533 27.3525C 133.88 27.8265 134.358 28.0635 134.969 28.0635C 135.771 28.0635 136.356 27.7035 136.726 26.9834L 136.726 23.5859C 136.347 22.8887 135.766 22.54 134.982 22.54C 134.363 22.54 133.88 22.7793 133.533 23.2578C 133.187 23.7363 133.014 24.445 133.014 25.3838ZM 144.806 29L 143.541 29L 143.541 21.6035L 144.806 21.6035L 144.806 29ZM 143.438 19.6416C 143.438 19.4365 143.5 19.2633 143.623 19.1221C 143.751 18.9808 143.938 18.9102 144.184 18.9102C 144.43 18.9102 144.617 18.9808 144.744 19.1221C 144.872 19.2633 144.936 19.4365 144.936 19.6416C 144.936 19.8467 144.872 20.0176 144.744 20.1543C 144.617 20.291 144.43 20.3594 144.184 20.3594C 143.938 20.3594 143.751 20.291 143.623 20.1543C 143.5 20.0176 143.438 19.8467 143.438 19.6416ZM 148.032 21.6035L 148.073 22.5332C 148.638 21.8223 149.377 21.4668 150.288 21.4668C 151.851 21.4668 152.64 22.3486 152.653 24.1123L 152.653 29L 151.389 29L 151.389 24.1055C 151.384 23.5723 151.261 23.1781 151.02 22.9229C 150.783 22.6676 150.411 22.54 149.905 22.54C 149.495 22.54 149.135 22.6494 148.825 22.8682C 148.515 23.0869 148.274 23.374 148.101 23.7295L 148.101 29L 146.836 29L 146.836 21.6035L 148.032 21.6035ZM 160.453 27.1475L 162.176 21.6035L 163.529 21.6035L 160.556 30.1416C 160.095 31.3721 159.364 31.9873 158.361 31.9873L 158.122 31.9668L 157.65 31.8779L 157.65 30.8525L 157.992 30.8799C 158.421 30.8799 158.753 30.7933 158.99 30.6201C 159.232 30.4469 159.43 30.1302 159.585 29.6699L 159.865 28.918L 157.227 21.6035L 158.607 21.6035L 160.453 27.1475ZM 164.22 25.2334C 164.22 24.5088 164.361 23.8571 164.644 23.2783C 164.931 22.6995 165.327 22.2529 165.833 21.9385C 166.343 21.624 166.924 21.4668 167.576 21.4668C 168.583 21.4668 169.397 21.8154 170.017 22.5127C 170.641 23.21 170.953 24.1374 170.953 25.2949L 170.953 25.3838C 170.953 26.1038 170.814 26.751 170.536 27.3252C 170.263 27.8949 169.868 28.3392 169.354 28.6582C 168.843 28.9772 168.255 29.1367 167.59 29.1367C 166.587 29.1367 165.774 28.7881 165.149 28.0908C 164.53 27.3936 164.22 26.4707 164.22 25.3223L 164.22 25.2334ZM 165.491 25.3838C 165.491 26.2041 165.68 26.8626 166.059 27.3594C 166.441 27.8561 166.952 28.1045 167.59 28.1045C 168.232 28.1045 168.743 27.8538 169.121 27.3525C 169.499 26.8467 169.688 26.1403 169.688 25.2334C 169.688 24.4222 169.495 23.766 169.107 23.2646C 168.725 22.7588 168.214 22.5059 167.576 22.5059C 166.952 22.5059 166.448 22.7542 166.065 23.251C 165.683 23.7477 165.491 24.4587 165.491 25.3838ZM 177.105 28.2686C 176.613 28.8473 175.891 29.1367 174.938 29.1367C 174.15 29.1367 173.549 28.9089 173.134 28.4531C 172.724 27.9928 172.516 27.3138 172.512 26.416L 172.512 21.6035L 173.776 21.6035L 173.776 26.3818C 173.776 27.5029 174.232 28.0635 175.144 28.0635C 176.11 28.0635 176.752 27.7035 177.071 26.9834L 177.071 21.6035L 178.336 21.6035L 178.336 29L 177.133 29L 177.105 28.2686ZM 183.839 22.7383C 183.647 22.7064 183.44 22.6904 183.217 22.6904C 182.387 22.6904 181.825 23.0436 181.528 23.75L 181.528 29L 180.264 29L 180.264 21.6035L 181.494 21.6035L 181.515 22.458C 181.929 21.7972 182.517 21.4668 183.278 21.4668C 183.524 21.4668 183.711 21.4987 183.839 21.5625L 183.839 22.7383ZM 4.53223 39.7383C 4.34082 39.7064 4.13346 39.6904 3.91016 39.6904C 3.08073 39.6904 2.5179 40.0436 2.22168 40.75L 2.22168 46L 0.957031 46L 0.957031 38.6035L 2.1875 38.6035L 2.20801 39.458C 2.62272 38.7972 3.21061 38.4668 3.97168 38.4668C 4.21777 38.4668 4.40462 38.4987 4.53223 38.5625L 4.53223 39.7383ZM 8.63379 46.1367C 7.63118 46.1367 6.81543 45.8086 6.18652 45.1523C 5.55762 44.4915 5.24316 43.6097 5.24316 42.5068L 5.24316 42.2744C 5.24316 41.5407 5.38216 40.8867 5.66016 40.3125C 5.94271 39.7337 6.33464 39.2826 6.83594 38.959C 7.3418 38.6309 7.88867 38.4668 8.47656 38.4668C 9.43815 38.4668 10.1855 38.7835 10.7188 39.417C 11.252 40.0505 11.5186 40.9574 11.5186 42.1377L 11.5186 42.6641L 6.50781 42.6641C 6.52604 43.3932 6.73796 43.9834 7.14355 44.4346C 7.55371 44.8812 8.07324 45.1045 8.70215 45.1045C 9.14876 45.1045 9.52702 45.0133 9.83691 44.8311C 10.1468 44.6488 10.418 44.4072 10.6504 44.1064L 11.4229 44.708C 10.8031 45.6605 9.87337 46.1367 8.63379 46.1367ZM 8.47656 39.5059C 7.96615 39.5059 7.53776 39.6927 7.19141 40.0664C 6.84505 40.4355 6.63086 40.9551 6.54883 41.625L 10.2539 41.625L 10.2539 41.5293C 10.2174 40.8867 10.0443 40.39 9.73438 40.0391C 9.42448 39.6836 9.00521 39.5059 8.47656 39.5059ZM 14.1846 38.6035L 14.2256 39.5332C 14.7907 38.8223 15.529 38.4668 16.4404 38.4668C 18.0036 38.4668 18.792 39.3486 18.8057 41.1123L 18.8057 46L 17.541 46L 17.541 41.1055C 17.5365 40.5723 17.4134 40.1781 17.1719 39.9229C 16.9349 39.6676 16.5635 39.54 16.0576 39.54C 15.6475 39.54 15.2874 39.6494 14.9775 39.8682C 14.6676 40.0869 14.4261 40.374 14.2529 40.7295L 14.2529 46L 12.9883 46L 12.9883 38.6035L 14.1846 38.6035ZM 22.4287 36.8125L 22.4287 38.6035L 23.8096 38.6035L 23.8096 39.5811L 22.4287 39.5811L 22.4287 44.168C 22.4287 44.4642 22.4902 44.6875 22.6133 44.8379C 22.7363 44.9837 22.946 45.0566 23.2422 45.0566C 23.388 45.0566 23.5885 45.0293 23.8438 44.9746L 23.8438 46C 23.5111 46.0911 23.1875 46.1367 22.873 46.1367C 22.3079 46.1367 21.8818 45.9658 21.5947 45.624C 21.3076 45.2822 21.1641 44.7969 21.1641 44.168L 21.1641 39.5811L 19.8174 39.5811L 19.8174 38.6035L 21.1641 38.6035L 21.1641 36.8125L 22.4287 36.8125ZM 29.8594 46C 29.7865 45.8542 29.7272 45.5944 29.6816 45.2207C 29.0938 45.8314 28.3919 46.1367 27.5762 46.1367C 26.847 46.1367 26.2477 45.9316 25.7783 45.5215C 25.3135 45.1068 25.0811 44.5827 25.0811 43.9492C 25.0811 43.179 25.3727 42.582 25.9561 42.1582C 26.5439 41.7298 27.3688 41.5156 28.4307 41.5156L 29.6611 41.5156L 29.6611 40.9346C 29.6611 40.4925 29.529 40.1416 29.2646 39.8818C 29.0003 39.6175 28.6107 39.4854 28.0957 39.4854C 27.6445 39.4854 27.2663 39.5993 26.9609 39.8271C 26.6556 40.055 26.5029 40.3307 26.5029 40.6543L 25.2314 40.6543C 25.2314 40.2852 25.3613 39.9297 25.6211 39.5879C 25.8854 39.2415 26.2409 38.9681 26.6875 38.7676C 27.1387 38.5671 27.6331 38.4668 28.1709 38.4668C 29.0231 38.4668 29.6908 38.681 30.1738 39.1094C 30.6569 39.5332 30.9076 40.1188 30.9258 40.8662L 30.9258 44.2705C 30.9258 44.9495 31.0124 45.4896 31.1855 45.8906L 31.1855 46L 29.8594 46ZM 27.7607 45.0361C 28.1572 45.0361 28.5332 44.9336 28.8887 44.7285C 29.2441 44.5234 29.5016 44.2568 29.6611 43.9287L 29.6611 42.4111L 28.6699 42.4111C 27.1204 42.4111 26.3457 42.8646 26.3457 43.7715C 26.3457 44.168 26.4779 44.4779 26.7422 44.7012C 27.0065 44.9245 27.346 45.0361 27.7607 45.0361ZM 34.2822 46L 33.0176 46L 33.0176 35.5L 34.2822 35.5L 34.2822 46ZM 44.3516 46C 44.2786 45.8542 44.2194 45.5944 44.1738 45.2207C 43.5859 45.8314 42.8841 46.1367 42.0684 46.1367C 41.3392 46.1367 40.7399 45.9316 40.2705 45.5215C 39.8057 45.1068 39.5732 44.5827 39.5732 43.9492C 39.5732 43.179 39.8649 42.582 40.4482 42.1582C 41.0361 41.7298 41.861 41.5156 42.9229 41.5156L 44.1533 41.5156L 44.1533 40.9346C 44.1533 40.4925 44.0212 40.1416 43.7568 39.8818C 43.4925 39.6175 43.1029 39.4854 42.5879 39.4854C 42.1367 39.4854 41.7585 39.5993 41.4531 39.8271C 41.1478 40.055 40.9951 40.3307 40.9951 40.6543L 39.7236 40.6543C 39.7236 40.2852 39.8535 39.9297 40.1133 39.5879C 40.3776 39.2415 40.7331 38.9681 41.1797 38.7676C 41.6309 38.5671 42.1253 38.4668 42.6631 38.4668C 43.5153 38.4668 44.1829 38.681 44.666 39.1094C 45.1491 39.5332 45.3997 40.1188 45.418 40.8662L 45.418 44.2705C 45.418 44.9495 45.5046 45.4896 45.6777 45.8906L 45.6777 46L 44.3516 46ZM 42.2529 45.0361C 42.6494 45.0361 43.0254 44.9336 43.3809 44.7285C 43.7363 44.5234 43.9938 44.2568 44.1533 43.9287L 44.1533 42.4111L 43.1621 42.4111C 41.6126 42.4111 40.8379 42.8646 40.8379 43.7715C 40.8379 44.168 40.9701 44.4779 41.2344 44.7012C 41.4987 44.9245 41.8382 45.0361 42.2529 45.0361ZM 48.5967 38.6035L 48.6377 39.5332C 49.2028 38.8223 49.9411 38.4668 50.8525 38.4668C 52.4157 38.4668 53.2041 39.3486 53.2178 41.1123L 53.2178 46L 51.9531 46L 51.9531 41.1055C 51.9486 40.5723 51.8255 40.1781 51.584 39.9229C 51.347 39.6676 50.9756 39.54 50.4697 39.54C 50.0596 39.54 49.6995 39.6494 49.3896 39.8682C 49.0798 40.0869 48.8382 40.374 48.665 40.7295L 48.665 46L 47.4004 46L 47.4004 38.6035L 48.5967 38.6035ZM 54.8174 42.2402C 54.8174 41.1055 55.0863 40.194 55.624 39.5059C 56.1618 38.8132 56.8659 38.4668 57.7363 38.4668C 58.6022 38.4668 59.2881 38.763 59.7939 39.3555L 59.7939 35.5L 61.0586 35.5L 61.0586 46L 59.8965 46L 59.835 45.207C 59.3291 45.8268 58.625 46.1367 57.7227 46.1367C 56.8659 46.1367 56.1663 45.7858 55.624 45.084C 55.0863 44.3822 54.8174 43.4661 54.8174 42.3359L 54.8174 42.2402ZM 56.082 42.3838C 56.082 43.2223 56.2552 43.8786 56.6016 44.3525C 56.9479 44.8265 57.4264 45.0635 58.0371 45.0635C 58.8392 45.0635 59.4248 44.7035 59.7939 43.9834L 59.7939 40.5859C 59.4157 39.8887 58.8346 39.54 58.0508 39.54C 57.431 39.54 56.9479 39.7793 56.6016 40.2578C 56.2552 40.7363 56.082 41.445 56.082 42.3838ZM 73.0488 44.2568L 74.4707 38.6035L 75.7354 38.6035L 73.582 46L 72.5566 46L 70.7588 40.3945L 69.0088 46L 67.9834 46L 65.8369 38.6035L 67.0947 38.6035L 68.5508 44.1406L 70.2734 38.6035L 71.292 38.6035L 73.0488 44.2568ZM 81.5938 46C 81.5208 45.8542 81.4616 45.5944 81.416 45.2207C 80.8281 45.8314 80.1263 46.1367 79.3105 46.1367C 78.5814 46.1367 77.9821 45.9316 77.5127 45.5215C 77.0479 45.1068 76.8154 44.5827 76.8154 43.9492C 76.8154 43.179 77.1071 42.582 77.6904 42.1582C 78.2783 41.7298 79.1032 41.5156 80.165 41.5156L 81.3955 41.5156L 81.3955 40.9346C 81.3955 40.4925 81.2633 40.1416 80.999 39.8818C 80.7347 39.6175 80.3451 39.4854 79.8301 39.4854C 79.3789 39.4854 79.0007 39.5993 78.6953 39.8271C 78.39 40.055 78.2373 40.3307 78.2373 40.6543L 76.9658 40.6543C 76.9658 40.2852 77.0957 39.9297 77.3555 39.5879C 77.6198 39.2415 77.9753 38.9681 78.4219 38.7676C 78.873 38.5671 79.3675 38.4668 79.9053 38.4668C 80.7575 38.4668 81.4251 38.681 81.9082 39.1094C 82.3913 39.5332 82.6419 40.1188 82.6602 40.8662L 82.6602 44.2705C 82.6602 44.9495 82.7467 45.4896 82.9199 45.8906L 82.9199 46L 81.5938 46ZM 79.4951 45.0361C 79.8916 45.0361 80.2676 44.9336 80.623 44.7285C 80.9785 44.5234 81.236 44.2568 81.3955 43.9287L 81.3955 42.4111L 80.4043 42.4111C 78.8548 42.4111 78.0801 42.8646 78.0801 43.7715C 78.0801 44.168 78.2122 44.4779 78.4766 44.7012C 78.7409 44.9245 79.0804 45.0361 79.4951 45.0361ZM 85.8389 38.6035L 85.8799 39.5332C 86.445 38.8223 87.1833 38.4668 88.0947 38.4668C 89.6579 38.4668 90.4463 39.3486 90.46 41.1123L 90.46 46L 89.1953 46L 89.1953 41.1055C 89.1908 40.5723 89.0677 40.1781 88.8262 39.9229C 88.5892 39.6676 88.2178 39.54 87.7119 39.54C 87.3018 39.54 86.9417 39.6494 86.6318 39.8682C 86.3219 40.0869 86.0804 40.374 85.9072 40.7295L 85.9072 46L 84.6426 46L 84.6426 38.6035L 85.8389 38.6035ZM 94.083 36.8125L 94.083 38.6035L 95.4639 38.6035L 95.4639 39.5811L 94.083 39.5811L 94.083 44.168C 94.083 44.4642 94.1445 44.6875 94.2676 44.8379C 94.3906 44.9837 94.6003 45.0566 94.8965 45.0566C 95.0423 45.0566 95.2428 45.0293 95.498 44.9746L 95.498 46C 95.1654 46.0911 94.8418 46.1367 94.5273 46.1367C 93.9622 46.1367 93.5361 45.9658 93.249 45.624C 92.9619 45.2822 92.8184 44.7969 92.8184 44.168L 92.8184 39.5811L 91.4717 39.5811L 91.4717 38.6035L 92.8184 38.6035L 92.8184 36.8125L 94.083 36.8125ZM 101.254 44.0381C 101.254 43.6963 101.124 43.432 100.864 43.2451C 100.609 43.0537 100.16 42.8896 99.5176 42.7529C 98.8796 42.6162 98.3714 42.4521 97.9932 42.2607C 97.6195 42.0693 97.3415 41.8415 97.1592 41.5771C 96.9814 41.3128 96.8926 40.9984 96.8926 40.6338C 96.8926 40.0277 97.1478 39.515 97.6582 39.0957C 98.1732 38.6764 98.8294 38.4668 99.627 38.4668C 100.465 38.4668 101.145 38.6833 101.664 39.1162C 102.188 39.5492 102.45 40.1029 102.45 40.7773L 101.179 40.7773C 101.179 40.431 101.031 40.1325 100.734 39.8818C 100.443 39.6312 100.074 39.5059 99.627 39.5059C 99.1667 39.5059 98.8066 39.6061 98.5469 39.8066C 98.2871 40.0072 98.1572 40.2692 98.1572 40.5928C 98.1572 40.8981 98.278 41.1283 98.5195 41.2832C 98.7611 41.4382 99.1963 41.5863 99.8252 41.7275C 100.459 41.8688 100.971 42.0374 101.363 42.2334C 101.755 42.4294 102.045 42.6663 102.231 42.9443C 102.423 43.2178 102.519 43.5527 102.519 43.9492C 102.519 44.61 102.254 45.141 101.726 45.542C 101.197 45.9385 100.511 46.1367 99.668 46.1367C 99.0755 46.1367 98.5514 46.0319 98.0957 45.8223C 97.64 45.6126 97.2822 45.321 97.0225 44.9473C 96.7673 44.569 96.6396 44.1611 96.6396 43.7236L 97.9043 43.7236C 97.9271 44.1475 98.0957 44.4847 98.4102 44.7354C 98.7292 44.9814 99.1484 45.1045 99.668 45.1045C 100.146 45.1045 100.529 45.0088 100.816 44.8174C 101.108 44.6214 101.254 44.3617 101.254 44.0381ZM 109.354 36.8125L 109.354 38.6035L 110.735 38.6035L 110.735 39.5811L 109.354 39.5811L 109.354 44.168C 109.354 44.4642 109.416 44.6875 109.539 44.8379C 109.662 44.9837 109.872 45.0566 110.168 45.0566C 110.314 45.0566 110.514 45.0293 110.77 44.9746L 110.77 46C 110.437 46.0911 110.113 46.1367 109.799 46.1367C 109.234 46.1367 108.808 45.9658 108.521 45.624C 108.233 45.2822 108.09 44.7969 108.09 44.168L 108.09 39.5811L 106.743 39.5811L 106.743 38.6035L 108.09 38.6035L 108.09 36.8125L 109.354 36.8125ZM 111.747 42.2334C 111.747 41.5088 111.888 40.8571 112.171 40.2783C 112.458 39.6995 112.854 39.2529 113.36 38.9385C 113.871 38.624 114.452 38.4668 115.104 38.4668C 116.111 38.4668 116.924 38.8154 117.544 39.5127C 118.168 40.21 118.48 41.1374 118.48 42.2949L 118.48 42.3838C 118.48 43.1038 118.341 43.751 118.063 44.3252C 117.79 44.8949 117.396 45.3392 116.881 45.6582C 116.37 45.9772 115.783 46.1367 115.117 46.1367C 114.115 46.1367 113.301 45.7881 112.677 45.0908C 112.057 44.3936 111.747 43.4707 111.747 42.3223L 111.747 42.2334ZM 113.019 42.3838C 113.019 43.2041 113.208 43.8626 113.586 44.3594C 113.969 44.8561 114.479 45.1045 115.117 45.1045C 115.76 45.1045 116.27 44.8538 116.648 44.3525C 117.027 43.8467 117.216 43.1403 117.216 42.2334C 117.216 41.4222 117.022 40.766 116.635 40.2646C 116.252 39.7588 115.742 39.5059 115.104 39.5059C 114.479 39.5059 113.976 39.7542 113.593 40.251C 113.21 40.7477 113.019 41.4587 113.019 42.3838ZM 123.231 42.2402C 123.231 41.1055 123.5 40.194 124.038 39.5059C 124.576 38.8132 125.28 38.4668 126.15 38.4668C 127.016 38.4668 127.702 38.763 128.208 39.3555L 128.208 35.5L 129.473 35.5L 129.473 46L 128.311 46L 128.249 45.207C 127.743 45.8268 127.039 46.1367 126.137 46.1367C 125.28 46.1367 124.58 45.7858 124.038 45.084C 123.5 44.3822 123.231 43.4661 123.231 42.3359L 123.231 42.2402ZM 124.496 42.3838C 124.496 43.2223 124.669 43.8786 125.016 44.3525C 125.362 44.8265 125.84 45.0635 126.451 45.0635C 127.253 45.0635 127.839 44.7035 128.208 43.9834L 128.208 40.5859C 127.83 39.8887 127.249 39.54 126.465 39.54C 125.845 39.54 125.362 39.7793 125.016 40.2578C 124.669 40.7363 124.496 41.445 124.496 42.3838ZM 132.815 46L 131.551 46L 131.551 38.6035L 132.815 38.6035L 132.815 46ZM 131.448 36.6416C 131.448 36.4365 131.51 36.2633 131.633 36.1221C 131.76 35.9808 131.947 35.9102 132.193 35.9102C 132.439 35.9102 132.626 35.9808 132.754 36.1221C 132.882 36.2633 132.945 36.4365 132.945 36.6416C 132.945 36.8467 132.882 37.0176 132.754 37.1543C 132.626 37.291 132.439 37.3594 132.193 37.3594C 131.947 37.3594 131.76 37.291 131.633 37.1543C 131.51 37.0176 131.448 36.8467 131.448 36.6416ZM 139.152 44.0381C 139.152 43.6963 139.022 43.432 138.763 43.2451C 138.507 43.0537 138.059 42.8896 137.416 42.7529C 136.778 42.6162 136.27 42.4521 135.892 42.2607C 135.518 42.0693 135.24 41.8415 135.058 41.5771C 134.88 41.3128 134.791 40.9984 134.791 40.6338C 134.791 40.0277 135.046 39.515 135.557 39.0957C 136.072 38.6764 136.728 38.4668 137.525 38.4668C 138.364 38.4668 139.043 38.6833 139.562 39.1162C 140.087 39.5492 140.349 40.1029 140.349 40.7773L 139.077 40.7773C 139.077 40.431 138.929 40.1325 138.633 39.8818C 138.341 39.6312 137.972 39.5059 137.525 39.5059C 137.065 39.5059 136.705 39.6061 136.445 39.8066C 136.186 40.0072 136.056 40.2692 136.056 40.5928C 136.056 40.8981 136.176 41.1283 136.418 41.2832C 136.66 41.4382 137.095 41.5863 137.724 41.7275C 138.357 41.8688 138.87 42.0374 139.262 42.2334C 139.654 42.4294 139.943 42.6663 140.13 42.9443C 140.321 43.2178 140.417 43.5527 140.417 43.9492C 140.417 44.61 140.153 45.141 139.624 45.542C 139.095 45.9385 138.41 46.1367 137.566 46.1367C 136.974 46.1367 136.45 46.0319 135.994 45.8223C 135.538 45.6126 135.181 45.321 134.921 44.9473C 134.666 44.569 134.538 44.1611 134.538 43.7236L 135.803 43.7236C 135.826 44.1475 135.994 44.4847 136.309 44.7354C 136.628 44.9814 137.047 45.1045 137.566 45.1045C 138.045 45.1045 138.428 45.0088 138.715 44.8174C 139.007 44.6214 139.152 44.3617 139.152 44.0381ZM 145.031 45.1045C 145.482 45.1045 145.877 44.9678 146.214 44.6943C 146.551 44.4209 146.738 44.0791 146.774 43.6689L 147.971 43.6689C 147.948 44.0928 147.802 44.4961 147.533 44.8789C 147.264 45.2617 146.904 45.5671 146.453 45.7949C 146.007 46.0228 145.533 46.1367 145.031 46.1367C 144.024 46.1367 143.222 45.8018 142.625 45.1318C 142.033 44.4574 141.736 43.5368 141.736 42.3701L 141.736 42.1582C 141.736 41.4382 141.868 40.7979 142.133 40.2373C 142.397 39.6768 142.775 39.2415 143.268 38.9316C 143.764 38.6217 144.35 38.4668 145.024 38.4668C 145.854 38.4668 146.542 38.7152 147.089 39.2119C 147.64 39.7087 147.934 40.3535 147.971 41.1465L 146.774 41.1465C 146.738 40.668 146.556 40.276 146.228 39.9707C 145.904 39.6608 145.503 39.5059 145.024 39.5059C 144.382 39.5059 143.883 39.7383 143.527 40.2031C 143.176 40.6634 143.001 41.3311 143.001 42.2061L 143.001 42.4453C 143.001 43.2975 143.176 43.9538 143.527 44.4141C 143.878 44.8743 144.38 45.1045 145.031 45.1045ZM 153.959 45.2686C 153.467 45.8473 152.744 46.1367 151.792 46.1367C 151.004 46.1367 150.402 45.9089 149.987 45.4531C 149.577 44.9928 149.37 44.3138 149.365 43.416L 149.365 38.6035L 150.63 38.6035L 150.63 43.3818C 150.63 44.5029 151.086 45.0635 151.997 45.0635C 152.963 45.0635 153.606 44.7035 153.925 43.9834L 153.925 38.6035L 155.189 38.6035L 155.189 46L 153.986 46L 153.959 45.2686ZM 161.424 44.0381C 161.424 43.6963 161.294 43.432 161.034 43.2451C 160.779 43.0537 160.33 42.8896 159.688 42.7529C 159.049 42.6162 158.541 42.4521 158.163 42.2607C 157.789 42.0693 157.511 41.8415 157.329 41.5771C 157.151 41.3128 157.062 40.9984 157.062 40.6338C 157.062 40.0277 157.318 39.515 157.828 39.0957C 158.343 38.6764 158.999 38.4668 159.797 38.4668C 160.635 38.4668 161.314 38.6833 161.834 39.1162C 162.358 39.5492 162.62 40.1029 162.62 40.7773L 161.349 40.7773C 161.349 40.431 161.201 40.1325 160.904 39.8818C 160.613 39.6312 160.243 39.5059 159.797 39.5059C 159.337 39.5059 158.977 39.6061 158.717 39.8066C 158.457 40.0072 158.327 40.2692 158.327 40.5928C 158.327 40.8981 158.448 41.1283 158.689 41.2832C 158.931 41.4382 159.366 41.5863 159.995 41.7275C 160.629 41.8688 161.141 42.0374 161.533 42.2334C 161.925 42.4294 162.215 42.6663 162.401 42.9443C 162.593 43.2178 162.688 43.5527 162.688 43.9492C 162.688 44.61 162.424 45.141 161.896 45.542C 161.367 45.9385 160.681 46.1367 159.838 46.1367C 159.245 46.1367 158.721 46.0319 158.266 45.8223C 157.81 45.6126 157.452 45.321 157.192 44.9473C 156.937 44.569 156.81 44.1611 156.81 43.7236L 158.074 43.7236C 158.097 44.1475 158.266 44.4847 158.58 44.7354C 158.899 44.9814 159.318 45.1045 159.838 45.1045C 160.316 45.1045 160.699 45.0088 160.986 44.8174C 161.278 44.6214 161.424 44.3617 161.424 44.0381ZM 168.643 44.0381C 168.643 43.6963 168.513 43.432 168.253 43.2451C 167.998 43.0537 167.549 42.8896 166.906 42.7529C 166.268 42.6162 165.76 42.4521 165.382 42.2607C 165.008 42.0693 164.73 41.8415 164.548 41.5771C 164.37 41.3128 164.281 40.9984 164.281 40.6338C 164.281 40.0277 164.536 39.515 165.047 39.0957C 165.562 38.6764 166.218 38.4668 167.016 38.4668C 167.854 38.4668 168.533 38.6833 169.053 39.1162C 169.577 39.5492 169.839 40.1029 169.839 40.7773L 168.567 40.7773C 168.567 40.431 168.419 40.1325 168.123 39.8818C 167.831 39.6312 167.462 39.5059 167.016 39.5059C 166.555 39.5059 166.195 39.6061 165.936 39.8066C 165.676 40.0072 165.546 40.2692 165.546 40.5928C 165.546 40.8981 165.667 41.1283 165.908 41.2832C 166.15 41.4382 166.585 41.5863 167.214 41.7275C 167.847 41.8688 168.36 42.0374 168.752 42.2334C 169.144 42.4294 169.433 42.6663 169.62 42.9443C 169.812 43.2178 169.907 43.5527 169.907 43.9492C 169.907 44.61 169.643 45.141 169.114 45.542C 168.586 45.9385 167.9 46.1367 167.057 46.1367C 166.464 46.1367 165.94 46.0319 165.484 45.8223C 165.029 45.6126 164.671 45.321 164.411 44.9473C 164.156 44.569 164.028 44.1611 164.028 43.7236L 165.293 43.7236C 165.316 44.1475 165.484 44.4847 165.799 44.7354C 166.118 44.9814 166.537 45.1045 167.057 45.1045C 167.535 45.1045 167.918 45.0088 168.205 44.8174C 168.497 44.6214 168.643 44.3617 168.643 44.0381ZM 176.743 36.8125L 176.743 38.6035L 178.124 38.6035L 178.124 39.5811L 176.743 39.5811L 176.743 44.168C 176.743 44.4642 176.805 44.6875 176.928 44.8379C 177.051 44.9837 177.26 45.0566 177.557 45.0566C 177.702 45.0566 177.903 45.0293 178.158 44.9746L 178.158 46C 177.826 46.0911 177.502 46.1367 177.188 46.1367C 176.622 46.1367 176.196 45.9658 175.909 45.624C 175.622 45.2822 175.479 44.7969 175.479 44.168L 175.479 39.5811L 174.132 39.5811L 174.132 38.6035L 175.479 38.6035L 175.479 36.8125L 176.743 36.8125ZM 180.872 39.499C 181.433 38.8109 182.162 38.4668 183.06 38.4668C 184.623 38.4668 185.411 39.3486 185.425 41.1123L 185.425 46L 184.16 46L 184.16 41.1055C 184.156 40.5723 184.033 40.1781 183.791 39.9229C 183.554 39.6676 183.183 39.54 182.677 39.54C 182.267 39.54 181.907 39.6494 181.597 39.8682C 181.287 40.0869 181.045 40.374 180.872 40.7295L 180.872 46L 179.607 46L 179.607 35.5L 180.872 35.5L 180.872 39.499ZM 190.388 46.1367C 189.385 46.1367 188.569 45.8086 187.94 45.1523C 187.312 44.4915 186.997 43.6097 186.997 42.5068L 186.997 42.2744C 186.997 41.5407 187.136 40.8867 187.414 40.3125C 187.697 39.7337 188.089 39.2826 188.59 38.959C 189.096 38.6309 189.643 38.4668 190.23 38.4668C 191.192 38.4668 191.939 38.7835 192.473 39.417C 193.006 40.0505 193.272 40.9574 193.272 42.1377L 193.272 42.6641L 188.262 42.6641C 188.28 43.3932 188.492 43.9834 188.897 44.4346C 189.308 44.8812 189.827 45.1045 190.456 45.1045C 190.903 45.1045 191.281 45.0133 191.591 44.8311C 191.901 44.6488 192.172 44.4072 192.404 44.1064L 193.177 44.708C 192.557 45.6605 191.627 46.1367 190.388 46.1367ZM 190.23 39.5059C 189.72 39.5059 189.292 39.6927 188.945 40.0664C 188.599 40.4355 188.385 40.9551 188.303 41.625L 192.008 41.625L 192.008 41.5293C 191.971 40.8867 191.798 40.39 191.488 40.0391C 191.178 39.6836 190.759 39.5059 190.23 39.5059ZM 0.649414 58.2402C 0.649414 57.1055 0.918294 56.194 1.45605 55.5059C 1.99382 54.8132 2.69792 54.4668 3.56836 54.4668C 4.43424 54.4668 5.12012 54.763 5.62598 55.3555L 5.62598 51.5L 6.89062 51.5L 6.89062 62L 5.72852 62L 5.66699 61.207C 5.16113 61.8268 4.45703 62.1367 3.55469 62.1367C 2.69792 62.1367 1.99837 61.7858 1.45605 61.084C 0.918294 60.3822 0.649414 59.4661 0.649414 58.3359L 0.649414 58.2402ZM 1.91406 58.3838C 1.91406 59.2223 2.08724 59.8786 2.43359 60.3525C 2.77995 60.8265 3.25846 61.0635 3.86914 61.0635C 4.67122 61.0635 5.25684 60.7035 5.62598 59.9834L 5.62598 56.5859C 5.24772 55.8887 4.66667 55.54 3.88281 55.54C 3.26302 55.54 2.77995 55.7793 2.43359 56.2578C 2.08724 56.7363 1.91406 57.445 1.91406 58.3838ZM 11.9287 62.1367C 10.9261 62.1367 10.1104 61.8086 9.48145 61.1523C 8.85254 60.4915 8.53809 59.6097 8.53809 58.5068L 8.53809 58.2744C 8.53809 57.5407 8.67708 56.8867 8.95508 56.3125C 9.23763 55.7337 9.62956 55.2826 10.1309 54.959C 10.6367 54.6309 11.1836 54.4668 11.7715 54.4668C 12.7331 54.4668 13.4805 54.7835 14.0137 55.417C 14.5469 56.0505 14.8135 56.9574 14.8135 58.1377L 14.8135 58.6641L 9.80273 58.6641C 9.82096 59.3932 10.0329 59.9834 10.4385 60.4346C 10.8486 60.8812 11.3682 61.1045 11.9971 61.1045C 12.4437 61.1045 12.8219 61.0133 13.1318 60.8311C 13.4417 60.6488 13.7129 60.4072 13.9453 60.1064L 14.7178 60.708C 14.098 61.6605 13.1683 62.1367 11.9287 62.1367ZM 11.7715 55.5059C 11.2611 55.5059 10.8327 55.6927 10.4863 56.0664C 10.14 56.4355 9.92578 56.9551 9.84375 57.625L 13.5488 57.625L 13.5488 57.5293C 13.5124 56.8867 13.3392 56.39 13.0293 56.0391C 12.7194 55.6836 12.3001 55.5059 11.7715 55.5059ZM 17.999 52.8125L 17.999 54.6035L 19.3799 54.6035L 19.3799 55.5811L 17.999 55.5811L 17.999 60.168C 17.999 60.4642 18.0605 60.6875 18.1836 60.8379C 18.3066 60.9837 18.5163 61.0566 18.8125 61.0566C 18.9583 61.0566 19.1589 61.0293 19.4141 60.9746L 19.4141 62C 19.0814 62.0911 18.7578 62.1367 18.4434 62.1367C 17.8783 62.1367 17.4521 61.9658 17.165 61.624C 16.8779 61.2822 16.7344 60.7969 16.7344 60.168L 16.7344 55.5811L 15.3877 55.5811L 15.3877 54.6035L 16.7344 54.6035L 16.7344 52.8125L 17.999 52.8125ZM 25.4297 62C 25.3568 61.8542 25.2975 61.5944 25.252 61.2207C 24.6641 61.8314 23.9622 62.1367 23.1465 62.1367C 22.4173 62.1367 21.818 61.9316 21.3486 61.5215C 20.8838 61.1068 20.6514 60.5827 20.6514 59.9492C 20.6514 59.179 20.943 58.582 21.5264 58.1582C 22.1143 57.7298 22.9391 57.5156 24.001 57.5156L 25.2314 57.5156L 25.2314 56.9346C 25.2314 56.4925 25.0993 56.1416 24.835 55.8818C 24.5706 55.6175 24.181 55.4854 23.666 55.4854C 23.2148 55.4854 22.8366 55.5993 22.5312 55.8271C 22.2259 56.055 22.0732 56.3307 22.0732 56.6543L 20.8018 56.6543C 20.8018 56.2852 20.9316 55.9297 21.1914 55.5879C 21.4557 55.2415 21.8112 54.9681 22.2578 54.7676C 22.709 54.5671 23.2035 54.4668 23.7412 54.4668C 24.5934 54.4668 25.2611 54.681 25.7441 55.1094C 26.2272 55.5332 26.4779 56.1188 26.4961 56.8662L 26.4961 60.2705C 26.4961 60.9495 26.5827 61.4896 26.7559 61.8906L 26.7559 62L 25.4297 62ZM 23.3311 61.0361C 23.7275 61.0361 24.1035 60.9336 24.459 60.7285C 24.8145 60.5234 25.0719 60.2568 25.2314 59.9287L 25.2314 58.4111L 24.2402 58.4111C 22.6908 58.4111 21.916 58.8646 21.916 59.7715C 21.916 60.168 22.0482 60.4779 22.3125 60.7012C 22.5768 60.9245 22.9163 61.0361 23.3311 61.0361ZM 29.8525 62L 28.5879 62L 28.5879 54.6035L 29.8525 54.6035L 29.8525 62ZM 28.4854 52.6416C 28.4854 52.4365 28.5469 52.2633 28.6699 52.1221C 28.7975 51.9808 28.9844 51.9102 29.2305 51.9102C 29.4766 51.9102 29.6634 51.9808 29.791 52.1221C 29.9186 52.2633 29.9824 52.4365 29.9824 52.6416C 29.9824 52.8467 29.9186 53.0176 29.791 53.1543C 29.6634 53.291 29.4766 53.3594 29.2305 53.3594C 28.9844 53.3594 28.7975 53.291 28.6699 53.1543C 28.5469 53.0176 28.4854 52.8467 28.4854 52.6416ZM 33.2568 62L 31.9922 62L 31.9922 51.5L 33.2568 51.5L 33.2568 62ZM 39.5938 60.0381C 39.5938 59.6963 39.4639 59.432 39.2041 59.2451C 38.9489 59.0537 38.5 58.8896 37.8574 58.7529C 37.2194 58.6162 36.7113 58.4521 36.333 58.2607C 35.9593 58.0693 35.6813 57.8415 35.499 57.5771C 35.3213 57.3128 35.2324 56.9984 35.2324 56.6338C 35.2324 56.0277 35.4876 55.515 35.998 55.0957C 36.513 54.6764 37.1693 54.4668 37.9668 54.4668C 38.8053 54.4668 39.4844 54.6833 40.0039 55.1162C 40.528 55.5492 40.79 56.1029 40.79 56.7773L 39.5186 56.7773C 39.5186 56.431 39.3704 56.1325 39.0742 55.8818C 38.7826 55.6312 38.4134 55.5059 37.9668 55.5059C 37.5065 55.5059 37.1465 55.6061 36.8867 55.8066C 36.627 56.0072 36.4971 56.2692 36.4971 56.5928C 36.4971 56.8981 36.6178 57.1283 36.8594 57.2832C 37.1009 57.4382 37.5361 57.5863 38.165 57.7275C 38.7985 57.8688 39.3112 58.0374 39.7031 58.2334C 40.0951 58.4294 40.3844 58.6663 40.5713 58.9443C 40.7627 59.2178 40.8584 59.5527 40.8584 59.9492C 40.8584 60.61 40.5941 61.141 40.0654 61.542C 39.5368 61.9385 38.8509 62.1367 38.0078 62.1367C 37.4154 62.1367 36.8913 62.0319 36.4355 61.8223C 35.9798 61.6126 35.6221 61.321 35.3623 60.9473C 35.1071 60.569 34.9795 60.1611 34.9795 59.7236L 36.2441 59.7236C 36.2669 60.1475 36.4355 60.4847 36.75 60.7354C 37.069 60.9814 37.4883 61.1045 38.0078 61.1045C 38.4863 61.1045 38.8691 61.0088 39.1562 60.8174C 39.4479 60.6214 39.5938 60.3617 39.5938 60.0381ZM 42.5332 61.3369C 42.5332 61.1182 42.597 60.9359 42.7246 60.79C 42.8568 60.6442 43.0527 60.5713 43.3125 60.5713C 43.5723 60.5713 43.7682 60.6442 43.9004 60.79C 44.0371 60.9359 44.1055 61.1182 44.1055 61.3369C 44.1055 61.5465 44.0371 61.722 43.9004 61.8633C 43.7682 62.0046 43.5723 62.0752 43.3125 62.0752C 43.0527 62.0752 42.8568 62.0046 42.7246 61.8633C 42.597 61.722 42.5332 61.5465 42.5332 61.3369Z"/>
</defs>
</svg>
