<svg xmlns="http://www.w3.org/2000/svg" xmlns:xlink="http://www.w3.org/1999/xlink" width="383" height="820" version="1.1" viewBox="0 0 383 820"><title>Group</title><desc>Created using Figma</desc><g id="Canvas" transform="translate(-61 345)"><g id="Group"><g id="Canvas"><g id="Safari" transform="scale(1.021) translateX(-5px)"><g id="Tool Bar"><g id="Background" filter="url(#filter0_d)"><g id="Vector"><use fill="#F9F9F9" fill-opacity=".9" transform="translate(65 388)" xlink:href="#path0_fill"/></g></g><g id="Graphics / Tab Bar Icons / Blue / Pages"><g id="Combined Shape"><g id="Vector"><use fill="#007AFF" transform="translate(398.77 397)" xlink:href="#path1_fill"/></g></g></g><g id="Graphics / Tab Bar Icons / Blue / Bookmarks"><g id="Icon"><g id="Vector"><use fill="#007AFF" transform="translate(320 399)" xlink:href="#path2_fill"/></g></g></g><g id="Graphics / Navbar &amp; Toolbar Icons / Blue / Action"><g id="Icon"><g id="Vector"><use fill="#007AFF" transform="translate(243 396)" xlink:href="#path3_fill"/></g></g></g><g id="Graphics / Navbar &amp; Toolbar Icons / Grey / Arrow Left"><g id="Arrow"><g id="Vector"><use fill="#007AFF" transform="translate(81 402.34)" xlink:href="#path4_fill"/></g></g></g><g id="Graphics / Navbar &amp; Toolbar Icons / Grey / Arrow Right"><g id="Arrow"><g id="Vector"><use fill="#8C8C8C" transform="matrix(-1 0 0 1 176 402.34)" xlink:href="#path5_fill"/></g></g></g></g><g id="Top Bar"><g id="Background" filter="url(#filter1_d)"><g id="Vector"><use fill="#F8F8F8" fill-opacity=".82" transform="translate(65 -341)" xlink:href="#path6_fill"/></g></g><g id="Field"><mask id="mask0_outline" mask-type="alpha"><g id="mask0_outline"><g id="Search Field"><g id="Vector"><use fill="#FFF" transform="translate(74 -293)" xlink:href="#path7_fill"/></g></g></g></mask><g id="Search Field" mask="url(#mask0_outline)"><g id="Vector"><use fill="#8E8E93" fill-opacity=".12" transform="translate(74 -293)" xlink:href="#path7_fill"/></g></g><g id="Icon" mask="url(#mask0_outline)"><g id="Vector" style="mix-blend-mode:multiply"><use transform="matrix(0.707107 -0.707107 0.707107 0.707107 399.36 -274.64)" xlink:href="#path8_fill"/></g></g><g id="Line" mask="url(#mask0_outline)"><g id="Vector"><use fill="#007AFF" transform="translate(76 -259)" xlink:href="#path9_fill"/></g></g><g id="Apple Inc." mask="url(#mask0_outline)"><g id="vput.eu"><use fill="#4CD964" transform="translate(227 -286)" xlink:href="#path10_fill"/></g></g><g id="Lock Icon" mask="url(#mask0_outline)"><g id="Vector"><use fill="#4CD964" transform="translate(204.5 -282)" xlink:href="#path11_fill"/></g></g></g><g id="UI Bars / Status Bars / Black Base"><g id="Battery"><g id="Rectangle" opacity=".35"><mask id="mask1_alpha" mask-type="alpha"><g id="mask1_outline_ins" opacity=".35"><g id="Vector" opacity=".35"><use fill="#FFF" transform="translate(401 -323.67)" xlink:href="#path12_fill"/></g></g></mask><g id="Group" mask="url(#mask1_alpha)" opacity=".35"><g id="Vector" opacity=".35"><use transform="translate(400 -324.67)" xlink:href="#path13_fill"/></g></g></g><g id="Combined Shape" opacity=".4"><g id="Vector" opacity=".4"><use transform="translate(424 -320)" xlink:href="#path14_fill"/></g></g><g id="Rectangle"><g id="Vector"><use transform="translate(403 -321.67)" xlink:href="#path15_fill"/></g></g></g><g id="Wifi"><g id="Vector"><use transform="translate(380.69 -323.67)" xlink:href="#path16_fill"/></g></g><g id="Mobile Signal"><g id="Vector"><use transform="translate(358.67 -323.33)" xlink:href="#path17_fill"/></g></g><g id="Time Style"><g id="9:41"><g id="Vector"><use transform="translate(98.4535 -323.833)" xlink:href="#path18_fill"/></g></g></g></g></g></g></g></g></g><defs><filter id="filter0_d" width="383" height="92" x="61" y="383" color-interpolation-filters="sRGB" filterUnits="userSpaceOnUse"><feFlood flood-opacity="0" result="BackgroundImageFix"/><feColorMatrix in="SourceAlpha" type="matrix" values="0 0 0 0 0 0 0 0 0 0 0 0 0 0 0 0 0 0 255 0"/><feOffset dx="0" dy="-.5"/><feGaussianBlur stdDeviation="2"/><feColorMatrix type="matrix" values="0 0 0 0 0 0 0 0 0 0 0 0 0 0 0 0 0 0 0.3 0"/><feBlend in2="BackgroundImageFix" mode="normal" result="effect1_dropShadow"/><feBlend in="SourceGraphic" in2="effect1_dropShadow" mode="normal" result="shape"/></filter><filter id="filter1_d" width="383" height="103" x="61" y="-345" color-interpolation-filters="sRGB" filterUnits="userSpaceOnUse"><feFlood flood-opacity="0" result="BackgroundImageFix"/><feColorMatrix in="SourceAlpha" type="matrix" values="0 0 0 0 0 0 0 0 0 0 0 0 0 0 0 0 0 0 255 0"/><feOffset dx="0" dy=".5"/><feGaussianBlur stdDeviation="2"/><feColorMatrix type="matrix" values="0 0 0 0 0 0 0 0 0 0 0 0 0 0 0 0 0 0 0.3 0"/><feBlend in2="BackgroundImageFix" mode="normal" result="effect1_dropShadow"/><feBlend in="SourceGraphic" in2="effect1_dropShadow" mode="normal" result="shape"/></filter><path id="path0_fill" fill-rule="evenodd" d="M 0 0L 375 0L 375 83L 0 83L 0 0Z"/><path id="path1_fill" fill-rule="evenodd" d="M 7.90063 0C 7.09668 0 6.44409 0.65918 6.44409 1.4707L 6.44409 3.02051L 20.3245 3.02051C 21.1294 3.02051 21.781 3.67871 21.781 4.48926L 21.781 19.4043L 23.5435 19.4043C 24.3484 19.4043 25 18.748 25 17.9346L 25 1.4707C 25 0.65918 24.3484 0 23.5435 0L 7.90063 0ZM 1.06055 5.47754L 18.3016 5.47754C 18.8873 5.47754 19.3622 6.10547 19.3622 6.88086L 19.3622 22.5957C 19.3622 23.3721 18.8873 24 18.3016 24L 1.06055 24C 0.474854 24 0 23.3721 0 22.5957L 0 6.88086C 0 6.10547 0.474854 5.47754 1.06055 5.47754Z"/><path id="path2_fill" fill-rule="evenodd" d="M 18.656 0C 16.0275 0 13.833 1.10675 12.5 3.0642C 11.1675 1.10675 8.9725 0 6.344 0C 3.28 0 0 1.63988 0 4.08094L 0 22.4281C 0 22.6212 0.105 22.7982 0.274 22.8897C 0.4435 22.9803 0.6495 22.9713 0.808 22.8652C 0.8485 22.8382 4.8935 20.1686 8.1555 20.1686C 10.269 20.1686 11.5225 21.2844 11.9895 23.5809C 11.9925 23.5964 12.002 23.6094 12.0065 23.6244C 12.015 23.6529 12.0255 23.6794 12.0385 23.7059C 12.0535 23.7359 12.07 23.7629 12.09 23.789C 12.1065 23.811 12.124 23.8315 12.144 23.8505C 12.168 23.874 12.194 23.8935 12.2225 23.9115C 12.245 23.926 12.267 23.9405 12.2925 23.951C 12.325 23.9655 12.3585 23.9735 12.394 23.9815C 12.4125 23.9855 12.4285 23.9955 12.448 23.9975C 12.465 23.999 12.482 24 12.4995 24L 12.5 24L 12.5005 24L 12.501 24C 12.518 24 12.535 23.9985 12.5525 23.9975C 12.5715 23.9955 12.5875 23.986 12.606 23.9815C 12.641 23.9735 12.675 23.966 12.7075 23.951C 12.7325 23.94 12.7545 23.926 12.7775 23.9115C 12.806 23.8935 12.832 23.874 12.856 23.8505C 12.876 23.8315 12.893 23.811 12.9095 23.789C 12.9295 23.7629 12.946 23.7359 12.9605 23.7059C 12.9735 23.6794 12.984 23.6529 12.9925 23.6244C 12.997 23.6094 13.0065 23.5964 13.0095 23.5809C 13.4765 21.2844 14.7305 20.1686 16.8435 20.1686C 20.106 20.1686 24.1505 22.8377 24.191 22.8652C 24.35 22.9708 24.5555 22.9803 24.725 22.8897C 24.894 22.7982 24.999 22.6212 24.999 22.4281L 24.999 4.08094C 25 1.63988 21.7205 0 18.656 0ZM 8.15599 19.121C 5.47199 19.121 2.45599 20.6703 1.04199 21.4935L 1.04199 4.08102C 1.04199 2.49416 3.56949 1.04883 6.34449 1.04883C 8.85449 1.04883 10.901 2.19909 11.9795 4.21055L 11.9795 20.8909C 11.1195 19.7246 9.82949 19.121 8.15599 19.121ZM 23.9585 21.493C 22.5445 20.6698 19.5285 19.1205 16.8445 19.1205C 15.171 19.1205 13.881 19.7241 13.021 20.8904L 13.021 4.21055C 14.0995 2.19909 16.1465 1.04883 18.656 1.04883C 21.431 1.04883 23.958 2.49416 23.958 4.08102L 23.958 21.493L 23.9585 21.493Z"/><path id="path3_fill" fill-rule="evenodd" d="M 5.26794 4.65615L 5.64502 5.05752C 5.73694 5.1542 5.88403 5.15615 5.97351 5.0624L 9 1.99892L 9 17.0048L 10.0005 17.0048L 10.0005 1.86904L 13.2535 5.12295C 13.342 5.21377 13.4875 5.21182 13.579 5.11709L 13.9926 4.72158C 14.084 4.62685 14.0861 4.47549 13.9971 4.38369L 10.2302 0.617089C 10.2233 0.565331 10.2004 0.515526 10.162 0.475487L 9.78503 0.0731434C 9.6925 -0.0225598 9.54553 -0.0245129 9.45654 0.0682606L 5.26245 4.31435C 5.17297 4.40713 5.17603 4.56045 5.26794 4.65615ZM 1 25.5048L 1 8.50478L 7 8.50478L 7 7.50478L 0 7.50478L 0 26.5048L 19 26.5048L 19 7.50478L 12 7.50478L 12 8.50478L 18 8.50478L 18 25.5048L 1 25.5048Z"/><path id="path4_fill" fill-rule="evenodd" d="M 9.45227 0.23584C 9.14233 -0.0786133 8.63513 -0.0786133 8.32526 0.23584L 1.1073 7.55225L 0 8.68311L 1.11127 9.81006L 8.29803 17.0942C 8.60693 17.4077 9.11255 17.4077 9.42145 17.0942C 9.72406 16.7876 9.724 16.2944 9.42139 15.9878L 2.22192 8.68311L 9.45239 1.34717C 9.7561 1.03857 9.75604 0.544434 9.45227 0.23584Z"/><path id="path5_fill" fill-rule="evenodd" d="M 9.45227 0.23584C 9.14233 -0.0786133 8.63513 -0.0786133 8.32532 0.23584L 1.1073 7.55225L 0 8.68311L 1.11133 9.81006L 8.2981 17.0942C 8.60693 17.4077 9.11255 17.4077 9.42139 17.0942C 9.724 16.7876 9.724 16.2944 9.42139 15.9878L 2.22192 8.68311L 9.45239 1.34717C 9.7561 1.03857 9.75598 0.544434 9.45227 0.23584Z"/><path id="path6_fill" fill-rule="evenodd" d="M 0 0L 375 0L 375 94L 0 94L 0 0Z"/><path id="path7_fill" fill-rule="evenodd" d="M 0 10C 0 4.47715 4.47715 0 10 0L 346 0C 351.523 0 356 4.47715 356 10L 356 26C 356 31.5228 351.523 36 346 36L 10 36C 4.47715 36 0 31.5228 0 26L 0 10Z"/><path id="path8_fill" fill-rule="evenodd" d="M 18.8996 9.44901C 18.8997 8.86904 18.4296 8.39896 17.8497 8.39905L 10.4994 8.39888L 10.4992 1.04996C 10.4993 0.469995 10.0292 -8.63051e-05 9.44927 1.1878e-08C 8.8693 8.63289e-05 8.39974 0.469649 8.39965 1.04961L 8.4 8.39862L 1.0503 8.39896C 0.470254 8.39896 1.1878e-08 8.86922 1.1878e-08 9.44927C -8.63051e-05 10.0292 0.469995 10.4993 1.04996 10.4992L 8.39991 10.4991L 8.39974 17.849C 8.39974 18.429 8.86982 18.8991 9.44978 18.899C 10.029 18.8996 10.4993 18.4294 10.4994 17.8494L 10.4993 10.4993L 17.8493 10.4993C 18.4293 10.4992 18.8995 10.0289 18.8996 9.44901Z"/><path id="path9_fill" fill-rule="evenodd" d="M 0 0L 122 0L 122 2L 0 2L 0 0Z"/><path id="path10_fill" d="M 4.36816 14.7939L 6.72363 7.49023L 8.38477 7.49023L 4.97461 17L 3.73535 17L 0.290039 7.49023L 1.95117 7.49023L 4.36816 14.7939ZM 17.9824 12.3506C 17.9824 13.7979 17.6514 14.9639 16.9893 15.8486C 16.3271 16.7334 15.4307 17.1758 14.2998 17.1758C 13.1455 17.1758 12.2373 16.8096 11.5752 16.0771L 11.5752 20.6562L 9.94922 20.6562L 9.94922 7.49023L 11.4346 7.49023L 11.5137 8.54492C 12.1758 7.72461 13.0957 7.31445 14.2734 7.31445C 15.416 7.31445 16.3184 7.74512 16.9805 8.60645C 17.6484 9.46777 17.9824 10.666 17.9824 12.2012L 17.9824 12.3506ZM 16.3564 12.166C 16.3564 11.0938 16.1279 10.2471 15.6709 9.62598C 15.2139 9.00488 14.5869 8.69434 13.79 8.69434C 12.8057 8.69434 12.0674 9.13086 11.5752 10.0039L 11.5752 14.5479C 12.0615 15.415 12.8057 15.8486 13.8076 15.8486C 14.5869 15.8486 15.2051 15.541 15.6621 14.9258C 16.125 14.3047 16.3564 13.3848 16.3564 12.166ZM 25.9277 16.0596C 25.2949 16.8037 24.3662 17.1758 23.1416 17.1758C 22.1279 17.1758 21.3545 16.8828 20.8213 16.2969C 20.2939 15.7051 20.0273 14.832 20.0215 13.6777L 20.0215 7.49023L 21.6475 7.49023L 21.6475 13.6338C 21.6475 15.0752 22.2334 15.7959 23.4053 15.7959C 24.6475 15.7959 25.4736 15.333 25.8838 14.4072L 25.8838 7.49023L 27.5098 7.49023L 27.5098 17L 25.9629 17L 25.9277 16.0596ZM 32.1943 5.1875L 32.1943 7.49023L 33.9697 7.49023L 33.9697 8.74707L 32.1943 8.74707L 32.1943 14.6445C 32.1943 15.0254 32.2734 15.3125 32.4316 15.5059C 32.5898 15.6934 32.8594 15.7871 33.2402 15.7871C 33.4277 15.7871 33.6855 15.752 34.0137 15.6816L 34.0137 17C 33.5859 17.1172 33.1699 17.1758 32.7656 17.1758C 32.0391 17.1758 31.4912 16.9561 31.1221 16.5166C 30.7529 16.0771 30.5684 15.4531 30.5684 14.6445L 30.5684 8.74707L 28.8369 8.74707L 28.8369 7.49023L 30.5684 7.49023L 30.5684 5.1875L 32.1943 5.1875ZM 35.9121 16.1475C 35.9121 15.8662 35.9941 15.6318 36.1582 15.4443C 36.3281 15.2568 36.5801 15.1631 36.9141 15.1631C 37.248 15.1631 37.5 15.2568 37.6699 15.4443C 37.8457 15.6318 37.9336 15.8662 37.9336 16.1475C 37.9336 16.417 37.8457 16.6426 37.6699 16.8242C 37.5 17.0059 37.248 17.0967 36.9141 17.0967C 36.5801 17.0967 36.3281 17.0059 36.1582 16.8242C 35.9941 16.6426 35.9121 16.417 35.9121 16.1475ZM 44.5693 17.1758C 43.2803 17.1758 42.2314 16.7539 41.4229 15.9102C 40.6143 15.0605 40.21 13.9268 40.21 12.5088L 40.21 12.21C 40.21 11.2666 40.3887 10.4258 40.7461 9.6875C 41.1094 8.94336 41.6133 8.36328 42.2578 7.94727C 42.9082 7.52539 43.6113 7.31445 44.3672 7.31445C 45.6035 7.31445 46.5645 7.72168 47.25 8.53613C 47.9355 9.35059 48.2783 10.5166 48.2783 12.0342L 48.2783 12.7109L 41.8359 12.7109C 41.8594 13.6484 42.1318 14.4072 42.6533 14.9873C 43.1807 15.5615 43.8486 15.8486 44.6572 15.8486C 45.2314 15.8486 45.7178 15.7314 46.1162 15.4971C 46.5146 15.2627 46.8633 14.9521 47.1621 14.5654L 48.1553 15.3389C 47.3584 16.5635 46.1631 17.1758 44.5693 17.1758ZM 44.3672 8.65039C 43.7109 8.65039 43.1602 8.89062 42.7148 9.37109C 42.2695 9.8457 41.9941 10.5137 41.8887 11.375L 46.6523 11.375L 46.6523 11.252C 46.6055 10.4258 46.3828 9.78711 45.9844 9.33594C 45.5859 8.87891 45.0469 8.65039 44.3672 8.65039ZM 56.0391 16.0596C 55.4062 16.8037 54.4775 17.1758 53.2529 17.1758C 52.2393 17.1758 51.4658 16.8828 50.9326 16.2969C 50.4053 15.7051 50.1387 14.832 50.1328 13.6777L 50.1328 7.49023L 51.7588 7.49023L 51.7588 13.6338C 51.7588 15.0752 52.3447 15.7959 53.5166 15.7959C 54.7588 15.7959 55.585 15.333 55.9951 14.4072L 55.9951 7.49023L 57.6211 7.49023L 57.6211 17L 56.0742 17L 56.0391 16.0596Z"/><path id="path11_fill" fill-rule="evenodd" d="M 8.5 5.5L 8.75366 5.5C 9.44202 5.5 10 6.10156 10 6.82129L 10 12.1787C 10 12.9082 9.43372 13.5 8.75366 13.5L 1.24634 13.5C 0.557983 13.5 0 12.8984 0 12.1787L 0 6.82129C 0 6.0918 0.566284 5.5 1.24634 5.5L 1.5 5.5L 1.5 3.5C 1.5 1.56738 3.07092 0 5 0C 6.93298 0 8.5 1.57129 8.5 3.5L 8.5 5.5ZM 2.66663 5.5L 2.66663 3.50684C 2.66663 2.21484 3.70239 1.16699 5 1.16699C 6.2887 1.16699 7.33337 2.20117 7.33337 3.50684L 7.33337 5.5L 2.66663 5.5Z"/><path id="path12_fill" fill-rule="evenodd" d="M 0 2.66667C 0 1.19391 1.19391 0 2.66667 0L 19.3333 0C 20.8061 0 22 1.19391 22 2.66667L 22 8.66667C 22 10.1394 20.8061 11.3333 19.3333 11.3333L 2.66667 11.3333C 1.19391 11.3333 0 10.1394 0 8.66667L 0 2.66667Z"/><path id="path13_fill" d="M 3.66667 2L 20.3333 2L 20.3333 0L 3.66667 0L 3.66667 2ZM 22 3.66667L 22 9.66667L 24 9.66667L 24 3.66667L 22 3.66667ZM 20.3333 11.3333L 3.66667 11.3333L 3.66667 13.3333L 20.3333 13.3333L 20.3333 11.3333ZM 2 9.66667L 2 3.66667L 0 3.66667L 0 9.66667L 2 9.66667ZM 3.66667 0C 1.64162 0 0 1.64162 0 3.66667L 2 3.66667C 2 2.74619 2.74619 2 3.66667 2L 3.66667 0ZM 20.3333 2C 21.2538 2 22 2.74619 22 3.66667L 24 3.66667C 24 1.64162 22.3584 0 20.3333 0L 20.3333 2ZM 22 9.66667C 22 10.5871 21.2538 11.3333 20.3333 11.3333L 20.3333 13.3333C 22.3584 13.3333 24 11.6917 24 9.66667L 22 9.66667ZM 3.66667 11.3333C 2.74619 11.3333 2 10.5871 2 9.66667L 0 9.66667C 0 11.6917 1.64162 13.3333 3.66667 13.3333L 3.66667 11.3333Z"/><path id="path14_fill" d="M 0 0L 0 4C 0.804731 3.66122 1.32804 2.87313 1.32804 2C 1.32804 1.12687 0.804731 0.338777 0 0Z"/><path id="path15_fill" d="M 0 1.33333C 0 0.596954 0.596954 0 1.33333 0L 16.6667 0C 17.403 0 18 0.596954 18 1.33333L 18 6C 18 6.73638 17.403 7.33333 16.6667 7.33333L 1.33333 7.33333C 0.596954 7.33333 0 6.73638 0 6L 0 1.33333Z"/><path id="path16_fill" fill-rule="evenodd" d="M 7.6366 2.27734C 9.85255 2.27734 11.9837 3.12891 13.5896 4.65527C 13.7106 4.77344 13.9038 4.77246 14.023 4.65234L 15.179 3.48535C 15.2393 3.4248 15.2728 3.34277 15.2723 3.25684C 15.2719 3.17188 15.2373 3.08984 15.1763 3.0293C 10.9612 -1.00977 4.31141 -1.00977 0.0963217 3.0293C 0.0351644 3.08984 0.000618531 3.17188 8.17965e-06 3.25684C -0.000602172 3.34277 0.0329672 3.4248 0.0932699 3.48535L 1.24964 4.65234C 1.36866 4.77246 1.56214 4.77344 1.68299 4.65527C 3.28907 3.12891 5.42054 2.27734 7.6366 2.27734ZM 7.6366 6.07324C 8.85413 6.07324 10.0282 6.52539 10.9307 7.34277C 11.0527 7.45898 11.245 7.45605 11.364 7.33691L 12.5187 6.16992C 12.5795 6.10938 12.6132 6.02637 12.6123 5.93945C 12.6115 5.85352 12.5761 5.77148 12.514 5.71094C 9.76576 3.15527 5.5099 3.15527 2.7616 5.71094C 2.69959 5.77148 2.66419 5.85352 2.66334 5.93945C 2.66248 6.02637 2.69642 6.10938 2.75733 6.16992L 3.91163 7.33691C 4.03065 7.45605 4.22291 7.45898 4.34498 7.34277C 5.24683 6.52637 6.41993 6.07324 7.6366 6.07324ZM 9.94959 8.62695C 9.95142 8.71289 9.91737 8.7959 9.8556 8.85742L 7.85828 10.873C 7.79969 10.9316 7.71986 10.9648 7.6366 10.9648C 7.55335 10.9648 7.47352 10.9316 7.41493 10.873L 5.41724 8.85742C 5.3556 8.7959 5.32166 8.71289 5.32349 8.62598C 5.32533 8.54004 5.36268 8.45801 5.42689 8.40039C 6.70252 7.32129 8.57069 7.32129 9.84632 8.40039C 9.91041 8.45801 9.94788 8.54004 9.94959 8.62695Z"/><path id="path17_fill" fill-rule="evenodd" d="M 16 0L 15 0C 14.4478 0 14 0.447266 14 1L 14 9.66699C 14 10.2188 14.4478 10.667 15 10.667L 16 10.667C 16.5522 10.667 17 10.2188 17 9.66699L 17 1C 17 0.447266 16.5522 0 16 0ZM 10.3334 2.33301L 11.3334 2.33301C 11.8856 2.33301 12.3334 2.78027 12.3334 3.33301L 12.3334 9.66602C 12.3334 10.2188 11.8856 10.666 11.3334 10.666L 10.3334 10.666C 9.78113 10.666 9.33337 10.2188 9.33337 9.66602L 9.33337 3.33301C 9.33337 2.78027 9.78113 2.33301 10.3334 2.33301ZM 6.66663 4.66699L 5.66663 4.66699C 5.11438 4.66699 4.66663 5.11426 4.66663 5.66699L 4.66663 9.66699C 4.66663 10.2197 5.11438 10.667 5.66663 10.667L 6.66663 10.667C 7.21887 10.667 7.66663 10.2197 7.66663 9.66699L 7.66663 5.66699C 7.66663 5.11426 7.21887 4.66699 6.66663 4.66699ZM 2 6.66699L 1 6.66699C 0.447754 6.66699 0 7.11426 0 7.66699L 0 9.66699C 0 10.2197 0.447754 10.667 1 10.667L 2 10.667C 2.55225 10.667 3 10.2197 3 9.66699L 3 7.66699C 3 7.11426 2.55225 6.66699 2 6.66699Z"/><path id="path18_fill" d="M 3.8672 11.0888C 6.5552 11.0888 8.1519 8.98682 8.1519 5.42725C 8.1519 4.08691 7.8955 2.95898 7.4048 2.0874C 6.6944 0.73242 5.4712 -8.08716e-09 3.9258 -8.08716e-09C 1.626 -8.08716e-09 -2.05994e-07 1.54541 -2.05994e-07 3.71338C -2.05994e-07 5.74951 1.4649 7.22902 3.479 7.22902C 4.7168 7.22902 5.7202 6.65039 6.2183 5.64697L 6.2403 5.64697C 6.2403 5.64697 6.2695 5.64697 6.2769 5.64697C 6.2915 5.64697 6.3428 5.64697 6.3428 5.64697C 6.3428 8.06392 5.4273 9.50682 3.8819 9.50682C 2.9736 9.50682 2.2705 9.00882 2.0288 8.21042L 0.1465 8.21042C 0.4614 9.94632 1.9336 11.0888 3.8672 11.0888ZM 3.9331 5.72754C 2.7173 5.72754 1.853 4.86328 1.853 3.65479C 1.853 2.47559 2.7612 1.57471 3.9404 1.57471C 5.1196 1.57471 6.0278 2.49023 6.0278 3.68408C 6.0278 4.86328 5.1416 5.72754 3.9331 5.72754ZM 11.243 10.9863C 11.9388 10.9863 12.4149 10.4883 12.4149 9.82912C 12.4149 9.16262 11.9388 8.67192 11.243 8.67192C 10.5545 8.67192 10.0711 9.16262 10.0711 9.82912C 10.0711 10.4883 10.5545 10.9863 11.243 10.9863ZM 11.243 5.49316C 11.9388 5.49316 12.4149 5.00244 12.4149 4.34326C 12.4149 3.67676 11.9388 3.18604 11.243 3.18604C 10.5545 3.18604 10.0711 3.67676 10.0711 4.34326C 10.0711 5.00244 10.5545 5.49316 11.243 5.49316ZM 19.2706 10.8325L 21.0797 10.8325L 21.0797 8.86232L 22.5079 8.86232L 22.5079 7.26562L 21.0797 7.26562L 21.0797 0.26367L 18.4137 0.26367C 16.546 3.07617 15.0592 5.42725 14.107 7.17772L 14.107 8.86232L 19.2706 8.86232L 19.2706 10.8325ZM 15.8575 7.19972C 17.088 5.03174 18.1866 3.2959 19.1974 1.80176L 19.2999 1.80176L 19.2999 7.30962L 15.8575 7.30962L 15.8575 7.19972ZM 26.5365 10.8325L 28.4262 10.8325L 28.4262 0.26367L 26.5439 0.26367L 23.7826 2.19727L 23.7826 4.01367L 26.412 2.16797L 26.5365 2.16797L 26.5365 10.8325Z"/></defs></svg>