<svg width="319" height="674" viewBox="0 0 319 674" version="1.1" xmlns="http://www.w3.org/2000/svg" xmlns:xlink="http://www.w3.org/1999/xlink">
<title>Canvas</title>
<desc>Created using Figma</desc>
<g id="Canvas" transform="translate(1126 482)">
<g id="Canvas">
<g id="Safari">
<g id="Tool Bar">
<g id="Background" filter="url(#filter0_d)">
<g id="Vector">
<use xlink:href="#path0_fill" transform="translate(-1121.36 118.987)" fill="#F9F9F9" fill-opacity="0.9"/>
</g>
</g>
<g id="Graphics / Tab Bar Icons / Blue / Pages">
<g id="Combined Shape">
<g id="Vector">
<use xlink:href="#path1_fill" transform="translate(-845.936 126.424)" fill="#007AFF"/>
</g>
</g>
</g>
<g id="Graphics / Tab Bar Icons / Blue / Bookmarks">
<g id="Icon">
<g id="Vector">
<use xlink:href="#path2_fill" transform="translate(-910.936 128.076)" fill="#007AFF"/>
</g>
</g>
</g>
<g id="Graphics / Navbar &#38; Toolbar Icons / Blue / Action">
<g id="Icon">
<g id="Vector">
<use xlink:href="#path3_fill" transform="translate(-974.475 125.597)" fill="#007AFF"/>
</g>
</g>
</g>
<g id="Graphics / Navbar &#38; Toolbar Icons / Grey / Arrow Left">
<g id="Arrow">
<g id="Vector">
<use xlink:href="#path4_fill" transform="translate(-1108.16 130.836)" fill="#007AFF"/>
</g>
</g>
</g>
<g id="Graphics / Navbar &#38; Toolbar Icons / Grey / Arrow Right">
<g id="Arrow">
<g id="Vector">
<use xlink:href="#path5_fill" transform="matrix(-1 0 0 1 -1029.76 130.836)" fill="#8C8C8C"/>
</g>
</g>
</g>
</g>
<g id="Top Bar">
<g id="Background" filter="url(#filter1_d)">
<g id="Vector">
<use xlink:href="#path6_fill" transform="translate(-1121.36 -478.344)" fill="#F8F8F8" fill-opacity="0.82"/>
</g>
</g>
<g id="Field">
<mask id="mask0_outline" mask-type="alpha">
<g id="mask0_outline">
<g id="Search Field">
<g id="Vector">
<use xlink:href="#path7_fill" transform="translate(-1113.93 -438.684)" fill="#FFFFFF"/>
</g>
</g>
</g>
</mask>
<g id="Search Field" mask="url(#mask0_outline)">
<g id="Vector">
<use xlink:href="#path7_fill" transform="translate(-1113.93 -438.684)" fill="#8E8E93" fill-opacity="0.12"/>
</g>
</g>
<g id="Icon" mask="url(#mask0_outline)">
<g id="Vector" style="mix-blend-mode:multiply">
<use xlink:href="#path8_fill" transform="matrix(0.706655 -0.707558 0.706655 0.707558 -845.449 -423.514)"/>
</g>
</g>
<g id="Line" mask="url(#mask0_outline)">
<g id="Vector">
<use xlink:href="#path9_fill" transform="translate(-1112.28 -410.592)" fill="#007AFF"/>
</g>
</g>
</g>
<g id="UI Bars / Status Bars / Black Base">
<g id="Battery">
<g id="Rectangle" opacity="0.35">
<mask id="mask1_alpha" mask-type="alpha">
<g id="mask1_outline_ins" opacity="0.35">
<g id="Vector" opacity="0.35">
<use xlink:href="#path10_fill" transform="translate(-844.095 -464.025)" fill="#FFFFFF"/>
</g>
</g>
</mask>
<g id="Group" opacity="0.35" mask="url(#mask1_alpha)">
<g id="Vector" opacity="0.35">
<use xlink:href="#path11_fill" transform="translate(-844.921 -464.851)"/>
</g>
</g>
</g>
<g id="Combined Shape" opacity="0.4">
<g id="Vector" opacity="0.4">
<use xlink:href="#path12_fill" transform="translate(-825.116 -460.992)"/>
</g>
</g>
<g id="Rectangle">
<g id="Vector">
<use xlink:href="#path13_fill" transform="translate(-842.445 -462.372)"/>
</g>
</g>
</g>
<g id="Wifi">
<g id="Vector">
<use xlink:href="#path14_fill" transform="translate(-860.855 -464.025)"/>
</g>
</g>
<g id="Mobile Signal">
<g id="Vector">
<use xlink:href="#path15_fill" transform="translate(-879.026 -463.746)"/>
</g>
</g>
<g id="Time Style">
<g id="9:41">
<g id="Vector">
<use xlink:href="#path16_fill" transform="translate(-1093.75 -464.16)"/>
</g>
</g>
</g>
</g>
<g id="url">
<g id="Lock Icon">
<use xlink:href="#path17_fill" transform="translate(-999 -431)" fill="#4CD964"/>
</g>
<g id="vput.eu">
<use xlink:href="#path18_fill" transform="translate(-979.5 -431)" fill="#4CD964"/>
</g>
</g>
</g>
</g>
</g>
</g>
<defs>
<filter id="filter0_d" filterUnits="userSpaceOnUse" x="-1126" y="114" width="319" height="78" color-interpolation-filters="sRGB">
<feFlood flood-opacity="0" result="BackgroundImageFix"/>
<feColorMatrix in="SourceAlpha" type="matrix" values="0 0 0 0 0 0 0 0 0 0 0 0 0 0 0 0 0 0 255 0"/>
<feOffset dx="0" dy="-0.5"/>
<feGaussianBlur stdDeviation="2"/>
<feColorMatrix type="matrix" values="0 0 0 0 0 0 0 0 0 0 0 0 0 0 0 0 0 0 0.3 0"/>
<feBlend mode="normal" in2="BackgroundImageFix" result="effect1_dropShadow"/>
<feBlend mode="normal" in="SourceGraphic" in2="effect1_dropShadow" result="shape"/>
</filter>
<filter id="filter1_d" filterUnits="userSpaceOnUse" x="-1126" y="-482" width="319" height="86" color-interpolation-filters="sRGB">
<feFlood flood-opacity="0" result="BackgroundImageFix"/>
<feColorMatrix in="SourceAlpha" type="matrix" values="0 0 0 0 0 0 0 0 0 0 0 0 0 0 0 0 0 0 255 0"/>
<feOffset dx="0" dy="0.5"/>
<feGaussianBlur stdDeviation="2"/>
<feColorMatrix type="matrix" values="0 0 0 0 0 0 0 0 0 0 0 0 0 0 0 0 0 0 0.3 0"/>
<feBlend mode="normal" in2="BackgroundImageFix" result="effect1_dropShadow"/>
<feBlend mode="normal" in="SourceGraphic" in2="effect1_dropShadow" result="shape"/>
</filter>
<path id="path0_fill" fill-rule="evenodd" d="M 0 0L 309.446 0L 309.446 68.5781L 0 68.5781L 0 0Z"/>
<path id="path1_fill" fill-rule="evenodd" d="M 6.51951 0C 5.8561 0 5.31759 0.544643 5.31759 1.21516L 5.31759 2.49567L 16.7715 2.49567C 17.4357 2.49567 17.9734 3.03951 17.9734 3.70922L 17.9734 16.0327L 19.4278 16.0327C 20.092 16.0327 20.6297 15.4904 20.6297 14.8183L 20.6297 1.21516C 20.6297 0.544643 20.092 0 19.4278 0L 6.51951 0ZM 0.875154 4.52578L 15.1023 4.52578C 15.5856 4.52578 15.9775 5.0446 15.9775 5.68526L 15.9775 18.6695C 15.9775 19.311 15.5856 19.8298 15.1023 19.8298L 0.875154 19.8298C 0.391844 19.8298 0 19.311 0 18.6695L 0 5.68526C 0 5.0446 0.391844 4.52578 0.875154 4.52578Z"/>
<path id="path2_fill" fill-rule="evenodd" d="M 15.3947 0C 13.2257 0 11.4148 0.914444 10.3149 2.53177C 9.21529 0.914444 7.404 0 5.23499 0C 2.70662 0 0 1.35494 0 3.37185L 0 18.5311C 0 18.6906 0.0866448 18.8368 0.226102 18.9125C 0.365971 18.9873 0.53596 18.9799 0.666752 18.8922C 0.700172 18.8699 4.03806 16.6642 6.72982 16.6642C 8.47386 16.6642 9.50823 17.5861 9.8936 19.4836C 9.89607 19.4964 9.90391 19.5071 9.90762 19.5195C 9.91464 19.543 9.9233 19.5649 9.93403 19.5868C 9.94641 19.6116 9.96002 19.6339 9.97653 19.6555C 9.99014 19.6737 10.0046 19.6906 10.0211 19.7063C 10.0409 19.7257 10.0623 19.7418 10.0859 19.7567C 10.1044 19.7687 10.1226 19.7807 10.1436 19.7893C 10.1704 19.8013 10.1981 19.8079 10.2274 19.8145C 10.2427 19.8178 10.2559 19.8261 10.2719 19.8278C 10.286 19.829 10.3 19.8298 10.3144 19.8298L 10.3149 19.8298L 10.3153 19.8298L 10.3157 19.8298C 10.3297 19.8298 10.3437 19.8286 10.3582 19.8278C 10.3739 19.8261 10.3871 19.8183 10.4023 19.8145C 10.4312 19.8079 10.4593 19.8017 10.4861 19.7893C 10.5067 19.7803 10.5249 19.7687 10.5438 19.7567C 10.5674 19.7418 10.5888 19.7257 10.6086 19.7063C 10.6251 19.6906 10.6392 19.6737 10.6528 19.6555C 10.6693 19.6339 10.6829 19.6116 10.6949 19.5868C 10.7056 19.5649 10.7142 19.543 10.7213 19.5195C 10.725 19.5071 10.7328 19.4964 10.7353 19.4836C 11.1207 17.5861 12.1554 16.6642 13.8991 16.6642C 16.5912 16.6642 19.9287 18.8695 19.9621 18.8922C 20.0933 18.9795 20.2629 18.9873 20.4028 18.9125C 20.5422 18.8368 20.6289 18.6906 20.6289 18.5311L 20.6289 3.37185C 20.6297 1.35494 17.9235 0 15.3947 0ZM 6.73023 15.7986C 4.51542 15.7986 2.02665 17.0787 0.859838 17.7589L 0.859838 3.37191C 0.859838 2.06078 2.9455 0.866588 5.2354 0.866588C 7.30662 0.866588 8.99538 1.81698 9.88534 3.47894L 9.88534 17.261C 9.17568 16.2973 8.11118 15.7986 6.73023 15.7986ZM 19.7703 17.7584C 18.6035 17.0783 16.1147 15.7982 13.8999 15.7982C 12.5189 15.7982 11.4544 16.2969 10.7448 17.2605L 10.7448 3.47894C 11.6347 1.81698 13.3239 0.866588 15.3947 0.866588C 17.6846 0.866588 19.7699 2.06078 19.7699 3.37191L 19.7699 17.7584L 19.7703 17.7584Z"/>
<path id="path3_fill" fill-rule="evenodd" d="M 4.34704 3.84711L 4.65821 4.17874C 4.73406 4.25862 4.85543 4.26023 4.92927 4.18277L 7.4267 1.65159L 7.4267 14.0501L 8.2523 14.0501L 8.2523 1.54428L 10.9366 4.2328C 11.0097 4.30784 11.1297 4.30623 11.2052 4.22796L 11.5465 3.90117C 11.622 3.8229 11.6237 3.69784 11.5502 3.62199L 8.44184 0.509865C 8.43615 0.467101 8.41725 0.42595 8.38556 0.392868L 8.07449 0.0604342C 7.99814 -0.0186399 7.87686 -0.0202536 7.80343 0.0563998L 4.34251 3.5647C 4.26868 3.64136 4.2712 3.76804 4.34704 3.84711ZM 0.825188 21.0732L 0.825188 7.02701L 5.77632 7.02701L 5.77632 6.20077L 0 6.20077L 0 21.8994L 15.6786 21.8994L 15.6786 6.20077L 9.90226 6.20077L 9.90226 7.02701L 14.8534 7.02701L 14.8534 21.0732L 0.825188 21.0732Z"/>
<path id="path4_fill" fill-rule="evenodd" d="M 7.7999 0.194861C 7.54415 -0.0649537 7.12561 -0.0649537 6.86991 0.194861L 0.913731 6.23999L 0 7.17436L 0.917007 8.10549L 6.84744 14.124C 7.10234 14.383 7.51957 14.383 7.77447 14.124C 8.02418 13.8706 8.02413 13.4631 7.77442 13.2098L 1.8335 7.17436L 7.8 1.11309C 8.05062 0.858111 8.05057 0.449835 7.7999 0.194861Z"/>
<path id="path5_fill" fill-rule="evenodd" d="M 7.7999 0.194861C 7.54415 -0.0649537 7.12561 -0.0649537 6.86996 0.194861L 0.913731 6.23999L 0 7.17436L 0.917057 8.10549L 6.8475 14.124C 7.10234 14.383 7.51957 14.383 7.77442 14.124C 8.02413 13.8706 8.02413 13.4631 7.77442 13.2098L 1.8335 7.17436L 7.8 1.11309C 8.05062 0.858111 8.05052 0.449835 7.7999 0.194861Z"/>
<path id="path6_fill" fill-rule="evenodd" d="M 0 0L 309.446 0L 309.446 77.6668L 0 77.6668L 0 0Z"/>
<path id="path7_fill" fill-rule="evenodd" d="M 0 8.26243C 0 3.69921 3.69449 0 8.25188 0L 285.515 0C 290.073 0 293.767 3.69921 293.767 8.26243L 293.767 21.4823C 293.767 26.0455 290.073 29.7447 285.515 29.7447L 8.25188 29.7447C 3.69449 29.7447 0 26.0455 0 21.4823L 0 8.26243Z"/>
<path id="path8_fill" fill-rule="evenodd" d="M 15.6057 7.8022C 15.6058 7.32331 15.2176 6.93515 14.7388 6.93523L 8.66955 6.93509L 8.66939 0.866969C 8.66947 0.388082 8.2813 -7.12635e-05 7.80241 9.80789e-09C 7.32352 7.12831e-05 6.9358 0.387797 6.93572 0.86668L 6.93601 6.93487L 0.86725 6.93515C 0.388296 6.93515 9.80789e-09 7.32346 9.80789e-09 7.80241C -7.12635e-05 8.2813 0.388082 8.66947 0.86697 8.66939L 6.93594 8.66931L 6.9358 14.7382C 6.9358 15.2172 7.32395 15.6053 7.80283 15.6052C 8.28114 15.6057 8.66947 15.2175 8.66955 14.7386L 8.66947 8.66947L 14.7385 8.66947C 15.2174 8.66939 15.6057 8.28106 15.6057 7.8022Z"/>
<path id="path9_fill" fill-rule="evenodd" d="M 0 0L 100.673 0L 100.673 1.65249L 0 1.65249L 0 0Z"/>
<path id="path10_fill" fill-rule="evenodd" d="M 0 2.20332C 0 0.98646 0.985201 0 2.20051 0L 15.9536 0C 17.169 0 18.1541 0.98646 18.1541 2.20332L 18.1541 7.16077C 18.1541 8.37761 17.169 9.36406 15.9536 9.36406L 2.20051 9.36406C 0.985201 9.36406 0 8.37761 0 7.16077L 0 2.20332Z"/>
<path id="path11_fill" d="M 3.02569 1.65249L 16.7788 1.65249L 16.7788 0L 3.02569 0L 3.02569 1.65249ZM 18.1541 3.02956L 18.1541 7.98702L 19.8045 7.98702L 19.8045 3.02956L 18.1541 3.02956ZM 16.7788 9.36406L 3.02569 9.36406L 3.02569 11.0165L 16.7788 11.0165L 16.7788 9.36406ZM 1.65038 7.98702L 1.65038 3.02956L 0 3.02956L 0 7.98702L 1.65038 7.98702ZM 3.02569 0C 1.35465 0 0 1.35638 0 3.02956L 1.65038 3.02956C 1.65038 2.26902 2.26612 1.65249 3.02569 1.65249L 3.02569 0ZM 16.7788 1.65249C 17.5384 1.65249 18.1541 2.26902 18.1541 3.02956L 19.8045 3.02956C 19.8045 1.35638 18.4499 0 16.7788 0L 16.7788 1.65249ZM 18.1541 7.98702C 18.1541 8.74755 17.5384 9.36406 16.7788 9.36406L 16.7788 11.0165C 18.4499 11.0165 19.8045 9.66018 19.8045 7.98702L 18.1541 7.98702ZM 3.02569 9.36406C 2.26612 9.36406 1.65038 8.74755 1.65038 7.98702L 0 7.98702C 0 9.66018 1.35465 11.0165 3.02569 11.0165L 3.02569 9.36406Z"/>
<path id="path12_fill" d="M 0 0L 0 3.30497C 0.664055 3.02506 1.09588 2.3739 1.09588 1.65249C 1.09588 0.931068 0.664055 0.279912 0 0Z"/>
<path id="path13_fill" d="M 0 1.10165C 0 0.493229 0.4926 0 1.10025 0L 13.7532 0C 14.3608 0 14.8534 0.493229 14.8534 1.10165L 14.8534 4.95746C 14.8534 5.56588 14.3608 6.05911 13.7532 6.05911L 1.10025 6.05911C 0.4926 6.05911 0 5.56588 0 4.95746L 0 1.10165Z"/>
<path id="path14_fill" fill-rule="evenodd" d="M 6.30163 1.88164C 8.13021 1.88164 9.88881 2.58524 11.214 3.84639C 11.3138 3.94402 11.4733 3.94321 11.5716 3.84396L 12.5255 2.87975C 12.5753 2.82972 12.6029 2.76194 12.6025 2.69094C 12.6022 2.62074 12.5736 2.55296 12.5233 2.50294C 9.04505 -0.834313 3.55773 -0.834313 0.0794835 2.50294C 0.0290173 2.55296 0.000510405 2.62074 6.74975e-06 2.69094C -0.000496905 2.76194 0.0272041 2.82972 0.0769652 2.87975L 1.03119 3.84396C 1.1294 3.94321 1.28906 3.94402 1.38878 3.84639C 2.7141 2.58524 4.47297 1.88164 6.30163 1.88164ZM 6.30163 5.01797C 7.30632 5.01797 8.27515 5.39156 9.01989 6.06691C 9.12056 6.16293 9.27924 6.16051 9.37744 6.06207L 10.3303 5.09785C 10.3805 5.04783 10.4083 4.97925 10.4075 4.90743C 10.4069 4.83643 10.3777 4.76865 10.3264 4.71862C 8.05859 2.60702 4.54671 2.60702 2.27884 4.71862C 2.22767 4.76865 2.19846 4.83643 2.19776 4.90743C 2.19705 4.97925 2.22505 5.04783 2.27532 5.09785L 3.22783 6.06207C 3.32605 6.16051 3.4847 6.16293 3.58543 6.06691C 4.32962 5.39237 5.29765 5.01797 6.30163 5.01797ZM 8.21028 7.12796C 8.2118 7.19897 8.1837 7.26755 8.13273 7.31838L 6.48456 8.98374C 6.43621 9.03216 6.37034 9.05959 6.30163 9.05959C 6.23294 9.05959 6.16706 9.03216 6.11871 8.98374L 4.47024 7.31838C 4.41938 7.26755 4.39137 7.19897 4.39288 7.12716C 4.3944 7.05615 4.42522 6.98837 4.47821 6.94076C 5.53084 6.04917 7.07243 6.04917 8.12507 6.94076C 8.17795 6.98837 8.20887 7.05615 8.21028 7.12796Z"/>
<path id="path15_fill" fill-rule="evenodd" d="M 13.203 0L 12.3778 0C 11.9222 0 11.5526 0.36955 11.5526 0.826243L 11.5526 7.98728C 11.5526 8.44321 11.9222 8.81353 12.3778 8.81353L 13.203 8.81353C 13.6587 8.81353 14.0282 8.44321 14.0282 7.98728L 14.0282 0.826243C 14.0282 0.36955 13.6587 0 13.203 0ZM 8.527 1.92763L 9.35219 1.92763C 9.80786 1.92763 10.1774 2.29718 10.1774 2.75388L 10.1774 7.98648C 10.1774 8.44321 9.80786 8.81271 9.35219 8.81271L 8.527 8.81271C 8.07127 8.81271 7.70179 8.44321 7.70179 7.98648L 7.70179 2.75388C 7.70179 2.29718 8.07127 1.92763 8.527 1.92763ZM 5.50123 3.85607L 4.67604 3.85607C 4.22033 3.85607 3.85085 4.22562 3.85085 4.68231L 3.85085 7.98728C 3.85085 8.44395 4.22033 8.81353 4.67604 8.81353L 5.50123 8.81353C 5.95693 8.81353 6.32641 8.44395 6.32641 7.98728L 6.32641 4.68231C 6.32641 4.22562 5.95693 3.85607 5.50123 3.85607ZM 1.65038 5.50855L 0.825188 5.50855C 0.369481 5.50855 0 5.87811 0 6.3348L 0 7.98728C 0 8.44395 0.369481 8.81353 0.825188 8.81353L 1.65038 8.81353C 2.10609 8.81353 2.47557 8.44395 2.47557 7.98728L 2.47557 6.3348C 2.47557 5.87811 2.10609 5.50855 1.65038 5.50855Z"/>
<path id="path16_fill" d="M 3.19117 9.16206C 5.40927 9.16206 6.72685 7.4253 6.72685 4.48423C 6.72685 3.37678 6.51527 2.44484 6.11035 1.7247C 5.52414 0.605157 4.51477 -6.68196e-09 3.23952 -6.68196e-09C 1.34176 -6.68196e-09 -1.69984e-07 1.27688 -1.69984e-07 3.06815C -1.69984e-07 4.75049 1.20882 5.97293 2.87083 5.97293C 3.89225 5.97293 4.72024 5.49484 5.13127 4.66577L 5.14942 4.66577C 5.14942 4.66577 5.17352 4.66577 5.17962 4.66577C 5.19167 4.66577 5.234 4.66577 5.234 4.66577C 5.234 6.66276 4.47854 7.85494 3.2033 7.85494C 2.45378 7.85494 1.87359 7.44347 1.67414 6.7838L 0.12089 6.7838C 0.380742 8.21808 1.59558 9.16206 3.19117 9.16206ZM 3.24555 4.73234C 2.24228 4.73234 1.52907 4.01825 1.52907 3.01974C 1.52907 2.04544 2.27851 1.30109 3.25157 1.30109C 4.22463 1.30109 4.97407 2.05753 4.97407 3.04394C 4.97407 4.01825 4.24279 4.73234 3.24555 4.73234ZM 9.27759 9.07737C 9.85176 9.07737 10.2446 8.6659 10.2446 8.12124C 10.2446 7.57055 9.85176 7.16511 9.27759 7.16511C 8.70945 7.16511 8.31055 7.57055 8.31055 8.12124C 8.31055 8.6659 8.70945 9.07737 9.27759 9.07737ZM 9.27759 4.53868C 9.85176 4.53868 10.2446 4.13323 10.2446 3.58859C 10.2446 3.0379 9.85176 2.63244 9.27759 2.63244C 8.70945 2.63244 8.31055 3.0379 8.31055 3.58859C 8.31055 4.13323 8.70945 4.53868 9.27759 4.53868ZM 15.9019 8.95029L 17.3947 8.95029L 17.3947 7.32243L 18.5733 7.32243L 18.5733 6.00317L 17.3947 6.00317L 17.3947 0.217855L 15.1948 0.217855C 13.6536 2.54166 12.4267 4.48423 11.6409 5.93054L 11.6409 7.32243L 15.9019 7.32243L 15.9019 8.95029ZM 13.0854 5.94872C 14.1008 4.15744 15.0074 2.72321 15.8415 1.48869L 15.9261 1.48869L 15.9261 6.03952L 13.0854 6.03952L 13.0854 5.94872ZM 21.8976 8.95029L 23.457 8.95029L 23.457 0.217855L 21.9037 0.217855L 19.6251 1.81548L 19.6251 3.31627L 21.7949 1.79127L 21.8976 1.79127L 21.8976 8.95029Z"/>
<path id="path17_fill" fill-rule="evenodd" d="M 8.5 5.5L 8.75372 5.5C 9.44202 5.5 10 6.10129 10 6.82104L 10 12.179C 10 12.9085 9.43372 13.5 8.75372 13.5L 1.24628 13.5C 0.557983 13.5 0 12.8987 0 12.179L 0 6.82104C 0 6.09146 0.566284 5.5 1.24628 5.5L 1.5 5.5L 1.5 3.5C 1.5 1.56702 3.07092 0 5 0C 6.93298 0 8.5 1.57092 8.5 3.5L 8.5 5.5ZM 2.66669 5.5L 2.66669 3.5069C 2.66669 2.21442 3.70233 1.16666 5 1.16666C 6.28864 1.16666 7.33331 2.20099 7.33331 3.5069L 7.33331 5.5L 2.66669 5.5Z"/>
<path id="path18_fill" d="M 2.91211 9.5293L 4.48242 4.66016L 5.58984 4.66016L 3.31641 11L 2.49023 11L 0.193359 4.66016L 1.30078 4.66016L 2.91211 9.5293ZM 11.9883 7.90039C 11.9883 8.86523 11.7676 9.64258 11.3262 10.2324C 10.8848 10.8223 10.2871 11.1172 9.5332 11.1172C 8.76367 11.1172 8.1582 10.873 7.7168 10.3848L 7.7168 13.4375L 6.63281 13.4375L 6.63281 4.66016L 7.62305 4.66016L 7.67578 5.36328C 8.11719 4.81641 8.73047 4.54297 9.51562 4.54297C 10.2773 4.54297 10.8789 4.83008 11.3203 5.4043C 11.7656 5.97852 11.9883 6.77734 11.9883 7.80078L 11.9883 7.90039ZM 10.9043 7.77734C 10.9043 7.0625 10.752 6.49805 10.4473 6.08398C 10.1426 5.66992 9.72461 5.46289 9.19336 5.46289C 8.53711 5.46289 8.04492 5.75391 7.7168 6.33594L 7.7168 9.36523C 8.04102 9.94336 8.53711 10.2324 9.20508 10.2324C 9.72461 10.2324 10.1367 10.0273 10.4414 9.61719C 10.75 9.20312 10.9043 8.58984 10.9043 7.77734ZM 17.2852 10.373C 16.8633 10.8691 16.2441 11.1172 15.4277 11.1172C 14.752 11.1172 14.2363 10.9219 13.8809 10.5312C 13.5293 10.1367 13.3516 9.55469 13.3477 8.78516L 13.3477 4.66016L 14.4316 4.66016L 14.4316 8.75586C 14.4316 9.7168 14.8223 10.1973 15.6035 10.1973C 16.4316 10.1973 16.9824 9.88867 17.2559 9.27148L 17.2559 4.66016L 18.3398 4.66016L 18.3398 11L 17.3086 11L 17.2852 10.373ZM 21.4629 3.125L 21.4629 4.66016L 22.6465 4.66016L 22.6465 5.49805L 21.4629 5.49805L 21.4629 9.42969C 21.4629 9.68359 21.5156 9.875 21.6211 10.0039C 21.7266 10.1289 21.9062 10.1914 22.1602 10.1914C 22.2852 10.1914 22.457 10.168 22.6758 10.1211L 22.6758 11C 22.3906 11.0781 22.1133 11.1172 21.8438 11.1172C 21.3594 11.1172 20.9941 10.9707 20.748 10.6777C 20.502 10.3848 20.3789 9.96875 20.3789 9.42969L 20.3789 5.49805L 19.2246 5.49805L 19.2246 4.66016L 20.3789 4.66016L 20.3789 3.125L 21.4629 3.125ZM 23.9414 10.4316C 23.9414 10.2441 23.9961 10.0879 24.1055 9.96289C 24.2188 9.83789 24.3867 9.77539 24.6094 9.77539C 24.832 9.77539 25 9.83789 25.1133 9.96289C 25.2305 10.0879 25.2891 10.2441 25.2891 10.4316C 25.2891 10.6113 25.2305 10.7617 25.1133 10.8828C 25 11.0039 24.832 11.0645 24.6094 11.0645C 24.3867 11.0645 24.2188 11.0039 24.1055 10.8828C 23.9961 10.7617 23.9414 10.6113 23.9414 10.4316ZM 29.7129 11.1172C 28.8535 11.1172 28.1543 10.8359 27.6152 10.2734C 27.0762 9.70703 26.8066 8.95117 26.8066 8.00586L 26.8066 7.80664C 26.8066 7.17773 26.9258 6.61719 27.1641 6.125C 27.4062 5.62891 27.7422 5.24219 28.1719 4.96484C 28.6055 4.68359 29.0742 4.54297 29.5781 4.54297C 30.4023 4.54297 31.043 4.81445 31.5 5.35742C 31.957 5.90039 32.1855 6.67773 32.1855 7.68945L 32.1855 8.14062L 27.8906 8.14062C 27.9062 8.76562 28.0879 9.27148 28.4355 9.6582C 28.7871 10.041 29.2324 10.2324 29.7715 10.2324C 30.1543 10.2324 30.4785 10.1543 30.7441 9.99805C 31.0098 9.8418 31.2422 9.63477 31.4414 9.37695L 32.1035 9.89258C 31.5723 10.709 30.7754 11.1172 29.7129 11.1172ZM 29.5781 5.43359C 29.1406 5.43359 28.7734 5.59375 28.4766 5.91406C 28.1797 6.23047 27.9961 6.67578 27.9258 7.25L 31.1016 7.25L 31.1016 7.16797C 31.0703 6.61719 30.9219 6.19141 30.6562 5.89062C 30.3906 5.58594 30.0312 5.43359 29.5781 5.43359ZM 37.3594 10.373C 36.9375 10.8691 36.3184 11.1172 35.502 11.1172C 34.8262 11.1172 34.3105 10.9219 33.9551 10.5312C 33.6035 10.1367 33.4258 9.55469 33.4219 8.78516L 33.4219 4.66016L 34.5059 4.66016L 34.5059 8.75586C 34.5059 9.7168 34.8965 10.1973 35.6777 10.1973C 36.5059 10.1973 37.0566 9.88867 37.3301 9.27148L 37.3301 4.66016L 38.4141 4.66016L 38.4141 11L 37.3828 11L 37.3594 10.373Z"/>
</defs>
</svg>
