<svg width="226" height="105" viewBox="0 0 226 105" version="1.1" xmlns="http://www.w3.org/2000/svg" xmlns:xlink="http://www.w3.org/1999/xlink">
<title>message-2</title>
<desc>Created using Figma</desc>
<g id="Canvas" transform="translate(-7868 -1507)">
<g id="message-2">
<g id="Bubble #7">
<g id="Delivered">
<g id="Delivered">
<use xlink:href="#path0_fill" transform="translate(8043.06 1601)" fill="#858E99"/>
</g>
</g>
<g id="Bubble">
<use xlink:href="#path1_fill" transform="translate(7868 1507)" fill="#E5E6EA"/>
</g>
<g id="I&#39;m-a-good-programme">
<g id="VPUT.EU The client p">
<use xlink:href="#path2_fill" transform="translate(7885 1516)" fill="#434343"/>
</g>
</g>
</g>
</g>
</g>
<defs>
<path id="path0_fill" d="M 0.907715 10L 0.907715 2.17969L 3.11523 2.17969C 3.79557 2.17969 4.39714 2.33008 4.91992 2.63086C 5.44271 2.93164 5.84554 3.35954 6.12842 3.91455C 6.41488 4.46956 6.5599 5.10693 6.56348 5.82666L 6.56348 6.32617C 6.56348 7.0638 6.42025 7.71012 6.13379 8.26514C 5.85091 8.82015 5.4445 9.24626 4.91455 9.54346C 4.38818 9.84066 3.77409 9.99284 3.07227 10L 0.907715 10ZM 1.93896 3.02832L 1.93896 9.15674L 3.02393 9.15674C 3.81885 9.15674 4.43652 8.90967 4.87695 8.41553C 5.32096 7.92139 5.54297 7.21777 5.54297 6.30469L 5.54297 5.84814C 5.54297 4.96012 5.3335 4.27083 4.91455 3.78027C 4.49919 3.28613 3.90837 3.03548 3.14209 3.02832L 1.93896 3.02832ZM 10.3823 10.1074C 9.59456 10.1074 8.95361 9.84961 8.45947 9.33398C 7.96533 8.81478 7.71826 8.12191 7.71826 7.25537L 7.71826 7.07275C 7.71826 6.49626 7.82747 5.98242 8.0459 5.53125C 8.2679 5.0765 8.57585 4.72201 8.96973 4.46777C 9.36719 4.20996 9.79688 4.08105 10.2588 4.08105C 11.0143 4.08105 11.6016 4.32992 12.0205 4.82764C 12.4395 5.32536 12.6489 6.03792 12.6489 6.96533L 12.6489 7.37891L 8.71191 7.37891C 8.72624 7.95182 8.89274 8.41553 9.21143 8.77002C 9.53369 9.12093 9.94189 9.29639 10.436 9.29639C 10.7869 9.29639 11.0841 9.22477 11.3276 9.08154C 11.5711 8.93831 11.7842 8.74854 11.9668 8.51221L 12.5737 8.98486C 12.0868 9.73324 11.3563 10.1074 10.3823 10.1074ZM 10.2588 4.89746C 9.85775 4.89746 9.52116 5.04427 9.24902 5.33789C 8.97689 5.62793 8.80859 6.03613 8.74414 6.5625L 11.6553 6.5625L 11.6553 6.4873C 11.6266 5.98242 11.4906 5.59212 11.2471 5.31641C 11.0036 5.03711 10.6742 4.89746 10.2588 4.89746ZM 14.8833 10L 13.8896 10L 13.8896 1.75L 14.8833 1.75L 14.8833 10ZM 17.5581 10L 16.5645 10L 16.5645 4.18848L 17.5581 4.18848L 17.5581 10ZM 16.4839 2.64697C 16.4839 2.48584 16.5322 2.34977 16.6289 2.23877C 16.7292 2.12777 16.876 2.07227 17.0693 2.07227C 17.2627 2.07227 17.4095 2.12777 17.5098 2.23877C 17.61 2.34977 17.6602 2.48584 17.6602 2.64697C 17.6602 2.80811 17.61 2.94238 17.5098 3.0498C 17.4095 3.15723 17.2627 3.21094 17.0693 3.21094C 16.876 3.21094 16.7292 3.15723 16.6289 3.0498C 16.5322 2.94238 16.4839 2.80811 16.4839 2.64697ZM 21.0708 8.65186L 22.5103 4.18848L 23.5254 4.18848L 21.4414 10L 20.6841 10L 18.5786 4.18848L 19.5938 4.18848L 21.0708 8.65186ZM 26.8179 10.1074C 26.0301 10.1074 25.3892 9.84961 24.895 9.33398C 24.4009 8.81478 24.1538 8.12191 24.1538 7.25537L 24.1538 7.07275C 24.1538 6.49626 24.263 5.98242 24.4814 5.53125C 24.7035 5.0765 25.0114 4.72201 25.4053 4.46777C 25.8027 4.20996 26.2324 4.08105 26.6943 4.08105C 27.4499 4.08105 28.0371 4.32992 28.4561 4.82764C 28.875 5.32536 29.0845 6.03792 29.0845 6.96533L 29.0845 7.37891L 25.1475 7.37891C 25.1618 7.95182 25.3283 8.41553 25.647 8.77002C 25.9692 9.12093 26.3774 9.29639 26.8716 9.29639C 27.2225 9.29639 27.5197 9.22477 27.7632 9.08154C 28.0067 8.93831 28.2197 8.74854 28.4023 8.51221L 29.0093 8.98486C 28.5223 9.73324 27.7918 10.1074 26.8179 10.1074ZM 26.6943 4.89746C 26.2933 4.89746 25.9567 5.04427 25.6846 5.33789C 25.4124 5.62793 25.2441 6.03613 25.1797 6.5625L 28.0908 6.5625L 28.0908 6.4873C 28.0622 5.98242 27.9261 5.59212 27.6826 5.31641C 27.4391 5.03711 27.1097 4.89746 26.6943 4.89746ZM 33.0483 5.08008C 32.8979 5.05501 32.735 5.04248 32.5596 5.04248C 31.9079 5.04248 31.4657 5.31999 31.2329 5.875L 31.2329 10L 30.2393 10L 30.2393 4.18848L 31.2061 4.18848L 31.2222 4.85986C 31.548 4.34066 32.0099 4.08105 32.6079 4.08105C 32.8013 4.08105 32.9481 4.10612 33.0483 4.15625L 33.0483 5.08008ZM 36.271 10.1074C 35.4832 10.1074 34.8423 9.84961 34.3481 9.33398C 33.854 8.81478 33.6069 8.12191 33.6069 7.25537L 33.6069 7.07275C 33.6069 6.49626 33.7161 5.98242 33.9346 5.53125C 34.1566 5.0765 34.4645 4.72201 34.8584 4.46777C 35.2559 4.20996 35.6855 4.08105 36.1475 4.08105C 36.903 4.08105 37.4902 4.32992 37.9092 4.82764C 38.3281 5.32536 38.5376 6.03792 38.5376 6.96533L 38.5376 7.37891L 34.6006 7.37891C 34.6149 7.95182 34.7814 8.41553 35.1001 8.77002C 35.4224 9.12093 35.8306 9.29639 36.3247 9.29639C 36.6756 9.29639 36.9728 9.22477 37.2163 9.08154C 37.4598 8.93831 37.6729 8.74854 37.8555 8.51221L 38.4624 8.98486C 37.9754 9.73324 37.245 10.1074 36.271 10.1074ZM 36.1475 4.89746C 35.7464 4.89746 35.4098 5.04427 35.1377 5.33789C 34.8656 5.62793 34.6973 6.03613 34.6328 6.5625L 37.5439 6.5625L 37.5439 6.4873C 37.5153 5.98242 37.3792 5.59212 37.1357 5.31641C 36.8923 5.03711 36.5628 4.89746 36.1475 4.89746ZM 39.4507 7.0459C 39.4507 6.1543 39.6619 5.43815 40.0845 4.89746C 40.507 4.35319 41.0602 4.08105 41.7441 4.08105C 42.4245 4.08105 42.9634 4.3138 43.3608 4.7793L 43.3608 1.75L 44.3545 1.75L 44.3545 10L 43.4414 10L 43.3931 9.37695C 42.9956 9.86393 42.4424 10.1074 41.7334 10.1074C 41.0602 10.1074 40.5106 9.83171 40.0845 9.28027C 39.6619 8.72884 39.4507 8.00911 39.4507 7.12109L 39.4507 7.0459ZM 40.4443 7.15869C 40.4443 7.81755 40.5804 8.33317 40.8525 8.70557C 41.1247 9.07796 41.5007 9.26416 41.9805 9.26416C 42.6107 9.26416 43.0708 8.98128 43.3608 8.41553L 43.3608 5.74609C 43.0636 5.19824 42.6071 4.92432 41.9912 4.92432C 41.5042 4.92432 41.1247 5.1123 40.8525 5.48828C 40.5804 5.86426 40.4443 6.42106 40.4443 7.15869Z"/>
<path id="path1_fill" d="M 10.9407 84.2137C 13.9276 86.5842 17.7073 88 21.8181 88C 21.8181 88 120.475 88 191.804 88C 197.14 88 207.813 88 207.813 88C 217.474 88 225.315 80.1689 225.315 70.5088L 225.315 17.4912C 225.315 7.82874 217.479 0 207.813 0L 21.8181 0C 12.1565 0 4.31538 7.83107 4.31538 17.4912L 4.31538 70.5088C 4.31538 70.7849 4.32178 71.0594 4.33443 71.3324C 4.37705 72.8285 4.51667 79.0009 4.02782 82.1319C 3.46902 85.7109 0.144228 87.7399 0.144228 87.7399C -0.0787273 87.8927 -0.0392046 88.014 0.235177 88.0042C 0.235177 88.0042 5.73264 88.0868 10.549 84.5494C 10.6936 84.4432 10.8239 84.3311 10.9407 84.2137Z"/>
<path id="path2_fill" d="M 4.4502 11.2568L 7.29395 3.04688L 8.72949 3.04688L 5.03809 13L 3.87598 13L 0.191406 3.04688L 1.62012 3.04688L 4.4502 11.2568ZM 11.3818 9.10352L 11.3818 13L 10.0693 13L 10.0693 3.04688L 13.7402 3.04688C 14.8294 3.04688 15.6816 3.32487 16.2969 3.88086C 16.9167 4.43685 17.2266 5.17285 17.2266 6.08887C 17.2266 7.05501 16.9235 7.80013 16.3174 8.32422C 15.7158 8.84375 14.8522 9.10352 13.7266 9.10352L 11.3818 9.10352ZM 11.3818 8.03027L 13.7402 8.03027C 14.4421 8.03027 14.9798 7.86621 15.3535 7.53809C 15.7272 7.2054 15.9141 6.72689 15.9141 6.10254C 15.9141 5.51009 15.7272 5.03613 15.3535 4.68066C 14.9798 4.3252 14.4671 4.14062 13.8154 4.12695L 11.3818 4.12695L 11.3818 8.03027ZM 25.9082 3.04688L 25.9082 9.81445C 25.9036 10.7533 25.6074 11.5212 25.0195 12.1182C 24.4362 12.7152 23.6432 13.0501 22.6406 13.123L 22.292 13.1367C 21.2028 13.1367 20.3346 12.8428 19.6875 12.2549C 19.0404 11.667 18.7122 10.8581 18.7031 9.82812L 18.7031 3.04688L 20.002 3.04688L 20.002 9.78711C 20.002 10.5072 20.2002 11.0677 20.5967 11.4688C 20.9932 11.8652 21.5583 12.0635 22.292 12.0635C 23.0348 12.0635 23.6022 11.8652 23.9941 11.4688C 24.3906 11.0723 24.5889 10.514 24.5889 9.79395L 24.5889 3.04688L 25.9082 3.04688ZM 34.8564 4.12695L 31.6572 4.12695L 31.6572 13L 30.3516 13L 30.3516 4.12695L 27.1592 4.12695L 27.1592 3.04688L 34.8564 3.04688L 34.8564 4.12695ZM 34.6719 12.3369C 34.6719 12.1182 34.7357 11.9359 34.8633 11.79C 34.9954 11.6442 35.1914 11.5713 35.4512 11.5713C 35.7109 11.5713 35.9069 11.6442 36.0391 11.79C 36.1758 11.9359 36.2441 12.1182 36.2441 12.3369C 36.2441 12.5465 36.1758 12.722 36.0391 12.8633C 35.9069 13.0046 35.7109 13.0752 35.4512 13.0752C 35.1914 13.0752 34.9954 13.0046 34.8633 12.8633C 34.7357 12.722 34.6719 12.5465 34.6719 12.3369ZM 44.1602 8.39941L 39.8467 8.39941L 39.8467 11.9268L 44.8574 11.9268L 44.8574 13L 38.5342 13L 38.5342 3.04688L 44.7891 3.04688L 44.7891 4.12695L 39.8467 4.12695L 39.8467 7.32617L 44.1602 7.32617L 44.1602 8.39941ZM 53.498 3.04688L 53.498 9.81445C 53.4935 10.7533 53.1973 11.5212 52.6094 12.1182C 52.026 12.7152 51.2331 13.0501 50.2305 13.123L 49.8818 13.1367C 48.7926 13.1367 47.9245 12.8428 47.2773 12.2549C 46.6302 11.667 46.3021 10.8581 46.293 9.82812L 46.293 3.04688L 47.5918 3.04688L 47.5918 9.78711C 47.5918 10.5072 47.79 11.0677 48.1865 11.4688C 48.583 11.8652 49.1481 12.0635 49.8818 12.0635C 50.6247 12.0635 51.1921 11.8652 51.584 11.4688C 51.9805 11.0723 52.1787 10.514 52.1787 9.79395L 52.1787 3.04688L 53.498 3.04688ZM 8.03223 20.127L 4.83301 20.127L 4.83301 29L 3.52734 29L 3.52734 20.127L 0.334961 20.127L 0.334961 19.0469L 8.03223 19.0469L 8.03223 20.127ZM 10.5752 22.499C 11.1357 21.8109 11.8649 21.4668 12.7627 21.4668C 14.3258 21.4668 15.1143 22.3486 15.1279 24.1123L 15.1279 29L 13.8633 29L 13.8633 24.1055C 13.8587 23.5723 13.7357 23.1781 13.4941 22.9229C 13.2572 22.6676 12.8857 22.54 12.3799 22.54C 11.9697 22.54 11.6097 22.6494 11.2998 22.8682C 10.9899 23.0869 10.7484 23.374 10.5752 23.7295L 10.5752 29L 9.31055 29L 9.31055 18.5L 10.5752 18.5L 10.5752 22.499ZM 20.0908 29.1367C 19.0882 29.1367 18.2725 28.8086 17.6436 28.1523C 17.0146 27.4915 16.7002 26.6097 16.7002 25.5068L 16.7002 25.2744C 16.7002 24.5407 16.8392 23.8867 17.1172 23.3125C 17.3997 22.7337 17.7917 22.2826 18.293 21.959C 18.7988 21.6309 19.3457 21.4668 19.9336 21.4668C 20.8952 21.4668 21.6426 21.7835 22.1758 22.417C 22.709 23.0505 22.9756 23.9574 22.9756 25.1377L 22.9756 25.6641L 17.9648 25.6641C 17.9831 26.3932 18.195 26.9834 18.6006 27.4346C 19.0107 27.8812 19.5303 28.1045 20.1592 28.1045C 20.6058 28.1045 20.984 28.0133 21.2939 27.8311C 21.6038 27.6488 21.875 27.4072 22.1074 27.1064L 22.8799 27.708C 22.2601 28.6605 21.3304 29.1367 20.0908 29.1367ZM 19.9336 22.5059C 19.4232 22.5059 18.9948 22.6927 18.6484 23.0664C 18.3021 23.4355 18.0879 23.9551 18.0059 24.625L 21.7109 24.625L 21.7109 24.5293C 21.6745 23.8867 21.5013 23.39 21.1914 23.0391C 20.8815 22.6836 20.4622 22.5059 19.9336 22.5059ZM 30.8848 28.1045C 31.3359 28.1045 31.7301 27.9678 32.0674 27.6943C 32.4046 27.4209 32.5915 27.0791 32.6279 26.6689L 33.8242 26.6689C 33.8014 27.0928 33.6556 27.4961 33.3867 27.8789C 33.1178 28.2617 32.7578 28.5671 32.3066 28.7949C 31.86 29.0228 31.3861 29.1367 30.8848 29.1367C 29.8776 29.1367 29.0755 28.8018 28.4785 28.1318C 27.8861 27.4574 27.5898 26.5368 27.5898 25.3701L 27.5898 25.1582C 27.5898 24.4382 27.722 23.7979 27.9863 23.2373C 28.2507 22.6768 28.6289 22.2415 29.1211 21.9316C 29.6178 21.6217 30.2035 21.4668 30.8779 21.4668C 31.7074 21.4668 32.3955 21.7152 32.9424 22.2119C 33.4938 22.7087 33.7878 23.3535 33.8242 24.1465L 32.6279 24.1465C 32.5915 23.668 32.4092 23.276 32.0811 22.9707C 31.7575 22.6608 31.3564 22.5059 30.8779 22.5059C 30.2354 22.5059 29.7363 22.7383 29.3809 23.2031C 29.0299 23.6634 28.8545 24.3311 28.8545 25.2061L 28.8545 25.4453C 28.8545 26.2975 29.0299 26.9538 29.3809 27.4141C 29.7318 27.8743 30.2331 28.1045 30.8848 28.1045ZM 36.6201 29L 35.3555 29L 35.3555 18.5L 36.6201 18.5L 36.6201 29ZM 40.0244 29L 38.7598 29L 38.7598 21.6035L 40.0244 21.6035L 40.0244 29ZM 38.6572 19.6416C 38.6572 19.4365 38.7188 19.2633 38.8418 19.1221C 38.9694 18.9808 39.1562 18.9102 39.4023 18.9102C 39.6484 18.9102 39.8353 18.9808 39.9629 19.1221C 40.0905 19.2633 40.1543 19.4365 40.1543 19.6416C 40.1543 19.8467 40.0905 20.0176 39.9629 20.1543C 39.8353 20.291 39.6484 20.3594 39.4023 20.3594C 39.1562 20.3594 38.9694 20.291 38.8418 20.1543C 38.7188 20.0176 38.6572 19.8467 38.6572 19.6416ZM 45.124 29.1367C 44.1214 29.1367 43.3057 28.8086 42.6768 28.1523C 42.0479 27.4915 41.7334 26.6097 41.7334 25.5068L 41.7334 25.2744C 41.7334 24.5407 41.8724 23.8867 42.1504 23.3125C 42.4329 22.7337 42.8249 22.2826 43.3262 21.959C 43.832 21.6309 44.3789 21.4668 44.9668 21.4668C 45.9284 21.4668 46.6758 21.7835 47.209 22.417C 47.7422 23.0505 48.0088 23.9574 48.0088 25.1377L 48.0088 25.6641L 42.998 25.6641C 43.0163 26.3932 43.2282 26.9834 43.6338 27.4346C 44.0439 27.8812 44.5635 28.1045 45.1924 28.1045C 45.639 28.1045 46.0173 28.0133 46.3271 27.8311C 46.637 27.6488 46.9082 27.4072 47.1406 27.1064L 47.9131 27.708C 47.2933 28.6605 46.3636 29.1367 45.124 29.1367ZM 44.9668 22.5059C 44.4564 22.5059 44.028 22.6927 43.6816 23.0664C 43.3353 23.4355 43.1211 23.9551 43.0391 24.625L 46.7441 24.625L 46.7441 24.5293C 46.7077 23.8867 46.5345 23.39 46.2246 23.0391C 45.9147 22.6836 45.4954 22.5059 44.9668 22.5059ZM 50.6748 21.6035L 50.7158 22.5332C 51.2809 21.8223 52.0192 21.4668 52.9307 21.4668C 54.4938 21.4668 55.2822 22.3486 55.2959 24.1123L 55.2959 29L 54.0312 29L 54.0312 24.1055C 54.0267 23.5723 53.9036 23.1781 53.6621 22.9229C 53.4251 22.6676 53.0537 22.54 52.5479 22.54C 52.1377 22.54 51.7777 22.6494 51.4678 22.8682C 51.1579 23.0869 50.9163 23.374 50.7432 23.7295L 50.7432 29L 49.4785 29L 49.4785 21.6035L 50.6748 21.6035ZM 58.9189 19.8125L 58.9189 21.6035L 60.2998 21.6035L 60.2998 22.5811L 58.9189 22.5811L 58.9189 27.168C 58.9189 27.4642 58.9805 27.6875 59.1035 27.8379C 59.2266 27.9837 59.4362 28.0566 59.7324 28.0566C 59.8783 28.0566 60.0788 28.0293 60.334 27.9746L 60.334 29C 60.0013 29.0911 59.6777 29.1367 59.3633 29.1367C 58.7982 29.1367 58.3721 28.9658 58.085 28.624C 57.7979 28.2822 57.6543 27.7969 57.6543 27.168L 57.6543 22.5811L 56.3076 22.5811L 56.3076 21.6035L 57.6543 21.6035L 57.6543 19.8125L 58.9189 19.8125ZM 71.5039 25.3838C 71.5039 26.5094 71.2464 27.4163 70.7314 28.1045C 70.2165 28.7926 69.5192 29.1367 68.6396 29.1367C 67.7419 29.1367 67.0355 28.8519 66.5205 28.2822L 66.5205 31.8438L 65.2559 31.8438L 65.2559 21.6035L 66.4111 21.6035L 66.4727 22.4238C 66.9876 21.7858 67.7031 21.4668 68.6191 21.4668C 69.5078 21.4668 70.2096 21.8018 70.7246 22.4717C 71.2441 23.1416 71.5039 24.0736 71.5039 25.2676L 71.5039 25.3838ZM 70.2393 25.2402C 70.2393 24.4062 70.0615 23.7477 69.7061 23.2646C 69.3506 22.7816 68.863 22.54 68.2432 22.54C 67.4775 22.54 66.9033 22.8796 66.5205 23.5586L 66.5205 27.0928C 66.8988 27.7673 67.4775 28.1045 68.2568 28.1045C 68.863 28.1045 69.3438 27.8652 69.6992 27.3867C 70.0592 26.9036 70.2393 26.1882 70.2393 25.2402ZM 77.6836 29C 77.6107 28.8542 77.5514 28.5944 77.5059 28.2207C 76.918 28.8314 76.2161 29.1367 75.4004 29.1367C 74.6712 29.1367 74.0719 28.9316 73.6025 28.5215C 73.1377 28.1068 72.9053 27.5827 72.9053 26.9492C 72.9053 26.179 73.1969 25.582 73.7803 25.1582C 74.3682 24.7298 75.193 24.5156 76.2549 24.5156L 77.4854 24.5156L 77.4854 23.9346C 77.4854 23.4925 77.3532 23.1416 77.0889 22.8818C 76.8245 22.6175 76.4349 22.4854 75.9199 22.4854C 75.4688 22.4854 75.0905 22.5993 74.7852 22.8271C 74.4798 23.055 74.3271 23.3307 74.3271 23.6543L 73.0557 23.6543C 73.0557 23.2852 73.1855 22.9297 73.4453 22.5879C 73.7096 22.2415 74.0651 21.9681 74.5117 21.7676C 74.9629 21.5671 75.4574 21.4668 75.9951 21.4668C 76.8473 21.4668 77.515 21.681 77.998 22.1094C 78.4811 22.5332 78.7318 23.1188 78.75 23.8662L 78.75 27.2705C 78.75 27.9495 78.8366 28.4896 79.0098 28.8906L 79.0098 29L 77.6836 29ZM 75.585 28.0361C 75.9814 28.0361 76.3574 27.9336 76.7129 27.7285C 77.0684 27.5234 77.3258 27.2568 77.4854 26.9287L 77.4854 25.4111L 76.4941 25.4111C 74.9447 25.4111 74.1699 25.8646 74.1699 26.7715C 74.1699 27.168 74.3021 27.4779 74.5664 27.7012C 74.8307 27.9245 75.1702 28.0361 75.585 28.0361ZM 82.1064 29L 80.8418 29L 80.8418 21.6035L 82.1064 21.6035L 82.1064 29ZM 80.7393 19.6416C 80.7393 19.4365 80.8008 19.2633 80.9238 19.1221C 81.0514 18.9808 81.2383 18.9102 81.4844 18.9102C 81.7305 18.9102 81.9173 18.9808 82.0449 19.1221C 82.1725 19.2633 82.2363 19.4365 82.2363 19.6416C 82.2363 19.8467 82.1725 20.0176 82.0449 20.1543C 81.9173 20.291 81.7305 20.3594 81.4844 20.3594C 81.2383 20.3594 81.0514 20.291 80.9238 20.1543C 80.8008 20.0176 80.7393 19.8467 80.7393 19.6416ZM 83.8291 25.2402C 83.8291 24.1055 84.098 23.194 84.6357 22.5059C 85.1735 21.8132 85.8776 21.4668 86.748 21.4668C 87.6139 21.4668 88.2998 21.763 88.8057 22.3555L 88.8057 18.5L 90.0703 18.5L 90.0703 29L 88.9082 29L 88.8467 28.207C 88.3408 28.8268 87.6367 29.1367 86.7344 29.1367C 85.8776 29.1367 85.1781 28.7858 84.6357 28.084C 84.098 27.3822 83.8291 26.4661 83.8291 25.3359L 83.8291 25.2402ZM 85.0938 25.3838C 85.0938 26.2223 85.2669 26.8786 85.6133 27.3525C 85.9596 27.8265 86.4382 28.0635 87.0488 28.0635C 87.8509 28.0635 88.4365 27.7035 88.8057 26.9834L 88.8057 23.5859C 88.4274 22.8887 87.8464 22.54 87.0625 22.54C 86.4427 22.54 85.9596 22.7793 85.6133 23.2578C 85.2669 23.7363 85.0938 24.445 85.0938 25.3838ZM 96.8857 29L 95.6211 29L 95.6211 21.6035L 96.8857 21.6035L 96.8857 29ZM 95.5186 19.6416C 95.5186 19.4365 95.5801 19.2633 95.7031 19.1221C 95.8307 18.9808 96.0176 18.9102 96.2637 18.9102C 96.5098 18.9102 96.6966 18.9808 96.8242 19.1221C 96.9518 19.2633 97.0156 19.4365 97.0156 19.6416C 97.0156 19.8467 96.9518 20.0176 96.8242 20.1543C 96.6966 20.291 96.5098 20.3594 96.2637 20.3594C 96.0176 20.3594 95.8307 20.291 95.7031 20.1543C 95.5801 20.0176 95.5186 19.8467 95.5186 19.6416ZM 100.112 21.6035L 100.153 22.5332C 100.718 21.8223 101.457 21.4668 102.368 21.4668C 103.931 21.4668 104.72 22.3486 104.733 24.1123L 104.733 29L 103.469 29L 103.469 24.1055C 103.464 23.5723 103.341 23.1781 103.1 22.9229C 102.863 22.6676 102.491 22.54 101.985 22.54C 101.575 22.54 101.215 22.6494 100.905 22.8682C 100.595 23.0869 100.354 23.374 100.181 23.7295L 100.181 29L 98.916 29L 98.916 21.6035L 100.112 21.6035ZM 109.081 27.2842L 110.913 21.6035L 112.205 21.6035L 109.553 29L 108.589 29L 105.909 21.6035L 107.201 21.6035L 109.081 27.2842ZM 112.978 25.2334C 112.978 24.5088 113.119 23.8571 113.401 23.2783C 113.688 22.6995 114.085 22.2529 114.591 21.9385C 115.101 21.624 115.682 21.4668 116.334 21.4668C 117.341 21.4668 118.155 21.8154 118.774 22.5127C 119.399 23.21 119.711 24.1374 119.711 25.2949L 119.711 25.3838C 119.711 26.1038 119.572 26.751 119.294 27.3252C 119.021 27.8949 118.626 28.3392 118.111 28.6582C 117.601 28.9772 117.013 29.1367 116.348 29.1367C 115.345 29.1367 114.532 28.7881 113.907 28.0908C 113.287 27.3936 112.978 26.4707 112.978 25.3223L 112.978 25.2334ZM 114.249 25.3838C 114.249 26.2041 114.438 26.8626 114.816 27.3594C 115.199 27.8561 115.71 28.1045 116.348 28.1045C 116.99 28.1045 117.501 27.8538 117.879 27.3525C 118.257 26.8467 118.446 26.1403 118.446 25.2334C 118.446 24.4222 118.253 23.766 117.865 23.2646C 117.482 22.7588 116.972 22.5059 116.334 22.5059C 115.71 22.5059 115.206 22.7542 114.823 23.251C 114.44 23.7477 114.249 24.4587 114.249 25.3838ZM 122.671 29L 121.406 29L 121.406 21.6035L 122.671 21.6035L 122.671 29ZM 121.304 19.6416C 121.304 19.4365 121.365 19.2633 121.488 19.1221C 121.616 18.9808 121.803 18.9102 122.049 18.9102C 122.295 18.9102 122.482 18.9808 122.609 19.1221C 122.737 19.2633 122.801 19.4365 122.801 19.6416C 122.801 19.8467 122.737 20.0176 122.609 20.1543C 122.482 20.291 122.295 20.3594 122.049 20.3594C 121.803 20.3594 121.616 20.291 121.488 20.1543C 121.365 20.0176 121.304 19.8467 121.304 19.6416ZM 127.668 28.1045C 128.119 28.1045 128.513 27.9678 128.851 27.6943C 129.188 27.4209 129.375 27.0791 129.411 26.6689L 130.607 26.6689C 130.585 27.0928 130.439 27.4961 130.17 27.8789C 129.901 28.2617 129.541 28.5671 129.09 28.7949C 128.643 29.0228 128.169 29.1367 127.668 29.1367C 126.661 29.1367 125.859 28.8018 125.262 28.1318C 124.669 27.4574 124.373 26.5368 124.373 25.3701L 124.373 25.1582C 124.373 24.4382 124.505 23.7979 124.77 23.2373C 125.034 22.6768 125.412 22.2415 125.904 21.9316C 126.401 21.6217 126.987 21.4668 127.661 21.4668C 128.491 21.4668 129.179 21.7152 129.726 22.2119C 130.277 22.7087 130.571 23.3535 130.607 24.1465L 129.411 24.1465C 129.375 23.668 129.192 23.276 128.864 22.9707C 128.541 22.6608 128.14 22.5059 127.661 22.5059C 127.019 22.5059 126.52 22.7383 126.164 23.2031C 125.813 23.6634 125.638 24.3311 125.638 25.2061L 125.638 25.4453C 125.638 26.2975 125.813 26.9538 126.164 27.4141C 126.515 27.8743 127.016 28.1045 127.668 28.1045ZM 135.099 29.1367C 134.096 29.1367 133.28 28.8086 132.651 28.1523C 132.022 27.4915 131.708 26.6097 131.708 25.5068L 131.708 25.2744C 131.708 24.5407 131.847 23.8867 132.125 23.3125C 132.408 22.7337 132.799 22.2826 133.301 21.959C 133.807 21.6309 134.354 21.4668 134.941 21.4668C 135.903 21.4668 136.65 21.7835 137.184 22.417C 137.717 23.0505 137.983 23.9574 137.983 25.1377L 137.983 25.6641L 132.973 25.6641C 132.991 26.3932 133.203 26.9834 133.608 27.4346C 134.019 27.8812 134.538 28.1045 135.167 28.1045C 135.614 28.1045 135.992 28.0133 136.302 27.8311C 136.612 27.6488 136.883 27.4072 137.115 27.1064L 137.888 27.708C 137.268 28.6605 136.338 29.1367 135.099 29.1367ZM 134.941 22.5059C 134.431 22.5059 134.003 22.6927 133.656 23.0664C 133.31 23.4355 133.096 23.9551 133.014 24.625L 136.719 24.625L 136.719 24.5293C 136.682 23.8867 136.509 23.39 136.199 23.0391C 135.889 22.6836 135.47 22.5059 134.941 22.5059ZM 147.198 26.1973L 145.394 26.1973L 144.847 29L 143.869 29L 144.416 26.1973L 142.782 26.1973L 142.782 25.2607L 144.594 25.2607L 145.065 22.8408L 143.302 22.8408L 143.302 21.8906L 145.25 21.8906L 145.811 19.0469L 146.788 19.0469L 146.228 21.8906L 148.032 21.8906L 148.593 19.0469L 149.577 19.0469L 149.017 21.8906L 150.411 21.8906L 150.411 22.8408L 148.832 22.8408L 148.36 25.2607L 149.898 25.2607L 149.898 26.1973L 148.183 26.1973L 147.636 29L 146.651 29L 147.198 26.1973ZM 145.571 25.2607L 147.376 25.2607L 147.848 22.8408L 146.043 22.8408L 145.571 25.2607ZM 152.004 24.0098L 152.51 19.0469L 157.609 19.0469L 157.609 20.2158L 153.583 20.2158L 153.282 22.9297C 153.77 22.6426 154.324 22.499 154.943 22.499C 155.85 22.499 156.57 22.7998 157.104 23.4014C 157.637 23.9984 157.903 24.8073 157.903 25.8281C 157.903 26.8535 157.625 27.6624 157.069 28.2549C 156.518 28.8428 155.745 29.1367 154.752 29.1367C 153.872 29.1367 153.155 28.8929 152.599 28.4053C 152.043 27.9176 151.726 27.2432 151.648 26.3818L 152.845 26.3818C 152.922 26.9515 153.125 27.3822 153.453 27.6738C 153.781 27.9609 154.214 28.1045 154.752 28.1045C 155.34 28.1045 155.8 27.904 156.133 27.5029C 156.47 27.1019 156.639 26.5482 156.639 25.8418C 156.639 25.1764 156.456 24.6432 156.092 24.2422C 155.732 23.8366 155.251 23.6338 154.649 23.6338C 154.098 23.6338 153.665 23.7546 153.351 23.9961L 153.016 24.2695L 152.004 24.0098ZM 164.623 25.6572L 166.004 25.6572L 166.004 26.6895L 164.623 26.6895L 164.623 29L 163.352 29L 163.352 26.6895L 158.819 26.6895L 158.819 25.9443L 163.276 19.0469L 164.623 19.0469L 164.623 25.6572ZM 160.255 25.6572L 163.352 25.6572L 163.352 20.7764L 163.201 21.0498L 160.255 25.6572ZM 173.571 19.7578L 169.449 29L 168.123 29L 172.231 20.0859L 166.845 20.0859L 166.845 19.0469L 173.571 19.0469L 173.571 19.7578ZM 181.433 19.7578L 177.311 29L 175.984 29L 180.093 20.0859L 174.706 20.0859L 174.706 19.0469L 181.433 19.0469L 181.433 19.7578ZM 1.5791 46L 1.5791 39.5811L 0.410156 39.5811L 0.410156 38.6035L 1.5791 38.6035L 1.5791 37.8447C 1.5791 37.0518 1.79102 36.4388 2.21484 36.0059C 2.63867 35.5729 3.23796 35.3564 4.0127 35.3564C 4.30436 35.3564 4.59375 35.3952 4.88086 35.4727L 4.8125 36.498C 4.59831 36.457 4.37044 36.4365 4.12891 36.4365C 3.71875 36.4365 3.40202 36.5573 3.17871 36.7988C 2.9554 37.0358 2.84375 37.3776 2.84375 37.8242L 2.84375 38.6035L 4.42285 38.6035L 4.42285 39.5811L 2.84375 39.5811L 2.84375 46L 1.5791 46ZM 5.48926 42.2334C 5.48926 41.5088 5.63053 40.8571 5.91309 40.2783C 6.2002 39.6995 6.59668 39.2529 7.10254 38.9385C 7.61296 38.624 8.19401 38.4668 8.8457 38.4668C 9.85286 38.4668 10.6663 38.8154 11.2861 39.5127C 11.9105 40.21 12.2227 41.1374 12.2227 42.2949L 12.2227 42.3838C 12.2227 43.1038 12.0837 43.751 11.8057 44.3252C 11.5322 44.8949 11.138 45.3392 10.623 45.6582C 10.1126 45.9772 9.52474 46.1367 8.85938 46.1367C 7.85677 46.1367 7.04329 45.7881 6.41895 45.0908C 5.79915 44.3936 5.48926 43.4707 5.48926 42.3223L 5.48926 42.2334ZM 6.76074 42.3838C 6.76074 43.2041 6.94987 43.8626 7.32812 44.3594C 7.71094 44.8561 8.22135 45.1045 8.85938 45.1045C 9.50195 45.1045 10.0124 44.8538 10.3906 44.3525C 10.7689 43.8467 10.958 43.1403 10.958 42.2334C 10.958 41.4222 10.7643 40.766 10.377 40.2646C 9.99414 39.7588 9.48372 39.5059 8.8457 39.5059C 8.22135 39.5059 7.71777 39.7542 7.33496 40.251C 6.95215 40.7477 6.76074 41.4587 6.76074 42.3838ZM 17.3838 39.7383C 17.1924 39.7064 16.985 39.6904 16.7617 39.6904C 15.9323 39.6904 15.3695 40.0436 15.0732 40.75L 15.0732 46L 13.8086 46L 13.8086 38.6035L 15.0391 38.6035L 15.0596 39.458C 15.4743 38.7972 16.0622 38.4668 16.8232 38.4668C 17.0693 38.4668 17.2562 38.4987 17.3838 38.5625L 17.3838 39.7383ZM 23.7344 40.4082L 24.6846 40.4082C 25.2816 40.3991 25.751 40.2419 26.0928 39.9365C 26.4346 39.6312 26.6055 39.2188 26.6055 38.6992C 26.6055 37.5326 26.0244 36.9492 24.8623 36.9492C 24.3154 36.9492 23.8779 37.1064 23.5498 37.4209C 23.2262 37.7308 23.0645 38.1432 23.0645 38.6582L 21.7998 38.6582C 21.7998 37.8698 22.0869 37.2158 22.6611 36.6963C 23.2399 36.1722 23.9736 35.9102 24.8623 35.9102C 25.8011 35.9102 26.5371 36.1585 27.0703 36.6553C 27.6035 37.152 27.8701 37.8424 27.8701 38.7266C 27.8701 39.1595 27.7288 39.5788 27.4463 39.9844C 27.1683 40.39 26.7878 40.693 26.3047 40.8936C 26.8516 41.0667 27.2731 41.3538 27.5693 41.7549C 27.8701 42.1559 28.0205 42.6458 28.0205 43.2246C 28.0205 44.1178 27.7288 44.8265 27.1455 45.3506C 26.5622 45.8747 25.8034 46.1367 24.8691 46.1367C 23.9349 46.1367 23.1738 45.8838 22.5859 45.3779C 22.0026 44.8721 21.7109 44.2044 21.7109 43.375L 22.9824 43.375C 22.9824 43.8991 23.1533 44.3184 23.4951 44.6328C 23.8369 44.9473 24.2949 45.1045 24.8691 45.1045C 25.4798 45.1045 25.9469 44.945 26.2705 44.626C 26.5941 44.307 26.7559 43.849 26.7559 43.252C 26.7559 42.6732 26.5781 42.2288 26.2227 41.9189C 25.8672 41.609 25.3545 41.4495 24.6846 41.4404L 23.7344 41.4404L 23.7344 40.4082ZM 34.6035 41.625C 34.3392 41.9395 34.0225 42.1924 33.6533 42.3838C 33.2887 42.5752 32.8877 42.6709 32.4502 42.6709C 31.876 42.6709 31.3747 42.5296 30.9463 42.2471C 30.5225 41.9645 30.1943 41.568 29.9619 41.0576C 29.7295 40.5426 29.6133 39.9753 29.6133 39.3555C 29.6133 38.6901 29.7386 38.0908 29.9893 37.5576C 30.2445 37.0244 30.6045 36.6165 31.0693 36.334C 31.5342 36.0514 32.0765 35.9102 32.6963 35.9102C 33.6807 35.9102 34.4554 36.2793 35.0205 37.0176C 35.5902 37.7513 35.875 38.7539 35.875 40.0254L 35.875 40.3945C 35.875 42.3314 35.4922 43.7464 34.7266 44.6396C 33.9609 45.5283 32.8057 45.984 31.2607 46.0068L 31.0146 46.0068L 31.0146 44.9404L 31.2812 44.9404C 32.3249 44.9222 33.127 44.651 33.6875 44.127C 34.248 43.5983 34.5534 42.7643 34.6035 41.625ZM 32.6553 41.625C 33.0791 41.625 33.4688 41.4951 33.8242 41.2354C 34.1842 40.9756 34.4463 40.6543 34.6104 40.2715L 34.6104 39.7656C 34.6104 38.9362 34.4303 38.2617 34.0703 37.7422C 33.7103 37.2227 33.2546 36.9629 32.7031 36.9629C 32.1471 36.9629 31.7005 37.1771 31.3633 37.6055C 31.026 38.0293 30.8574 38.5898 30.8574 39.2871C 30.8574 39.9661 31.0192 40.5267 31.3428 40.9688C 31.6709 41.4062 32.1084 41.625 32.6553 41.625ZM 43.8594 41.7549C 43.8594 43.236 43.6064 44.3366 43.1006 45.0566C 42.5947 45.7767 41.804 46.1367 40.7285 46.1367C 39.6667 46.1367 38.8805 45.7858 38.3701 45.084C 37.8597 44.3776 37.5954 43.3249 37.5771 41.9258L 37.5771 40.2373C 37.5771 38.7744 37.8301 37.6875 38.3359 36.9766C 38.8418 36.2656 39.6348 35.9102 40.7148 35.9102C 41.7858 35.9102 42.5742 36.2542 43.0801 36.9424C 43.5859 37.626 43.8457 38.6833 43.8594 40.1143L 43.8594 41.7549ZM 42.5947 40.0254C 42.5947 38.9544 42.4443 38.1751 42.1436 37.6875C 41.8428 37.1953 41.3665 36.9492 40.7148 36.9492C 40.0677 36.9492 39.596 37.193 39.2998 37.6807C 39.0036 38.1683 38.8509 38.918 38.8418 39.9297L 38.8418 41.9531C 38.8418 43.0286 38.9967 43.8239 39.3066 44.3389C 39.6211 44.8493 40.0951 45.1045 40.7285 45.1045C 41.3529 45.1045 41.8154 44.863 42.1162 44.3799C 42.4215 43.8968 42.5811 43.1357 42.5947 42.0967L 42.5947 40.0254ZM 52.1514 46.1367C 51.1488 46.1367 50.333 45.8086 49.7041 45.1523C 49.0752 44.4915 48.7607 43.6097 48.7607 42.5068L 48.7607 42.2744C 48.7607 41.5407 48.8997 40.8867 49.1777 40.3125C 49.4603 39.7337 49.8522 39.2826 50.3535 38.959C 50.8594 38.6309 51.4062 38.4668 51.9941 38.4668C 52.9557 38.4668 53.7031 38.7835 54.2363 39.417C 54.7695 40.0505 55.0361 40.9574 55.0361 42.1377L 55.0361 42.6641L 50.0254 42.6641C 50.0436 43.3932 50.2555 43.9834 50.6611 44.4346C 51.0713 44.8812 51.5908 45.1045 52.2197 45.1045C 52.6663 45.1045 53.0446 45.0133 53.3545 44.8311C 53.6644 44.6488 53.9355 44.4072 54.168 44.1064L 54.9404 44.708C 54.3206 45.6605 53.391 46.1367 52.1514 46.1367ZM 51.9941 39.5059C 51.4837 39.5059 51.0553 39.6927 50.709 40.0664C 50.3626 40.4355 50.1484 40.9551 50.0664 41.625L 53.7715 41.625L 53.7715 41.5293C 53.735 40.8867 53.5618 40.39 53.252 40.0391C 52.9421 39.6836 52.5228 39.5059 51.9941 39.5059ZM 61.0723 45.2686C 60.5801 45.8473 59.8577 46.1367 58.9053 46.1367C 58.1169 46.1367 57.5153 45.9089 57.1006 45.4531C 56.6904 44.9928 56.4831 44.3138 56.4785 43.416L 56.4785 38.6035L 57.7432 38.6035L 57.7432 43.3818C 57.7432 44.5029 58.1989 45.0635 59.1104 45.0635C 60.0765 45.0635 60.7191 44.7035 61.0381 43.9834L 61.0381 38.6035L 62.3027 38.6035L 62.3027 46L 61.0996 46L 61.0723 45.2686ZM 67.8057 39.7383C 67.6143 39.7064 67.4069 39.6904 67.1836 39.6904C 66.3542 39.6904 65.7913 40.0436 65.4951 40.75L 65.4951 46L 64.2305 46L 64.2305 38.6035L 65.4609 38.6035L 65.4814 39.458C 65.8962 38.7972 66.484 38.4668 67.2451 38.4668C 67.4912 38.4668 67.6781 38.4987 67.8057 38.5625L 67.8057 39.7383ZM 68.5029 42.2334C 68.5029 41.5088 68.6442 40.8571 68.9268 40.2783C 69.2139 39.6995 69.6104 39.2529 70.1162 38.9385C 70.6266 38.624 71.2077 38.4668 71.8594 38.4668C 72.8665 38.4668 73.68 38.8154 74.2998 39.5127C 74.9242 40.21 75.2363 41.1374 75.2363 42.2949L 75.2363 42.3838C 75.2363 43.1038 75.0973 43.751 74.8193 44.3252C 74.5459 44.8949 74.1517 45.3392 73.6367 45.6582C 73.1263 45.9772 72.5384 46.1367 71.873 46.1367C 70.8704 46.1367 70.057 45.7881 69.4326 45.0908C 68.8128 44.3936 68.5029 43.4707 68.5029 42.3223L 68.5029 42.2334ZM 69.7744 42.3838C 69.7744 43.2041 69.9635 43.8626 70.3418 44.3594C 70.7246 44.8561 71.235 45.1045 71.873 45.1045C 72.5156 45.1045 73.026 44.8538 73.4043 44.3525C 73.7826 43.8467 73.9717 43.1403 73.9717 42.2334C 73.9717 41.4222 73.778 40.766 73.3906 40.2646C 73.0078 39.7588 72.4974 39.5059 71.8594 39.5059C 71.235 39.5059 70.7314 39.7542 70.3486 40.251C 69.9658 40.7477 69.7744 41.4587 69.7744 42.3838ZM 78.2373 43.1904L 77.0957 43.1904L 77.0068 36.0469L 78.333 36.0469L 78.2373 43.1904ZM 76.959 45.3643C 76.959 45.1592 77.0205 44.9883 77.1436 44.8516C 77.2712 44.7103 77.458 44.6396 77.7041 44.6396C 77.9502 44.6396 78.137 44.7103 78.2646 44.8516C 78.3923 44.9883 78.4561 45.1592 78.4561 45.3643C 78.4561 45.5693 78.3923 45.7402 78.2646 45.877C 78.137 46.0091 77.9502 46.0752 77.7041 46.0752C 77.458 46.0752 77.2712 46.0091 77.1436 45.877C 77.0205 45.7402 76.959 45.5693 76.959 45.3643Z"/>
</defs>
</svg>
