<svg width="175" height="72" viewBox="0 0 175 72" version="1.1" xmlns="http://www.w3.org/2000/svg" xmlns:xlink="http://www.w3.org/1999/xlink">
<title>notification</title>
<desc>Created using Figma</desc>
<g id="Canvas" transform="translate(-8058 -499)">
<g id="notification">
<g id="notification" filter="url(#filter0_d)">
<g id="Mask">
<use xlink:href="#path0_fill" transform="translate(8062 499)" fill="#FFFFFF" fill-opacity="0.95"/>
</g>
<mask id="mask0_outline" mask-type="alpha">
<g id="Mask">
<use xlink:href="#path0_fill" transform="translate(8062 499)" fill="#FFFFFF"/>
</g>
</mask>
<g id="Rectangle" opacity="0.663383" mask="url(#mask0_outline)">
<use xlink:href="#path1_fill" transform="translate(8060.3 496.091)" fill="#FFFFFF"/>
</g>
<g id="vput" mask="url(#mask0_outline)">
<g id="Shape">
<use xlink:href="#path2_fill" transform="translate(8070 507.5)" fill="#14A4D8"/>
</g>
<g id="Shape">
<use xlink:href="#path3_fill" transform="translate(8098.19 504)" fill="#FEE900"/>
</g>
<g id="Shape">
<use xlink:href="#path4_fill" transform="translate(8089.25 506.8)" fill="#FB6E52"/>
</g>
<g id="Shape">
<use xlink:href="#path5_fill" transform="translate(8079.62 506.8)" fill="#9EE712"/>
</g>
</g>
</g>
<g id="V.P.U.T.">
<use xlink:href="#path6_fill" transform="translate(8114 506)" fill="#262626"/>
</g>
<g id="Pasta Bank: Invoice">
<use xlink:href="#path7_fill" transform="translate(8071 526)" fill="#262626"/>
</g>
</g>
</g>
<defs>
<filter id="filter0_d" filterUnits="userSpaceOnUse" x="8058" y="499" width="175" height="72" color-interpolation-filters="sRGB">
<feFlood flood-opacity="0" result="BackgroundImageFix"/>
<feColorMatrix in="SourceAlpha" type="matrix" values="0 0 0 0 0 0 0 0 0 0 0 0 0 0 0 0 0 0 255 0"/>
<feOffset dx="0" dy="4"/>
<feGaussianBlur stdDeviation="2"/>
<feColorMatrix type="matrix" values="0 0 0 0 0 0 0 0 0 0 0 0 0 0 0 0 0 0 0.12 0"/>
<feBlend mode="normal" in2="BackgroundImageFix" result="effect1_dropShadow"/>
<feBlend mode="normal" in="SourceGraphic" in2="effect1_dropShadow" result="shape"/>
</filter>
<path id="path0_fill" fill-rule="evenodd" d="M 0 10C 0 4.47715 4.47715 0 10 0L 157 0C 162.523 0 167 4.47715 167 10L 167 54C 167 59.5228 162.523 64 157 64L 10 64C 4.47715 64 0 59.5228 0 54L 0 10Z"/>
<path id="path1_fill" fill-rule="evenodd" d="M 0 0L 177.173 0L 177.173 25.2121L 0 25.2121L 0 0Z"/>
<path id="path2_fill" d="M 5.98273 1.25414e-15L 3.71711 6.65862L 3.71299 6.66745C 3.65954 6.88367 3.56908 6.91014 3.50329 6.91014C 3.47451 6.91014 3.40049 6.88367 3.28947 6.65421L 0.888158 1.25414e-15L 0 1.25414e-15L 2.66859 7.07341C 2.72615 7.31169 2.84128 7.47496 2.99753 7.53673C 3.16201 7.65146 3.31826 7.7 3.51151 7.7C 3.70888 7.7 3.86924 7.64705 4.03372 7.53232C 4.17763 7.43083 4.29276 7.26756 4.35444 7.07782L 6.875 0L 5.98273 1.25414e-15Z"/>
<path id="path3_fill" d="M 4.13916 8.72518L 4.01111 8.88653C 3.84174 9.09752 3.58562 9.27955 3.32124 9.36643L 3.30059 9.3747C 3.06513 9.49468 2.81314 9.54846 2.51159 9.54846C 2.08611 9.54846 1.73498 9.42435 1.36733 9.1513C 1.05338 8.91135 0.904667 8.6052 0.904667 8.17908L 0.904667 3.97991L 3.54018 3.97991L 3.54018 3.11939L 0.904667 3.11939L 0.904667 0L 0 0L 0 8.22459C 0 8.88652 0.251985 9.45745 0.722908 9.88357L 0.73117 9.88771C 1.25166 10.3056 1.8176 10.5 2.51159 10.5C 2.85032 10.5 3.25928 10.409 3.63106 10.2476C 3.97806 10.0987 4.32505 9.90012 4.66792 9.65603L 4.8125 9.5526L 4.13916 8.72518Z"/>
<path id="path4_fill" d="M 5.23591 0L 5.23591 4.8125C 5.23591 5.37893 5.023 5.83888 4.58848 6.21366C 4.17135 6.57566 3.65427 6.76305 3.04161 6.76305C 2.43763 6.76305 1.93794 6.60548 1.59467 6.31161L 1.59033 6.30736C 1.16016 5.97091 0.951589 5.49817 0.951589 4.85935L 0.951589 0L 0 0L 0 5.05951C 0 5.84314 0.317196 6.48197 0.973315 7.01858C 1.54688 7.47854 2.2421 7.7 3.09809 7.7C 3.91498 7.7 4.61021 7.4615 5.22722 6.97174C 5.85727 6.4479 6.1875 5.75371 6.1875 4.96156L 6.1875 0L 5.23591 0Z"/>
<path id="path5_fill" fill-rule="evenodd" d="M 3.45996 0C 4.33301 0 5.12061 0.343567 5.73779 0.996338C 6.50146 1.75214 6.875 2.69263 6.875 3.86072C 6.875 4.94293 6.57861 5.935 6.03857 6.65643C 5.39258 7.49384 4.51172 7.91473 3.41504 7.91473C 2.87109 7.91473 2.37549 7.80737 1.97754 7.59692L 1.96973 7.59265C 1.49463 7.31348 1.125 6.93988 0.88916 6.51471L 0.88916 11.2L 0 11.2L 0 3.8092C 0 2.90308 0.280273 2.06134 0.83252 1.30981C 1.46582 0.442322 2.34717 0 3.45996 0ZM 1.604 1.83374C 1.12451 2.38342 0.893066 3.0791 0.893066 3.95947L 0.88916 3.95947L 0.88916 4.74969L 1.02295 5.14044C 1.20166 5.6601 1.51465 6.12817 1.9082 6.45459C 2.37158 6.79816 2.85449 6.96564 3.39453 6.96991C 4.02832 6.82819 4.88086 6.52332 5.22217 6.13251C 5.73389 5.49689 5.98145 4.78406 5.98145 3.95947C 5.98145 3.0791 5.75 2.38342 5.271 1.83374L 5.2666 1.82941C 4.83203 1.27112 4.22314 0.992004 3.46387 0.992004C 2.68408 0.992004 2.11133 1.24969 1.604 1.83374Z"/>
<path id="path6_fill" d="M 2.90479 6.60693L 4.53076 1.60156L 5.75244 1.60156L 3.44971 8L 2.37305 8L 0.0791016 1.60156L 1.29639 1.60156L 2.90479 6.60693ZM 6.09082 6.875C 6.29004 6.875 6.44385 6.93213 6.55225 7.04639C 6.66064 7.15771 6.71484 7.29834 6.71484 7.46826C 6.71484 7.63525 6.66064 7.77441 6.55225 7.88574C 6.44385 7.99414 6.29004 8.04834 6.09082 8.04834C 5.90039 8.04834 5.74951 7.99414 5.63818 7.88574C 5.52686 7.77734 5.47119 7.63818 5.47119 7.46826C 5.47119 7.29834 5.52539 7.15771 5.63379 7.04639C 5.74219 6.93213 5.89453 6.875 6.09082 6.875ZM 9.15381 5.62256L 9.15381 8L 8.04199 8L 8.04199 1.60156L 10.4897 1.60156C 11.2046 1.60156 11.7715 1.7876 12.1904 2.15967C 12.6123 2.53174 12.8232 3.02393 12.8232 3.63623C 12.8232 4.26318 12.6167 4.75098 12.2036 5.09961C 11.7935 5.44824 11.2178 5.62256 10.4766 5.62256L 9.15381 5.62256ZM 9.15381 4.73047L 10.4897 4.73047C 10.8853 4.73047 11.187 4.63818 11.395 4.45361C 11.603 4.26611 11.707 3.99658 11.707 3.64502C 11.707 3.29932 11.6016 3.02393 11.3906 2.81885C 11.1797 2.61084 10.8896 2.50391 10.5205 2.49805L 9.15381 2.49805L 9.15381 4.73047ZM 12.5859 6.875C 12.7852 6.875 12.939 6.93213 13.0474 7.04639C 13.1558 7.15771 13.21 7.29834 13.21 7.46826C 13.21 7.63525 13.1558 7.77441 13.0474 7.88574C 12.939 7.99414 12.7852 8.04834 12.5859 8.04834C 12.3955 8.04834 12.2446 7.99414 12.1333 7.88574C 12.022 7.77734 11.9663 7.63818 11.9663 7.46826C 11.9663 7.29834 12.0205 7.15771 12.1289 7.04639C 12.2373 6.93213 12.3896 6.875 12.5859 6.875ZM 19.2173 1.60156L 19.2173 5.87744C 19.2173 6.55713 18.999 7.09619 18.5625 7.49463C 18.1289 7.89014 17.5503 8.08789 16.8267 8.08789C 16.0942 8.08789 15.5127 7.89307 15.082 7.50342C 14.6514 7.11084 14.436 6.56738 14.436 5.87305L 14.436 1.60156L 15.5435 1.60156L 15.5435 5.88184C 15.5435 6.30957 15.6519 6.63623 15.8687 6.86182C 16.0854 7.0874 16.4048 7.2002 16.8267 7.2002C 17.6821 7.2002 18.1099 6.74902 18.1099 5.84668L 18.1099 1.60156L 19.2173 1.60156ZM 20.9707 6.875C 21.1699 6.875 21.3237 6.93213 21.4321 7.04639C 21.5405 7.15771 21.5947 7.29834 21.5947 7.46826C 21.5947 7.63525 21.5405 7.77441 21.4321 7.88574C 21.3237 7.99414 21.1699 8.04834 20.9707 8.04834C 20.7803 8.04834 20.6294 7.99414 20.5181 7.88574C 20.4067 7.77734 20.3511 7.63818 20.3511 7.46826C 20.3511 7.29834 20.4053 7.15771 20.5137 7.04639C 20.6221 6.93213 20.7744 6.875 20.9707 6.875ZM 27.5449 2.49805L 25.5498 2.49805L 25.5498 8L 24.4468 8L 24.4468 2.49805L 22.4692 2.49805L 22.4692 1.60156L 27.5449 1.60156L 27.5449 2.49805ZM 27.8174 6.875C 28.0166 6.875 28.1704 6.93213 28.2788 7.04639C 28.3872 7.15771 28.4414 7.29834 28.4414 7.46826C 28.4414 7.63525 28.3872 7.77441 28.2788 7.88574C 28.1704 7.99414 28.0166 8.04834 27.8174 8.04834C 27.627 8.04834 27.4761 7.99414 27.3647 7.88574C 27.2534 7.77734 27.1978 7.63818 27.1978 7.46826C 27.1978 7.29834 27.252 7.15771 27.3604 7.04639C 27.4688 6.93213 27.6211 6.875 27.8174 6.875Z"/>
<path id="path7_fill" d="M 1.34912 5.39404L 1.34912 8L 0.808594 8L 0.808594 1.60156L 2.98828 1.60156C 3.65332 1.60156 4.17773 1.77148 4.56152 2.11133C 4.94824 2.45117 5.1416 2.91846 5.1416 3.51318C 5.1416 4.11377 4.95557 4.57812 4.5835 4.90625C 4.21436 5.23145 3.67822 5.39404 2.9751 5.39404L 1.34912 5.39404ZM 1.34912 4.93701L 2.98828 4.93701C 3.5127 4.93701 3.9126 4.8125 4.18799 4.56348C 4.46338 4.31445 4.60107 3.96729 4.60107 3.52197C 4.60107 3.07959 4.46338 2.72803 4.18799 2.46729C 3.91553 2.20361 3.52734 2.06885 3.02344 2.06299L 1.34912 2.06299L 1.34912 4.93701ZM 9.18018 8C 9.12744 7.85059 9.09375 7.62939 9.0791 7.33643C 8.89453 7.57666 8.65869 7.7627 8.37158 7.89453C 8.0874 8.02344 7.78564 8.08789 7.46631 8.08789C 7.00928 8.08789 6.63867 7.96045 6.35449 7.70557C 6.07324 7.45068 5.93262 7.12842 5.93262 6.73877C 5.93262 6.27588 6.12451 5.90967 6.5083 5.64014C 6.89502 5.37061 7.43262 5.23584 8.12109 5.23584L 9.07471 5.23584L 9.07471 4.69531C 9.07471 4.35547 8.96924 4.08887 8.7583 3.89551C 8.55029 3.69922 8.24561 3.60107 7.84424 3.60107C 7.47803 3.60107 7.1748 3.69482 6.93457 3.88232C 6.69434 4.06982 6.57422 4.29541 6.57422 4.55908L 6.04688 4.55469C 6.04688 4.17676 6.22266 3.8501 6.57422 3.57471C 6.92578 3.29639 7.35791 3.15723 7.87061 3.15723C 8.40088 3.15723 8.81836 3.29053 9.12305 3.55713C 9.43066 3.8208 9.58887 4.18994 9.59766 4.66455L 9.59766 6.91455C 9.59766 7.37451 9.646 7.71875 9.74268 7.94727L 9.74268 8L 9.18018 8ZM 7.52783 7.62207C 7.87939 7.62207 8.19287 7.53711 8.46826 7.36719C 8.74658 7.19727 8.94873 6.97021 9.07471 6.68604L 9.07471 5.64014L 8.13428 5.64014C 7.60986 5.646 7.19971 5.74268 6.90381 5.93018C 6.60791 6.11475 6.45996 6.36963 6.45996 6.69482C 6.45996 6.96143 6.55811 7.18262 6.75439 7.3584C 6.95361 7.53418 7.21143 7.62207 7.52783 7.62207ZM 13.8516 6.7915C 13.8516 6.53076 13.7461 6.32129 13.5352 6.16309C 13.3271 6.00488 13.0122 5.88184 12.5903 5.79395C 12.1685 5.70312 11.8403 5.60059 11.606 5.48633C 11.3745 5.36914 11.2017 5.22705 11.0874 5.06006C 10.9761 4.89307 10.9204 4.69092 10.9204 4.45361C 10.9204 4.07861 11.0771 3.76953 11.3906 3.52637C 11.7041 3.28027 12.1055 3.15723 12.5947 3.15723C 13.125 3.15723 13.5498 3.28906 13.8691 3.55273C 14.1914 3.81348 14.3525 4.15479 14.3525 4.57666L 13.8252 4.57666C 13.8252 4.29834 13.708 4.06689 13.4736 3.88232C 13.2422 3.69775 12.9492 3.60547 12.5947 3.60547C 12.249 3.60547 11.9707 3.68311 11.7598 3.83838C 11.5518 3.99072 11.4478 4.18994 11.4478 4.43604C 11.4478 4.67334 11.5342 4.85791 11.707 4.98975C 11.8828 5.11865 12.2007 5.2373 12.6606 5.3457C 13.1235 5.4541 13.4692 5.56982 13.6978 5.69287C 13.9292 5.81592 14.1006 5.96387 14.2119 6.13672C 14.3232 6.30957 14.3789 6.51904 14.3789 6.76514C 14.3789 7.1665 14.2163 7.4873 13.8911 7.72754C 13.5688 7.96777 13.147 8.08789 12.6255 8.08789C 12.0718 8.08789 11.6221 7.95459 11.2764 7.68799C 10.9336 7.41846 10.7622 7.07861 10.7622 6.66846L 11.2896 6.66846C 11.3101 6.97607 11.439 7.21631 11.6763 7.38916C 11.9165 7.55908 12.2329 7.64404 12.6255 7.64404C 12.9917 7.64404 13.2876 7.56348 13.5132 7.40234C 13.7388 7.24121 13.8516 7.0376 13.8516 6.7915ZM 16.3828 2.02783L 16.3828 3.24512L 17.3672 3.24512L 17.3672 3.67578L 16.3828 3.67578L 16.3828 6.84424C 16.3828 7.10791 16.4297 7.3042 16.5234 7.43311C 16.6201 7.56201 16.7798 7.62646 17.0024 7.62646C 17.0903 7.62646 17.2324 7.61182 17.4287 7.58252L 17.4507 8.01318C 17.313 8.06299 17.1255 8.08789 16.8882 8.08789C 16.5278 8.08789 16.2656 7.98389 16.1016 7.77588C 15.9375 7.56494 15.8555 7.25586 15.8555 6.84863L 15.8555 3.67578L 14.981 3.67578L 14.981 3.24512L 15.8555 3.24512L 15.8555 2.02783L 16.3828 2.02783ZM 21.4585 8C 21.4058 7.85059 21.3721 7.62939 21.3574 7.33643C 21.1729 7.57666 20.937 7.7627 20.6499 7.89453C 20.3657 8.02344 20.064 8.08789 19.7446 8.08789C 19.2876 8.08789 18.917 7.96045 18.6328 7.70557C 18.3516 7.45068 18.2109 7.12842 18.2109 6.73877C 18.2109 6.27588 18.4028 5.90967 18.7866 5.64014C 19.1733 5.37061 19.7109 5.23584 20.3994 5.23584L 21.353 5.23584L 21.353 4.69531C 21.353 4.35547 21.2476 4.08887 21.0366 3.89551C 20.8286 3.69922 20.5239 3.60107 20.1226 3.60107C 19.7563 3.60107 19.4531 3.69482 19.2129 3.88232C 18.9727 4.06982 18.8525 4.29541 18.8525 4.55908L 18.3252 4.55469C 18.3252 4.17676 18.501 3.8501 18.8525 3.57471C 19.2041 3.29639 19.6362 3.15723 20.1489 3.15723C 20.6792 3.15723 21.0967 3.29053 21.4014 3.55713C 21.709 3.8208 21.8672 4.18994 21.876 4.66455L 21.876 6.91455C 21.876 7.37451 21.9243 7.71875 22.021 7.94727L 22.021 8L 21.4585 8ZM 19.8062 7.62207C 20.1577 7.62207 20.4712 7.53711 20.7466 7.36719C 21.0249 7.19727 21.2271 6.97021 21.353 6.68604L 21.353 5.64014L 20.4126 5.64014C 19.8882 5.646 19.478 5.74268 19.1821 5.93018C 18.8862 6.11475 18.7383 6.36963 18.7383 6.69482C 18.7383 6.96143 18.8364 7.18262 19.0327 7.3584C 19.2319 7.53418 19.4897 7.62207 19.8062 7.62207ZM 25.5938 8L 25.5938 1.60156L 27.4834 1.60156C 28.1689 1.60156 28.689 1.74365 29.0435 2.02783C 29.3979 2.30908 29.5752 2.7251 29.5752 3.27588C 29.5752 3.60693 29.4844 3.89551 29.3027 4.1416C 29.124 4.38477 28.8779 4.55908 28.5645 4.66455C 28.9365 4.74658 29.2354 4.92969 29.4609 5.21387C 29.6895 5.49805 29.8037 5.82617 29.8037 6.19824C 29.8037 6.76367 29.6206 7.20605 29.2544 7.52539C 28.8911 7.8418 28.3843 8 27.7339 8L 25.5938 8ZM 26.1343 4.92383L 26.1343 7.54297L 27.7559 7.54297C 28.2187 7.54297 28.585 7.42578 28.8545 7.19141C 29.127 6.9541 29.2632 6.62598 29.2632 6.20703C 29.2632 5.81152 29.1328 5.49951 28.8721 5.271C 28.6143 5.03955 28.2568 4.92383 27.7998 4.92383L 26.1343 4.92383ZM 26.1343 4.47119L 27.6108 4.47119C 28.062 4.4624 28.4106 4.35693 28.6567 4.15479C 28.9058 3.94971 29.0303 3.65234 29.0303 3.2627C 29.0303 2.85254 28.9014 2.55078 28.6436 2.35742C 28.3887 2.16113 28.002 2.06299 27.4834 2.06299L 26.1343 2.06299L 26.1343 4.47119ZM 33.9917 8C 33.939 7.85059 33.9053 7.62939 33.8906 7.33643C 33.7061 7.57666 33.4702 7.7627 33.1831 7.89453C 32.8989 8.02344 32.5972 8.08789 32.2778 8.08789C 31.8208 8.08789 31.4502 7.96045 31.166 7.70557C 30.8848 7.45068 30.7441 7.12842 30.7441 6.73877C 30.7441 6.27588 30.936 5.90967 31.3198 5.64014C 31.7065 5.37061 32.2441 5.23584 32.9326 5.23584L 33.8862 5.23584L 33.8862 4.69531C 33.8862 4.35547 33.7808 4.08887 33.5698 3.89551C 33.3618 3.69922 33.0571 3.60107 32.6558 3.60107C 32.2896 3.60107 31.9863 3.69482 31.7461 3.88232C 31.5059 4.06982 31.3857 4.29541 31.3857 4.55908L 30.8584 4.55469C 30.8584 4.17676 31.0342 3.8501 31.3857 3.57471C 31.7373 3.29639 32.1694 3.15723 32.6821 3.15723C 33.2124 3.15723 33.6299 3.29053 33.9346 3.55713C 34.2422 3.8208 34.4004 4.18994 34.4092 4.66455L 34.4092 6.91455C 34.4092 7.37451 34.4575 7.71875 34.5542 7.94727L 34.5542 8L 33.9917 8ZM 32.3394 7.62207C 32.6909 7.62207 33.0044 7.53711 33.2798 7.36719C 33.5581 7.19727 33.7603 6.97021 33.8862 6.68604L 33.8862 5.64014L 32.9458 5.64014C 32.4214 5.646 32.0112 5.74268 31.7153 5.93018C 31.4194 6.11475 31.2715 6.36963 31.2715 6.69482C 31.2715 6.96143 31.3696 7.18262 31.5659 7.3584C 31.7651 7.53418 32.0229 7.62207 32.3394 7.62207ZM 36.3164 3.24512L 36.334 4.05811C 36.5127 3.76514 36.7354 3.54248 37.002 3.39014C 37.2686 3.23486 37.563 3.15723 37.8853 3.15723C 38.395 3.15723 38.7744 3.30078 39.0234 3.58789C 39.2725 3.875 39.3984 4.30566 39.4014 4.87988L 39.4014 8L 38.8784 8L 38.8784 4.87549C 38.8755 4.45068 38.7847 4.13428 38.606 3.92627C 38.4302 3.71826 38.1475 3.61426 37.7578 3.61426C 37.4326 3.61426 37.144 3.7168 36.8921 3.92188C 36.6431 4.12402 36.4585 4.39795 36.3384 4.74365L 36.3384 8L 35.8154 8L 35.8154 3.24512L 36.3164 3.24512ZM 41.8931 5.60498L 41.291 6.18506L 41.291 8L 40.7637 8L 40.7637 1.25L 41.291 1.25L 41.291 5.56982L 41.7876 5.03369L 43.6069 3.24512L 44.2705 3.24512L 42.2534 5.24902L 44.4463 8L 43.8179 8L 41.8931 5.60498ZM 45.0483 7.68359C 45.0483 7.58105 45.0806 7.49463 45.145 7.42432C 45.2124 7.35107 45.3047 7.31445 45.4219 7.31445C 45.5391 7.31445 45.6313 7.35107 45.6987 7.42432C 45.7661 7.49463 45.7998 7.58105 45.7998 7.68359C 45.7998 7.78613 45.7661 7.87109 45.6987 7.93848C 45.6313 8.00293 45.5391 8.03516 45.4219 8.03516C 45.3047 8.03516 45.2124 8.00293 45.145 7.93848C 45.0806 7.87109 45.0483 7.78613 45.0483 7.68359ZM 45.0571 3.62744C 45.0571 3.5249 45.0894 3.43848 45.1538 3.36816C 45.2212 3.29492 45.3135 3.2583 45.4307 3.2583C 45.5479 3.2583 45.6401 3.29492 45.7075 3.36816C 45.7749 3.43848 45.8086 3.5249 45.8086 3.62744C 45.8086 3.72998 45.7749 3.81494 45.7075 3.88232C 45.6401 3.94678 45.5479 3.979 45.4307 3.979C 45.3135 3.979 45.2212 3.94678 45.1538 3.88232C 45.0894 3.81494 45.0571 3.72998 45.0571 3.62744ZM 50.0361 8L 49.4956 8L 49.4956 1.60156L 50.0361 1.60156L 50.0361 8ZM 52.1543 3.24512L 52.1719 4.05811C 52.3506 3.76514 52.5732 3.54248 52.8398 3.39014C 53.1064 3.23486 53.4009 3.15723 53.7231 3.15723C 54.2329 3.15723 54.6123 3.30078 54.8613 3.58789C 55.1104 3.875 55.2363 4.30566 55.2393 4.87988L 55.2393 8L 54.7163 8L 54.7163 4.87549C 54.7134 4.45068 54.6226 4.13428 54.4438 3.92627C 54.2681 3.71826 53.9854 3.61426 53.5957 3.61426C 53.2705 3.61426 52.9819 3.7168 52.73 3.92188C 52.481 4.12402 52.2964 4.39795 52.1763 4.74365L 52.1763 8L 51.6533 8L 51.6533 3.24512L 52.1543 3.24512ZM 58.0825 7.2749L 59.5283 3.24512L 60.0688 3.24512L 58.2935 8L 57.8672 8L 56.083 3.24512L 56.6235 3.24512L 58.0825 7.2749ZM 60.5742 5.55225C 60.5742 5.09521 60.6621 4.68359 60.8379 4.31738C 61.0166 3.95117 61.2671 3.66699 61.5894 3.46484C 61.9146 3.25977 62.2822 3.15723 62.6924 3.15723C 63.3252 3.15723 63.8379 3.37988 64.2305 3.8252C 64.623 4.26758 64.8193 4.85498 64.8193 5.5874L 64.8193 5.69727C 64.8193 6.15723 64.73 6.57178 64.5513 6.94092C 64.3755 7.30713 64.1265 7.58984 63.8042 7.78906C 63.4819 7.98828 63.1143 8.08789 62.7012 8.08789C 62.0713 8.08789 61.5586 7.8667 61.1631 7.42432C 60.7705 6.979 60.5742 6.39014 60.5742 5.65771L 60.5742 5.55225ZM 61.1016 5.69727C 61.1016 6.26563 61.248 6.73291 61.541 7.09912C 61.8369 7.4624 62.2236 7.64404 62.7012 7.64404C 63.1758 7.64404 63.5596 7.4624 63.8525 7.09912C 64.1484 6.73291 64.2964 6.25098 64.2964 5.65332L 64.2964 5.55225C 64.2964 5.18896 64.229 4.85645 64.0942 4.55469C 63.9595 4.25293 63.7705 4.02002 63.5273 3.85596C 63.2842 3.68896 63.0059 3.60547 62.6924 3.60547C 62.2236 3.60547 61.8413 3.79004 61.5454 4.15918C 61.2495 4.52539 61.1016 5.00586 61.1016 5.60059L 61.1016 5.69727ZM 66.498 8L 65.9707 8L 65.9707 3.24512L 66.498 3.24512L 66.498 8ZM 65.8784 1.86963C 65.8784 1.77002 65.9106 1.68652 65.9751 1.61914C 66.0396 1.54883 66.1274 1.51367 66.2388 1.51367C 66.3501 1.51367 66.438 1.54883 66.5024 1.61914C 66.5698 1.68652 66.6035 1.77002 66.6035 1.86963C 66.6035 1.96924 66.5698 2.05273 66.5024 2.12012C 66.438 2.1875 66.3501 2.22119 66.2388 2.22119C 66.1274 2.22119 66.0396 2.1875 65.9751 2.12012C 65.9106 2.05273 65.8784 1.96924 65.8784 1.86963ZM 69.6885 7.64404C 70.0547 7.64404 70.3608 7.5415 70.6069 7.33643C 70.856 7.12842 70.9907 6.86035 71.0112 6.53223L 71.5166 6.53223C 71.502 6.82227 71.4111 7.0874 71.2441 7.32764C 71.0771 7.56494 70.8545 7.75098 70.5762 7.88574C 70.3008 8.02051 70.0049 8.08789 69.6885 8.08789C 69.0645 8.08789 68.5693 7.87109 68.2031 7.4375C 67.8398 7.00391 67.6582 6.4209 67.6582 5.68848L 67.6582 5.53027C 67.6582 5.06152 67.7402 4.64697 67.9043 4.28662C 68.0684 3.92627 68.3027 3.64795 68.6074 3.45166C 68.915 3.25537 69.2739 3.15723 69.6841 3.15723C 70.2056 3.15723 70.6348 3.3125 70.9717 3.62305C 71.3115 3.93359 71.4932 4.34229 71.5166 4.84912L 71.0112 4.84912C 70.9878 4.47705 70.853 4.17676 70.6069 3.94824C 70.3638 3.71973 70.0562 3.60547 69.6841 3.60547C 69.2095 3.60547 68.8403 3.77686 68.5767 4.11963C 68.3159 4.4624 68.1855 4.94287 68.1855 5.56104L 68.1855 5.71484C 68.1855 6.32129 68.3159 6.79443 68.5767 7.13428C 68.8403 7.47412 69.2109 7.64404 69.6885 7.64404ZM 74.4126 8.08789C 74.0083 8.08789 73.6421 7.98828 73.314 7.78906C 72.9888 7.58984 72.7354 7.31299 72.5537 6.9585C 72.3721 6.60107 72.2812 6.20117 72.2812 5.75879L 72.2812 5.56982C 72.2812 5.11279 72.3691 4.70117 72.5449 4.33496C 72.7236 3.96875 72.9712 3.68164 73.2876 3.47363C 73.604 3.2627 73.9468 3.15723 74.3159 3.15723C 74.8931 3.15723 75.3501 3.35498 75.687 3.75049C 76.0269 4.14307 76.1968 4.68066 76.1968 5.36328L 76.1968 5.65771L 72.8042 5.65771L 72.8042 5.75879C 72.8042 6.29785 72.958 6.74756 73.2656 7.10791C 73.5762 7.46533 73.9658 7.64404 74.4346 7.64404C 74.7158 7.64404 74.9634 7.59277 75.1772 7.49023C 75.394 7.3877 75.5903 7.22363 75.7661 6.99805L 76.0957 7.24854C 75.709 7.80811 75.1479 8.08789 74.4126 8.08789ZM 74.3159 3.60547C 73.9204 3.60547 73.5864 3.75049 73.314 4.04053C 73.0444 4.33057 72.8804 4.72021 72.8218 5.20947L 75.6738 5.20947L 75.6738 5.15234C 75.6592 4.69531 75.5288 4.32324 75.2827 4.03613C 75.0366 3.74902 74.7144 3.60547 74.3159 3.60547ZM 87.2402 6.09717L 84.6167 6.09717L 84.6167 5.6709L 87.2402 5.6709L 87.2402 6.09717ZM 84.4761 3.02539C 84.4761 2.57715 84.605 2.2168 84.8628 1.94434C 85.1235 1.66895 85.4678 1.53125 85.8955 1.53125C 86.3232 1.53125 86.6675 1.66748 86.9282 1.93994C 87.189 2.2124 87.3193 2.58154 87.3193 3.04736L 87.3193 3.5C 87.3193 3.94238 87.1919 4.30127 86.937 4.57666C 86.6821 4.84912 86.3379 4.98535 85.9043 4.98535C 85.4678 4.98535 85.1206 4.84912 84.8628 4.57666C 84.605 4.3042 84.4761 3.93945 84.4761 3.48242L 84.4761 3.02539ZM 84.9507 3.5C 84.9507 3.83398 85.0342 4.09619 85.2012 4.28662C 85.3682 4.47412 85.6025 4.56787 85.9043 4.56787C 86.1914 4.56787 86.4199 4.47412 86.5898 4.28662C 86.7598 4.09912 86.8447 3.83252 86.8447 3.48682L 86.8447 3.02539C 86.8447 2.69727 86.7612 2.43799 86.5942 2.24756C 86.4272 2.0542 86.1943 1.95752 85.8955 1.95752C 85.5967 1.95752 85.3638 2.05566 85.1968 2.25195C 85.0327 2.44531 84.9507 2.71045 84.9507 3.04736L 84.9507 3.5ZM 83.6323 8L 83.0654 8L 80.0288 2.52441L 80.0288 8L 79.5015 8L 79.5015 1.60156L 80.0684 1.60156L 83.1138 7.08154L 83.1138 1.60156L 83.6323 1.60156L 83.6323 8ZM 92.5093 8L 88.5015 8L 88.5015 7.5957L 90.6943 5.1084C 91.0576 4.68945 91.3096 4.34375 91.4502 4.07129C 91.5908 3.79883 91.6611 3.53369 91.6611 3.27588C 91.6611 2.87158 91.5425 2.55225 91.3052 2.31787C 91.0679 2.08057 90.7412 1.96191 90.3252 1.96191C 89.8945 1.96191 89.5459 2.09961 89.2793 2.375C 89.0156 2.65039 88.8838 3.00781 88.8838 3.44727L 88.3608 3.44727C 88.3608 3.08691 88.4414 2.75879 88.6025 2.46289C 88.7666 2.16699 88.998 1.93555 89.2969 1.76855C 89.5986 1.59863 89.9414 1.51367 90.3252 1.51367C 90.9111 1.51367 91.3682 1.66748 91.6963 1.9751C 92.0273 2.28271 92.1929 2.70166 92.1929 3.23193C 92.1929 3.53076 92.0991 3.85742 91.9116 4.21191C 91.7271 4.56641 91.4004 5.00879 90.9316 5.53906L 89.1475 7.55615L 92.5093 7.55615L 92.5093 8ZM 97.3521 5.33252C 97.3521 6.23486 97.1865 6.92041 96.8555 7.38916C 96.5244 7.85498 96.0366 8.08789 95.3921 8.08789C 94.7593 8.08789 94.2744 7.85938 93.9375 7.40234C 93.6006 6.94238 93.4277 6.27441 93.4189 5.39844L 93.4189 4.25146C 93.4189 3.35205 93.5859 2.6709 93.9199 2.20801C 94.2539 1.74512 94.7417 1.51367 95.3833 1.51367C 96.0161 1.51367 96.4995 1.73779 96.8335 2.18604C 97.1675 2.63135 97.3403 3.28906 97.3521 4.15918L 97.3521 5.33252ZM 96.8247 4.18555C 96.8247 3.45313 96.7046 2.89941 96.4644 2.52441C 96.2271 2.14941 95.8667 1.96191 95.3833 1.96191C 94.9087 1.96191 94.5513 2.14502 94.311 2.51123C 94.0708 2.87744 93.9478 3.41797 93.9419 4.13281L 93.9419 5.38965C 93.9419 6.11914 94.0649 6.67725 94.311 7.06396C 94.5601 7.45068 94.9204 7.64404 95.3921 7.64404C 95.8608 7.64404 96.2153 7.45508 96.4556 7.07715C 96.6987 6.69922 96.8218 6.14551 96.8247 5.41602L 96.8247 4.18555ZM 98.8418 4.72168L 99.1538 1.60156L 102.353 1.60156L 102.353 2.08936L 99.6064 2.08936L 99.3823 4.25146C 99.7251 4.01709 100.126 3.8999 100.586 3.8999C 101.164 3.8999 101.624 4.0874 101.966 4.4624C 102.309 4.8374 102.48 5.33691 102.48 5.96094C 102.48 6.63477 102.313 7.15771 101.979 7.52979C 101.646 7.90186 101.175 8.08789 100.569 8.08789C 100.012 8.08789 99.561 7.93262 99.2153 7.62207C 98.8696 7.31152 98.6719 6.87646 98.6221 6.31689L 99.1274 6.31689C 99.1772 6.75342 99.3252 7.08447 99.5713 7.31006C 99.8174 7.53271 100.15 7.64404 100.569 7.64404C 101.026 7.64404 101.37 7.49902 101.602 7.20898C 101.836 6.91895 101.953 6.50586 101.953 5.96973C 101.953 5.50098 101.823 5.11865 101.562 4.82275C 101.301 4.52686 100.945 4.37891 100.494 4.37891C 100.245 4.37891 100.028 4.41113 99.8438 4.47559C 99.6592 4.53711 99.4644 4.65869 99.2593 4.84033L 98.8418 4.72168ZM 106.761 5.03809C 106.573 5.31348 106.34 5.52734 106.062 5.67969C 105.784 5.8291 105.482 5.90381 105.157 5.90381C 104.793 5.90381 104.473 5.81006 104.194 5.62256C 103.916 5.43506 103.701 5.17578 103.548 4.84473C 103.396 4.51367 103.32 4.15186 103.32 3.75928C 103.32 3.3374 103.4 2.95361 103.562 2.60791C 103.726 2.26221 103.953 1.99414 104.243 1.80371C 104.536 1.61035 104.873 1.51367 105.253 1.51367C 105.895 1.51367 106.395 1.73926 106.752 2.19043C 107.109 2.63867 107.288 3.27588 107.288 4.10205L 107.288 4.57666C 107.288 5.73096 107.042 6.59814 106.55 7.17822C 106.058 7.7583 105.306 8.04834 104.295 8.04834L 104.199 8.04834L 104.203 7.59131L 104.388 7.59131C 105.152 7.57959 105.734 7.36279 106.132 6.94092C 106.531 6.51904 106.74 5.88477 106.761 5.03809ZM 105.223 5.45117C 105.574 5.45117 105.889 5.34717 106.167 5.13916C 106.449 4.92822 106.648 4.65576 106.765 4.32178L 106.765 4.01855C 106.765 3.36816 106.629 2.86426 106.356 2.50684C 106.087 2.14648 105.722 1.96631 105.262 1.96631C 104.846 1.96631 104.505 2.13477 104.238 2.47168C 103.972 2.80566 103.838 3.22754 103.838 3.7373C 103.838 4.22656 103.966 4.63525 104.221 4.96338C 104.479 5.28857 104.812 5.45117 105.223 5.45117ZM 111.265 4.04932C 111.438 3.76514 111.659 3.54541 111.929 3.39014C 112.198 3.23486 112.493 3.15723 112.812 3.15723C 113.322 3.15723 113.701 3.30078 113.95 3.58789C 114.199 3.875 114.325 4.30566 114.328 4.87988L 114.328 8L 113.805 8L 113.805 4.87549C 113.802 4.45068 113.711 4.13428 113.533 3.92627C 113.357 3.71826 113.074 3.61426 112.685 3.61426C 112.359 3.61426 112.071 3.7168 111.819 3.92188C 111.57 4.12402 111.385 4.39795 111.265 4.74365L 111.265 8L 110.742 8L 110.742 1.25L 111.265 1.25L 111.265 4.04932ZM 118.683 8C 118.63 7.85059 118.597 7.62939 118.582 7.33643C 118.397 7.57666 118.162 7.7627 117.875 7.89453C 117.59 8.02344 117.289 8.08789 116.969 8.08789C 116.512 8.08789 116.142 7.96045 115.857 7.70557C 115.576 7.45068 115.436 7.12842 115.436 6.73877C 115.436 6.27588 115.627 5.90967 116.011 5.64014C 116.398 5.37061 116.936 5.23584 117.624 5.23584L 118.578 5.23584L 118.578 4.69531C 118.578 4.35547 118.472 4.08887 118.261 3.89551C 118.053 3.69922 117.749 3.60107 117.347 3.60107C 116.981 3.60107 116.678 3.69482 116.438 3.88232C 116.197 4.06982 116.077 4.29541 116.077 4.55908L 115.55 4.55469C 115.55 4.17676 115.726 3.8501 116.077 3.57471C 116.429 3.29639 116.861 3.15723 117.374 3.15723C 117.904 3.15723 118.321 3.29053 118.626 3.55713C 118.934 3.8208 119.092 4.18994 119.101 4.66455L 119.101 6.91455C 119.101 7.37451 119.149 7.71875 119.246 7.94727L 119.246 8L 118.683 8ZM 117.031 7.62207C 117.382 7.62207 117.696 7.53711 117.971 7.36719C 118.25 7.19727 118.452 6.97021 118.578 6.68604L 118.578 5.64014L 117.637 5.64014C 117.113 5.646 116.703 5.74268 116.407 5.93018C 116.111 6.11475 115.963 6.36963 115.963 6.69482C 115.963 6.96143 116.061 7.18262 116.257 7.3584C 116.457 7.53418 116.714 7.62207 117.031 7.62207ZM 123.354 6.7915C 123.354 6.53076 123.249 6.32129 123.038 6.16309C 122.83 6.00488 122.515 5.88184 122.093 5.79395C 121.671 5.70312 121.343 5.60059 121.109 5.48633C 120.877 5.36914 120.705 5.22705 120.59 5.06006C 120.479 4.89307 120.423 4.69092 120.423 4.45361C 120.423 4.07861 120.58 3.76953 120.894 3.52637C 121.207 3.28027 121.608 3.15723 122.098 3.15723C 122.628 3.15723 123.053 3.28906 123.372 3.55273C 123.694 3.81348 123.855 4.15479 123.855 4.57666L 123.328 4.57666C 123.328 4.29834 123.211 4.06689 122.977 3.88232C 122.745 3.69775 122.452 3.60547 122.098 3.60547C 121.752 3.60547 121.474 3.68311 121.263 3.83838C 121.055 3.99072 120.951 4.18994 120.951 4.43604C 120.951 4.67334 121.037 4.85791 121.21 4.98975C 121.386 5.11865 121.704 5.2373 122.164 5.3457C 122.626 5.4541 122.972 5.56982 123.201 5.69287C 123.432 5.81592 123.604 5.96387 123.715 6.13672C 123.826 6.30957 123.882 6.51904 123.882 6.76514C 123.882 7.1665 123.719 7.4873 123.394 7.72754C 123.072 7.96777 122.65 8.08789 122.128 8.08789C 121.575 8.08789 121.125 7.95459 120.779 7.68799C 120.437 7.41846 120.265 7.07861 120.265 6.66846L 120.792 6.66846C 120.813 6.97607 120.942 7.21631 121.179 7.38916C 121.419 7.55908 121.736 7.64404 122.128 7.64404C 122.495 7.64404 122.791 7.56348 123.016 7.40234C 123.242 7.24121 123.354 7.0376 123.354 6.7915ZM 131.084 5.6709C 131.084 6.41211 130.92 7.00098 130.592 7.4375C 130.264 7.87109 129.823 8.08789 129.27 8.08789C 128.607 8.08789 128.106 7.8418 127.767 7.34961L 127.745 8L 127.252 8L 127.252 1.25L 127.775 1.25L 127.775 3.93506C 128.109 3.4165 128.604 3.15723 129.261 3.15723C 129.823 3.15723 130.267 3.37256 130.592 3.80322C 130.92 4.23096 131.084 4.82715 131.084 5.5918L 131.084 5.6709ZM 130.557 5.57861C 130.557 4.95166 130.436 4.46826 130.192 4.12842C 129.949 3.78564 129.606 3.61426 129.164 3.61426C 128.827 3.61426 128.542 3.69775 128.307 3.86475C 128.073 4.02881 127.896 4.27051 127.775 4.58984L 127.775 6.73438C 128.039 7.33203 128.505 7.63086 129.173 7.63086C 129.606 7.63086 129.945 7.45947 130.188 7.1167C 130.434 6.77393 130.557 6.26123 130.557 5.57861ZM 134.09 8.08789C 133.686 8.08789 133.32 7.98828 132.992 7.78906C 132.667 7.58984 132.413 7.31299 132.231 6.9585C 132.05 6.60107 131.959 6.20117 131.959 5.75879L 131.959 5.56982C 131.959 5.11279 132.047 4.70117 132.223 4.33496C 132.401 3.96875 132.649 3.68164 132.965 3.47363C 133.282 3.2627 133.625 3.15723 133.994 3.15723C 134.571 3.15723 135.028 3.35498 135.365 3.75049C 135.705 4.14307 135.875 4.68066 135.875 5.36328L 135.875 5.65771L 132.482 5.65771L 132.482 5.75879C 132.482 6.29785 132.636 6.74756 132.943 7.10791C 133.254 7.46533 133.644 7.64404 134.112 7.64404C 134.394 7.64404 134.641 7.59277 134.855 7.49023C 135.072 7.3877 135.268 7.22363 135.444 6.99805L 135.773 7.24854C 135.387 7.80811 134.826 8.08789 134.09 8.08789ZM 133.994 3.60547C 133.598 3.60547 133.264 3.75049 132.992 4.04053C 132.722 4.33057 132.558 4.72021 132.5 5.20947L 135.352 5.20947L 135.352 5.15234C 135.337 4.69531 135.207 4.32324 134.96 4.03613C 134.714 3.74902 134.392 3.60547 133.994 3.60547ZM 138.74 8.08789C 138.335 8.08789 137.969 7.98828 137.641 7.78906C 137.316 7.58984 137.062 7.31299 136.881 6.9585C 136.699 6.60107 136.608 6.20117 136.608 5.75879L 136.608 5.56982C 136.608 5.11279 136.696 4.70117 136.872 4.33496C 137.051 3.96875 137.298 3.68164 137.615 3.47363C 137.931 3.2627 138.274 3.15723 138.643 3.15723C 139.22 3.15723 139.677 3.35498 140.014 3.75049C 140.354 4.14307 140.524 4.68066 140.524 5.36328L 140.524 5.65771L 137.131 5.65771L 137.131 5.75879C 137.131 6.29785 137.285 6.74756 137.593 7.10791C 137.903 7.46533 138.293 7.64404 138.762 7.64404C 139.043 7.64404 139.291 7.59277 139.504 7.49023C 139.721 7.3877 139.917 7.22363 140.093 6.99805L 140.423 7.24854C 140.036 7.80811 139.475 8.08789 138.74 8.08789ZM 138.643 3.60547C 138.248 3.60547 137.914 3.75049 137.641 4.04053C 137.372 4.33057 137.208 4.72021 137.149 5.20947L 140.001 5.20947L 140.001 5.15234C 139.986 4.69531 139.856 4.32324 139.61 4.03613C 139.364 3.74902 139.042 3.60547 138.643 3.60547ZM 142.049 3.24512L 142.066 4.05811C 142.245 3.76514 142.468 3.54248 142.734 3.39014C 143.001 3.23486 143.295 3.15723 143.618 3.15723C 144.127 3.15723 144.507 3.30078 144.756 3.58789C 145.005 3.875 145.131 4.30566 145.134 4.87988L 145.134 8L 144.611 8L 144.611 4.87549C 144.608 4.45068 144.517 4.13428 144.338 3.92627C 144.163 3.71826 143.88 3.61426 143.49 3.61426C 143.165 3.61426 142.876 3.7168 142.625 3.92188C 142.375 4.12402 142.191 4.39795 142.071 4.74365L 142.071 8L 141.548 8L 141.548 3.24512L 142.049 3.24512ZM 4.50879 16.6709C 4.50879 17.4121 4.34473 18.001 4.0166 18.4375C 3.68848 18.8711 3.24902 19.0879 2.69824 19.0879C 2.04785 19.0879 1.5498 18.8594 1.2041 18.4023L 1.2041 20.8281L 0.681152 20.8281L 0.681152 14.2451L 1.16895 14.2451L 1.19531 14.9175C 1.53809 14.4106 2.03467 14.1572 2.68506 14.1572C 3.25342 14.1572 3.69873 14.3726 4.021 14.8032C 4.34619 15.2339 4.50879 15.8315 4.50879 16.5962L 4.50879 16.6709ZM 3.98145 16.5786C 3.98145 15.9722 3.85693 15.4932 3.60791 15.1416C 3.35889 14.79 3.01172 14.6143 2.56641 14.6143C 2.24414 14.6143 1.96729 14.6919 1.73584 14.8472C 1.50439 15.0024 1.32715 15.228 1.2041 15.5239L 1.2041 17.8047C 1.33008 18.0771 1.51025 18.2852 1.74463 18.4287C 1.979 18.5723 2.25586 18.644 2.5752 18.644C 3.01758 18.644 3.36182 18.4683 3.60791 18.1167C 3.85693 17.7622 3.98145 17.2495 3.98145 16.5786ZM 8.6792 19C 8.62646 18.8506 8.59277 18.6294 8.57812 18.3364C 8.39355 18.5767 8.15771 18.7627 7.87061 18.8945C 7.58643 19.0234 7.28467 19.0879 6.96533 19.0879C 6.5083 19.0879 6.1377 18.9604 5.85352 18.7056C 5.57227 18.4507 5.43164 18.1284 5.43164 17.7388C 5.43164 17.2759 5.62354 16.9097 6.00732 16.6401C 6.39404 16.3706 6.93164 16.2358 7.62012 16.2358L 8.57373 16.2358L 8.57373 15.6953C 8.57373 15.3555 8.46826 15.0889 8.25732 14.8955C 8.04932 14.6992 7.74463 14.6011 7.34326 14.6011C 6.97705 14.6011 6.67383 14.6948 6.43359 14.8823C 6.19336 15.0698 6.07324 15.2954 6.07324 15.5591L 5.5459 15.5547C 5.5459 15.1768 5.72168 14.8501 6.07324 14.5747C 6.4248 14.2964 6.85693 14.1572 7.36963 14.1572C 7.8999 14.1572 8.31738 14.2905 8.62207 14.5571C 8.92969 14.8208 9.08789 15.1899 9.09668 15.6646L 9.09668 17.9146C 9.09668 18.3745 9.14502 18.7188 9.2417 18.9473L 9.2417 19L 8.6792 19ZM 7.02686 18.6221C 7.37842 18.6221 7.69189 18.5371 7.96729 18.3672C 8.24561 18.1973 8.44775 17.9702 8.57373 17.686L 8.57373 16.6401L 7.6333 16.6401C 7.10889 16.646 6.69873 16.7427 6.40283 16.9302C 6.10693 17.1147 5.95898 17.3696 5.95898 17.6948C 5.95898 17.9614 6.05713 18.1826 6.25342 18.3584C 6.45264 18.5342 6.71045 18.6221 7.02686 18.6221ZM 11.0918 19L 10.5645 19L 10.5645 14.2451L 11.0918 14.2451L 11.0918 19ZM 10.4722 12.8696C 10.4722 12.77 10.5044 12.6865 10.5688 12.6191C 10.6333 12.5488 10.7212 12.5137 10.8325 12.5137C 10.9438 12.5137 11.0317 12.5488 11.0962 12.6191C 11.1636 12.6865 11.1973 12.77 11.1973 12.8696C 11.1973 12.9692 11.1636 13.0527 11.0962 13.1201C 11.0317 13.1875 10.9438 13.2212 10.8325 13.2212C 10.7212 13.2212 10.6333 13.1875 10.5688 13.1201C 10.5044 13.0527 10.4722 12.9692 10.4722 12.8696ZM 12.3135 16.5786C 12.3135 15.8403 12.4775 15.2529 12.8057 14.8164C 13.1367 14.377 13.585 14.1572 14.1504 14.1572C 14.792 14.1572 15.2812 14.4106 15.6182 14.9175L 15.6182 12.25L 16.1411 12.25L 16.1411 19L 15.6489 19L 15.627 18.3672C 15.29 18.8477 14.7949 19.0879 14.1416 19.0879C 13.5938 19.0879 13.1514 18.8682 12.8145 18.4287C 12.4805 17.9863 12.3135 17.3901 12.3135 16.6401L 12.3135 16.5786ZM 12.8452 16.6709C 12.8452 17.2773 12.9668 17.7563 13.21 18.1079C 13.4531 18.4565 13.7959 18.6309 14.2383 18.6309C 14.8857 18.6309 15.3457 18.3452 15.6182 17.7739L 15.6182 15.5415C 15.3457 14.9233 14.8887 14.6143 14.2471 14.6143C 13.8047 14.6143 13.4604 14.7886 13.2144 15.1372C 12.9683 15.4829 12.8452 15.9941 12.8452 16.6709ZM 17.4155 20.1953L 17.1035 19.9668C 17.3701 19.6094 17.5078 19.2388 17.5166 18.855L 17.5166 18.1738L 18.0308 18.1738L 18.0308 18.7231C 18.0308 19.3325 17.8257 19.8232 17.4155 20.1953ZM 24.438 19C 24.3853 18.8506 24.3516 18.6294 24.3369 18.3364C 24.1523 18.5767 23.9165 18.7627 23.6294 18.8945C 23.3452 19.0234 23.0435 19.0879 22.7241 19.0879C 22.2671 19.0879 21.8965 18.9604 21.6123 18.7056C 21.3311 18.4507 21.1904 18.1284 21.1904 17.7388C 21.1904 17.2759 21.3823 16.9097 21.7661 16.6401C 22.1528 16.3706 22.6904 16.2358 23.3789 16.2358L 24.3325 16.2358L 24.3325 15.6953C 24.3325 15.3555 24.2271 15.0889 24.0161 14.8955C 23.8081 14.6992 23.5034 14.6011 23.1021 14.6011C 22.7358 14.6011 22.4326 14.6948 22.1924 14.8823C 21.9521 15.0698 21.832 15.2954 21.832 15.5591L 21.3047 15.5547C 21.3047 15.1768 21.4805 14.8501 21.832 14.5747C 22.1836 14.2964 22.6157 14.1572 23.1284 14.1572C 23.6587 14.1572 24.0762 14.2905 24.3809 14.5571C 24.6885 14.8208 24.8467 15.1899 24.8555 15.6646L 24.8555 17.9146C 24.8555 18.3745 24.9038 18.7188 25.0005 18.9473L 25.0005 19L 24.438 19ZM 22.7856 18.6221C 23.1372 18.6221 23.4507 18.5371 23.7261 18.3672C 24.0044 18.1973 24.2065 17.9702 24.3325 17.686L 24.3325 16.6401L 23.3921 16.6401C 22.8677 16.646 22.4575 16.7427 22.1616 16.9302C 21.8657 17.1147 21.7178 17.3696 21.7178 17.6948C 21.7178 17.9614 21.8159 18.1826 22.0122 18.3584C 22.2114 18.5342 22.4692 18.6221 22.7856 18.6221ZM 26.7407 14.2451L 26.7583 15.0186C 26.9341 14.7314 27.1538 14.5161 27.4175 14.3726C 27.6812 14.229 27.9741 14.1572 28.2964 14.1572C 29.0464 14.1572 29.5225 14.4648 29.7246 15.0801C 29.8945 14.7842 30.1216 14.5571 30.4058 14.3989C 30.6899 14.2378 31.0034 14.1572 31.3462 14.1572C 32.3657 14.1572 32.8857 14.7139 32.9062 15.8271L 32.9062 19L 32.3789 19L 32.3789 15.8667C 32.376 15.4419 32.2837 15.127 32.1021 14.9219C 31.9233 14.7168 31.6304 14.6143 31.2231 14.6143C 30.8452 14.6201 30.5259 14.7432 30.2651 14.9834C 30.0044 15.2207 29.8594 15.5107 29.8301 15.8535L 29.8301 19L 29.3027 19L 29.3027 15.8271C 29.2998 15.4199 29.2031 15.1167 29.0127 14.9175C 28.8252 14.7153 28.5352 14.6143 28.1426 14.6143C 27.8115 14.6143 27.5273 14.7095 27.29 14.8999C 27.0527 15.0874 26.877 15.3672 26.7627 15.7393L 26.7627 19L 26.2354 19L 26.2354 14.2451L 26.7407 14.2451ZM 33.9521 16.5522C 33.9521 16.0952 34.04 15.6836 34.2158 15.3174C 34.3945 14.9512 34.645 14.667 34.9673 14.4648C 35.2925 14.2598 35.6602 14.1572 36.0703 14.1572C 36.7031 14.1572 37.2158 14.3799 37.6084 14.8252C 38.001 15.2676 38.1973 15.855 38.1973 16.5874L 38.1973 16.6973C 38.1973 17.1572 38.1079 17.5718 37.9292 17.9409C 37.7534 18.3071 37.5044 18.5898 37.1821 18.7891C 36.8599 18.9883 36.4922 19.0879 36.0791 19.0879C 35.4492 19.0879 34.9365 18.8667 34.541 18.4243C 34.1484 17.979 33.9521 17.3901 33.9521 16.6577L 33.9521 16.5522ZM 34.4795 16.6973C 34.4795 17.2656 34.626 17.7329 34.9189 18.0991C 35.2148 18.4624 35.6016 18.644 36.0791 18.644C 36.5537 18.644 36.9375 18.4624 37.2305 18.0991C 37.5264 17.7329 37.6743 17.251 37.6743 16.6533L 37.6743 16.5522C 37.6743 16.189 37.6069 15.8564 37.4722 15.5547C 37.3374 15.2529 37.1484 15.02 36.9053 14.856C 36.6621 14.689 36.3838 14.6055 36.0703 14.6055C 35.6016 14.6055 35.2192 14.79 34.9233 15.1592C 34.6274 15.5254 34.4795 16.0059 34.4795 16.6006L 34.4795 16.6973ZM 42.3457 18.3979C 42.0293 18.8579 41.5239 19.0879 40.8296 19.0879C 40.3228 19.0879 39.9375 18.9414 39.6738 18.6484C 39.4102 18.3525 39.2754 17.916 39.2695 17.3389L 39.2695 14.2451L 39.7925 14.2451L 39.7925 17.2729C 39.7925 18.1782 40.1587 18.6309 40.8911 18.6309C 41.6528 18.6309 42.1348 18.3159 42.3369 17.686L 42.3369 14.2451L 42.8643 14.2451L 42.8643 19L 42.3545 19L 42.3457 18.3979ZM 44.7363 14.2451L 44.7539 15.0581C 44.9326 14.7651 45.1553 14.5425 45.4219 14.3901C 45.6885 14.2349 45.9829 14.1572 46.3052 14.1572C 46.8149 14.1572 47.1943 14.3008 47.4434 14.5879C 47.6924 14.875 47.8184 15.3057 47.8213 15.8799L 47.8213 19L 47.2983 19L 47.2983 15.8755C 47.2954 15.4507 47.2046 15.1343 47.0259 14.9263C 46.8501 14.7183 46.5674 14.6143 46.1777 14.6143C 45.8525 14.6143 45.564 14.7168 45.312 14.9219C 45.063 15.124 44.8784 15.3979 44.7583 15.7437L 44.7583 19L 44.2354 19L 44.2354 14.2451L 44.7363 14.2451ZM 50.001 13.0278L 50.001 14.2451L 50.9854 14.2451L 50.9854 14.6758L 50.001 14.6758L 50.001 17.8442C 50.001 18.1079 50.0479 18.3042 50.1416 18.4331C 50.2383 18.562 50.3979 18.6265 50.6206 18.6265C 50.7085 18.6265 50.8506 18.6118 51.0469 18.5825L 51.0688 19.0132C 50.9312 19.063 50.7437 19.0879 50.5063 19.0879C 50.146 19.0879 49.8838 18.9839 49.7197 18.7759C 49.5557 18.5649 49.4736 18.2559 49.4736 17.8486L 49.4736 14.6758L 48.5991 14.6758L 48.5991 14.2451L 49.4736 14.2451L 49.4736 13.0278L 50.001 13.0278ZM 57.1685 16.5259L 55.3271 16.5259L 55.3271 16.6006C 55.3271 17.248 55.4854 17.749 55.8018 18.1035C 56.1211 18.458 56.5708 18.6353 57.1509 18.6353C 57.4937 18.6353 57.8145 18.5854 58.1133 18.4858L 58.1572 18.9561C 57.8174 19.0439 57.4805 19.0879 57.1465 19.0879C 56.417 19.0879 55.8428 18.8726 55.4238 18.4419C 55.0078 18.0112 54.7954 17.4121 54.7866 16.6445L 54.7866 16.5259L 53.9429 16.5259L 53.9429 16.1348L 54.7866 16.1348L 54.7866 15.4141L 53.9429 15.4141L 53.9429 15.0186L 54.7866 15.0186C 54.7866 14.2275 54.9961 13.6123 55.415 13.1729C 55.834 12.7334 56.4082 12.5137 57.1377 12.5137C 57.4277 12.5137 57.7676 12.5591 58.1572 12.6499L 58.1133 13.1289C 57.7852 13.0264 57.4614 12.9751 57.1421 12.9751C 56.562 12.9751 56.1138 13.1494 55.7974 13.498C 55.4839 13.8437 55.3271 14.3506 55.3271 15.0186L 57.1685 15.0186L 57.1685 15.4141L 55.3271 15.4141L 55.3271 16.1348L 57.1685 16.1348L 57.1685 16.5259ZM 63.1802 19L 59.1724 19L 59.1724 18.5957L 61.3652 16.1084C 61.7285 15.6895 61.9805 15.3438 62.1211 15.0713C 62.2617 14.7988 62.332 14.5337 62.332 14.2759C 62.332 13.8716 62.2134 13.5522 61.9761 13.3179C 61.7388 13.0806 61.4121 12.9619 60.9961 12.9619C 60.5654 12.9619 60.2168 13.0996 59.9502 13.375C 59.6865 13.6504 59.5547 14.0078 59.5547 14.4473L 59.0317 14.4473C 59.0317 14.0869 59.1123 13.7588 59.2734 13.4629C 59.4375 13.167 59.6689 12.9355 59.9678 12.7686C 60.2695 12.5986 60.6123 12.5137 60.9961 12.5137C 61.582 12.5137 62.0391 12.6675 62.3672 12.9751C 62.6982 13.2827 62.8638 13.7017 62.8638 14.2319C 62.8638 14.5308 62.77 14.8574 62.5825 15.2119C 62.3979 15.5664 62.0713 16.0088 61.6025 16.5391L 59.8184 18.5562L 63.1802 18.5562L 63.1802 19ZM 67.9351 14.2495C 67.9351 14.5806 67.8384 14.8779 67.645 15.1416C 67.4517 15.4023 67.1968 15.5942 66.8804 15.7173C 67.2495 15.8433 67.5454 16.0469 67.7681 16.3281C 67.9907 16.6094 68.1021 16.9346 68.1021 17.3037C 68.1021 17.8516 67.916 18.2866 67.5439 18.6089C 67.1719 18.9282 66.6797 19.0879 66.0674 19.0879C 65.4492 19.0879 64.9541 18.9282 64.582 18.6089C 64.2129 18.2896 64.0283 17.8545 64.0283 17.3037C 64.0283 16.9404 64.1353 16.6167 64.3491 16.3325C 64.563 16.0483 64.856 15.8433 65.228 15.7173C 64.9116 15.5942 64.6597 15.4023 64.4722 15.1416C 64.2847 14.8779 64.1909 14.5806 64.1909 14.2495C 64.1909 13.7192 64.3608 13.2974 64.7007 12.9839C 65.0435 12.6704 65.4961 12.5137 66.0586 12.5137C 66.6211 12.5137 67.0737 12.6719 67.4165 12.9883C 67.7622 13.3047 67.9351 13.7251 67.9351 14.2495ZM 67.5747 17.3081C 67.5747 16.9097 67.4326 16.583 67.1484 16.3281C 66.8643 16.0703 66.501 15.9414 66.0586 15.9414C 65.6162 15.9414 65.2544 16.0674 64.9731 16.3193C 64.6919 16.5713 64.5513 16.9009 64.5513 17.3081C 64.5513 17.7153 64.6875 18.0405 64.96 18.2837C 65.2324 18.5239 65.6016 18.644 66.0674 18.644C 66.5215 18.644 66.8862 18.5239 67.1616 18.2837C 67.437 18.0435 67.5747 17.7183 67.5747 17.3081ZM 67.4077 14.2451C 67.4077 13.8789 67.2803 13.5742 67.0254 13.3311C 66.7734 13.085 66.4512 12.9619 66.0586 12.9619C 65.6602 12.9619 65.3364 13.0806 65.0874 13.3179C 64.8413 13.5522 64.7183 13.8613 64.7183 14.2451C 64.7183 14.6201 64.8413 14.9219 65.0874 15.1504C 65.3364 15.3789 65.6616 15.4932 66.063 15.4932C 66.4585 15.4932 66.7808 15.3789 67.0298 15.1504C 67.2817 14.9189 67.4077 14.6172 67.4077 14.2451ZM 73.1646 19L 69.1567 19L 69.1567 18.5957L 71.3496 16.1084C 71.7129 15.6895 71.9648 15.3438 72.1055 15.0713C 72.2461 14.7988 72.3164 14.5337 72.3164 14.2759C 72.3164 13.8716 72.1978 13.5522 71.9604 13.3179C 71.7231 13.0806 71.3965 12.9619 70.9805 12.9619C 70.5498 12.9619 70.2012 13.0996 69.9346 13.375C 69.6709 13.6504 69.5391 14.0078 69.5391 14.4473L 69.0161 14.4473C 69.0161 14.0869 69.0967 13.7588 69.2578 13.4629C 69.4219 13.167 69.6533 12.9355 69.9521 12.7686C 70.2539 12.5986 70.5967 12.5137 70.9805 12.5137C 71.5664 12.5137 72.0234 12.6675 72.3516 12.9751C 72.6826 13.2827 72.8481 13.7017 72.8481 14.2319C 72.8481 14.5308 72.7544 14.8574 72.5669 15.2119C 72.3823 15.5664 72.0557 16.0088 71.5869 16.5391L 69.8027 18.5562L 73.1646 18.5562L 73.1646 19ZM 74.1841 18.6836C 74.1841 18.5811 74.2163 18.4946 74.2808 18.4243C 74.3481 18.3511 74.4404 18.3145 74.5576 18.3145C 74.6748 18.3145 74.7671 18.3511 74.8345 18.4243C 74.9019 18.4946 74.9355 18.5811 74.9355 18.6836C 74.9355 18.7861 74.9019 18.8711 74.8345 18.9385C 74.7671 19.0029 74.6748 19.0352 74.5576 19.0352C 74.4404 19.0352 74.3481 19.0029 74.2808 18.9385C 74.2163 18.8711 74.1841 18.7861 74.1841 18.6836ZM 80.1606 16.3325C 80.1606 17.2349 79.9951 17.9204 79.6641 18.3892C 79.333 18.855 78.8452 19.0879 78.2007 19.0879C 77.5679 19.0879 77.083 18.8594 76.7461 18.4023C 76.4092 17.9424 76.2363 17.2744 76.2275 16.3984L 76.2275 15.2515C 76.2275 14.3521 76.3945 13.6709 76.7285 13.208C 77.0625 12.7451 77.5503 12.5137 78.1919 12.5137C 78.8247 12.5137 79.3081 12.7378 79.6421 13.186C 79.9761 13.6313 80.1489 14.2891 80.1606 15.1592L 80.1606 16.3325ZM 79.6333 15.1855C 79.6333 14.4531 79.5132 13.8994 79.2729 13.5244C 79.0356 13.1494 78.6753 12.9619 78.1919 12.9619C 77.7173 12.9619 77.3599 13.145 77.1196 13.5112C 76.8794 13.8774 76.7563 14.418 76.7505 15.1328L 76.7505 16.3896C 76.7505 17.1191 76.8735 17.6772 77.1196 18.064C 77.3687 18.4507 77.729 18.644 78.2007 18.644C 78.6694 18.644 79.0239 18.4551 79.2642 18.0771C 79.5073 17.6992 79.6304 17.1455 79.6333 16.416L 79.6333 15.1855ZM 85.1528 16.3325C 85.1528 17.2349 84.9873 17.9204 84.6562 18.3892C 84.3252 18.855 83.8374 19.0879 83.1929 19.0879C 82.5601 19.0879 82.0752 18.8594 81.7383 18.4023C 81.4014 17.9424 81.2285 17.2744 81.2197 16.3984L 81.2197 15.2515C 81.2197 14.3521 81.3867 13.6709 81.7207 13.208C 82.0547 12.7451 82.5425 12.5137 83.1841 12.5137C 83.8169 12.5137 84.3003 12.7378 84.6343 13.186C 84.9683 13.6313 85.1411 14.2891 85.1528 15.1592L 85.1528 16.3325ZM 84.6255 15.1855C 84.6255 14.4531 84.5054 13.8994 84.2651 13.5244C 84.0278 13.1494 83.6675 12.9619 83.1841 12.9619C 82.7095 12.9619 82.3521 13.145 82.1118 13.5112C 81.8716 13.8774 81.7485 14.418 81.7427 15.1328L 81.7427 16.3896C 81.7427 17.1191 81.8657 17.6772 82.1118 18.064C 82.3608 18.4507 82.7212 18.644 83.1929 18.644C 83.6616 18.644 84.0161 18.4551 84.2563 18.0771C 84.4995 17.6992 84.6226 17.1455 84.6255 16.416L 84.6255 15.1855ZM 88.4883 16.416C 88.4883 15.7773 88.5703 15.1577 88.7344 14.5571C 88.8984 13.9536 89.1387 13.4028 89.4551 12.9048C 89.7715 12.4038 90.1113 12.0449 90.4746 11.8281L 90.6021 12.1841C 90.4087 12.3218 90.2168 12.5225 90.0264 12.7861C 89.8359 13.0498 89.666 13.3633 89.5166 13.7266C 89.3672 14.0898 89.2456 14.4985 89.1519 14.9526C 89.061 15.4038 89.0156 15.9165 89.0156 16.4907C 89.0156 17.103 89.0845 17.6919 89.2222 18.2573C 89.3628 18.8228 89.5547 19.3208 89.7979 19.7515C 90.041 20.1851 90.3091 20.5103 90.6021 20.7271L 90.4746 21.0654C 90.1025 20.8428 89.7583 20.4824 89.4419 19.9844C 89.1255 19.4893 88.8867 18.9443 88.7256 18.3496C 88.5674 17.752 88.4883 17.1074 88.4883 16.416ZM 91.5557 19L 91.5557 12.6016L 93.4453 12.6016C 94.1309 12.6016 94.6509 12.7437 95.0054 13.0278C 95.3599 13.3091 95.5371 13.7251 95.5371 14.2759C 95.5371 14.6069 95.4463 14.8955 95.2646 15.1416C 95.0859 15.3848 94.8398 15.5591 94.5264 15.6646C 94.8984 15.7466 95.1973 15.9297 95.4229 16.2139C 95.6514 16.498 95.7656 16.8262 95.7656 17.1982C 95.7656 17.7637 95.5825 18.2061 95.2163 18.5254C 94.853 18.8418 94.3462 19 93.6958 19L 91.5557 19ZM 92.0962 15.9238L 92.0962 18.543L 93.7178 18.543C 94.1807 18.543 94.5469 18.4258 94.8164 18.1914C 95.0889 17.9541 95.2251 17.626 95.2251 17.207C 95.2251 16.8115 95.0947 16.4995 94.834 16.271C 94.5762 16.0396 94.2188 15.9238 93.7617 15.9238L 92.0962 15.9238ZM 92.0962 15.4712L 93.5728 15.4712C 94.0239 15.4624 94.3726 15.3569 94.6187 15.1548C 94.8677 14.9497 94.9922 14.6523 94.9922 14.2627C 94.9922 13.8525 94.8633 13.5508 94.6055 13.3574C 94.3506 13.1611 93.9639 13.063 93.4453 13.063L 92.0962 13.063L 92.0962 15.4712ZM 96.6621 16.5522C 96.6621 16.0952 96.75 15.6836 96.9258 15.3174C 97.1045 14.9512 97.355 14.667 97.6772 14.4648C 98.0024 14.2598 98.3701 14.1572 98.7803 14.1572C 99.4131 14.1572 99.9258 14.3799 100.318 14.8252C 100.711 15.2676 100.907 15.855 100.907 16.5874L 100.907 16.6973C 100.907 17.1572 100.818 17.5718 100.639 17.9409C 100.463 18.3071 100.214 18.5898 99.8921 18.7891C 99.5698 18.9883 99.2021 19.0879 98.7891 19.0879C 98.1592 19.0879 97.6465 18.8667 97.251 18.4243C 96.8584 17.979 96.6621 17.3901 96.6621 16.6577L 96.6621 16.5522ZM 97.1895 16.6973C 97.1895 17.2656 97.3359 17.7329 97.6289 18.0991C 97.9248 18.4624 98.3115 18.644 98.7891 18.644C 99.2637 18.644 99.6475 18.4624 99.9404 18.0991C 100.236 17.7329 100.384 17.251 100.384 16.6533L 100.384 16.5522C 100.384 16.189 100.317 15.8564 100.182 15.5547C 100.047 15.2529 99.8584 15.02 99.6152 14.856C 99.3721 14.689 99.0937 14.6055 98.7803 14.6055C 98.3115 14.6055 97.9292 14.79 97.6333 15.1592C 97.3374 15.5254 97.1895 16.0059 97.1895 16.6006L 97.1895 16.6973ZM 101.707 16.5522C 101.707 16.0952 101.795 15.6836 101.971 15.3174C 102.149 14.9512 102.4 14.667 102.722 14.4648C 103.047 14.2598 103.415 14.1572 103.825 14.1572C 104.458 14.1572 104.971 14.3799 105.363 14.8252C 105.756 15.2676 105.952 15.855 105.952 16.5874L 105.952 16.6973C 105.952 17.1572 105.863 17.5718 105.684 17.9409C 105.508 18.3071 105.259 18.5898 104.937 18.7891C 104.615 18.9883 104.247 19.0879 103.834 19.0879C 103.204 19.0879 102.691 18.8667 102.296 18.4243C 101.903 17.979 101.707 17.3901 101.707 16.6577L 101.707 16.5522ZM 102.234 16.6973C 102.234 17.2656 102.381 17.7329 102.674 18.0991C 102.97 18.4624 103.356 18.644 103.834 18.644C 104.309 18.644 104.692 18.4624 104.985 18.0991C 105.281 17.7329 105.429 17.251 105.429 16.6533L 105.429 16.5522C 105.429 16.189 105.362 15.8564 105.227 15.5547C 105.092 15.2529 104.903 15.02 104.66 14.856C 104.417 14.689 104.139 14.6055 103.825 14.6055C 103.356 14.6055 102.974 14.79 102.678 15.1592C 102.382 15.5254 102.234 16.0059 102.234 16.6006L 102.234 16.6973ZM 108.171 16.605L 107.569 17.1851L 107.569 19L 107.042 19L 107.042 12.25L 107.569 12.25L 107.569 16.5698L 108.066 16.0337L 109.885 14.2451L 110.549 14.2451L 108.532 16.249L 110.725 19L 110.096 19L 108.171 16.605ZM 112.043 19L 111.516 19L 111.516 14.2451L 112.043 14.2451L 112.043 19ZM 111.423 12.8696C 111.423 12.77 111.456 12.6865 111.52 12.6191C 111.584 12.5488 111.672 12.5137 111.784 12.5137C 111.895 12.5137 111.983 12.5488 112.047 12.6191C 112.115 12.6865 112.148 12.77 112.148 12.8696C 112.148 12.9692 112.115 13.0527 112.047 13.1201C 111.983 13.1875 111.895 13.2212 111.784 13.2212C 111.672 13.2212 111.584 13.1875 111.52 13.1201C 111.456 13.0527 111.423 12.9692 111.423 12.8696ZM 113.977 14.2451L 113.994 15.0581C 114.173 14.7651 114.396 14.5425 114.662 14.3901C 114.929 14.2349 115.223 14.1572 115.545 14.1572C 116.055 14.1572 116.435 14.3008 116.684 14.5879C 116.933 14.875 117.059 15.3057 117.062 15.8799L 117.062 19L 116.539 19L 116.539 15.8755C 116.536 15.4507 116.445 15.1343 116.266 14.9263C 116.09 14.7183 115.808 14.6143 115.418 14.6143C 115.093 14.6143 114.804 14.7168 114.552 14.9219C 114.303 15.124 114.119 15.3979 113.999 15.7437L 113.999 19L 113.476 19L 113.476 14.2451L 113.977 14.2451ZM 118.213 16.5786C 118.213 15.8345 118.377 15.2456 118.705 14.812C 119.036 14.3755 119.484 14.1572 120.05 14.1572C 120.697 14.1572 121.189 14.415 121.526 14.9307L 121.553 14.2451L 122.045 14.2451L 122.045 18.9033C 122.045 19.5156 121.874 20.0005 121.531 20.3579C 121.188 20.7153 120.724 20.894 120.138 20.894C 119.807 20.894 119.49 20.8193 119.188 20.6699C 118.89 20.5234 118.654 20.3271 118.481 20.0811L 118.775 19.7646C 119.147 20.2217 119.59 20.4502 120.103 20.4502C 120.542 20.4502 120.885 20.3198 121.131 20.0591C 121.377 19.8013 121.504 19.4424 121.513 18.9824L 121.513 18.3848C 121.176 18.8535 120.686 19.0879 120.041 19.0879C 119.49 19.0879 119.048 18.8682 118.714 18.4287C 118.38 17.9893 118.213 17.396 118.213 16.6489L 118.213 16.5786ZM 118.745 16.6709C 118.745 17.2773 118.866 17.7563 119.109 18.1079C 119.353 18.4565 119.695 18.6309 120.138 18.6309C 120.785 18.6309 121.244 18.3408 121.513 17.7607L 121.513 15.5503C 121.39 15.2456 121.213 15.0142 120.981 14.856C 120.75 14.6948 120.472 14.6143 120.146 14.6143C 119.704 14.6143 119.36 14.7886 119.114 15.1372C 118.868 15.4829 118.745 15.9941 118.745 16.6709ZM 3.30908 27.1982L 1.9292 27.1982L 1.59082 29L 1.15576 29L 1.49414 27.1982L 0.373535 27.1982L 0.373535 26.7896L 1.56885 26.7896L 1.93359 24.8516L 0.70752 24.8516L 0.70752 24.4297L 2.0127 24.4297L 2.35986 22.6016L 2.79492 22.6016L 2.44775 24.4297L 3.83203 24.4297L 4.1792 22.6016L 4.61865 22.6016L 4.27148 24.4297L 5.27783 24.4297L 5.27783 24.8516L 4.19238 24.8516L 3.82764 26.7896L 4.94824 26.7896L 4.94824 27.1982L 3.74854 27.1982L 3.41016 29L 2.9707 29L 3.30908 27.1982ZM 2.00391 26.7896L 3.38818 26.7896L 3.75293 24.8516L 2.36865 24.8516L 2.00391 26.7896ZM 8.94287 22.5532L 8.94287 23.0146L 8.88135 23.0146C 8.1167 23.0146 7.51465 23.2402 7.0752 23.6914C 6.63574 24.1396 6.39258 24.7637 6.3457 25.5635C 6.52148 25.3203 6.74561 25.1328 7.01807 25.001C 7.29053 24.8662 7.59521 24.7988 7.93213 24.7988C 8.49463 24.7988 8.94141 24.9937 9.27246 25.3833C 9.60645 25.77 9.77344 26.2769 9.77344 26.9038C 9.77344 27.3198 9.6958 27.6948 9.54053 28.0288C 9.38525 28.3628 9.1626 28.6235 8.87256 28.811C 8.58252 28.9956 8.25146 29.0879 7.87939 29.0879C 7.26709 29.0879 6.76904 28.8667 6.38525 28.4243C 6.00146 27.979 5.80957 27.4048 5.80957 26.7017L 5.80957 26.1743C 5.80957 25.0288 6.07031 24.1426 6.5918 23.5156C 7.11328 22.8857 7.85303 22.5649 8.81104 22.5532L 8.94287 22.5532ZM 7.84863 25.2515C 7.51465 25.2515 7.20264 25.3511 6.9126 25.5503C 6.62549 25.7466 6.43359 25.9971 6.33691 26.3018L 6.33691 26.75C 6.33691 27.3066 6.479 27.7607 6.76318 28.1123C 7.05029 28.4639 7.42236 28.6396 7.87939 28.6396C 8.28955 28.6396 8.62061 28.4771 8.87256 28.1519C 9.12744 27.8267 9.25488 27.4165 9.25488 26.9214C 9.25488 26.4175 9.12744 26.0132 8.87256 25.7085C 8.62061 25.4038 8.2793 25.2515 7.84863 25.2515ZM 14.7744 22.9048L 12.041 29L 11.4917 29L 14.2075 23.0498L 10.5688 23.0498L 10.5688 22.6016L 14.7744 22.6016L 14.7744 22.9048ZM 19.1074 26.0381C 18.9199 26.3135 18.687 26.5273 18.4087 26.6797C 18.1304 26.8291 17.8286 26.9038 17.5034 26.9038C 17.1401 26.9038 16.8193 26.8101 16.541 26.6226C 16.2627 26.4351 16.0474 26.1758 15.895 25.8447C 15.7427 25.5137 15.6665 25.1519 15.6665 24.7593C 15.6665 24.3374 15.7471 23.9536 15.9082 23.6079C 16.0723 23.2622 16.2993 22.9941 16.5894 22.8037C 16.8823 22.6104 17.2192 22.5137 17.6001 22.5137C 18.2417 22.5137 18.7412 22.7393 19.0986 23.1904C 19.4561 23.6387 19.6348 24.2759 19.6348 25.1021L 19.6348 25.5767C 19.6348 26.731 19.3887 27.5981 18.8965 28.1782C 18.4043 28.7583 17.6528 29.0483 16.6421 29.0483L 16.5454 29.0483L 16.5498 28.5913L 16.7344 28.5913C 17.499 28.5796 18.0806 28.3628 18.479 27.9409C 18.8774 27.519 19.0869 26.8848 19.1074 26.0381ZM 17.5693 26.4512C 17.9209 26.4512 18.2358 26.3472 18.5142 26.1392C 18.7954 25.9282 18.9946 25.6558 19.1118 25.3218L 19.1118 25.0186C 19.1118 24.3682 18.9756 23.8643 18.7031 23.5068C 18.4336 23.1465 18.0688 22.9663 17.6089 22.9663C 17.1929 22.9663 16.8516 23.1348 16.585 23.4717C 16.3184 23.8057 16.1851 24.2275 16.1851 24.7373C 16.1851 25.2266 16.3125 25.6353 16.5674 25.9634C 16.8252 26.2886 17.1592 26.4512 17.5693 26.4512ZM 24.7588 22.9048L 22.0254 29L 21.4761 29L 24.1919 23.0498L 20.5532 23.0498L 20.5532 22.6016L 24.7588 22.6016L 24.7588 22.9048ZM 27.4658 26.4819C 27.4658 27.1265 27.3853 27.7476 27.2241 28.3452C 27.0659 28.9399 26.8301 29.4849 26.5166 29.98C 26.2031 30.4751 25.8574 30.8369 25.4795 31.0654L 25.3521 30.7271C 25.6392 30.522 25.9043 30.2041 26.1475 29.7734C 26.3936 29.3428 26.5869 28.8418 26.7275 28.2705C 26.8682 27.6963 26.9385 27.0737 26.9385 26.4028C 26.9385 25.7964 26.8682 25.2119 26.7275 24.6494C 26.5869 24.084 26.3921 23.5801 26.1431 23.1377C 25.897 22.6924 25.6333 22.3687 25.3521 22.1665L 25.4795 21.8281C 25.8486 22.0537 26.1899 22.4141 26.5034 22.9092C 26.8169 23.4043 27.0557 23.9536 27.2197 24.5571C 27.3838 25.1606 27.4658 25.8022 27.4658 26.4819Z"/>
</defs>
</svg>
