<svg xmlns="http://www.w3.org/2000/svg" xmlns:xlink="http://www.w3.org/1999/xlink" width="308" height="72" version="1.1" viewBox="0 0 308 72"><title>push mac</title><desc>Created using Figma</desc><g id="Canvas" transform="translate(-7740 -334)"><g id="push mac"><g id="Rectangle 3"><g id="Mask"><use fill="#FFF" transform="translate(7740 334)" xlink:href="#path0_fill"/></g><mask id="mask0_outline" mask-type="alpha"><g id="Mask"><use fill="#FFF" transform="translate(7740 334)" xlink:href="#path0_fill"/></g></mask><g id="Rectangle 3" mask="url(#mask0_outline)"><use fill="#F3F3F3" transform="translate(7740 334)" xlink:href="#path1_fill"/></g><g id="vput" mask="url(#mask0_outline)"><g id="Shape"><use fill="#14A4D8" transform="translate(7756 365)" xlink:href="#path2_fill"/></g><g id="Shape"><use fill="#FEE900" transform="translate(7797 360)" xlink:href="#path3_fill"/></g><g id="Shape"><use fill="#FB6E52" transform="translate(7784 364)" xlink:href="#path4_fill"/></g><g id="Shape"><use fill="#9EE712" transform="translate(7770 364)" xlink:href="#path5_fill"/></g></g></g><g id="V.P.U.T."><use fill="#262626" transform="translate(7834 348)" xlink:href="#path6_fill"/></g><g id="Pasta Bank: Invoice"><use fill="#262626" transform="translate(7834 365)" xlink:href="#path7_fill"/></g><g id="+"><use fill="#333" transform="matrix(0.707107 0.707107 -0.707107 0.707107 8036.05 341)" xlink:href="#path8_fill"/></g></g></g><defs><path id="path0_fill" fill-rule="evenodd" d="M 0 0L 308 0L 308 72L 0 72L 0 0Z"/><path id="path1_fill" fill-rule="evenodd" d="M 0 0L 77 0L 77 72L 0 72L 0 0Z"/><path id="path2_fill" d="M 8.70215 1.79163e-15L 5.4067 9.51232L 5.40072 9.52493C 5.32297 9.83381 5.19139 9.87163 5.09569 9.87163C 5.05383 9.87163 4.94617 9.83381 4.78469 9.50602L 1.29187 1.79163e-15L 0 1.79163e-15L 3.88158 10.1049C 3.96531 10.4453 4.13278 10.6785 4.36005 10.7668C 4.59928 10.9307 4.82656 11 5.10766 11C 5.39474 11 5.62799 10.9244 5.86722 10.7605C 6.07655 10.6155 6.24402 10.3822 6.33373 10.1112L 10 0L 8.70215 1.79163e-15Z"/><path id="path3_fill" d="M 6.0206 12.4645L 5.83433 12.695C 5.58798 12.9965 5.21545 13.2565 4.8309 13.3806L 4.80086 13.3924C 4.45837 13.5638 4.09185 13.6407 3.65322 13.6407C 3.03433 13.6407 2.52361 13.4634 1.98884 13.0733C 1.53219 12.7305 1.31588 12.2931 1.31588 11.6844L 1.31588 5.68558L 5.14936 5.68558L 5.14936 4.45626L 1.31588 4.45626L 1.31588 0L 0 0L 0 11.7494C 0 12.695 0.366524 13.5106 1.0515 14.1194L 1.06352 14.1253C 1.8206 14.7222 2.64378 15 3.65322 15C 4.14592 15 4.74077 14.87 5.28155 14.6395C 5.78627 14.4267 6.29099 14.143 6.7897 13.7943L 7 13.6466L 6.0206 12.4645Z"/><path id="path4_fill" d="M 7.61587 0L 7.61587 6.875C 7.61587 7.68418 7.30618 8.34126 6.67416 8.87666C 6.06742 9.39381 5.31531 9.6615 4.42416 9.6615C 3.54565 9.6615 2.81882 9.43639 2.31952 9.01659L 2.3132 9.01051C 1.6875 8.52987 1.38413 7.85454 1.38413 6.94192L 1.38413 0L 0 0L 0 7.22788C 0 8.34735 0.461376 9.25996 1.41573 10.0265C 2.25 10.6836 3.26124 11 4.50632 11C 5.69452 11 6.70576 10.6593 7.60323 9.95962C 8.51966 9.21128 9 8.21958 9 7.08794L 9 0L 7.61587 0Z"/><path id="path5_fill" fill-rule="evenodd" d="M 5.03271 0C 6.30225 0 7.44824 0.490784 8.34619 1.42331C 9.45654 2.50308 10 3.84662 10 5.51535C 10 7.06134 9.56885 8.47852 8.7832 9.50922C 7.84424 10.7055 6.5625 11.3068 4.96729 11.3068C 4.17578 11.3068 3.45557 11.1534 2.87646 10.8528L 2.86475 10.8466C 2.17383 10.4478 1.63623 9.91412 1.29346 9.30676L 1.29346 16L 0 16L 0 5.44171C 0 4.14725 0.407715 2.94479 1.21094 1.87115C 2.13232 0.631897 3.41406 0 5.03271 0ZM 2.33301 2.61963C 1.63623 3.40491 1.29932 4.39877 1.29932 5.65643L 1.29346 5.65643L 1.29346 6.78528L 1.48828 7.34357C 1.74805 8.08588 2.20312 8.75461 2.77588 9.22086C 3.44922 9.71164 4.15234 9.95093 4.93799 9.95706C 5.85938 9.75461 7.09961 9.31903 7.5957 8.76074C 8.34033 7.85275 8.7002 6.83435 8.7002 5.65643C 8.7002 4.39877 8.36377 3.40491 7.66699 2.61963L 7.66064 2.61349C 7.02881 1.81595 6.14307 1.41718 5.03809 1.41718C 3.9043 1.41718 3.07129 1.78528 2.33301 2.61963Z"/><path id="path6_fill" d="M 3.69922 7.2373L 5.31055 1.89062L 6.94141 1.89062L 4.46582 9L 2.9375 9L 0.47168 1.89062L 2.09766 1.89062L 3.69922 7.2373ZM 6.54102 8.30664C 6.54102 8.08203 6.61589 7.89974 6.76562 7.75977C 6.91862 7.61979 7.10905 7.5498 7.33691 7.5498C 7.56803 7.5498 7.75846 7.61979 7.9082 7.75977C 8.0612 7.89974 8.1377 8.08203 8.1377 8.30664C 8.1377 8.52799 8.06283 8.70866 7.91309 8.84863C 7.76335 8.98535 7.57129 9.05371 7.33691 9.05371C 7.10579 9.05371 6.91536 8.98535 6.76562 8.84863C 6.61589 8.70866 6.54102 8.52799 6.54102 8.30664ZM 10.9355 6.49512L 10.9355 9L 9.4707 9L 9.4707 1.89062L 12.2441 1.89062C 12.778 1.89062 13.2467 1.98828 13.6504 2.18359C 14.0573 2.37891 14.3698 2.65723 14.5879 3.01855C 14.806 3.37663 14.915 3.78516 14.915 4.24414C 14.915 4.94076 14.6758 5.49089 14.1973 5.89453C 13.722 6.29492 13.0628 6.49512 12.2197 6.49512L 10.9355 6.49512ZM 10.9355 5.30859L 12.2441 5.30859C 12.6315 5.30859 12.9261 5.21745 13.1279 5.03516C 13.333 4.85286 13.4355 4.59245 13.4355 4.25391C 13.4355 3.9056 13.333 3.62402 13.1279 3.40918C 12.9229 3.19434 12.6396 3.08366 12.2783 3.07715L 10.9355 3.07715L 10.9355 5.30859ZM 13.9336 8.30664C 13.9336 8.08203 14.0085 7.89974 14.1582 7.75977C 14.3112 7.61979 14.5016 7.5498 14.7295 7.5498C 14.9606 7.5498 15.151 7.61979 15.3008 7.75977C 15.4538 7.89974 15.5303 8.08203 15.5303 8.30664C 15.5303 8.52799 15.4554 8.70866 15.3057 8.84863C 15.1559 8.98535 14.9639 9.05371 14.7295 9.05371C 14.4984 9.05371 14.3079 8.98535 14.1582 8.84863C 14.0085 8.70866 13.9336 8.52799 13.9336 8.30664ZM 22.2441 1.89062L 22.2441 6.57324C 22.2441 7.35124 22 7.96647 21.5117 8.41895C 21.0267 8.87142 20.3626 9.09766 19.5195 9.09766C 18.6895 9.09766 18.0303 8.87793 17.542 8.43848C 17.0537 7.99902 16.8047 7.39518 16.7949 6.62695L 16.7949 1.89062L 18.2598 1.89062L 18.2598 6.58301C 18.2598 7.0485 18.3704 7.38867 18.5918 7.60352C 18.8164 7.8151 19.1257 7.9209 19.5195 7.9209C 20.3431 7.9209 20.7614 7.48796 20.7744 6.62207L 20.7744 1.89062L 22.2441 1.89062ZM 23.4258 8.30664C 23.4258 8.08203 23.5007 7.89974 23.6504 7.75977C 23.8034 7.61979 23.9938 7.5498 24.2217 7.5498C 24.4528 7.5498 24.6432 7.61979 24.793 7.75977C 24.946 7.89974 25.0225 8.08203 25.0225 8.30664C 25.0225 8.52799 24.9476 8.70866 24.7979 8.84863C 24.6481 8.98535 24.4561 9.05371 24.2217 9.05371C 23.9906 9.05371 23.8001 8.98535 23.6504 8.84863C 23.5007 8.70866 23.4258 8.52799 23.4258 8.30664ZM 31.707 3.07715L 29.5293 3.07715L 29.5293 9L 28.0645 9L 28.0645 3.07715L 25.916 3.07715L 25.916 1.89062L 31.707 1.89062L 31.707 3.07715ZM 31.2676 8.30664C 31.2676 8.08203 31.3424 7.89974 31.4922 7.75977C 31.6452 7.61979 31.8356 7.5498 32.0635 7.5498C 32.2946 7.5498 32.485 7.61979 32.6348 7.75977C 32.7878 7.89974 32.8643 8.08203 32.8643 8.30664C 32.8643 8.52799 32.7894 8.70866 32.6396 8.84863C 32.4899 8.98535 32.2979 9.05371 32.0635 9.05371C 31.8324 9.05371 31.6419 8.98535 31.4922 8.84863C 31.3424 8.70866 31.2676 8.52799 31.2676 8.30664Z"/><path id="path7_fill" d="M 1.7627 6.2168L 1.7627 9L 0.825195 9L 0.825195 1.89062L 3.44727 1.89062C 4.22526 1.89062 4.83398 2.08919 5.27344 2.48633C 5.71615 2.88346 5.9375 3.40918 5.9375 4.06348C 5.9375 4.75358 5.72103 5.28581 5.28809 5.66016C 4.8584 6.03125 4.24154 6.2168 3.4375 6.2168L 1.7627 6.2168ZM 1.7627 5.4502L 3.44727 5.4502C 3.94857 5.4502 4.33268 5.33301 4.59961 5.09863C 4.86654 4.861 5 4.51921 5 4.07324C 5 3.65007 4.86654 3.31152 4.59961 3.05762C 4.33268 2.80371 3.96647 2.67188 3.50098 2.66211L 1.7627 2.66211L 1.7627 5.4502ZM 10.1953 9C 10.1432 8.89583 10.1009 8.71029 10.0684 8.44336C 9.64844 8.87956 9.14714 9.09766 8.56445 9.09766C 8.04362 9.09766 7.61556 8.95117 7.28027 8.6582C 6.94824 8.36198 6.78223 7.98763 6.78223 7.53516C 6.78223 6.98503 6.99056 6.55859 7.40723 6.25586C 7.82715 5.94987 8.41634 5.79688 9.1748 5.79688L 10.0537 5.79688L 10.0537 5.38184C 10.0537 5.06608 9.95931 4.81543 9.77051 4.62988C 9.58171 4.44108 9.30339 4.34668 8.93555 4.34668C 8.61328 4.34668 8.3431 4.42806 8.125 4.59082C 7.9069 4.75358 7.79785 4.95052 7.79785 5.18164L 6.88965 5.18164C 6.88965 4.91797 6.98242 4.66406 7.16797 4.41992C 7.35677 4.17253 7.61068 3.97721 7.92969 3.83398C 8.25195 3.69076 8.60514 3.61914 8.98926 3.61914C 9.59798 3.61914 10.0749 3.77214 10.4199 4.07812C 10.765 4.38086 10.944 4.79915 10.957 5.33301L 10.957 7.76465C 10.957 8.24967 11.0189 8.63542 11.1426 8.92188L 11.1426 9L 10.1953 9ZM 8.69629 8.31152C 8.97949 8.31152 9.24805 8.23828 9.50195 8.0918C 9.75586 7.94531 9.93978 7.75488 10.0537 7.52051L 10.0537 6.43652L 9.3457 6.43652C 8.23893 6.43652 7.68555 6.76042 7.68555 7.4082C 7.68555 7.69141 7.77995 7.91276 7.96875 8.07227C 8.15755 8.23177 8.40007 8.31152 8.69629 8.31152ZM 15.4492 7.59863C 15.4492 7.35449 15.3564 7.16569 15.1709 7.03223C 14.9886 6.89551 14.668 6.77832 14.209 6.68066C 13.7533 6.58301 13.3903 6.46582 13.1201 6.3291C 12.8532 6.19238 12.6546 6.02962 12.5244 5.84082C 12.3975 5.65202 12.334 5.42741 12.334 5.16699C 12.334 4.73405 12.5163 4.36784 12.8809 4.06836C 13.2487 3.76888 13.7174 3.61914 14.2871 3.61914C 14.8861 3.61914 15.3711 3.77376 15.7422 4.08301C 16.1165 4.39225 16.3037 4.78776 16.3037 5.26953L 15.3955 5.26953C 15.3955 5.02214 15.2897 4.80892 15.0781 4.62988C 14.8698 4.45085 14.6061 4.36133 14.2871 4.36133C 13.9583 4.36133 13.7012 4.43294 13.5156 4.57617C 13.3301 4.7194 13.2373 4.90658 13.2373 5.1377C 13.2373 5.35579 13.3236 5.52018 13.4961 5.63086C 13.6686 5.74154 13.9795 5.84733 14.4287 5.94824C 14.8812 6.04915 15.2474 6.1696 15.5273 6.30957C 15.8073 6.44954 16.014 6.61882 16.1475 6.81738C 16.2842 7.0127 16.3525 7.25195 16.3525 7.53516C 16.3525 8.00716 16.1637 8.38639 15.7861 8.67285C 15.4085 8.95605 14.9186 9.09766 14.3164 9.09766C 13.8932 9.09766 13.5189 9.02279 13.1934 8.87305C 12.8678 8.72331 12.6123 8.51497 12.4268 8.24805C 12.2445 7.97786 12.1533 7.68652 12.1533 7.37402L 13.0566 7.37402C 13.0729 7.67676 13.1934 7.91764 13.418 8.09668C 13.6458 8.27246 13.9453 8.36035 14.3164 8.36035C 14.6582 8.36035 14.9316 8.29199 15.1367 8.15527C 15.3451 8.0153 15.4492 7.82975 15.4492 7.59863ZM 18.7549 2.4375L 18.7549 3.7168L 19.7412 3.7168L 19.7412 4.41504L 18.7549 4.41504L 18.7549 7.69141C 18.7549 7.90299 18.7988 8.0625 18.8867 8.16992C 18.9746 8.27409 19.1243 8.32617 19.3359 8.32617C 19.4401 8.32617 19.5833 8.30664 19.7656 8.26758L 19.7656 9C 19.528 9.0651 19.2969 9.09766 19.0723 9.09766C 18.6686 9.09766 18.3643 8.97559 18.1592 8.73145C 17.9541 8.4873 17.8516 8.14062 17.8516 7.69141L 17.8516 4.41504L 16.8896 4.41504L 16.8896 3.7168L 17.8516 3.7168L 17.8516 2.4375L 18.7549 2.4375ZM 24.0625 9C 24.0104 8.89583 23.9681 8.71029 23.9355 8.44336C 23.5156 8.87956 23.0143 9.09766 22.4316 9.09766C 21.9108 9.09766 21.4827 8.95117 21.1475 8.6582C 20.8154 8.36198 20.6494 7.98763 20.6494 7.53516C 20.6494 6.98503 20.8577 6.55859 21.2744 6.25586C 21.6943 5.94987 22.2835 5.79688 23.042 5.79688L 23.9209 5.79688L 23.9209 5.38184C 23.9209 5.06608 23.8265 4.81543 23.6377 4.62988C 23.4489 4.44108 23.1706 4.34668 22.8027 4.34668C 22.4805 4.34668 22.2103 4.42806 21.9922 4.59082C 21.7741 4.75358 21.665 4.95052 21.665 5.18164L 20.7568 5.18164C 20.7568 4.91797 20.8496 4.66406 21.0352 4.41992C 21.224 4.17253 21.4779 3.97721 21.7969 3.83398C 22.1191 3.69076 22.4723 3.61914 22.8564 3.61914C 23.4652 3.61914 23.9421 3.77214 24.2871 4.07812C 24.6322 4.38086 24.8112 4.79915 24.8242 5.33301L 24.8242 7.76465C 24.8242 8.24967 24.8861 8.63542 25.0098 8.92188L 25.0098 9L 24.0625 9ZM 22.5635 8.31152C 22.8467 8.31152 23.1152 8.23828 23.3691 8.0918C 23.623 7.94531 23.807 7.75488 23.9209 7.52051L 23.9209 6.43652L 23.2129 6.43652C 22.1061 6.43652 21.5527 6.76042 21.5527 7.4082C 21.5527 7.69141 21.6471 7.91276 21.8359 8.07227C 22.0247 8.23177 22.2673 8.31152 22.5635 8.31152ZM 28.8623 9L 28.8623 1.89062L 31.1865 1.89062C 31.958 1.89062 32.5374 2.05013 32.9248 2.36914C 33.3154 2.68815 33.5107 3.16016 33.5107 3.78516C 33.5107 4.11719 33.4163 4.41178 33.2275 4.66895C 33.0387 4.92285 32.7816 5.11979 32.4561 5.25977C 32.8402 5.36719 33.1429 5.57227 33.3643 5.875C 33.5889 6.17448 33.7012 6.53255 33.7012 6.94922C 33.7012 7.58724 33.4945 8.08854 33.0811 8.45312C 32.6676 8.81771 32.0833 9 31.3281 9L 28.8623 9ZM 29.7998 5.6748L 29.7998 8.2334L 31.3477 8.2334C 31.7839 8.2334 32.1273 8.12109 32.3779 7.89648C 32.6318 7.66862 32.7588 7.35612 32.7588 6.95898C 32.7588 6.10286 32.2933 5.6748 31.3623 5.6748L 29.7998 5.6748ZM 29.7998 4.92285L 31.2158 4.92285C 31.626 4.92285 31.9531 4.82031 32.1973 4.61523C 32.4447 4.41016 32.5684 4.13184 32.5684 3.78027C 32.5684 3.38965 32.4544 3.10645 32.2266 2.93066C 31.9987 2.75163 31.652 2.66211 31.1865 2.66211L 29.7998 2.66211L 29.7998 4.92285ZM 38.2129 9C 38.1608 8.89583 38.1185 8.71029 38.0859 8.44336C 37.666 8.87956 37.1647 9.09766 36.582 9.09766C 36.0612 9.09766 35.6331 8.95117 35.2979 8.6582C 34.9658 8.36198 34.7998 7.98763 34.7998 7.53516C 34.7998 6.98503 35.0081 6.55859 35.4248 6.25586C 35.8447 5.94987 36.4339 5.79688 37.1924 5.79688L 38.0713 5.79688L 38.0713 5.38184C 38.0713 5.06608 37.9769 4.81543 37.7881 4.62988C 37.5993 4.44108 37.321 4.34668 36.9531 4.34668C 36.6309 4.34668 36.3607 4.42806 36.1426 4.59082C 35.9245 4.75358 35.8154 4.95052 35.8154 5.18164L 34.9072 5.18164C 34.9072 4.91797 35 4.66406 35.1855 4.41992C 35.3743 4.17253 35.6283 3.97721 35.9473 3.83398C 36.2695 3.69076 36.6227 3.61914 37.0068 3.61914C 37.6156 3.61914 38.0924 3.77214 38.4375 4.07812C 38.7826 4.38086 38.9616 4.79915 38.9746 5.33301L 38.9746 7.76465C 38.9746 8.24967 39.0365 8.63542 39.1602 8.92188L 39.1602 9L 38.2129 9ZM 36.7139 8.31152C 36.9971 8.31152 37.2656 8.23828 37.5195 8.0918C 37.7734 7.94531 37.9574 7.75488 38.0713 7.52051L 38.0713 6.43652L 37.3633 6.43652C 36.2565 6.43652 35.7031 6.76042 35.7031 7.4082C 35.7031 7.69141 35.7975 7.91276 35.9863 8.07227C 36.1751 8.23177 36.4176 8.31152 36.7139 8.31152ZM 41.2451 3.7168L 41.2744 4.38086C 41.6781 3.87305 42.2054 3.61914 42.8564 3.61914C 43.973 3.61914 44.5361 4.24902 44.5459 5.50879L 44.5459 9L 43.6426 9L 43.6426 5.50391C 43.6393 5.12305 43.5514 4.84147 43.3789 4.65918C 43.2096 4.47689 42.9443 4.38574 42.583 4.38574C 42.29 4.38574 42.0329 4.46387 41.8115 4.62012C 41.5902 4.77637 41.4176 4.98145 41.2939 5.23535L 41.2939 9L 40.3906 9L 40.3906 3.7168L 41.2451 3.7168ZM 47.3828 6.55371L 46.8164 7.14453L 46.8164 9L 45.9131 9L 45.9131 1.5L 46.8164 1.5L 46.8164 6.03613L 47.2998 5.45508L 48.9453 3.7168L 50.0439 3.7168L 47.9883 5.92383L 50.2832 9L 49.2236 9L 47.3828 6.55371ZM 50.9473 8.52637C 50.9473 8.37012 50.9928 8.23991 51.084 8.13574C 51.1784 8.03158 51.3184 7.97949 51.5039 7.97949C 51.6895 7.97949 51.8294 8.03158 51.9238 8.13574C 52.0215 8.23991 52.0703 8.37012 52.0703 8.52637C 52.0703 8.67611 52.0215 8.80143 51.9238 8.90234C 51.8294 9.00326 51.6895 9.05371 51.5039 9.05371C 51.3184 9.05371 51.1784 9.00326 51.084 8.90234C 50.9928 8.80143 50.9473 8.67611 50.9473 8.52637ZM 50.9521 4.21484C 50.9521 4.05859 50.9977 3.92839 51.0889 3.82422C 51.1833 3.72005 51.3232 3.66797 51.5088 3.66797C 51.6943 3.66797 51.8343 3.72005 51.9287 3.82422C 52.0264 3.92839 52.0752 4.05859 52.0752 4.21484C 52.0752 4.36458 52.0264 4.48991 51.9287 4.59082C 51.8343 4.69173 51.6943 4.74219 51.5088 4.74219C 51.3232 4.74219 51.1833 4.69173 51.0889 4.59082C 50.9977 4.48991 50.9521 4.36458 50.9521 4.21484ZM 57.0264 9L 56.0889 9L 56.0889 1.89062L 57.0264 1.89062L 57.0264 9ZM 59.458 3.7168L 59.4873 4.38086C 59.891 3.87305 60.4183 3.61914 61.0693 3.61914C 62.1859 3.61914 62.749 4.24902 62.7588 5.50879L 62.7588 9L 61.8555 9L 61.8555 5.50391C 61.8522 5.12305 61.7643 4.84147 61.5918 4.65918C 61.4225 4.47689 61.1572 4.38574 60.7959 4.38574C 60.5029 4.38574 60.2458 4.46387 60.0244 4.62012C 59.8031 4.77637 59.6305 4.98145 59.5068 5.23535L 59.5068 9L 58.6035 9L 58.6035 3.7168L 59.458 3.7168ZM 65.8643 7.77441L 67.1729 3.7168L 68.0957 3.7168L 66.2012 9L 65.5127 9L 63.5986 3.7168L 64.5215 3.7168L 65.8643 7.77441ZM 68.6475 6.30957C 68.6475 5.79199 68.7484 5.3265 68.9502 4.91309C 69.1553 4.49967 69.4385 4.18066 69.7998 3.95605C 70.1644 3.73145 70.5794 3.61914 71.0449 3.61914C 71.7643 3.61914 72.3454 3.86816 72.7881 4.36621C 73.234 4.86426 73.457 5.52669 73.457 6.35352L 73.457 6.41699C 73.457 6.93132 73.3577 7.39355 73.1592 7.80371C 72.9639 8.21061 72.6823 8.52799 72.3145 8.75586C 71.9499 8.98372 71.5299 9.09766 71.0547 9.09766C 70.3385 9.09766 69.7575 8.84863 69.3115 8.35059C 68.8688 7.85254 68.6475 7.19336 68.6475 6.37305L 68.6475 6.30957ZM 69.5557 6.41699C 69.5557 7.00293 69.6908 7.47331 69.9609 7.82812C 70.2344 8.18294 70.599 8.36035 71.0547 8.36035C 71.5137 8.36035 71.8783 8.18132 72.1484 7.82324C 72.4186 7.46191 72.5537 6.95736 72.5537 6.30957C 72.5537 5.73014 72.4154 5.26139 72.1387 4.90332C 71.8652 4.54199 71.5007 4.36133 71.0449 4.36133C 70.599 4.36133 70.2393 4.53874 69.9658 4.89355C 69.6924 5.24837 69.5557 5.75618 69.5557 6.41699ZM 75.5713 9L 74.668 9L 74.668 3.7168L 75.5713 3.7168L 75.5713 9ZM 74.5947 2.31543C 74.5947 2.16895 74.6387 2.04525 74.7266 1.94434C 74.8177 1.84342 74.9512 1.79297 75.127 1.79297C 75.3027 1.79297 75.4362 1.84342 75.5273 1.94434C 75.6185 2.04525 75.6641 2.16895 75.6641 2.31543C 75.6641 2.46191 75.6185 2.58398 75.5273 2.68164C 75.4362 2.7793 75.3027 2.82812 75.127 2.82812C 74.9512 2.82812 74.8177 2.7793 74.7266 2.68164C 74.6387 2.58398 74.5947 2.46191 74.5947 2.31543ZM 79.1406 8.36035C 79.4629 8.36035 79.7445 8.2627 79.9854 8.06738C 80.2262 7.87207 80.3597 7.62793 80.3857 7.33496L 81.2402 7.33496C 81.224 7.6377 81.1198 7.92578 80.9277 8.19922C 80.7357 8.47266 80.4785 8.69076 80.1562 8.85352C 79.8372 9.01628 79.4987 9.09766 79.1406 9.09766C 78.4212 9.09766 77.8483 8.8584 77.4219 8.37988C 76.9987 7.89811 76.7871 7.24056 76.7871 6.40723L 76.7871 6.25586C 76.7871 5.74154 76.8815 5.28418 77.0703 4.88379C 77.2591 4.4834 77.5293 4.17253 77.8809 3.95117C 78.2357 3.72982 78.654 3.61914 79.1357 3.61914C 79.7282 3.61914 80.2197 3.79655 80.6104 4.15137C 81.0042 4.50618 81.2142 4.9668 81.2402 5.5332L 80.3857 5.5332C 80.3597 5.19141 80.2295 4.91146 79.9951 4.69336C 79.764 4.47201 79.4775 4.36133 79.1357 4.36133C 78.6768 4.36133 78.3203 4.52734 78.0664 4.85938C 77.8158 5.18815 77.6904 5.66504 77.6904 6.29004L 77.6904 6.46094C 77.6904 7.06966 77.8158 7.53841 78.0664 7.86719C 78.3171 8.19596 78.6751 8.36035 79.1406 8.36035ZM 84.4482 9.09766C 83.7321 9.09766 83.1494 8.86328 82.7002 8.39453C 82.251 7.92253 82.0264 7.29264 82.0264 6.50488L 82.0264 6.33887C 82.0264 5.81478 82.1257 5.34766 82.3242 4.9375C 82.526 4.52409 82.806 4.20182 83.1641 3.9707C 83.5254 3.73633 83.916 3.61914 84.3359 3.61914C 85.0228 3.61914 85.5566 3.84538 85.9375 4.29785C 86.3184 4.75033 86.5088 5.39811 86.5088 6.24121L 86.5088 6.61719L 82.9297 6.61719C 82.9427 7.13802 83.0941 7.55957 83.3838 7.88184C 83.6768 8.20085 84.0479 8.36035 84.4971 8.36035C 84.8161 8.36035 85.0863 8.29525 85.3076 8.16504C 85.529 8.03483 85.7227 7.8623 85.8887 7.64746L 86.4404 8.07715C 85.9977 8.75749 85.3337 9.09766 84.4482 9.09766ZM 84.3359 4.36133C 83.9714 4.36133 83.6654 4.49479 83.418 4.76172C 83.1706 5.02539 83.0176 5.39648 82.959 5.875L 85.6055 5.875L 85.6055 5.80664C 85.5794 5.34766 85.4557 4.99284 85.2344 4.74219C 85.013 4.48828 84.7135 4.36133 84.3359 4.36133ZM 98.9062 6.98828L 95.9033 6.98828L 95.9033 6.29492L 98.9062 6.29492L 98.9062 6.98828ZM 95.7275 3.49707C 95.7275 2.99251 95.8789 2.58561 96.1816 2.27637C 96.4844 1.96712 96.8896 1.8125 97.3975 1.8125C 97.9053 1.8125 98.3105 1.96549 98.6133 2.27148C 98.9193 2.57422 99.0723 2.99089 99.0723 3.52148L 99.0723 3.97559C 99.0723 4.48665 98.9209 4.89355 98.6182 5.19629C 98.3187 5.49902 97.915 5.65039 97.4072 5.65039C 96.8929 5.65039 96.4844 5.49902 96.1816 5.19629C 95.8789 4.8903 95.7275 4.47526 95.7275 3.95117L 95.7275 3.49707ZM 96.5234 3.97559C 96.5234 4.2946 96.5999 4.54199 96.7529 4.71777C 96.9092 4.8903 97.1273 4.97656 97.4072 4.97656C 97.6807 4.97656 97.8923 4.8903 98.042 4.71777C 98.195 4.54525 98.2731 4.30273 98.2764 3.99023L 98.2764 3.49707C 98.2764 3.18132 98.1982 2.93717 98.042 2.76465C 97.889 2.58887 97.6742 2.50098 97.3975 2.50098C 97.124 2.50098 96.9092 2.58887 96.7529 2.76465C 96.5999 2.93717 96.5234 3.18457 96.5234 3.50684L 96.5234 3.97559ZM 94.9414 9L 93.9453 9L 91.0498 3.46289L 91.0498 9L 90.1465 9L 90.1465 1.89062L 91.1377 1.89062L 94.0479 7.44238L 94.0479 1.89062L 94.9414 1.89062L 94.9414 9ZM 104.888 9L 100.229 9L 100.229 8.35059L 102.69 5.61621C 103.055 5.2028 103.306 4.86751 103.442 4.61035C 103.582 4.34993 103.652 4.08138 103.652 3.80469C 103.652 3.43359 103.54 3.12923 103.315 2.8916C 103.091 2.65397 102.791 2.53516 102.417 2.53516C 101.968 2.53516 101.618 2.66374 101.367 2.9209C 101.12 3.1748 100.996 3.52962 100.996 3.98535L 100.093 3.98535C 100.093 3.33105 100.303 2.80208 100.723 2.39844C 101.146 1.99479 101.711 1.79297 102.417 1.79297C 103.078 1.79297 103.6 1.96712 103.984 2.31543C 104.368 2.66048 104.561 3.12109 104.561 3.69727C 104.561 4.39714 104.115 5.23047 103.223 6.19727L 101.318 8.2627L 104.888 8.2627L 104.888 9ZM 110.303 5.96777C 110.303 7.02572 110.122 7.81185 109.761 8.32617C 109.399 8.84049 108.835 9.09766 108.066 9.09766C 107.308 9.09766 106.746 8.84701 106.382 8.3457C 106.017 7.84115 105.828 7.08919 105.815 6.08984L 105.815 4.88379C 105.815 3.83887 105.996 3.0625 106.357 2.55469C 106.719 2.04688 107.285 1.79297 108.057 1.79297C 108.822 1.79297 109.385 2.03874 109.746 2.53027C 110.107 3.01855 110.293 3.77376 110.303 4.7959L 110.303 5.96777ZM 109.399 4.73242C 109.399 3.96745 109.292 3.41081 109.077 3.0625C 108.862 2.71094 108.522 2.53516 108.057 2.53516C 107.594 2.53516 107.257 2.70931 107.046 3.05762C 106.834 3.40592 106.725 3.94141 106.719 4.66406L 106.719 6.10938C 106.719 6.8776 106.829 7.44564 107.051 7.81348C 107.275 8.17806 107.614 8.36035 108.066 8.36035C 108.512 8.36035 108.843 8.18783 109.058 7.84277C 109.276 7.49772 109.39 6.9541 109.399 6.21191L 109.399 4.73242ZM 111.875 5.43555L 112.236 1.89062L 115.879 1.89062L 115.879 2.72559L 113.003 2.72559L 112.788 4.66406C 113.136 4.45898 113.532 4.35645 113.975 4.35645C 114.622 4.35645 115.137 4.57129 115.518 5.00098C 115.898 5.42741 116.089 6.00521 116.089 6.73438C 116.089 7.4668 115.89 8.0446 115.493 8.46777C 115.099 8.8877 114.548 9.09766 113.838 9.09766C 113.21 9.09766 112.697 8.9235 112.3 8.5752C 111.903 8.22689 111.676 7.74512 111.621 7.12988L 112.476 7.12988C 112.531 7.53678 112.676 7.8444 112.91 8.05273C 113.145 8.25781 113.454 8.36035 113.838 8.36035C 114.258 8.36035 114.587 8.21712 114.824 7.93066C 115.065 7.64421 115.186 7.2487 115.186 6.74414C 115.186 6.26888 115.055 5.88802 114.795 5.60156C 114.538 5.31185 114.194 5.16699 113.765 5.16699C 113.371 5.16699 113.062 5.25326 112.837 5.42578L 112.598 5.62109L 111.875 5.43555ZM 120.537 5.875C 120.348 6.09961 120.122 6.28027 119.858 6.41699C 119.598 6.55371 119.312 6.62207 118.999 6.62207C 118.589 6.62207 118.231 6.52116 117.925 6.31934C 117.622 6.11751 117.388 5.83431 117.222 5.46973C 117.056 5.10189 116.973 4.69661 116.973 4.25391C 116.973 3.77865 117.062 3.35059 117.241 2.96973C 117.424 2.58887 117.681 2.29753 118.013 2.0957C 118.345 1.89388 118.732 1.79297 119.175 1.79297C 119.878 1.79297 120.431 2.05664 120.835 2.58398C 121.242 3.10807 121.445 3.82422 121.445 4.73242L 121.445 4.99609C 121.445 6.37956 121.172 7.3903 120.625 8.02832C 120.078 8.66309 119.253 8.98861 118.149 9.00488L 117.974 9.00488L 117.974 8.24316L 118.164 8.24316C 118.91 8.23014 119.482 8.03646 119.883 7.66211C 120.283 7.28451 120.501 6.6888 120.537 5.875ZM 119.146 5.875C 119.448 5.875 119.727 5.78223 119.98 5.59668C 120.238 5.41113 120.425 5.18164 120.542 4.9082L 120.542 4.54688C 120.542 3.95443 120.413 3.47266 120.156 3.10156C 119.899 2.73047 119.574 2.54492 119.18 2.54492C 118.783 2.54492 118.464 2.69792 118.223 3.00391C 117.982 3.30664 117.861 3.70703 117.861 4.20508C 117.861 4.6901 117.977 5.09049 118.208 5.40625C 118.442 5.71875 118.755 5.875 119.146 5.875ZM 126.167 4.35645C 126.567 3.86491 127.088 3.61914 127.729 3.61914C 128.846 3.61914 129.409 4.24902 129.419 5.50879L 129.419 9L 128.516 9L 128.516 5.50391C 128.512 5.12305 128.424 4.84147 128.252 4.65918C 128.083 4.47689 127.817 4.38574 127.456 4.38574C 127.163 4.38574 126.906 4.46387 126.685 4.62012C 126.463 4.77637 126.291 4.98145 126.167 5.23535L 126.167 9L 125.264 9L 125.264 1.5L 126.167 1.5L 126.167 4.35645ZM 134.033 9C 133.981 8.89583 133.939 8.71029 133.906 8.44336C 133.486 8.87956 132.985 9.09766 132.402 9.09766C 131.882 9.09766 131.453 8.95117 131.118 8.6582C 130.786 8.36198 130.62 7.98763 130.62 7.53516C 130.62 6.98503 130.828 6.55859 131.245 6.25586C 131.665 5.94987 132.254 5.79688 133.013 5.79688L 133.892 5.79688L 133.892 5.38184C 133.892 5.06608 133.797 4.81543 133.608 4.62988C 133.42 4.44108 133.141 4.34668 132.773 4.34668C 132.451 4.34668 132.181 4.42806 131.963 4.59082C 131.745 4.75358 131.636 4.95052 131.636 5.18164L 130.728 5.18164C 130.728 4.91797 130.82 4.66406 131.006 4.41992C 131.195 4.17253 131.449 3.97721 131.768 3.83398C 132.09 3.69076 132.443 3.61914 132.827 3.61914C 133.436 3.61914 133.913 3.77214 134.258 4.07812C 134.603 4.38086 134.782 4.79915 134.795 5.33301L 134.795 7.76465C 134.795 8.24967 134.857 8.63542 134.98 8.92188L 134.98 9L 134.033 9ZM 132.534 8.31152C 132.817 8.31152 133.086 8.23828 133.34 8.0918C 133.594 7.94531 133.778 7.75488 133.892 7.52051L 133.892 6.43652L 133.184 6.43652C 132.077 6.43652 131.523 6.76042 131.523 7.4082C 131.523 7.69141 131.618 7.91276 131.807 8.07227C 131.995 8.23177 132.238 8.31152 132.534 8.31152ZM 139.287 7.59863C 139.287 7.35449 139.194 7.16569 139.009 7.03223C 138.826 6.89551 138.506 6.77832 138.047 6.68066C 137.591 6.58301 137.228 6.46582 136.958 6.3291C 136.691 6.19238 136.493 6.02962 136.362 5.84082C 136.235 5.65202 136.172 5.42741 136.172 5.16699C 136.172 4.73405 136.354 4.36784 136.719 4.06836C 137.087 3.76888 137.555 3.61914 138.125 3.61914C 138.724 3.61914 139.209 3.77376 139.58 4.08301C 139.954 4.39225 140.142 4.78776 140.142 5.26953L 139.233 5.26953C 139.233 5.02214 139.128 4.80892 138.916 4.62988C 138.708 4.45085 138.444 4.36133 138.125 4.36133C 137.796 4.36133 137.539 4.43294 137.354 4.57617C 137.168 4.7194 137.075 4.90658 137.075 5.1377C 137.075 5.35579 137.161 5.52018 137.334 5.63086C 137.507 5.74154 137.817 5.84733 138.267 5.94824C 138.719 6.04915 139.085 6.1696 139.365 6.30957C 139.645 6.44954 139.852 6.61882 139.985 6.81738C 140.122 7.0127 140.19 7.25195 140.19 7.53516C 140.19 8.00716 140.002 8.38639 139.624 8.67285C 139.246 8.95605 138.757 9.09766 138.154 9.09766C 137.731 9.09766 137.357 9.02279 137.031 8.87305C 136.706 8.72331 136.45 8.51497 136.265 8.24805C 136.082 7.97786 135.991 7.68652 135.991 7.37402L 136.895 7.37402C 136.911 7.67676 137.031 7.91764 137.256 8.09668C 137.484 8.27246 137.783 8.36035 138.154 8.36035C 138.496 8.36035 138.77 8.29199 138.975 8.15527C 139.183 8.0153 139.287 7.82975 139.287 7.59863ZM 148.32 6.41699C 148.32 7.22428 148.135 7.8737 147.764 8.36523C 147.393 8.85352 146.895 9.09766 146.27 9.09766C 145.602 9.09766 145.086 8.86165 144.722 8.38965L 144.678 9L 143.848 9L 143.848 1.5L 144.751 1.5L 144.751 4.29785C 145.116 3.84538 145.618 3.61914 146.26 3.61914C 146.901 3.61914 147.404 3.86165 147.769 4.34668C 148.136 4.83171 148.32 5.49577 148.32 6.33887L 148.32 6.41699ZM 147.417 6.31445C 147.417 5.69922 147.298 5.22396 147.061 4.88867C 146.823 4.55339 146.481 4.38574 146.035 4.38574C 145.439 4.38574 145.011 4.66243 144.751 5.21582L 144.751 7.50098C 145.028 8.05436 145.459 8.33105 146.045 8.33105C 146.478 8.33105 146.815 8.16341 147.056 7.82812C 147.297 7.49284 147.417 6.98828 147.417 6.31445ZM 151.655 9.09766C 150.939 9.09766 150.356 8.86328 149.907 8.39453C 149.458 7.92253 149.233 7.29264 149.233 6.50488L 149.233 6.33887C 149.233 5.81478 149.333 5.34766 149.531 4.9375C 149.733 4.52409 150.013 4.20182 150.371 3.9707C 150.732 3.73633 151.123 3.61914 151.543 3.61914C 152.23 3.61914 152.764 3.84538 153.145 4.29785C 153.525 4.75033 153.716 5.39811 153.716 6.24121L 153.716 6.61719L 150.137 6.61719C 150.15 7.13802 150.301 7.55957 150.591 7.88184C 150.884 8.20085 151.255 8.36035 151.704 8.36035C 152.023 8.36035 152.293 8.29525 152.515 8.16504C 152.736 8.03483 152.93 7.8623 153.096 7.64746L 153.647 8.07715C 153.205 8.75749 152.541 9.09766 151.655 9.09766ZM 151.543 4.36133C 151.178 4.36133 150.872 4.49479 150.625 4.76172C 150.378 5.02539 150.225 5.39648 150.166 5.875L 152.812 5.875L 152.812 5.80664C 152.786 5.34766 152.663 4.99284 152.441 4.74219C 152.22 4.48828 151.921 4.36133 151.543 4.36133ZM 156.958 9.09766C 156.242 9.09766 155.659 8.86328 155.21 8.39453C 154.761 7.92253 154.536 7.29264 154.536 6.50488L 154.536 6.33887C 154.536 5.81478 154.635 5.34766 154.834 4.9375C 155.036 4.52409 155.316 4.20182 155.674 3.9707C 156.035 3.73633 156.426 3.61914 156.846 3.61914C 157.533 3.61914 158.066 3.84538 158.447 4.29785C 158.828 4.75033 159.019 5.39811 159.019 6.24121L 159.019 6.61719L 155.439 6.61719C 155.452 7.13802 155.604 7.55957 155.894 7.88184C 156.187 8.20085 156.558 8.36035 157.007 8.36035C 157.326 8.36035 157.596 8.29525 157.817 8.16504C 158.039 8.03483 158.232 7.8623 158.398 7.64746L 158.95 8.07715C 158.507 8.75749 157.843 9.09766 156.958 9.09766ZM 156.846 4.36133C 156.481 4.36133 156.175 4.49479 155.928 4.76172C 155.68 5.02539 155.527 5.39648 155.469 5.875L 158.115 5.875L 158.115 5.80664C 158.089 5.34766 157.965 4.99284 157.744 4.74219C 157.523 4.48828 157.223 4.36133 156.846 4.36133ZM 160.923 3.7168L 160.952 4.38086C 161.356 3.87305 161.883 3.61914 162.534 3.61914C 163.651 3.61914 164.214 4.24902 164.224 5.50879L 164.224 9L 163.32 9L 163.32 5.50391C 163.317 5.12305 163.229 4.84147 163.057 4.65918C 162.887 4.47689 162.622 4.38574 162.261 4.38574C 161.968 4.38574 161.711 4.46387 161.489 4.62012C 161.268 4.77637 161.095 4.98145 160.972 5.23535L 160.972 9L 160.068 9L 160.068 3.7168L 160.923 3.7168ZM 5.14648 18.417C 5.14648 19.221 4.96257 19.8688 4.59473 20.3604C 4.22689 20.8519 3.72884 21.0977 3.10059 21.0977C 2.45931 21.0977 1.95475 20.8942 1.58691 20.4873L 1.58691 23.0312L 0.683594 23.0312L 0.683594 15.7168L 1.50879 15.7168L 1.55273 16.3027C 1.92057 15.847 2.43164 15.6191 3.08594 15.6191C 3.7207 15.6191 4.22201 15.8584 4.58984 16.3369C 4.96094 16.8154 5.14648 17.4811 5.14648 18.334L 5.14648 18.417ZM 4.24316 18.3145C 4.24316 17.7188 4.11621 17.2484 3.8623 16.9033C 3.6084 16.5583 3.26009 16.3857 2.81738 16.3857C 2.27051 16.3857 1.86035 16.6283 1.58691 17.1133L 1.58691 19.6377C 1.8571 20.1195 2.27051 20.3604 2.82715 20.3604C 3.26009 20.3604 3.60352 20.1895 3.85742 19.8477C 4.11458 19.5026 4.24316 18.9915 4.24316 18.3145ZM 9.56055 21C 9.50846 20.8958 9.46615 20.7103 9.43359 20.4434C 9.01367 20.8796 8.51237 21.0977 7.92969 21.0977C 7.40885 21.0977 6.98079 20.9512 6.64551 20.6582C 6.31348 20.362 6.14746 19.9876 6.14746 19.5352C 6.14746 18.985 6.35579 18.5586 6.77246 18.2559C 7.19238 17.9499 7.78158 17.7969 8.54004 17.7969L 9.41895 17.7969L 9.41895 17.3818C 9.41895 17.0661 9.32454 16.8154 9.13574 16.6299C 8.94694 16.4411 8.66862 16.3467 8.30078 16.3467C 7.97852 16.3467 7.70833 16.4281 7.49023 16.5908C 7.27214 16.7536 7.16309 16.9505 7.16309 17.1816L 6.25488 17.1816C 6.25488 16.918 6.34766 16.6641 6.5332 16.4199C 6.72201 16.1725 6.97591 15.9772 7.29492 15.834C 7.61719 15.6908 7.97038 15.6191 8.35449 15.6191C 8.96322 15.6191 9.4401 15.7721 9.78516 16.0781C 10.1302 16.3809 10.3092 16.7992 10.3223 17.333L 10.3223 19.7646C 10.3223 20.2497 10.3841 20.6354 10.5078 20.9219L 10.5078 21L 9.56055 21ZM 8.06152 20.3115C 8.34473 20.3115 8.61328 20.2383 8.86719 20.0918C 9.12109 19.9453 9.30501 19.7549 9.41895 19.5205L 9.41895 18.4365L 8.71094 18.4365C 7.60417 18.4365 7.05078 18.7604 7.05078 19.4082C 7.05078 19.6914 7.14518 19.9128 7.33398 20.0723C 7.52279 20.2318 7.7653 20.3115 8.06152 20.3115ZM 12.7197 21L 11.8164 21L 11.8164 15.7168L 12.7197 15.7168L 12.7197 21ZM 11.7432 14.3154C 11.7432 14.1689 11.7871 14.0452 11.875 13.9443C 11.9661 13.8434 12.0996 13.793 12.2754 13.793C 12.4512 13.793 12.5846 13.8434 12.6758 13.9443C 12.7669 14.0452 12.8125 14.1689 12.8125 14.3154C 12.8125 14.4619 12.7669 14.584 12.6758 14.6816C 12.5846 14.7793 12.4512 14.8281 12.2754 14.8281C 12.0996 14.8281 11.9661 14.7793 11.875 14.6816C 11.7871 14.584 11.7432 14.4619 11.7432 14.3154ZM 13.9502 18.3145C 13.9502 17.5039 14.1423 16.8529 14.5264 16.3613C 14.9105 15.8665 15.4134 15.6191 16.0352 15.6191C 16.6536 15.6191 17.1436 15.8307 17.5049 16.2539L 17.5049 13.5L 18.4082 13.5L 18.4082 21L 17.5781 21L 17.5342 20.4336C 17.1729 20.8763 16.6699 21.0977 16.0254 21.0977C 15.4134 21.0977 14.9137 20.847 14.5264 20.3457C 14.1423 19.8444 13.9502 19.1901 13.9502 18.3828L 13.9502 18.3145ZM 14.8535 18.417C 14.8535 19.016 14.9772 19.4847 15.2246 19.8232C 15.472 20.1618 15.8138 20.3311 16.25 20.3311C 16.8229 20.3311 17.2412 20.0739 17.5049 19.5596L 17.5049 17.1328C 17.2347 16.6348 16.8197 16.3857 16.2598 16.3857C 15.8171 16.3857 15.472 16.5566 15.2246 16.8984C 14.9772 17.2402 14.8535 17.7464 14.8535 18.417ZM 19.7852 22.416L 19.2725 22.0645C 19.5785 21.638 19.738 21.1986 19.751 20.7461L 19.751 19.9307L 20.6348 19.9307L 20.6348 20.6387C 20.6348 20.9674 20.5534 21.2962 20.3906 21.625C 20.2311 21.9538 20.0293 22.2174 19.7852 22.416ZM 27.5195 21C 27.4674 20.8958 27.4251 20.7103 27.3926 20.4434C 26.9727 20.8796 26.4714 21.0977 25.8887 21.0977C 25.3678 21.0977 24.9398 20.9512 24.6045 20.6582C 24.2725 20.362 24.1064 19.9876 24.1064 19.5352C 24.1064 18.985 24.3148 18.5586 24.7314 18.2559C 25.1514 17.9499 25.7406 17.7969 26.499 17.7969L 27.3779 17.7969L 27.3779 17.3818C 27.3779 17.0661 27.2835 16.8154 27.0947 16.6299C 26.9059 16.4411 26.6276 16.3467 26.2598 16.3467C 25.9375 16.3467 25.6673 16.4281 25.4492 16.5908C 25.2311 16.7536 25.1221 16.9505 25.1221 17.1816L 24.2139 17.1816C 24.2139 16.918 24.3066 16.6641 24.4922 16.4199C 24.681 16.1725 24.9349 15.9772 25.2539 15.834C 25.5762 15.6908 25.9294 15.6191 26.3135 15.6191C 26.9222 15.6191 27.3991 15.7721 27.7441 16.0781C 28.0892 16.3809 28.2682 16.7992 28.2812 17.333L 28.2812 19.7646C 28.2812 20.2497 28.3431 20.6354 28.4668 20.9219L 28.4668 21L 27.5195 21ZM 26.0205 20.3115C 26.3037 20.3115 26.5723 20.2383 26.8262 20.0918C 27.0801 19.9453 27.264 19.7549 27.3779 19.5205L 27.3779 18.4365L 26.6699 18.4365C 25.5632 18.4365 25.0098 18.7604 25.0098 19.4082C 25.0098 19.6914 25.1042 19.9128 25.293 20.0723C 25.4818 20.2318 25.7243 20.3115 26.0205 20.3115ZM 30.5469 15.7168L 30.5713 16.3027C 30.9587 15.847 31.4811 15.6191 32.1387 15.6191C 32.8776 15.6191 33.3805 15.9023 33.6475 16.4688C 33.8232 16.2148 34.0511 16.0098 34.3311 15.8535C 34.6143 15.6973 34.9479 15.6191 35.332 15.6191C 36.4909 15.6191 37.0801 16.2327 37.0996 17.46L 37.0996 21L 36.1963 21L 36.1963 17.5137C 36.1963 17.1361 36.11 16.8545 35.9375 16.6689C 35.765 16.4801 35.4753 16.3857 35.0684 16.3857C 34.7331 16.3857 34.4548 16.4867 34.2334 16.6885C 34.012 16.887 33.8835 17.1556 33.8477 17.4941L 33.8477 21L 32.9395 21L 32.9395 17.5381C 32.9395 16.7699 32.5635 16.3857 31.8115 16.3857C 31.2191 16.3857 30.8138 16.638 30.5957 17.1426L 30.5957 21L 29.6924 21L 29.6924 15.7168L 30.5469 15.7168ZM 38.2275 18.3096C 38.2275 17.792 38.3285 17.3265 38.5303 16.9131C 38.7354 16.4997 39.0186 16.1807 39.3799 15.9561C 39.7445 15.7314 40.1595 15.6191 40.625 15.6191C 41.3444 15.6191 41.9255 15.8682 42.3682 16.3662C 42.8141 16.8643 43.0371 17.5267 43.0371 18.3535L 43.0371 18.417C 43.0371 18.9313 42.9378 19.3936 42.7393 19.8037C 42.5439 20.2106 42.2624 20.528 41.8945 20.7559C 41.5299 20.9837 41.11 21.0977 40.6348 21.0977C 39.9186 21.0977 39.3376 20.8486 38.8916 20.3506C 38.4489 19.8525 38.2275 19.1934 38.2275 18.373L 38.2275 18.3096ZM 39.1357 18.417C 39.1357 19.0029 39.2708 19.4733 39.541 19.8281C 39.8145 20.1829 40.179 20.3604 40.6348 20.3604C 41.0938 20.3604 41.4583 20.1813 41.7285 19.8232C 41.9987 19.4619 42.1338 18.9574 42.1338 18.3096C 42.1338 17.7301 41.9954 17.2614 41.7188 16.9033C 41.4453 16.542 41.0807 16.3613 40.625 16.3613C 40.179 16.3613 39.8193 16.5387 39.5459 16.8936C 39.2725 17.2484 39.1357 17.7562 39.1357 18.417ZM 47.4316 20.4775C 47.0801 20.891 46.5641 21.0977 45.8838 21.0977C 45.3206 21.0977 44.891 20.9349 44.5947 20.6094C 44.3018 20.2806 44.1536 19.7956 44.1504 19.1543L 44.1504 15.7168L 45.0537 15.7168L 45.0537 19.1299C 45.0537 19.9307 45.3792 20.3311 46.0303 20.3311C 46.7204 20.3311 47.1794 20.0739 47.4072 19.5596L 47.4072 15.7168L 48.3105 15.7168L 48.3105 21L 47.4512 21L 47.4316 20.4775ZM 50.542 15.7168L 50.5713 16.3809C 50.9749 15.873 51.5023 15.6191 52.1533 15.6191C 53.2699 15.6191 53.833 16.249 53.8428 17.5088L 53.8428 21L 52.9395 21L 52.9395 17.5039C 52.9362 17.123 52.8483 16.8415 52.6758 16.6592C 52.5065 16.4769 52.2412 16.3857 51.8799 16.3857C 51.5869 16.3857 51.3298 16.4639 51.1084 16.6201C 50.887 16.7764 50.7145 16.9814 50.5908 17.2354L 50.5908 21L 49.6875 21L 49.6875 15.7168L 50.542 15.7168ZM 56.4307 14.4375L 56.4307 15.7168L 57.417 15.7168L 57.417 16.415L 56.4307 16.415L 56.4307 19.6914C 56.4307 19.903 56.4746 20.0625 56.5625 20.1699C 56.6504 20.2741 56.8001 20.3262 57.0117 20.3262C 57.1159 20.3262 57.2591 20.3066 57.4414 20.2676L 57.4414 21C 57.2038 21.0651 56.9727 21.0977 56.748 21.0977C 56.3444 21.0977 56.04 20.9756 55.835 20.7314C 55.6299 20.4873 55.5273 20.1406 55.5273 19.6914L 55.5273 16.415L 54.5654 16.415L 54.5654 15.7168L 55.5273 15.7168L 55.5273 14.4375L 56.4307 14.4375ZM 64.4189 18.3584L 62.5439 18.3584C 62.557 18.9932 62.71 19.4814 63.0029 19.8232C 63.2959 20.165 63.7109 20.3359 64.248 20.3359C 64.6257 20.3359 64.9805 20.2806 65.3125 20.1699L 65.4102 20.9512C 65.0195 21.0488 64.6289 21.0977 64.2383 21.0977C 63.431 21.0977 62.7946 20.86 62.3291 20.3848C 61.8669 19.9062 61.626 19.2308 61.6064 18.3584L 60.7373 18.3584L 60.7373 17.7529L 61.6064 17.7529L 61.6064 17.084L 60.7373 17.084L 60.7373 16.4736L 61.6064 16.4736C 61.639 15.6208 61.8864 14.9616 62.3486 14.4961C 62.8141 14.0273 63.4424 13.793 64.2334 13.793C 64.5785 13.793 64.9707 13.8434 65.4102 13.9443L 65.3125 14.7354C 64.9577 14.6214 64.6012 14.5645 64.2432 14.5645C 63.7093 14.5645 63.2975 14.7305 63.0078 15.0625C 62.7214 15.3913 62.5684 15.8617 62.5488 16.4736L 64.4189 16.4736L 64.4189 17.084L 62.5439 17.084L 62.5439 17.7529L 64.4189 17.7529L 64.4189 18.3584ZM 71.1377 21L 66.4795 21L 66.4795 20.3506L 68.9404 17.6162C 69.305 17.2028 69.5557 16.8675 69.6924 16.6104C 69.8324 16.3499 69.9023 16.0814 69.9023 15.8047C 69.9023 15.4336 69.79 15.1292 69.5654 14.8916C 69.3408 14.654 69.0413 14.5352 68.667 14.5352C 68.2178 14.5352 67.8678 14.6637 67.6172 14.9209C 67.3698 15.1748 67.2461 15.5296 67.2461 15.9854L 66.3428 15.9854C 66.3428 15.3311 66.5527 14.8021 66.9727 14.3984C 67.3958 13.9948 67.9606 13.793 68.667 13.793C 69.3278 13.793 69.8503 13.9671 70.2344 14.3154C 70.6185 14.6605 70.8105 15.1211 70.8105 15.6973C 70.8105 16.3971 70.3646 17.2305 69.4727 18.1973L 67.5684 20.2627L 71.1377 20.2627L 71.1377 21ZM 76.4062 15.7461C 76.4062 16.1009 76.3118 16.4167 76.123 16.6934C 75.9375 16.9701 75.6852 17.1865 75.3662 17.3428C 75.7373 17.5023 76.0303 17.735 76.2451 18.041C 76.4632 18.347 76.5723 18.6937 76.5723 19.0811C 76.5723 19.6963 76.3639 20.1862 75.9473 20.5508C 75.5339 20.9154 74.9886 21.0977 74.3115 21.0977C 73.6279 21.0977 73.0794 20.9154 72.666 20.5508C 72.2559 20.1829 72.0508 19.693 72.0508 19.0811C 72.0508 18.6969 72.1549 18.3503 72.3633 18.041C 72.5749 17.7318 72.8662 17.4974 73.2373 17.3379C 72.9215 17.1816 72.6725 16.9652 72.4902 16.6885C 72.3079 16.4118 72.2168 16.0977 72.2168 15.7461C 72.2168 15.1471 72.4089 14.6719 72.793 14.3203C 73.1771 13.9688 73.6833 13.793 74.3115 13.793C 74.9365 13.793 75.4411 13.9688 75.8252 14.3203C 76.2126 14.6719 76.4062 15.1471 76.4062 15.7461ZM 75.6689 19.0615C 75.6689 18.6644 75.542 18.3405 75.2881 18.0898C 75.0374 17.8392 74.7087 17.7139 74.3018 17.7139C 73.8949 17.7139 73.5677 17.8376 73.3203 18.085C 73.0762 18.3324 72.9541 18.6579 72.9541 19.0615C 72.9541 19.4652 73.0729 19.7826 73.3105 20.0137C 73.5514 20.2448 73.8851 20.3604 74.3115 20.3604C 74.7347 20.3604 75.0667 20.2448 75.3076 20.0137C 75.5485 19.7793 75.6689 19.4619 75.6689 19.0615ZM 74.3115 14.5352C 73.9567 14.5352 73.6686 14.6458 73.4473 14.8672C 73.2292 15.0853 73.1201 15.3831 73.1201 15.7607C 73.1201 16.1221 73.2275 16.415 73.4424 16.6396C 73.6605 16.861 73.9502 16.9717 74.3115 16.9717C 74.6729 16.9717 74.9609 16.861 75.1758 16.6396C 75.3939 16.415 75.5029 16.1221 75.5029 15.7607C 75.5029 15.3994 75.3906 15.1048 75.166 14.877C 74.9414 14.6491 74.6566 14.5352 74.3115 14.5352ZM 82.3682 21L 77.71 21L 77.71 20.3506L 80.1709 17.6162C 80.5355 17.2028 80.7861 16.8675 80.9229 16.6104C 81.0628 16.3499 81.1328 16.0814 81.1328 15.8047C 81.1328 15.4336 81.0205 15.1292 80.7959 14.8916C 80.5713 14.654 80.2718 14.5352 79.8975 14.5352C 79.4482 14.5352 79.0983 14.6637 78.8477 14.9209C 78.6003 15.1748 78.4766 15.5296 78.4766 15.9854L 77.5732 15.9854C 77.5732 15.3311 77.7832 14.8021 78.2031 14.3984C 78.6263 13.9948 79.1911 13.793 79.8975 13.793C 80.5583 13.793 81.0807 13.9671 81.4648 14.3154C 81.849 14.6605 82.041 15.1211 82.041 15.6973C 82.041 16.3971 81.5951 17.2305 80.7031 18.1973L 78.7988 20.2627L 82.3682 20.2627L 82.3682 21ZM 83.4375 20.5264C 83.4375 20.3701 83.4831 20.2399 83.5742 20.1357C 83.6686 20.0316 83.8086 19.9795 83.9941 19.9795C 84.1797 19.9795 84.3197 20.0316 84.4141 20.1357C 84.5117 20.2399 84.5605 20.3701 84.5605 20.5264C 84.5605 20.6761 84.5117 20.8014 84.4141 20.9023C 84.3197 21.0033 84.1797 21.0537 83.9941 21.0537C 83.8086 21.0537 83.6686 21.0033 83.5742 20.9023C 83.4831 20.8014 83.4375 20.6761 83.4375 20.5264ZM 90.4199 17.9678C 90.4199 19.0257 90.2393 19.8118 89.8779 20.3262C 89.5166 20.8405 88.9518 21.0977 88.1836 21.0977C 87.4251 21.0977 86.8636 20.847 86.499 20.3457C 86.1344 19.8411 85.9456 19.0892 85.9326 18.0898L 85.9326 16.8838C 85.9326 15.8389 86.1133 15.0625 86.4746 14.5547C 86.8359 14.0469 87.4023 13.793 88.1738 13.793C 88.9388 13.793 89.502 14.0387 89.8633 14.5303C 90.2246 15.0186 90.4102 15.7738 90.4199 16.7959L 90.4199 17.9678ZM 89.5166 16.7324C 89.5166 15.9674 89.4092 15.4108 89.1943 15.0625C 88.9795 14.7109 88.6393 14.5352 88.1738 14.5352C 87.7116 14.5352 87.3747 14.7093 87.1631 15.0576C 86.9515 15.4059 86.8424 15.9414 86.8359 16.6641L 86.8359 18.1094C 86.8359 18.8776 86.9466 19.4456 87.168 19.8135C 87.3926 20.1781 87.7311 20.3604 88.1836 20.3604C 88.6296 20.3604 88.96 20.1878 89.1748 19.8428C 89.3929 19.4977 89.5068 18.9541 89.5166 18.2119L 89.5166 16.7324ZM 96.0352 17.9678C 96.0352 19.0257 95.8545 19.8118 95.4932 20.3262C 95.1318 20.8405 94.5671 21.0977 93.7988 21.0977C 93.0404 21.0977 92.4788 20.847 92.1143 20.3457C 91.7497 19.8411 91.5609 19.0892 91.5479 18.0898L 91.5479 16.8838C 91.5479 15.8389 91.7285 15.0625 92.0898 14.5547C 92.4512 14.0469 93.0176 13.793 93.7891 13.793C 94.554 13.793 95.1172 14.0387 95.4785 14.5303C 95.8398 15.0186 96.0254 15.7738 96.0352 16.7959L 96.0352 17.9678ZM 95.1318 16.7324C 95.1318 15.9674 95.0244 15.4108 94.8096 15.0625C 94.5947 14.7109 94.2546 14.5352 93.7891 14.5352C 93.3268 14.5352 92.9899 14.7093 92.7783 15.0576C 92.5667 15.4059 92.4577 15.9414 92.4512 16.6641L 92.4512 18.1094C 92.4512 18.8776 92.5618 19.4456 92.7832 19.8135C 93.0078 20.1781 93.3464 20.3604 93.7988 20.3604C 94.2448 20.3604 94.5752 20.1878 94.79 19.8428C 95.0081 19.4977 95.1221 18.9541 95.1318 18.2119L 95.1318 16.7324ZM 99.7314 18.1143C 99.7314 17.3786 99.8291 16.6722 100.024 15.9951C 100.223 15.318 100.518 14.7028 100.908 14.1494C 101.299 13.596 101.704 13.2054 102.124 12.9775L 102.31 13.5732C 101.834 13.9378 101.444 14.4945 101.138 15.2432C 100.835 15.9919 100.669 16.8301 100.64 17.7578L 100.635 18.1729C 100.635 19.4294 100.864 20.5199 101.323 21.4443C 101.6 21.9977 101.929 22.4307 102.31 22.7432L 102.124 23.2949C 101.691 23.054 101.278 22.6504 100.884 22.084C 100.116 20.9772 99.7314 19.654 99.7314 18.1143ZM 103.325 21L 103.325 13.8906L 105.649 13.8906C 106.421 13.8906 107 14.0501 107.388 14.3691C 107.778 14.6882 107.974 15.1602 107.974 15.7852C 107.974 16.1172 107.879 16.4118 107.69 16.6689C 107.502 16.9229 107.244 17.1198 106.919 17.2598C 107.303 17.3672 107.606 17.5723 107.827 17.875C 108.052 18.1745 108.164 18.5326 108.164 18.9492C 108.164 19.5872 107.957 20.0885 107.544 20.4531C 107.131 20.8177 106.546 21 105.791 21L 103.325 21ZM 104.263 17.6748L 104.263 20.2334L 105.811 20.2334C 106.247 20.2334 106.59 20.1211 106.841 19.8965C 107.095 19.6686 107.222 19.3561 107.222 18.959C 107.222 18.1029 106.756 17.6748 105.825 17.6748L 104.263 17.6748ZM 104.263 16.9229L 105.679 16.9229C 106.089 16.9229 106.416 16.8203 106.66 16.6152C 106.908 16.4102 107.031 16.1318 107.031 15.7803C 107.031 15.3896 106.917 15.1064 106.689 14.9307C 106.462 14.7516 106.115 14.6621 105.649 14.6621L 104.263 14.6621L 104.263 16.9229ZM 109.175 18.3096C 109.175 17.792 109.276 17.3265 109.478 16.9131C 109.683 16.4997 109.966 16.1807 110.327 15.9561C 110.692 15.7314 111.107 15.6191 111.572 15.6191C 112.292 15.6191 112.873 15.8682 113.315 16.3662C 113.761 16.8643 113.984 17.5267 113.984 18.3535L 113.984 18.417C 113.984 18.9313 113.885 19.3936 113.687 19.8037C 113.491 20.2106 113.21 20.528 112.842 20.7559C 112.477 20.9837 112.057 21.0977 111.582 21.0977C 110.866 21.0977 110.285 20.8486 109.839 20.3506C 109.396 19.8525 109.175 19.1934 109.175 18.373L 109.175 18.3096ZM 110.083 18.417C 110.083 19.0029 110.218 19.4733 110.488 19.8281C 110.762 20.1829 111.126 20.3604 111.582 20.3604C 112.041 20.3604 112.406 20.1813 112.676 19.8232C 112.946 19.4619 113.081 18.9574 113.081 18.3096C 113.081 17.7301 112.943 17.2614 112.666 16.9033C 112.393 16.542 112.028 16.3613 111.572 16.3613C 111.126 16.3613 110.767 16.5387 110.493 16.8936C 110.22 17.2484 110.083 17.7562 110.083 18.417ZM 114.878 18.3096C 114.878 17.792 114.979 17.3265 115.181 16.9131C 115.386 16.4997 115.669 16.1807 116.03 15.9561C 116.395 15.7314 116.81 15.6191 117.275 15.6191C 117.995 15.6191 118.576 15.8682 119.019 16.3662C 119.465 16.8643 119.688 17.5267 119.688 18.3535L 119.688 18.417C 119.688 18.9313 119.588 19.3936 119.39 19.8037C 119.194 20.2106 118.913 20.528 118.545 20.7559C 118.18 20.9837 117.76 21.0977 117.285 21.0977C 116.569 21.0977 115.988 20.8486 115.542 20.3506C 115.099 19.8525 114.878 19.1934 114.878 18.373L 114.878 18.3096ZM 115.786 18.417C 115.786 19.0029 115.921 19.4733 116.191 19.8281C 116.465 20.1829 116.829 20.3604 117.285 20.3604C 117.744 20.3604 118.109 20.1813 118.379 19.8232C 118.649 19.4619 118.784 18.9574 118.784 18.3096C 118.784 17.7301 118.646 17.2614 118.369 16.9033C 118.096 16.542 117.731 16.3613 117.275 16.3613C 116.829 16.3613 116.47 16.5387 116.196 16.8936C 115.923 17.2484 115.786 17.7562 115.786 18.417ZM 122.295 18.5537L 121.729 19.1445L 121.729 21L 120.825 21L 120.825 13.5L 121.729 13.5L 121.729 18.0361L 122.212 17.4551L 123.857 15.7168L 124.956 15.7168L 122.9 17.9238L 125.195 21L 124.136 21L 122.295 18.5537ZM 126.87 21L 125.967 21L 125.967 15.7168L 126.87 15.7168L 126.87 21ZM 125.894 14.3154C 125.894 14.1689 125.938 14.0452 126.025 13.9443C 126.117 13.8434 126.25 13.793 126.426 13.793C 126.602 13.793 126.735 13.8434 126.826 13.9443C 126.917 14.0452 126.963 14.1689 126.963 14.3154C 126.963 14.4619 126.917 14.584 126.826 14.6816C 126.735 14.7793 126.602 14.8281 126.426 14.8281C 126.25 14.8281 126.117 14.7793 126.025 14.6816C 125.938 14.584 125.894 14.4619 125.894 14.3154ZM 129.175 15.7168L 129.204 16.3809C 129.608 15.873 130.135 15.6191 130.786 15.6191C 131.903 15.6191 132.466 16.249 132.476 17.5088L 132.476 21L 131.572 21L 131.572 17.5039C 131.569 17.123 131.481 16.8415 131.309 16.6592C 131.139 16.4769 130.874 16.3857 130.513 16.3857C 130.22 16.3857 129.963 16.4639 129.741 16.6201C 129.52 16.7764 129.347 16.9814 129.224 17.2354L 129.224 21L 128.32 21L 128.32 15.7168L 129.175 15.7168ZM 133.623 18.3145C 133.623 17.4909 133.813 16.8366 134.194 16.3516C 134.575 15.8633 135.08 15.6191 135.708 15.6191C 136.353 15.6191 136.855 15.847 137.217 16.3027L 137.261 15.7168L 138.086 15.7168L 138.086 20.873C 138.086 21.5566 137.882 22.0954 137.476 22.4893C 137.072 22.8831 136.528 23.0801 135.845 23.0801C 135.464 23.0801 135.091 22.9987 134.727 22.8359C 134.362 22.6732 134.084 22.4502 133.892 22.167L 134.36 21.625C 134.748 22.1035 135.221 22.3428 135.781 22.3428C 136.221 22.3428 136.562 22.2191 136.807 21.9717C 137.054 21.7243 137.178 21.376 137.178 20.9268L 137.178 20.4727C 136.816 20.8893 136.323 21.0977 135.698 21.0977C 135.08 21.0977 134.578 20.8486 134.194 20.3506C 133.813 19.8525 133.623 19.1738 133.623 18.3145ZM 134.531 18.417C 134.531 19.0127 134.653 19.4814 134.897 19.8232C 135.142 20.1618 135.483 20.3311 135.923 20.3311C 136.493 20.3311 136.911 20.0723 137.178 19.5547L 137.178 17.1426C 136.901 16.638 136.486 16.3857 135.933 16.3857C 135.493 16.3857 135.15 16.5566 134.902 16.8984C 134.655 17.2402 134.531 17.7464 134.531 18.417ZM 144.985 18.998L 143.696 18.998L 143.306 21L 142.607 21L 142.998 18.998L 141.831 18.998L 141.831 18.3291L 143.125 18.3291L 143.462 16.6006L 142.202 16.6006L 142.202 15.9219L 143.594 15.9219L 143.994 13.8906L 144.692 13.8906L 144.292 15.9219L 145.581 15.9219L 145.981 13.8906L 146.685 13.8906L 146.284 15.9219L 147.28 15.9219L 147.28 16.6006L 146.152 16.6006L 145.815 18.3291L 146.914 18.3291L 146.914 18.998L 145.688 18.998L 145.298 21L 144.595 21L 144.985 18.998ZM 143.823 18.3291L 145.112 18.3291L 145.449 16.6006L 144.16 16.6006L 143.823 18.3291ZM 151.548 13.8857L 151.548 14.6523L 151.382 14.6523C 150.679 14.6654 150.119 14.8737 149.702 15.2773C 149.285 15.681 149.045 16.249 148.979 16.9814C 149.354 16.5518 149.865 16.3369 150.513 16.3369C 151.131 16.3369 151.624 16.555 151.992 16.9912C 152.363 17.4274 152.549 17.9906 152.549 18.6807C 152.549 19.4131 152.349 19.999 151.948 20.4385C 151.551 20.8779 151.017 21.0977 150.347 21.0977C 149.666 21.0977 149.115 20.8372 148.691 20.3164C 148.268 19.7923 148.057 19.1185 148.057 18.2949L 148.057 17.9482C 148.057 16.6396 148.335 15.6403 148.892 14.9502C 149.451 14.2568 150.283 13.902 151.387 13.8857L 151.548 13.8857ZM 150.361 17.0889C 150.052 17.0889 149.767 17.1816 149.507 17.3672C 149.246 17.5527 149.066 17.7855 148.965 18.0654L 148.965 18.3975C 148.965 18.9834 149.097 19.4554 149.36 19.8135C 149.624 20.1715 149.953 20.3506 150.347 20.3506C 150.754 20.3506 151.073 20.2008 151.304 19.9014C 151.538 19.6019 151.655 19.2096 151.655 18.7246C 151.655 18.2363 151.536 17.8424 151.299 17.543C 151.064 17.2402 150.752 17.0889 150.361 17.0889ZM 158.208 14.3984L 155.264 21L 154.316 21L 157.251 14.6328L 153.403 14.6328L 153.403 13.8906L 158.208 13.8906L 158.208 14.3984ZM 162.695 17.875C 162.507 18.0996 162.28 18.2803 162.017 18.417C 161.756 18.5537 161.47 18.6221 161.157 18.6221C 160.747 18.6221 160.389 18.5212 160.083 18.3193C 159.78 18.1175 159.546 17.8343 159.38 17.4697C 159.214 17.1019 159.131 16.6966 159.131 16.2539C 159.131 15.7786 159.22 15.3506 159.399 14.9697C 159.582 14.5889 159.839 14.2975 160.171 14.0957C 160.503 13.8939 160.89 13.793 161.333 13.793C 162.036 13.793 162.59 14.0566 162.993 14.584C 163.4 15.1081 163.604 15.8242 163.604 16.7324L 163.604 16.9961C 163.604 18.3796 163.33 19.3903 162.783 20.0283C 162.236 20.6631 161.411 20.9886 160.308 21.0049L 160.132 21.0049L 160.132 20.2432L 160.322 20.2432C 161.068 20.2301 161.641 20.0365 162.041 19.6621C 162.441 19.2845 162.66 18.6888 162.695 17.875ZM 161.304 17.875C 161.606 17.875 161.885 17.7822 162.139 17.5967C 162.396 17.4111 162.583 17.1816 162.7 16.9082L 162.7 16.5469C 162.7 15.9544 162.572 15.4727 162.314 15.1016C 162.057 14.7305 161.732 14.5449 161.338 14.5449C 160.941 14.5449 160.622 14.6979 160.381 15.0039C 160.14 15.3066 160.02 15.707 160.02 16.2051C 160.02 16.6901 160.135 17.0905 160.366 17.4062C 160.601 17.7188 160.913 17.875 161.304 17.875ZM 169.438 14.3984L 166.494 21L 165.547 21L 168.481 14.6328L 164.634 14.6328L 164.634 13.8906L 169.438 13.8906L 169.438 14.3984ZM 172.642 18.1631C 172.642 18.889 172.546 19.5856 172.354 20.2529C 172.165 20.917 171.873 21.5306 171.479 22.0938C 171.089 22.6569 170.679 23.0573 170.249 23.2949L 170.059 22.7432C 170.56 22.359 170.962 21.7633 171.265 20.9561C 171.571 20.1455 171.727 19.2471 171.733 18.2607L 171.733 18.1045C 171.733 17.4209 171.662 16.7861 171.519 16.2002C 171.375 15.611 171.175 15.0837 170.918 14.6182C 170.664 14.1527 170.378 13.7897 170.059 13.5293L 170.249 12.9775C 170.679 13.2152 171.087 13.6123 171.475 14.1689C 171.865 14.7256 172.157 15.3392 172.349 16.0098C 172.544 16.6803 172.642 17.3981 172.642 18.1631Z"/><path id="path8_fill" fill-rule="evenodd" d="M 5.20234 4.36809L 9.35484 4.36809L 9.35484 5.41793L 5.20234 5.41793L 5.20234 9.936L 4.06814 9.936L 4.06814 5.41793L 0 5.41793L 0 4.36809L 4.06814 4.36809L 4.06814 0L 5.20234 0L 5.20234 4.36809Z"/></defs></svg>