<svg xmlns="http://www.w3.org/2000/svg" xmlns:xlink="http://www.w3.org/1999/xlink" width="1229" height="711" version="1.1" viewBox="0 0 1229 711"><title>MacBook</title><desc>Created using Figma</desc><g id="Canvas" transform="translate(751 311)"><g id="MacBook"><g id="Page 1"><g id="Macbook Space Grey"><g id="Shadow" filter="url(#filter0_f)" opacity=".7"><use fill="url(#paint0_linear)" transform="translate(-742 382)" xlink:href="#path0_fill"/></g><g id="Screen Panel"><mask id="mask0_alpha" mask-type="alpha"><g id="mask 4"><g id="Vector"><use fill="#FFF" transform="translate(-639 -311)" xlink:href="#path1_fill"/></g></g></mask><g id="Mask" mask="url(#mask0_alpha)"><use fill="#828186" transform="translate(-639 -311)" xlink:href="#path1_fill"/></g><g id="outer.screenshell contrast" mask="url(#mask0_alpha)"><g id="Vector" filter="url(#filter1_i)"><use transform="translate(-639 -311)" xlink:href="#path1_fill"/></g><g id="Vector"><use fill="#AFADB2" transform="translate(-639 -311)" xlink:href="#path2_stroke"/></g></g><g id="bezel" mask="url(#mask0_alpha)"><g id="Vector"><use transform="translate(-635 -307)" xlink:href="#path3_fill"/></g><g id="Vector" filter="url(#filter2_i)"><use transform="translate(-635 -307)" xlink:href="#path3_fill"/></g><g id="Vector"><use fill="#545358" transform="translate(-635 -307)" xlink:href="#path4_stroke"/></g><g id="Vector"><use fill="#2A2F32" transform="translate(-635 -307)" xlink:href="#path5_stroke"/></g><g id="Vector"><use fill="#0B0A0F" transform="translate(-635 -307)" xlink:href="#path4_stroke"/></g></g><g id="FaceTime" mask="url(#mask0_alpha)"><g id="Group"><g id="Oval 6"><g id="Vector"><use fill="#121413" transform="translate(-141.5 -286)" xlink:href="#path6_fill"/></g><g id="Vector" filter="url(#filter3_i)"><use transform="translate(-141.5 -286)" xlink:href="#path6_fill"/></g></g><g id="Oval 6 Copy"><g id="Vector" filter="url(#filter4_d)"><use transform="translate(-139.5 -284)" xlink:href="#path7_fill"/></g><g id="Vector"><use fill="#010302" transform="translate(-139.5 -284)" xlink:href="#path7_fill"/></g><g id="Vector"><use fill="url(#paint14_radial)" transform="translate(-139.5 -284)" xlink:href="#path7_fill"/></g><g id="Vector"><use fill="url(#paint15_radial)" transform="translate(-139.5 -284)" xlink:href="#path7_fill"/></g><g id="Vector" filter="url(#filter5_i)"><use transform="translate(-139.5 -284)" xlink:href="#path7_fill"/></g></g></g></g><mask id="mask1_alpha" mask-type="alpha"><g id="mask 21"><g id="Vector"><use fill="#FFF" transform="translate(-598 -258)" xlink:href="#path8_fill"/></g></g></mask><g id="Mask" mask="url(#mask1_alpha)"><use fill="#19171A" transform="translate(-598 -258)" xlink:href="#path8_fill"/></g></g><g id="Bottom Panel"><g id="bottom panel"><mask id="mask2_alpha" mask-type="alpha"><g id="mask 26"><g id="Vector"><use fill="#FFF" transform="translate(-751 375)" xlink:href="#path9_fill"/></g></g></mask><g id="Group" mask="url(#mask2_alpha)"><g id="Vector"><use fill="#6A696E" transform="translate(-751 375)" xlink:href="#path9_fill"/></g><g id="Vector"><use fill="url(#paint21_linear)" transform="translate(-751 375)" xlink:href="#path9_fill"/></g></g><g id="Shape" mask="url(#mask2_alpha)"><g id="Vector" filter="url(#filter6_i)"><use transform="translate(-750.5 381)" xlink:href="#path10_fill"/></g><g id="Vector"><use fill="#000" fill-opacity=".232" transform="translate(-750.5 381)" xlink:href="#path10_fill"/></g></g><mask id="mask3_alpha" mask-type="alpha"><g id="mask 31"><g id="Vector"><use fill="#FFF" transform="translate(-751 375)" xlink:href="#path9_fill"/></g></g></mask><g id="bottom panel left gradient" mask="url(#mask3_alpha)"><use fill="url(#paint25_linear)" transform="matrix(-1 0 0 1 476 375)" xlink:href="#path9_fill"/></g><mask id="mask4_alpha" mask-type="alpha"><g id="mask 34"><g id="Vector"><use fill="#FFF" transform="translate(-751 375)" xlink:href="#path9_fill"/></g></g></mask><g id="bottom panel right gradient" mask="url(#mask4_alpha)"><use fill="url(#paint27_linear)" transform="translate(-751 375)" xlink:href="#path9_fill"/></g><mask id="mask5_alpha" mask-type="alpha"><g id="mask 38"><g id="Vector"><use fill="#FFF" transform="translate(-751 375)" xlink:href="#path9_fill"/></g></g></mask><g id="screw hole" mask="url(#mask5_alpha)"><g id="Vector"><use fill="url(#paint29_linear)" transform="matrix(0.996195 -0.0871557 0.0871557 0.996195 349.89 387.485)" xlink:href="#path11_fill"/></g><g id="Vector" filter="url(#filter7_i)"><use transform="matrix(0.996195 -0.0871557 0.0871557 0.996195 349.89 387.485)" xlink:href="#path11_fill"/></g></g><g id="screw hole" mask="url(#mask5_alpha)"><g id="Vector"><use fill="url(#paint31_linear)" transform="matrix(-1 0 0 1 -282 387)" xlink:href="#path11_fill"/></g><g id="Vector" filter="url(#filter8_i)"><use transform="matrix(-1 0 0 1 -282 387)" xlink:href="#path11_fill"/></g></g><g id="screw hole" mask="url(#mask5_alpha)"><g id="Vector"><use fill="url(#paint33_linear)" transform="matrix(-1 0 0 1 19 387)" xlink:href="#path11_fill"/></g><g id="Vector" filter="url(#filter9_i)"><use transform="matrix(-1 0 0 1 19 387)" xlink:href="#path11_fill"/></g></g><g id="screw hole" mask="url(#mask5_alpha)"><g id="Vector"><use fill="url(#paint35_linear)" transform="matrix(-0.996195 -0.0871557 -0.0871557 0.996195 -624.89 387.485)" xlink:href="#path11_fill"/></g><g id="Vector" filter="url(#filter10_i)"><use transform="matrix(-0.996195 -0.0871557 -0.0871557 0.996195 -624.89 387.485)" xlink:href="#path11_fill"/></g></g><g id="bottom lid shadow" mask="url(#mask5_alpha)"><g id="Vector" filter="url(#filter11_d)"><use transform="translate(-751 371)" xlink:href="#path12_fill"/></g></g></g><g id="bottom lid + shadow left edge + shadow right edge"><mask id="mask6_alpha" mask-type="alpha"><g id="mask 51"><g id="Vector"><use fill="#FFF" transform="translate(-751 371)" xlink:href="#path13_fill"/></g></g></mask><g id="bottom lid" mask="url(#mask6_alpha)"><use fill="#C5C4CA" transform="translate(-751 371)" xlink:href="#path13_fill"/></g><g id="shadow left edge" mask="url(#mask6_alpha)"><use fill="url(#paint40_linear)" transform="translate(-751 371)" xlink:href="#path14_fill"/></g><g id="shadow right edge" mask="url(#mask6_alpha)"><use fill="url(#paint41_linear)" transform="matrix(-1 0 0 1 476 371)" xlink:href="#path15_fill"/></g><mask id="mask7_alpha" mask-type="alpha"><g id="mask 54"><g id="Vector"><use fill="#FFF" transform="translate(-751 371)" xlink:href="#path13_fill"/></g></g></mask><g id="bottom lid" mask="url(#mask7_alpha)"><g id="Vector" filter="url(#filter12_i)"><use transform="translate(-751 371)" xlink:href="#path13_fill"/></g></g></g><g id="lid catch left shadow + lid catch right shadow Mask"><mask id="mask8_alpha" mask-type="alpha"><g id="mask 57"><g id="Vector"><use fill="#FFF" transform="translate(-255 371)" xlink:href="#path16_fill"/></g></g></mask><g id="lid catch" mask="url(#mask8_alpha)"><g id="Vector"><use fill="#C4C3C9" transform="translate(-255 371)" xlink:href="#path16_fill"/></g><g id="Vector" filter="url(#filter13_i)"><use transform="translate(-255 371)" xlink:href="#path16_fill"/></g></g><g id="lid catch left shadow" mask="url(#mask8_alpha)"><use fill="url(#paint47_linear)" transform="translate(-255 371)" xlink:href="#path17_fill"/></g><g id="lid catch right shadow" mask="url(#mask8_alpha)"><use fill="url(#paint48_linear)" transform="matrix(-1 0 0 1 -20 371)" xlink:href="#path18_fill"/></g></g></g></g></g></g></g><defs><filter id="filter0_f" width="1222" height="20" x="-744" y="380" color-interpolation-filters="sRGB" filterUnits="userSpaceOnUse"><feFlood flood-opacity="0" result="BackgroundImageFix"/><feBlend in="SourceGraphic" in2="BackgroundImageFix" mode="normal" result="shape"/><feGaussianBlur result="effect1_foregroundBlur" stdDeviation="1"/></filter><filter id="filter1_i" width="1003" height="696" x="-639" y="-311" color-interpolation-filters="sRGB" filterUnits="userSpaceOnUse"><feFlood flood-opacity="0" result="BackgroundImageFix"/><feBlend in="SourceGraphic" in2="BackgroundImageFix" mode="normal" result="shape"/><feColorMatrix in="SourceAlpha" result="hardAlpha" type="matrix" values="0 0 0 0 0 0 0 0 0 0 0 0 0 0 0 0 0 0 255 0"/><feOffset dx="0" dy="0"/><feGaussianBlur stdDeviation="1"/><feComposite in2="hardAlpha" k2="-1" k3="1" operator="arithmetic"/><feColorMatrix type="matrix" values="0 0 0 0 0.705882 0 0 0 0 0.701961 0 0 0 0 0.721569 0 0 0 1 0"/><feBlend in2="shape" mode="normal" result="effect1_innerShadow"/></filter><filter id="filter2_i" width="995" height="688" x="-635" y="-307" color-interpolation-filters="sRGB" filterUnits="userSpaceOnUse"><feFlood flood-opacity="0" result="BackgroundImageFix"/><feBlend in="SourceGraphic" in2="BackgroundImageFix" mode="normal" result="shape"/><feColorMatrix in="SourceAlpha" result="hardAlpha" type="matrix" values="0 0 0 0 0 0 0 0 0 0 0 0 0 0 0 0 0 0 255 0"/><feOffset dx="0" dy="0"/><feGaussianBlur stdDeviation="1"/><feComposite in2="hardAlpha" k2="-1" k3="1" operator="arithmetic"/><feColorMatrix type="matrix" values="0 0 0 0 0.121569 0 0 0 0 0.12549 0 0 0 0 0.141176 0 0 0 1 0"/><feBlend in2="shape" mode="normal" result="effect1_innerShadow"/></filter><filter id="filter3_i" width="9" height="9" x="-142" y="-286" color-interpolation-filters="sRGB" filterUnits="userSpaceOnUse"><feFlood flood-opacity="0" result="BackgroundImageFix"/><feBlend in="SourceGraphic" in2="BackgroundImageFix" mode="normal" result="shape"/><feColorMatrix in="SourceAlpha" result="hardAlpha" type="matrix" values="0 0 0 0 0 0 0 0 0 0 0 0 0 0 0 0 0 0 255 0"/><feOffset dx="0" dy="1"/><feGaussianBlur stdDeviation=".25"/><feComposite in2="hardAlpha" k2="-1" k3="1" operator="arithmetic"/><feColorMatrix type="matrix" values="0 0 0 0 0 0 0 0 0 0 0 0 0 0 0 0 0 0 0.346298 0"/><feBlend in2="shape" mode="normal" result="effect1_innerShadow"/></filter><filter id="filter4_d" width="9" height="8" x="-142" y="-285" color-interpolation-filters="sRGB" filterUnits="userSpaceOnUse"><feFlood flood-opacity="0" result="BackgroundImageFix"/><feColorMatrix in="SourceAlpha" type="matrix" values="0 0 0 0 0 0 0 0 0 0 0 0 0 0 0 0 0 0 255 0"/><feOffset dx="0" dy="1"/><feGaussianBlur stdDeviation="1"/><feColorMatrix type="matrix" values="0 0 0 0 0 0 0 0 0 0 0 0 0 0 0 0 0 0 0.350147 0"/><feBlend in2="BackgroundImageFix" mode="normal" result="effect1_dropShadow"/><feBlend in="SourceGraphic" in2="effect1_dropShadow" mode="normal" result="shape"/></filter><filter id="filter5_i" width="5" height="4" x="-140" y="-284" color-interpolation-filters="sRGB" filterUnits="userSpaceOnUse"><feFlood flood-opacity="0" result="BackgroundImageFix"/><feBlend in="SourceGraphic" in2="BackgroundImageFix" mode="normal" result="shape"/><feColorMatrix in="SourceAlpha" result="hardAlpha" type="matrix" values="0 0 0 0 0 0 0 0 0 0 0 0 0 0 0 0 0 0 255 0"/><feOffset dx="0" dy="0"/><feGaussianBlur stdDeviation="2"/><feComposite in2="hardAlpha" k2="-1" k3="1" operator="arithmetic"/><feColorMatrix type="matrix" values="0 0 0 0 0 0 0 0 0 0 0 0 0 0 0 0 0 0 0.296705 0"/><feBlend in2="shape" mode="normal" result="effect1_innerShadow"/></filter><filter id="filter6_i" width="1228" height="2" x="-751" y="381" color-interpolation-filters="sRGB" filterUnits="userSpaceOnUse"><feFlood flood-opacity="0" result="BackgroundImageFix"/><feBlend in="SourceGraphic" in2="BackgroundImageFix" mode="normal" result="shape"/><feColorMatrix in="SourceAlpha" result="hardAlpha" type="matrix" values="0 0 0 0 0 0 0 0 0 0 0 0 0 0 0 0 0 0 255 0"/><feOffset dx="0" dy="1"/><feGaussianBlur stdDeviation="2"/><feComposite in2="hardAlpha" k2="-1" k3="1" operator="arithmetic"/><feColorMatrix type="matrix" values="0 0 0 0 1 0 0 0 0 1 0 0 0 0 1 0 0 0 0.124009 0"/><feBlend in2="shape" mode="normal" result="effect1_innerShadow"/></filter><filter id="filter7_i" width="11" height="7" x="350" y="384" color-interpolation-filters="sRGB" filterUnits="userSpaceOnUse"><feFlood flood-opacity="0" result="BackgroundImageFix"/><feBlend in="SourceGraphic" in2="BackgroundImageFix" mode="normal" result="shape"/><feColorMatrix in="SourceAlpha" result="hardAlpha" type="matrix" values="0 0 0 0 0 0 0 0 0 0 0 0 0 0 0 0 0 0 255 0"/><feOffset dx="0" dy="-2"/><feGaussianBlur stdDeviation="2"/><feComposite in2="hardAlpha" k2="-1" k3="1" operator="arithmetic"/><feColorMatrix type="matrix" values="0 0 0 0 0.286275 0 0 0 0 0.282353 0 0 0 0 0.298039 0 0 0 1 0"/><feBlend in2="shape" mode="normal" result="effect1_innerShadow"/></filter><filter id="filter8_i" width="11" height="5" x="-293" y="385" color-interpolation-filters="sRGB" filterUnits="userSpaceOnUse"><feFlood flood-opacity="0" result="BackgroundImageFix"/><feBlend in="SourceGraphic" in2="BackgroundImageFix" mode="normal" result="shape"/><feColorMatrix in="SourceAlpha" result="hardAlpha" type="matrix" values="0 0 0 0 0 0 0 0 0 0 0 0 0 0 0 0 0 0 255 0"/><feOffset dx="0" dy="-2"/><feGaussianBlur stdDeviation="2"/><feComposite in2="hardAlpha" k2="-1" k3="1" operator="arithmetic"/><feColorMatrix type="matrix" values="0 0 0 0 0.286275 0 0 0 0 0.282353 0 0 0 0 0.298039 0 0 0 1 0"/><feBlend in2="shape" mode="normal" result="effect1_innerShadow"/></filter><filter id="filter9_i" width="11" height="5" x="8" y="385" color-interpolation-filters="sRGB" filterUnits="userSpaceOnUse"><feFlood flood-opacity="0" result="BackgroundImageFix"/><feBlend in="SourceGraphic" in2="BackgroundImageFix" mode="normal" result="shape"/><feColorMatrix in="SourceAlpha" result="hardAlpha" type="matrix" values="0 0 0 0 0 0 0 0 0 0 0 0 0 0 0 0 0 0 255 0"/><feOffset dx="0" dy="-2"/><feGaussianBlur stdDeviation="2"/><feComposite in2="hardAlpha" k2="-1" k3="1" operator="arithmetic"/><feColorMatrix type="matrix" values="0 0 0 0 0.286275 0 0 0 0 0.282353 0 0 0 0 0.298039 0 0 0 1 0"/><feBlend in2="shape" mode="normal" result="effect1_innerShadow"/></filter><filter id="filter10_i" width="11" height="7" x="-636" y="384" color-interpolation-filters="sRGB" filterUnits="userSpaceOnUse"><feFlood flood-opacity="0" result="BackgroundImageFix"/><feBlend in="SourceGraphic" in2="BackgroundImageFix" mode="normal" result="shape"/><feColorMatrix in="SourceAlpha" result="hardAlpha" type="matrix" values="0 0 0 0 0 0 0 0 0 0 0 0 0 0 0 0 0 0 255 0"/><feOffset dx="0" dy="-2"/><feGaussianBlur stdDeviation="2"/><feComposite in2="hardAlpha" k2="-1" k3="1" operator="arithmetic"/><feColorMatrix type="matrix" values="0 0 0 0 0.286934 0 0 0 0 0.283505 0 0 0 0 0.29722 0 0 0 1 0"/><feBlend in2="shape" mode="normal" result="effect1_innerShadow"/></filter><filter id="filter11_d" width="1239" height="19" x="-757" y="366" color-interpolation-filters="sRGB" filterUnits="userSpaceOnUse"><feFlood flood-opacity="0" result="BackgroundImageFix"/><feColorMatrix in="SourceAlpha" type="matrix" values="0 0 0 0 0 0 0 0 0 0 0 0 0 0 0 0 0 0 255 0"/><feOffset dx="0" dy="1"/><feGaussianBlur stdDeviation="3"/><feColorMatrix type="matrix" values="0 0 0 0 0.45098 0 0 0 0 0.447059 0 0 0 0 0.462745 0 0 0 1 0"/><feBlend in2="BackgroundImageFix" mode="normal" result="effect1_dropShadow"/><feBlend in="SourceGraphic" in2="effect1_dropShadow" mode="normal" result="shape"/></filter><filter id="filter12_i" width="1227" height="8" x="-751" y="370" color-interpolation-filters="sRGB" filterUnits="userSpaceOnUse"><feFlood flood-opacity="0" result="BackgroundImageFix"/><feBlend in="SourceGraphic" in2="BackgroundImageFix" mode="normal" result="shape"/><feColorMatrix in="SourceAlpha" result="hardAlpha" type="matrix" values="0 0 0 0 0 0 0 0 0 0 0 0 0 0 0 0 0 0 255 0"/><feOffset dx="0" dy="-1"/><feGaussianBlur stdDeviation="2"/><feComposite in2="hardAlpha" k2="-1" k3="1" operator="arithmetic"/><feColorMatrix type="matrix" values="0 0 0 0 1 0 0 0 0 1 0 0 0 0 1 0 0 0 0.0578295 0"/><feBlend in2="shape" mode="normal" result="effect1_innerShadow"/></filter><filter id="filter13_i" width="235" height="10" x="-255" y="370" color-interpolation-filters="sRGB" filterUnits="userSpaceOnUse"><feFlood flood-opacity="0" result="BackgroundImageFix"/><feBlend in="SourceGraphic" in2="BackgroundImageFix" mode="normal" result="shape"/><feColorMatrix in="SourceAlpha" result="hardAlpha" type="matrix" values="0 0 0 0 0 0 0 0 0 0 0 0 0 0 0 0 0 0 255 0"/><feOffset dx="0" dy="-1"/><feGaussianBlur stdDeviation="2"/><feComposite in2="hardAlpha" k2="-1" k3="1" operator="arithmetic"/><feColorMatrix type="matrix" values="0 0 0 0 1 0 0 0 0 1 0 0 0 0 1 0 0 0 0.2485 0"/><feBlend in2="shape" mode="normal" result="effect1_innerShadow"/></filter><linearGradient id="paint0_linear" x1="0" x2="1" y1="0" y2="0" gradientTransform="matrix(1218 0 0 15.036 0 -7.51798)" gradientUnits="userSpaceOnUse"><stop offset="0" stop-color="#000" stop-opacity="0"/><stop offset=".072"/><stop offset=".497"/><stop offset=".928"/><stop offset="1" stop-color="#000" stop-opacity="0"/></linearGradient><radialGradient id="paint14_radial" cx=".5" cy=".5" r=".5" gradientTransform="matrix(4 0 0 4 0 2)" gradientUnits="userSpaceOnUse"><stop offset="0" stop-color="#282A29"/><stop offset="1" stop-color="#282A29" stop-opacity="0"/></radialGradient><radialGradient id="paint15_radial" cx=".5" cy=".5" r=".5" gradientTransform="matrix(8 0 0 8 -2 -4)" gradientUnits="userSpaceOnUse"><stop offset="0" stop-color="#181C1B"/><stop offset="1" stop-color="#181C1B" stop-opacity="0"/></radialGradient><linearGradient id="paint21_linear" x1="0" x2="1" y1="0" y2="0" gradientTransform="matrix(0 20 -1227 0 1227 0)" gradientUnits="userSpaceOnUse"><stop offset="0" stop-color="#747378"/><stop offset=".278" stop-color="#7E7D81"/><stop offset="1" stop-color="#252429"/></linearGradient><linearGradient id="paint25_linear" x1="0" x2="1" y1="0" y2="0" gradientTransform="matrix(120.152 0 0 1.95847 1106.85 9.02076)" gradientUnits="userSpaceOnUse"><stop offset="0" stop-color="#2F2E33" stop-opacity="0"/><stop offset="1" stop-color="#2F2E33"/></linearGradient><linearGradient id="paint27_linear" x1="0" x2="1" y1="0" y2="0" gradientTransform="matrix(120.152 0 0 1.95847 1106.85 9.02076)" gradientUnits="userSpaceOnUse"><stop offset="0" stop-color="#2F2E33" stop-opacity="0"/><stop offset="1" stop-color="#2F2E33" stop-opacity=".75"/></linearGradient><linearGradient id="paint29_linear" x1="0" x2="1" y1="0" y2="0" gradientTransform="matrix(0 3 -11 0 11 0)" gradientUnits="userSpaceOnUse"><stop offset="0" stop-color="#252120"/><stop offset="1" stop-color="#383433"/></linearGradient><linearGradient id="paint31_linear" x1="0" x2="1" y1="0" y2="0" gradientTransform="matrix(0 3 -11 0 11 0)" gradientUnits="userSpaceOnUse"><stop offset="0" stop-color="#252120"/><stop offset="1" stop-color="#383433"/></linearGradient><linearGradient id="paint33_linear" x1="0" x2="1" y1="0" y2="0" gradientTransform="matrix(0 3 -11 0 11 0)" gradientUnits="userSpaceOnUse"><stop offset="0" stop-color="#252120"/><stop offset="1" stop-color="#383433"/></linearGradient><linearGradient id="paint35_linear" x1="0" x2="1" y1="0" y2="0" gradientTransform="matrix(0 3 -11 0 11 0)" gradientUnits="userSpaceOnUse"><stop offset="0" stop-color="#252120"/><stop offset="1" stop-color="#383433"/></linearGradient><linearGradient id="paint40_linear" x1="0" x2="1" y1="0" y2="0" gradientTransform="matrix(-31.0432 0 -0 -3.44925 31.0432 5.22462)" gradientUnits="userSpaceOnUse"><stop offset="0" stop-color="#C5C4CA"/><stop offset=".46" stop-color="#807F85"/><stop offset=".901" stop-color="#252429"/><stop offset="1" stop-color="#5F5E63"/></linearGradient><linearGradient id="paint41_linear" x1="0" x2="1" y1="0" y2="0" gradientTransform="matrix(-31.0432 0 -0 -3.44925 31.0432 5.22462)" gradientUnits="userSpaceOnUse"><stop offset="0" stop-color="#C5C4CA"/><stop offset=".46" stop-color="#807F85"/><stop offset=".901" stop-color="#252429"/><stop offset="1" stop-color="#5F5E63"/></linearGradient><linearGradient id="paint47_linear" x1="0" x2="1" y1="0" y2="0" gradientTransform="matrix(-10.4873 0 -0 -0.401641 10.4873 4.70082)" gradientUnits="userSpaceOnUse"><stop offset="0" stop-color="#45444A" stop-opacity=".026"/><stop offset="1" stop-color="#45444A"/></linearGradient><linearGradient id="paint48_linear" x1="0" x2="1" y1="0" y2="0" gradientTransform="matrix(-10.4873 0 -0 -0.401641 10.4873 4.70082)" gradientUnits="userSpaceOnUse"><stop offset="0" stop-color="#45444A" stop-opacity="0"/><stop offset="1" stop-color="#45444A"/></linearGradient><path id="path0_fill" fill-rule="evenodd" d="M 609 15C 945.341 15 1218 15.6421 1218 11.5C 1218 7.35786 945.341 0 609 0C 272.659 0 0 7.35786 0 11.5C 0 15.6421 272.659 15 609 15Z"/><path id="path1_fill" d="M 0 39.0042C 0 17.4635 17.4629 0 39.0016 0L 963.998 0C 985.537 0 1003 17.4661 1003 39.0042L 1003 669.001C 1003 683.913 990.913 696 976 696L 27.0002 696C 12.0873 696 0 683.915 0 669.001L 0 39.0042Z"/><path id="path2_stroke" d="M 1 39.0042C 1 18.0157 18.0152 1 39.0016 1L 39.0016 -1C 16.9105 -1 -1 16.9113 -1 39.0042L 1 39.0042ZM 39.0016 1L 963.998 1L 963.998 -1L 39.0016 -1L 39.0016 1ZM 963.998 1C 984.985 1 1002 18.0183 1002 39.0042L 1004 39.0042C 1004 16.9139 986.089 -1 963.998 -1L 963.998 1ZM 1002 39.0042L 1002 669.001L 1004 669.001L 1004 39.0042L 1002 39.0042ZM 1002 669.001C 1002 683.36 990.36 695 976 695L 976 697C 991.465 697 1004 684.465 1004 669.001L 1002 669.001ZM 976 695L 27.0002 695L 27.0002 697L 976 697L 976 695ZM 27.0002 695C 12.6395 695 1 683.362 1 669.001L -1 669.001C -1 684.467 11.5351 697 27.0002 697L 27.0002 695ZM 1 669.001L 1 39.0042L -1 39.0042L -1 669.001L 1 669.001Z"/><path id="path3_fill" d="M 960 0L 35 0C 15.67 0 0 15.67 0 35L 0 653C 0 672.33 15.67 688 35 688L 960 688C 979.33 688 995 672.33 995 653L 995 35C 995 15.67 979.33 0 960 0Z"/><path id="path4_stroke" d="M 35 1L 960 1L 960 -1L 35 -1L 35 1ZM 960 1C 978.778 1 994 16.2223 994 35L 996 35C 996 15.1177 979.882 -1 960 -1L 960 1ZM 994 35L 994 653L 996 653L 996 35L 994 35ZM 994 653C 994 671.778 978.778 687 960 687L 960 689C 979.882 689 996 672.882 996 653L 994 653ZM 960 687L 35 687L 35 689L 960 689L 960 687ZM 35 687C 16.2223 687 1 671.778 1 653L -1 653C -1 672.882 15.1177 689 35 689L 35 687ZM 1 653L 1 35L -1 35L -1 653L 1 653ZM 1 35C 1 16.2223 16.2223 1 35 1L 35 -1C 15.1177 -1 -1 15.1177 -1 35L 1 35Z"/><path id="path5_stroke" d="M 35 2L 960 2L 960 -2L 35 -2L 35 2ZM 960 2C 978.225 2 993 16.7746 993 35L 997 35C 997 14.5655 980.435 -2 960 -2L 960 2ZM 993 35L 993 653L 997 653L 997 35L 993 35ZM 993 653C 993 671.225 978.225 686 960 686L 960 690C 980.435 690 997 673.435 997 653L 993 653ZM 960 686L 35 686L 35 690L 960 690L 960 686ZM 35 686C 16.7746 686 2 671.225 2 653L -2 653C -2 673.435 14.5655 690 35 690L 35 686ZM 2 653L 2 35L -2 35L -2 653L 2 653ZM 2 35C 2 16.7746 16.7746 2 35 2L 35 -2C 14.5655 -2 -2 14.5655 -2 35L 2 35Z"/><path id="path6_fill" d="M 4 8C 6.20914 8 8 6.20914 8 4C 8 1.79086 6.20914 0 4 0C 1.79086 0 0 1.79086 0 4C 0 6.20914 1.79086 8 4 8Z"/><path id="path7_fill" d="M 2 4C 3.10457 4 4 3.10457 4 2C 4 0.89543 3.10457 0 2 0C 0.89543 0 0 0.89543 0 2C 0 3.10457 0.89543 4 2 4Z"/><path id="path8_fill" d="M 922 0L 0 0L 0 576L 922 576L 922 0Z"/><path id="path9_fill" d="M -4.04748e-22 2L -4.04748e-22 -2.399e-24L 1227 -2.399e-24L 1227 2C 1227 7 1168 20 1060 20L 166 20C 66.5 20 -4.04748e-22 7 -4.04748e-22 2Z"/><path id="path10_fill" d="M 0.999186 0.5L 1227 0.5L 1227 0L 0.999186 0L 0 0L 0 0.5L 0.999186 0.5Z"/><path id="path11_fill" d="M 5.5 3C 8.53757 3 11 2.32843 11 1.5C 11 0.671573 8.53757 0 5.5 0C 2.46243 0 0 0.671573 0 1.5C 0 2.32843 2.46243 3 5.5 3Z"/><path id="path12_fill" d="M 8.00091e-15 1C -1.03285e-07 0.5 1 0 4 0L 1223 0C 1226 0 1227 0.5 1227 1L 1227 6C 1227 6.5 1226 7 1223 7L 4 7C 1 7 5.22489e-07 6.5 8.00091e-15 6L 8.00091e-15 1Z"/><path id="path13_fill" d="M 7.99361e-15 1C -1.03e-07 0.5 1 -3.47035e-09 4 1.8065e-17L 1223 1.8065e-17C 1226 4.94784e-09 1227 0.5 1227 1L 1227 6C 1227 6.5 1226 7 1223 7L 4 7C 1 7 5.2e-07 6.5 7.99361e-15 6L 7.99361e-15 1Z"/><path id="path14_fill" fill-rule="evenodd" d="M 0 1C -5e-09 0.5 1 0 4 0L 63 0L 63 7L 4 7C 1 7 3e-08 6.5 0 6L 0 1Z"/><path id="path15_fill" fill-rule="evenodd" d="M 0 1C 0 0.5 1 0 4 0L 63 0L 63 7L 4 7C 1 7 0 6.5 0 6L 0 1Z"/><path id="path16_fill" d="M 0 0L 235 0L 235 7C 235 8 225 9 197 9L 38 9C 10 9 0 8 0 7L 0 0Z"/><path id="path17_fill" fill-rule="evenodd" d="M 0 0L 235 0L 235 7C 235 8 225 9 197 9L 38 9C 10 9 0 8 0 7L 0 0Z"/><path id="path18_fill" fill-rule="evenodd" d="M -3.9192e-23 0L 235 0L 235 7C 235 8 225 9 197 9L 38 9C 10 9 -3.9192e-23 8 -3.9192e-23 7L -3.9192e-23 0Z"/></defs></svg>