<svg width="39" height="60" viewBox="0 0 39 60" version="1.1" xmlns="http://www.w3.org/2000/svg" xmlns:xlink="http://www.w3.org/1999/xlink">
<title>email-notification</title>
<desc>Created using Figma</desc>
<g id="Canvas" transform="translate(-8678 -214)">
<g id="email-notification">
<g id="email">
<g id="Shape">
<use xlink:href="#path0_fill" transform="translate(8678 214)"/>
</g>
<g id="Shape">
<use xlink:href="#path1_fill" transform="translate(8691 219)"/>
</g>
</g>
<g id="EMAIL">
<use xlink:href="#path2_fill" transform="translate(8682 263)" fill="#434343"/>
</g>
</g>
</g>
<defs>
<path id="path0_fill" fill-rule="evenodd" d="M 36.7256 14.084L 32.001 10.9804L 32.001 0.607178C 32.001 0.271851 31.7266 0 31.3887 0L 5.61035 0C 5.27246 0 4.99805 0.271851 4.99805 0.607178L 4.99805 10.9811L 0.274414 14.0839C 0.109375 14.1928 0 14.3786 0 14.5899L 0 33.3928C 0 33.7281 0.274414 34 0.613281 34L 36.3867 34C 36.7256 34 37 33.7281 37 33.3928L 37 14.5899C 37 14.3786 36.8906 14.1928 36.7256 14.084ZM 4.99805 16.2074L 3.07617 15.1971L 4.99805 15.1971L 4.99805 16.2074ZM 15.3184 23.006L 1.22559 15.5993L 1.22559 32.2615L 15.3184 23.006ZM 18.5 22.373L 34.3535 32.7857L 2.64551 32.7857L 18.5 22.373ZM 35.7744 15.5993L 21.6816 23.0061L 35.7744 32.2618L 35.7744 15.5993ZM 32.001 15.1971L 33.9238 15.1971L 32.001 16.2077L 32.001 15.1971ZM 32.001 13.9828L 34.3535 13.9828L 32.001 12.4373L 32.001 13.9828ZM 30.7754 1.21434L 30.7754 16.8519L 20.5195 22.2425L 18.8379 21.1385C 18.6328 21.0037 18.3662 21.0037 18.1611 21.1385L 16.4805 22.2423L 6.22363 16.8515L 6.22363 1.21434L 30.7754 1.21434ZM 2.64648 13.9828L 4.99805 13.9828L 4.99805 12.4381L 2.64648 13.9828Z"/>
<path id="path1_fill" fill-rule="evenodd" d="M 10.3867 11L 5.5 11C 2.46777 11 0 8.57266 0 5.58899L 0 5.41093C 0 2.42734 2.46777 0 5.5 0C 8.53223 0 11 2.42734 11 5.41093L 11 5.85609C 11 7.02342 10.0352 7.97304 8.84863 7.97304C 8.07617 7.97304 7.39844 7.57115 7.01855 6.96912C 6.55273 7.37195 5.94141 7.61694 5.27344 7.61694C 3.8125 7.61694 2.62402 6.44768 2.62402 5.01044C 2.62402 3.57309 3.8125 2.40384 5.27344 2.40384C 6.73438 2.40384 7.92285 3.57318 7.92285 5.01044L 7.92285 5.85617C 7.92285 6.35806 8.33789 6.76628 8.84863 6.76628C 9.3584 6.76628 9.77344 6.35797 9.77344 5.85617L 9.77344 5.41101C 9.77344 3.09286 7.85645 1.20691 5.5 1.20691C 3.14355 1.20691 1.22656 3.09286 1.22656 5.41101L 1.22656 5.58907C 1.22656 7.90723 3.14355 9.79317 5.5 9.79317L 10.3867 9.79317C 10.7256 9.79317 11 10.0633 11 10.3966C 11 10.7298 10.7256 11 10.3867 11ZM 3.85059 5.01044C 3.85059 5.78224 4.48926 6.41011 5.27344 6.41011C 6.05762 6.41011 6.69629 5.78224 6.69629 5.01044C 6.69629 4.23863 6.05762 3.61067 5.27344 3.61067C 4.48926 3.61067 3.85059 4.23863 3.85059 5.01044Z"/>
<path id="path2_fill" d="M 5.8125 7.05664L 2.11523 7.05664L 2.11523 10.0801L 6.41016 10.0801L 6.41016 11L 0.990234 11L 0.990234 2.46875L 6.35156 2.46875L 6.35156 3.39453L 2.11523 3.39453L 2.11523 6.13672L 5.8125 6.13672L 5.8125 7.05664ZM 9.26367 2.46875L 12.0527 9.42969L 14.8418 2.46875L 16.3008 2.46875L 16.3008 11L 15.1758 11L 15.1758 7.67773L 15.2812 4.0918L 12.4805 11L 11.6191 11L 8.82422 4.10938L 8.93555 7.67773L 8.93555 11L 7.81055 11L 7.81055 2.46875L 9.26367 2.46875ZM 23.1035 8.77344L 19.5293 8.77344L 18.7266 11L 17.5664 11L 20.8242 2.46875L 21.8086 2.46875L 25.0723 11L 23.918 11L 23.1035 8.77344ZM 19.8691 7.84766L 22.7695 7.84766L 21.3164 3.85742L 19.8691 7.84766ZM 27.4277 11L 26.3027 11L 26.3027 2.46875L 27.4277 2.46875L 27.4277 11ZM 30.6211 10.0801L 34.6641 10.0801L 34.6641 11L 29.4902 11L 29.4902 2.46875L 30.6211 2.46875L 30.6211 10.0801Z"/>
</defs>
</svg>
