<svg xmlns="http://www.w3.org/2000/svg" xmlns:xlink="http://www.w3.org/1999/xlink" width="34" height="64" version="1.1" viewBox="0 0 34 64"><title>notification-sms_active</title><desc>Created using Figma</desc><g id="Canvas" transform="translate(-8564 -1242)"><g id="notification-sms_active"><g id="message-on-phone"><g id="Shape"><use fill="#E67963" transform="translate(8564 1242)" xlink:href="#path0_fill"/></g><g id="Shape"><use fill="#E67963" transform="translate(8574 1278)" xlink:href="#path1_fill"/></g><g id="Shape"><use fill="#E67963" transform="translate(8571 1245)" xlink:href="#path2_fill"/></g><g id="Shape"><use fill="#E67963" transform="translate(8577 1251)" xlink:href="#path3_fill"/></g><g id="Shape"><use fill="#E67963" transform="translate(8583 1251)" xlink:href="#path4_fill"/></g><g id="Shape"><use fill="#E67963" transform="translate(8589 1254)" xlink:href="#path5_fill"/></g><g id="Shape"><use fill="#E67963" transform="translate(8577 1254)" xlink:href="#path6_fill"/></g><g id="Shape"><use fill="#E67963" transform="translate(8577 1248)" xlink:href="#path7_fill"/></g><g id="Shape"><use fill="#E67963" transform="translate(8577 1258)" xlink:href="#path7_fill"/></g><g id="Shape"><use fill="#E67963" transform="translate(8573 1245)" xlink:href="#path8_fill"/></g></g><g id="SMS"><use fill="#DE6351" transform="translate(8564 1294)" xlink:href="#path9_fill"/></g></g></g><defs><path id="path0_fill" fill-rule="evenodd" d="M 21.7891 22.5002C 21.7891 22.155 22.0605 21.8752 22.3945 21.8752C 22.7285 21.8752 23 22.155 23 22.5002L 23 35.625C 23 38.0374 21.0996 40 18.7627 40L 4.2373 40C 1.90039 40 0 38.0374 0 35.625L 0 4.375C 0 1.96265 1.90039 0 4.2373 0L 18.7627 0C 19.0977 0 19.3682 0.279785 19.3682 0.625C 19.3682 0.970215 19.0977 1.25 18.7627 1.25L 4.2373 1.25C 2.56836 1.25 1.21094 2.65186 1.21094 4.375L 1.21094 5L 7.86816 5C 8.20312 5 8.47363 5.27979 8.47363 5.625C 8.47363 5.97021 8.20312 6.25 7.86816 6.25L 1.21094 6.25L 1.21094 33.75L 21.7891 33.75L 21.7891 22.5002ZM 4.2373 38.75L 18.7637 38.75C 20.4326 38.75 21.79 37.3481 21.79 35.625L 21.79 35L 1.21094 35L 1.21094 35.625C 1.21094 37.3481 2.56836 38.75 4.2373 38.75Z"/><path id="path1_fill" d="M 3.33333 0L 0.666667 0C 0.2985 0 0 0.223875 0 0.5C 0 0.776125 0.2985 1 0.666667 1L 3.33333 1C 3.7015 1 4 0.776125 4 0.5C 4 0.223875 3.7015 0 3.33333 0Z"/><path id="path2_fill" d="M 0.14625 0.14625C 0.053125 0.239375 0 0.36875 0 0.5C 0 0.63125 0.053125 0.760625 0.14625 0.85375C 0.239375 0.946875 0.368125 1 0.5 1C 0.631875 1 0.760625 0.946875 0.85375 0.85375C 0.946875 0.760625 1 0.631875 1 0.5C 1 0.368125 0.946875 0.239375 0.85375 0.14625C 0.760625 0.053125 0.631875 0 0.5 0C 0.368125 0 0.239375 0.053125 0.14625 0.14625Z"/><path id="path3_fill" d="M 0.625 1L 4.375 1C 4.72016 1 5 0.776125 5 0.5C 5 0.223875 4.72016 0 4.375 0L 0.625 0C 0.279844 0 0 0.223875 0 0.5C 0 0.776125 0.279844 1 0.625 1Z"/><path id="path4_fill" d="M 10.3889 0L 0.611111 0C 0.273625 0 0 0.223875 0 0.5C 0 0.776125 0.273625 1 0.611111 1L 10.3889 1C 10.7264 1 11 0.776125 11 0.5C 11 0.223875 10.7264 0 10.3889 0Z"/><path id="path5_fill" d="M 4.375 0L 0.625 0C 0.279844 0 0 0.223875 0 0.5C 0 0.776125 0.279844 1 0.625 1L 4.375 1C 4.72016 1 5 0.776125 5 0.5C 5 0.223875 4.72016 0 4.375 0Z"/><path id="path6_fill" d="M 0.611111 1L 10.3889 1C 10.7264 1 11 0.776125 11 0.5C 11 0.223875 10.7264 0 10.3889 0L 0.611111 0C 0.273625 0 0 0.223875 0 0.5C 0 0.776125 0.273625 1 0.611111 1Z"/><path id="path7_fill" d="M 16.3929 0L 0.607143 0C 0.271848 0 0 0.223875 0 0.5C 0 0.776125 0.271848 1 0.607143 1L 16.3929 1C 16.7282 1 17 0.776125 17 0.5C 17 0.223875 16.7282 0 16.3929 0Z"/><path id="path8_fill" fill-rule="evenodd" d="M 4.375 0L 20.625 0C 23.0371 0 25 1.99744 25 4.45251L 25 13.9938C 25 16.449 23.0371 18.4464 20.625 18.4464L 9.00879 18.4464L 5.88379 21.6268C 5.64453 21.8707 5.32617 22 5.00098 22C 4.83984 22 4.67773 21.9681 4.52148 21.9025C 4.05273 21.705 3.75 21.2437 3.75 20.7272L 3.75 18.401C 1.63281 18.0916 0 16.233 0 13.9938L 0 4.45251C 0 1.99744 1.96289 0 4.375 0ZM 20.625 17.1743C 22.3477 17.1743 23.75 15.7476 23.75 13.9939L 23.75 4.45264C 23.75 2.69897 22.3477 1.27222 20.625 1.27222L 4.375 1.27222C 2.65234 1.27222 1.25 2.69897 1.25 4.45264L 1.25 13.9939C 1.25 15.7476 2.65234 17.1743 4.375 17.1743C 4.71973 17.1743 5 17.4591 5 17.8103L 5 20.7268L 8.30762 17.3606C 8.4248 17.2413 8.58398 17.1743 8.75 17.1743L 20.625 17.1743Z"/><path id="path9_fill" d="M 3.50391 7.19727C 2.53906 6.91992 1.83594 6.58008 1.39453 6.17773C 0.957031 5.77148 0.738281 5.27148 0.738281 4.67773C 0.738281 4.00586 1.00586 3.45117 1.54102 3.01367C 2.08008 2.57227 2.7793 2.35156 3.63867 2.35156C 4.22461 2.35156 4.74609 2.46484 5.20312 2.69141C 5.66406 2.91797 6.01953 3.23047 6.26953 3.62891C 6.52344 4.02734 6.65039 4.46289 6.65039 4.93555L 5.51953 4.93555C 5.51953 4.41992 5.35547 4.01562 5.02734 3.72266C 4.69922 3.42578 4.23633 3.27734 3.63867 3.27734C 3.08398 3.27734 2.65039 3.40039 2.33789 3.64648C 2.0293 3.88867 1.875 4.22656 1.875 4.66016C 1.875 5.00781 2.02148 5.30273 2.31445 5.54492C 2.61133 5.7832 3.11328 6.00195 3.82031 6.20117C 4.53125 6.40039 5.08594 6.62109 5.48438 6.86328C 5.88672 7.10156 6.18359 7.38086 6.375 7.70117C 6.57031 8.02148 6.66797 8.39844 6.66797 8.83203C 6.66797 9.52344 6.39844 10.0781 5.85938 10.4961C 5.32031 10.9102 4.59961 11.1172 3.69727 11.1172C 3.11133 11.1172 2.56445 11.0059 2.05664 10.7832C 1.54883 10.5566 1.15625 10.248 0.878906 9.85742C 0.605469 9.4668 0.46875 9.02344 0.46875 8.52734L 1.59961 8.52734C 1.59961 9.04297 1.78906 9.45117 2.16797 9.75195C 2.55078 10.0488 3.06055 10.1973 3.69727 10.1973C 4.29102 10.1973 4.74609 10.0762 5.0625 9.83398C 5.37891 9.5918 5.53711 9.26172 5.53711 8.84375C 5.53711 8.42578 5.39062 8.10352 5.09766 7.87695C 4.80469 7.64648 4.27344 7.41992 3.50391 7.19727ZM 9.56836 2.46875L 12.3574 9.42969L 15.1465 2.46875L 16.6055 2.46875L 16.6055 11L 15.4805 11L 15.4805 7.67773L 15.5859 4.0918L 12.7852 11L 11.9238 11L 9.12891 4.10938L 9.24023 7.67773L 9.24023 11L 8.11523 11L 8.11523 2.46875L 9.56836 2.46875ZM 21.1055 7.19727C 20.1406 6.91992 19.4375 6.58008 18.9961 6.17773C 18.5586 5.77148 18.3398 5.27148 18.3398 4.67773C 18.3398 4.00586 18.6074 3.45117 19.1426 3.01367C 19.6816 2.57227 20.3809 2.35156 21.2402 2.35156C 21.8262 2.35156 22.3477 2.46484 22.8047 2.69141C 23.2656 2.91797 23.6211 3.23047 23.8711 3.62891C 24.125 4.02734 24.252 4.46289 24.252 4.93555L 23.1211 4.93555C 23.1211 4.41992 22.957 4.01562 22.6289 3.72266C 22.3008 3.42578 21.8379 3.27734 21.2402 3.27734C 20.6855 3.27734 20.252 3.40039 19.9395 3.64648C 19.6309 3.88867 19.4766 4.22656 19.4766 4.66016C 19.4766 5.00781 19.623 5.30273 19.916 5.54492C 20.2129 5.7832 20.7148 6.00195 21.4219 6.20117C 22.1328 6.40039 22.6875 6.62109 23.0859 6.86328C 23.4883 7.10156 23.7852 7.38086 23.9766 7.70117C 24.1719 8.02148 24.2695 8.39844 24.2695 8.83203C 24.2695 9.52344 24 10.0781 23.4609 10.4961C 22.9219 10.9102 22.2012 11.1172 21.2988 11.1172C 20.7129 11.1172 20.166 11.0059 19.6582 10.7832C 19.1504 10.5566 18.7578 10.248 18.4805 9.85742C 18.207 9.4668 18.0703 9.02344 18.0703 8.52734L 19.2012 8.52734C 19.2012 9.04297 19.3906 9.45117 19.7695 9.75195C 20.1523 10.0488 20.6621 10.1973 21.2988 10.1973C 21.8926 10.1973 22.3477 10.0762 22.6641 9.83398C 22.9805 9.5918 23.1387 9.26172 23.1387 8.84375C 23.1387 8.42578 22.9922 8.10352 22.6992 7.87695C 22.4062 7.64648 21.875 7.41992 21.1055 7.19727Z"/></defs></svg>