<svg xmlns="http://www.w3.org/2000/svg" xmlns:xlink="http://www.w3.org/1999/xlink" width="41" height="65" version="1.1" viewBox="0 0 41 65"><title>notification_push</title><desc>Created using Figma</desc><g id="Canvas" transform="translate(-8452 -2256)"><g id="notification_push"><g id="Shape"><use transform="translate(8452 2256)" xlink:href="#path0_fill"/></g><g id="PUSH"><use transform="translate(8457 2309)" xlink:href="#path1_fill"/></g><g id="notification"><g id="Shape"><use transform="translate(8462 2263)" xlink:href="#path2_fill"/></g></g></g></g><defs><path id="path0_fill" fill-rule="evenodd" d="M 0 20.5C 0 9.17822 9.17773 0 20.5 0C 31.8223 0 41 9.17822 41 20.5C 41 31.8218 31.8223 41 20.5 41C 9.17773 41 0 31.8218 0 20.5ZM 1.36621 20.5C 1.36621 31.0671 9.93262 39.6333 20.5 39.6333C 31.0664 39.6333 39.6328 31.0671 39.6328 20.5C 39.6328 9.93286 31.0664 1.3667 20.5 1.3667C 9.93262 1.3667 1.36621 9.93286 1.36621 20.5Z"/><path id="path1_fill" d="M 2.11523 7.66016L 2.11523 11L 0.990234 11L 0.990234 2.46875L 4.13672 2.46875C 5.07031 2.46875 5.80078 2.70703 6.32812 3.18359C 6.85937 3.66016 7.125 4.29102 7.125 5.07617C 7.125 5.9043 6.86523 6.54297 6.3457 6.99219C 5.83008 7.4375 5.08984 7.66016 4.125 7.66016L 2.11523 7.66016ZM 2.11523 6.74023L 4.13672 6.74023C 4.73828 6.74023 5.19922 6.59961 5.51953 6.31836C 5.83984 6.0332 6 5.62305 6 5.08789C 6 4.58008 5.83984 4.17383 5.51953 3.86914C 5.19922 3.56445 4.75977 3.40625 4.20117 3.39453L 2.11523 3.39453L 2.11523 6.74023ZM 14.5664 2.46875L 14.5664 8.26953C 14.5625 9.07422 14.3086 9.73242 13.8047 10.2441C 13.3047 10.7559 12.625 11.043 11.7656 11.1055L 11.4668 11.1172C 10.5332 11.1172 9.78906 10.8652 9.23438 10.3613C 8.67969 9.85742 8.39844 9.16406 8.39062 8.28125L 8.39062 2.46875L 9.50391 2.46875L 9.50391 8.24609C 9.50391 8.86328 9.67383 9.34375 10.0137 9.6875C 10.3535 10.0273 10.8379 10.1973 11.4668 10.1973C 12.1035 10.1973 12.5898 10.0273 12.9258 9.6875C 13.2656 9.34766 13.4355 8.86914 13.4355 8.25195L 13.4355 2.46875L 14.5664 2.46875ZM 18.8555 7.19727C 17.8906 6.91992 17.1875 6.58008 16.7461 6.17773C 16.3086 5.77148 16.0898 5.27148 16.0898 4.67773C 16.0898 4.00586 16.3574 3.45117 16.8926 3.01367C 17.4316 2.57227 18.1309 2.35156 18.9902 2.35156C 19.5762 2.35156 20.0977 2.46484 20.5547 2.69141C 21.0156 2.91797 21.3711 3.23047 21.6211 3.62891C 21.875 4.02734 22.002 4.46289 22.002 4.93555L 20.8711 4.93555C 20.8711 4.41992 20.707 4.01562 20.3789 3.72266C 20.0508 3.42578 19.5879 3.27734 18.9902 3.27734C 18.4355 3.27734 18.002 3.40039 17.6895 3.64648C 17.3809 3.88867 17.2266 4.22656 17.2266 4.66016C 17.2266 5.00781 17.373 5.30273 17.666 5.54492C 17.9629 5.7832 18.4648 6.00195 19.1719 6.20117C 19.8828 6.40039 20.4375 6.62109 20.8359 6.86328C 21.2383 7.10156 21.5352 7.38086 21.7266 7.70117C 21.9219 8.02148 22.0195 8.39844 22.0195 8.83203C 22.0195 9.52344 21.75 10.0781 21.2109 10.4961C 20.6719 10.9102 19.9512 11.1172 19.0488 11.1172C 18.4629 11.1172 17.916 11.0059 17.4082 10.7832C 16.9004 10.5566 16.5078 10.248 16.2305 9.85742C 15.957 9.4668 15.8203 9.02344 15.8203 8.52734L 16.9512 8.52734C 16.9512 9.04297 17.1406 9.45117 17.5195 9.75195C 17.9023 10.0488 18.4121 10.1973 19.0488 10.1973C 19.6426 10.1973 20.0977 10.0762 20.4141 9.83398C 20.7305 9.5918 20.8887 9.26172 20.8887 8.84375C 20.8887 8.42578 20.7422 8.10352 20.4492 7.87695C 20.1562 7.64648 19.625 7.41992 18.8555 7.19727ZM 30.0234 11L 28.8926 11L 28.8926 7.05664L 24.5918 7.05664L 24.5918 11L 23.4668 11L 23.4668 2.46875L 24.5918 2.46875L 24.5918 6.13672L 28.8926 6.13672L 28.8926 2.46875L 30.0234 2.46875L 30.0234 11Z"/><path id="path2_fill" fill-rule="evenodd" d="M 19.373 17.3076C 20.1328 17.3262 20.8438 17.687 21.3115 18.2908C 21.7734 18.9026 22.0156 19.6543 21.999 20.4231L 21.999 21.4614C 21.999 22.6086 21.0762 23.5383 19.9365 23.5383L 14.4365 23.5383C 14.4365 25.4502 12.8984 27 11 27C 9.10156 27 7.5625 25.4502 7.5625 23.5383L 2.0625 23.5383C 0.923828 23.5383 0 22.6086 0 21.4614L 0 20.4299C 0 18.6438 1.07227 17.3838 2.61914 17.3147C 2.8916 17.2056 3.15137 17.0686 3.39648 16.906C 3.72656 16.6846 4.11816 16.3315 4.11816 15.9231L 4.11816 9.69238C 4.10449 6.66431 6.05762 3.9834 8.93066 3.08765L 8.93066 2.0769C 8.93066 0.929932 9.85352 0 10.9922 0C 12.1318 0 13.0547 0.929932 13.0547 2.0769L 13.0547 3.10156C 15.9141 4.00708 17.8613 6.67383 17.8672 9.69214L 17.8672 15.9231C 17.8672 16.6152 18.9463 17.1414 19.373 17.3076ZM 10.9932 1.38452C 10.6133 1.38452 10.3057 1.69434 10.3057 2.0769L 10.3057 2.76904L 10.9932 2.76904L 11.6807 2.76904L 11.6807 2.0769C 11.6807 1.69434 11.373 1.38452 10.9932 1.38452ZM 10.9932 25.6152C 9.85449 25.6152 8.93066 24.6853 8.93066 23.5383L 13.0557 23.5383C 13.0557 24.6853 12.1318 25.6152 10.9932 25.6152ZM 19.9297 22.1538C 20.3096 22.1538 20.6172 21.844 20.6172 21.4614L 20.6172 20.4231C 20.6348 19.967 20.5 19.5181 20.2324 19.1492C 19.9961 18.8438 19.627 18.6733 19.2422 18.6924C 19.168 18.6929 19.0938 18.6812 19.0225 18.6577C 18.7686 18.5676 16.4922 17.7507 16.4922 15.9231L 16.4922 9.69238C 16.4922 7.10596 14.7139 4.8645 12.21 4.29224C 11.4033 4.11377 10.5684 4.11377 9.7627 4.29224C 7.27148 4.88379 5.50781 7.11548 5.49316 9.69238L 5.49316 15.9231C 5.4502 16.8201 4.94434 17.6292 4.15918 18.0554C 3.78613 18.3037 3.38477 18.5059 2.96289 18.6577C 2.89258 18.6812 2.81738 18.6929 2.74316 18.6924C 1.73242 18.6924 1.36816 19.5854 1.36816 20.4231L 1.36816 21.4614C 1.36816 21.844 1.67578 22.1538 2.05566 22.1538L 19.9297 22.1538Z"/></defs></svg>