<svg xmlns="http://www.w3.org/2000/svg" xmlns:xlink="http://www.w3.org/1999/xlink" width="37" height="60" version="1.1" viewBox="0 0 37 60"><title>notification-email_active</title><desc>Created using Figma</desc><g id="Canvas" transform="translate(-8666 -2260)"><g id="notification-email_active"><g id="email"><g id="Shape"><use fill="#E67963" transform="translate(8666 2260)" xlink:href="#path0_fill"/></g><g id="Shape"><use fill="#E67963" transform="translate(8679 2265)" xlink:href="#path1_fill"/></g></g><g id="EMAIL"><use fill="#DE6351" transform="translate(8668 2309)" xlink:href="#path2_fill"/></g></g></g><defs><path id="path0_fill" fill-rule="evenodd" d="M 36.7256 14.084L 32.001 10.9805L 32.001 0.607178C 32.001 0.271973 31.7266 0 31.3887 0L 5.61035 0C 5.27246 0 4.99805 0.271973 4.99805 0.607178L 4.99805 10.9812L 0.274414 14.084C 0.109375 14.1929 0 14.3787 0 14.5898L 0 33.3928C 0 33.7283 0.274414 34 0.613281 34L 36.3867 34C 36.7256 34 37 33.7283 37 33.3928L 37 14.5898C 37 14.3787 36.8906 14.1929 36.7256 14.084ZM 4.99805 16.2073L 3.07617 15.197L 4.99805 15.197L 4.99805 16.2073ZM 15.3184 23.0061L 1.22559 15.5994L 1.22559 32.2615L 15.3184 23.0061ZM 18.5 22.373L 34.3535 32.7856L 2.64551 32.7856L 18.5 22.373ZM 35.7744 15.5994L 21.6816 23.0061L 35.7744 32.262L 35.7744 15.5994ZM 32.001 15.197L 33.9238 15.197L 32.001 16.2078L 32.001 15.197ZM 32.001 13.9827L 34.3535 13.9827L 32.001 12.4373L 32.001 13.9827ZM 30.7754 1.21436L 30.7754 16.8521L 20.5195 22.2424L 18.8379 21.1384C 18.6328 21.0037 18.3662 21.0037 18.1611 21.1384L 16.4805 22.2424L 6.22363 16.8516L 6.22363 1.21436L 30.7754 1.21436ZM 2.64648 13.9829L 4.99805 13.9829L 4.99805 12.4382L 2.64648 13.9829Z"/><path id="path1_fill" fill-rule="evenodd" d="M 10.3867 11L 5.5 11C 2.46777 11 0 8.57275 0 5.58887L 0 5.41089C 0 2.42725 2.46777 0 5.5 0C 8.53223 0 11 2.42725 11 5.41089L 11 5.8562C 11 7.02344 10.0352 7.97314 8.84863 7.97314C 8.07617 7.97314 7.39844 7.57104 7.01855 6.96899C 6.55273 7.37207 5.94141 7.61694 5.27344 7.61694C 3.8125 7.61694 2.62402 6.44775 2.62402 5.0105C 2.62402 3.573 3.8125 2.40381 5.27344 2.40381C 6.73438 2.40381 7.92285 3.57324 7.92285 5.0105L 7.92285 5.8562C 7.92285 6.35815 8.33789 6.76636 8.84863 6.76636C 9.3584 6.76636 9.77344 6.35791 9.77344 5.8562L 9.77344 5.41113C 9.77344 3.09277 7.85645 1.20679 5.5 1.20679C 3.14355 1.20679 1.22656 3.09277 1.22656 5.41113L 1.22656 5.58911C 1.22656 7.90723 3.14355 9.79321 5.5 9.79321L 10.3867 9.79321C 10.7256 9.79321 11 10.0632 11 10.3965C 11 10.7297 10.7256 11 10.3867 11ZM 3.85059 5.01025C 3.85059 5.78223 4.48926 6.41016 5.27344 6.41016C 6.05762 6.41016 6.69629 5.78223 6.69629 5.01025C 6.69629 4.23853 6.05762 3.6106 5.27344 3.6106C 4.48926 3.6106 3.85059 4.23853 3.85059 5.01025Z"/><path id="path2_fill" d="M 5.8125 7.05664L 2.11523 7.05664L 2.11523 10.0801L 6.41016 10.0801L 6.41016 11L 0.990234 11L 0.990234 2.46875L 6.35156 2.46875L 6.35156 3.39453L 2.11523 3.39453L 2.11523 6.13672L 5.8125 6.13672L 5.8125 7.05664ZM 9.26367 2.46875L 12.0527 9.42969L 14.8418 2.46875L 16.3008 2.46875L 16.3008 11L 15.1758 11L 15.1758 7.67773L 15.2812 4.0918L 12.4805 11L 11.6191 11L 8.82422 4.10938L 8.93555 7.67773L 8.93555 11L 7.81055 11L 7.81055 2.46875L 9.26367 2.46875ZM 23.1035 8.77344L 19.5293 8.77344L 18.7266 11L 17.5664 11L 20.8242 2.46875L 21.8086 2.46875L 25.0723 11L 23.918 11L 23.1035 8.77344ZM 19.8691 7.84766L 22.7695 7.84766L 21.3164 3.85742L 19.8691 7.84766ZM 27.4277 11L 26.3027 11L 26.3027 2.46875L 27.4277 2.46875L 27.4277 11ZM 30.6211 10.0801L 34.6641 10.0801L 34.6641 11L 29.4902 11L 29.4902 2.46875L 30.6211 2.46875L 30.6211 10.0801Z"/></defs></svg>