<svg width="433" height="860" viewBox="0 0 433 860" version="1.1" xmlns="http://www.w3.org/2000/svg" xmlns:xlink="http://www.w3.org/1999/xlink">
    <title>IPhone_X</title>
    <desc>Created using Figma</desc>
    <g id="Canvas" transform="translate(1758 518)">
        <g id="IPhone_X">
            <g id="Canvas">
                <g id="IPhone X">
                    <g id="bg">
                        <g id="g5754">
                            <g id="rect5351 5 5">
                                <g id="Vector">
                                    <use xlink:href="#path0_fill" transform="translate(-1344.9 -314.394)" />
                                </g>
                            </g>
                            <g id="rect5351 6 6 3" filter="url(#filter0_f)">
                                <g id="Vector">
                                    <use xlink:href="#path1_fill" transform="matrix(-1 0 0 1 -1325.66 -312.573)" fill="url(#paint1_linear)" />
                                </g>
                            </g>
                        </g>
                        <g id="g5503">
                            <g id="rect5351">
                                <g id="Vector">
                                    <use xlink:href="#path2_fill" transform="translate(-1758 -397.506)" />
                                </g>
                            </g>
                            <g id="rect5351 6" filter="url(#filter1_f)">
                                <g id="Vector">
                                    <use xlink:href="#path3_fill" transform="translate(-1757.34 -395.683)" fill="url(#paint3_linear)" />
                                </g>
                            </g>
                        </g>
                        <g id="g5624">
                            <g id="rect5351 5">
                                <g id="Vector">
                                    <use xlink:href="#path4_fill" transform="translate(-1758 -334.859)" />
                                </g>
                            </g>
                            <g id="rect5351 6 6" filter="url(#filter2_f)">
                                <g id="Vector">
                                    <use xlink:href="#path5_fill" transform="translate(-1757.34 -333.037)" fill="url(#paint5_linear)" />
                                </g>
                            </g>
                        </g>
                        <g id="g5624 1">
                            <g id="rect5351 5 6">
                                <g id="Vector">
                                    <use xlink:href="#path4_fill" transform="translate(-1758 -256.174)" />
                                </g>
                            </g>
                            <g id="rect5351 6 6 2" filter="url(#filter3_f)">
                                <g id="Vector">
                                    <use xlink:href="#path5_fill" transform="translate(-1757.34 -254.352)" fill="url(#paint7_linear)" />
                                </g>
                            </g>
                        </g>
                        <g id="screen">
                            <g id="iphone x flat no buttons">
                                <g id="XMLID 353">
                                    <g id="XMLID 354">
                                        <g id="Vector">
                                            <use xlink:href="#path6_fill" transform="translate(-1754.29 -517.414)" />
                                        </g>
                                    </g>
                                </g>
                            </g>
                        </g>
                        <g id="g5259">
                            <g id="rect5132">
                                <g id="Vector">
                                    <use xlink:href="#path7_fill" transform="matrix(0.264583 0 0 0.264583 -1366.15 -503.842)" fill="url(#paint9_linear)" />
                                </g>
                            </g>
                            <g id="rect5132 5">
                                <g id="Vector">
                                    <use xlink:href="#path8_fill" transform="translate(-1745.63 -503.851)" fill="url(#paint10_linear)" />
                                </g>
                            </g>
                        </g>
                        <g id="Group">
                            <g id="path5267 7 7">
                                <g id="Vector">
                                    <use xlink:href="#path9_fill" transform="translate(-1474.85 -498.919)" fill="#0F0F0F" />
                                </g>
                            </g>
                            <g id="g5823">
                                <g id="rect5261">
                                    <g id="Vector">
                                        <use xlink:href="#path10_fill" transform="translate(-1569.57 -492.116)" fill="#1E1E1E" />
                                    </g>
                                </g>
                                <g id="path5263">
                                    <g id="Vector">
                                        <use xlink:href="#path11_fill" transform="translate(-1503.46 -495.362)" fill="#2B2B2B" />
                                    </g>
                                </g>
                                <g id="path5265">
                                    <g id="Vector">
                                        <use xlink:href="#path12_fill" transform="translate(-1502.24 -494.152)" fill="#0A0D13" />
                                    </g>
                                </g>
                                <g id="path5267">
                                    <g id="Vector">
                                        <use xlink:href="#path13_fill" transform="translate(-1501.08 -492.991)" fill="#091427" />
                                    </g>
                                </g>
                                <g id="path5271" filter="url(#filter4_f)">
                                    <g id="Vector">
                                        <use xlink:href="#path14_fill" transform="translate(-1501.03 -491.76)" fill="#235A91" fill-opacity="0.556075" />
                                    </g>
                                </g>
                                <g id="path5273" filter="url(#filter5_f)">
                                    <g id="Vector">
                                        <use xlink:href="#path15_fill" transform="translate(-1497.54 -492.33)" fill="#235A91" fill-opacity="0.556075" />
                                    </g>
                                </g>
                                <g id="path5267 7">
                                    <g id="Vector">
                                        <use xlink:href="#path16_fill" transform="translate(-1587.3 -493.5)" fill="#0F0F0F" />
                                    </g>
                                </g>
                                <g id="path5267 7 9">
                                    <g id="Vector">
                                        <use xlink:href="#path17_fill" transform="translate(-1619.44 -495.707)" fill="#101010" />
                                    </g>
                                </g>
                            </g>
                        </g>
                        <g id="rect5756">
                            <g id="Vector">
                                <use xlink:href="#path18_fill" transform="translate(-1717.51 -518)" fill="url(#paint20_linear)" />
                            </g>
                        </g>
                        <g id="rect5756 4">
                            <g id="Vector">
                                <use xlink:href="#path19_fill" transform="translate(-1720.13 326.587)" fill="url(#paint21_linear)" />
                            </g>
                        </g>
                    </g>
                </g>
            </g>
        </g>
    </g>
    <defs>
        <filter id="filter0_f" filterUnits="userSpaceOnUse" x="-1329" y="-313" width="4" height="96" color-interpolation-filters="sRGB">
            <feFlood flood-opacity="0" result="BackgroundImageFix" />
            <feBlend mode="normal" in="SourceGraphic" in2="BackgroundImageFix" result="shape" />
            <feGaussianBlur stdDeviation="0.071391" result="effect1_foregroundBlur" />
        </filter>
        <filter id="filter1_f" filterUnits="userSpaceOnUse" x="-1758" y="-396" width="4" height="31" color-interpolation-filters="sRGB">
            <feFlood flood-opacity="0" result="BackgroundImageFix" />
            <feBlend mode="normal" in="SourceGraphic" in2="BackgroundImageFix" result="shape" />
            <feGaussianBlur stdDeviation="0.071391" result="effect1_foregroundBlur" />
        </filter>
        <filter id="filter2_f" filterUnits="userSpaceOnUse" x="-1758" y="-334" width="4" height="61" color-interpolation-filters="sRGB">
            <feFlood flood-opacity="0" result="BackgroundImageFix" />
            <feBlend mode="normal" in="SourceGraphic" in2="BackgroundImageFix" result="shape" />
            <feGaussianBlur stdDeviation="0.071391" result="effect1_foregroundBlur" />
        </filter>
        <filter id="filter3_f" filterUnits="userSpaceOnUse" x="-1758" y="-255" width="4" height="60" color-interpolation-filters="sRGB">
            <feFlood flood-opacity="0" result="BackgroundImageFix" />
            <feBlend mode="normal" in="SourceGraphic" in2="BackgroundImageFix" result="shape" />
            <feGaussianBlur stdDeviation="0.071391" result="effect1_foregroundBlur" />
        </filter>
        <filter id="filter4_f" filterUnits="userSpaceOnUse" x="-1502" y="-492" width="3" height="5" color-interpolation-filters="sRGB">
            <feFlood flood-opacity="0" result="BackgroundImageFix" />
            <feBlend mode="normal" in="SourceGraphic" in2="BackgroundImageFix" result="shape" />
            <feGaussianBlur stdDeviation="0.0309837" result="effect1_foregroundBlur" />
        </filter>
        <filter id="filter5_f" filterUnits="userSpaceOnUse" x="-1498" y="-493" width="4" height="5" color-interpolation-filters="sRGB">
            <feFlood flood-opacity="0" result="BackgroundImageFix" />
            <feBlend mode="normal" in="SourceGraphic" in2="BackgroundImageFix" result="shape" />
            <feGaussianBlur stdDeviation="0.0309837" result="effect1_foregroundBlur" />
        </filter>
        <linearGradient id="paint1_linear" x1="0" y1="0" x2="1" y2="0" gradientUnits="userSpaceOnUse" gradientTransform="matrix(0 95.3039 -95.6546 0 98.0507 7.3833e-06)">
            <stop offset="0" stop-color="#CBCBCB" stop-opacity="0.27451" />
            <stop offset="0.04" stop-color="#CBCBCB" />
            <stop offset="0.96" stop-color="#CBCBCB" />
            <stop offset="1" stop-color="#CBCBCB" stop-opacity="0.275701" />
        </linearGradient>
        <linearGradient id="paint3_linear" x1="0" y1="0" x2="1" y2="0" gradientUnits="userSpaceOnUse" gradientTransform="matrix(0 29.9475 -30.0578 0 32.454 1.67028e-06)">
            <stop offset="0" stop-color="#CBCBCB" stop-opacity="0.27451" />
            <stop offset="0.05" stop-color="#CBCBCB" />
            <stop offset="0.95" stop-color="#CBCBCB" />
            <stop offset="1" stop-color="#CBCBCB" stop-opacity="0.275701" />
        </linearGradient>
        <linearGradient id="paint5_linear" x1="0" y1="0" x2="1" y2="0" gradientUnits="userSpaceOnUse" gradientTransform="matrix(0 58.9248 -59.1416 0 61.5377 7.38329e-06)">
            <stop offset="0" stop-color="#CBCBCB" stop-opacity="0.27451" />
            <stop offset="0.05" stop-color="#CBCBCB" />
            <stop offset="0.95" stop-color="#CBCBCB" />
            <stop offset="1" stop-color="#CBCBCB" stop-opacity="0.275701" />
        </linearGradient>
        <linearGradient id="paint7_linear" x1="0" y1="0" x2="1" y2="0" gradientUnits="userSpaceOnUse" gradientTransform="matrix(0 58.9248 -59.1416 0 61.5377 7.38329e-06)">
            <stop offset="0" stop-color="#CBCBCB" stop-opacity="0.27451" />
            <stop offset="0.05" stop-color="#CBCBCB" />
            <stop offset="0.95" stop-color="#CBCBCB" />
            <stop offset="1" stop-color="#CBCBCB" stop-opacity="0.275701" />
        </linearGradient>
        <linearGradient id="paint9_linear" x1="0" y1="0" x2="1" y2="0" gradientUnits="userSpaceOnUse" gradientTransform="matrix(40.3254 0 0 40.3441 54.4021 1523.12)">
            <stop offset="0" stop-color="#404040" />
            <stop offset="0.6" stop-color="#838383" />
            <stop offset="1" stop-color="#A7A7A7" />
        </linearGradient>
        <linearGradient id="paint10_linear" x1="0" y1="0" x2="1" y2="0" gradientUnits="userSpaceOnUse" gradientTransform="matrix(-10.6694 0 0 10.6744 10.6694 403.003)">
            <stop offset="0" stop-color="#404040" />
            <stop offset="0.6" stop-color="#838383" />
            <stop offset="1" stop-color="#A7A7A7" />
        </linearGradient>
        <linearGradient id="paint20_linear" x1="0" y1="0" x2="1" y2="0" gradientUnits="userSpaceOnUse" gradientTransform="matrix(357.4 0 0 356.089 -2.38559 -326.101)">
            <stop offset="0" stop-color="#4F4F4F" stop-opacity="0.130841" />
            <stop offset="0.07" stop-color="#4F4F4F" />
            <stop offset="0.937" stop-color="#4F4F4F" stop-opacity="0.953271" />
            <stop offset="1" stop-color="#4F4F4F" stop-opacity="0" />
        </linearGradient>
        <linearGradient id="paint21_linear" x1="0" y1="0" x2="1" y2="0" gradientUnits="userSpaceOnUse" gradientTransform="matrix(357.4 0 0 -356.089 0.236119 353.195)">
            <stop offset="0" stop-color="#4F4F4F" stop-opacity="0.130841" />
            <stop offset="0.07" stop-color="#4F4F4F" />
            <stop offset="0.937" stop-color="#4F4F4F" stop-opacity="0.953271" />
            <stop offset="1" stop-color="#4F4F4F" stop-opacity="0" />
        </linearGradient>
        <path id="path0_fill" d="M 17.8443 1.29157e-13C 18.9803 1.29157e-13 19.8951 0.90927 19.8951 2.04097L 19.8951 96.9049C 19.8951 98.0365 18.9803 98.9482 17.8443 98.9482L 2.05082 98.9482C 0.914964 98.9482 8.41523e-15 98.0365 8.41523e-15 96.9049L 8.41523e-15 2.04097C 8.41523e-15 0.90927 0.914964 1.29157e-13 2.05082 1.29157e-13L 17.8443 1.29157e-13Z" />
        <path id="path1_fill" d="M 1.82766 9.45898e-14C 0.815041 9.45898e-14 5.11692e-16 0.812056 5.11692e-16 1.82096L 5.11692e-16 93.483C 5.11692e-16 94.4919 0.815041 95.3039 1.82766 95.3039L 2.39616 95.3039L 2.39616 9.45898e-14L 1.82766 9.45898e-14Z" />
        <path id="path2_fill" d="M 17.8452 0L 2.0503 0C 0.917949 0 0 0.914585 0 2.04278L 0 31.5496C 0 32.6778 0.917949 33.5925 2.0503 33.5925L 17.8452 33.5925C 18.9776 33.5925 19.8955 32.6778 19.8955 31.5496L 19.8955 2.04278C 19.8955 0.914585 18.9776 0 17.8452 0Z" />
        <path id="path3_fill" d="M 1.82766 -1.24842e-13C 0.815039 -1.24842e-13 -6.09925e-14 0.812047 -6.09925e-14 1.82096L -6.09925e-14 28.1266C -6.09925e-14 29.1355 0.815039 29.9475 1.82766 29.9475L 2.39616 29.9475L 2.39616 -1.24842e-13L 1.82766 -1.24842e-13Z" />
        <path id="path4_fill" d="M 2.05083 8.27283e-15C 0.914969 8.27283e-15 0 0.909269 0 2.04098L 0 60.5258C 0 61.6574 0.914969 62.5691 2.05083 62.5691L 17.8443 62.5691C 18.9803 62.5691 19.8951 61.6574 19.8951 60.5258L 19.8951 2.04098C 19.8951 0.909269 18.9803 8.27283e-15 17.8443 8.27283e-15L 2.05083 8.27283e-15Z" />
        <path id="path5_fill" d="M 1.82766 9.45898e-14C 0.815041 9.45898e-14 5.11692e-16 0.812056 5.11692e-16 1.82096L 5.11692e-16 57.1039C 5.11692e-16 58.1128 0.815041 58.9248 1.82766 58.9248L 2.39616 58.9248L 2.39616 9.45898e-14L 1.82766 9.45898e-14Z" />
        <path id="path6_fill" d="M 424.341 61.7629C 424.341 27.2905 396.452 -7.20397e-23 361.831 -7.20397e-23L 62.8697 -7.20397e-23C 28.2493 8.50485e-15 0 27.4102 0 61.7629L 0 174.636L 0 796.453C 0 830.926 28.2493 859.414 62.8697 859.414L 361.831 859.414C 396.452 859.414 424.341 830.926 424.341 796.453L 424.341 61.7629ZM 257.369 22.8619C 260.254 22.8619 262.658 25.2558 262.658 28.1285C 262.658 31.0012 260.254 33.3951 257.369 33.3951C 254.484 33.3951 252.081 31.0012 252.081 28.1285C 252.081 25.2558 254.484 22.8619 257.369 22.8619ZM 401.501 793.701C 401.501 814.648 385.032 831.884 364.115 831.884L 64.7931 831.884C 43.7563 831.884 26.4462 814.648 26.4462 793.701L 26.4462 59.6084C 26.4462 38.7814 43.7563 22.7422 64.7931 22.7422L 99.4135 22.7422C 106.746 22.7422 109.391 22.2634 109.872 31.4799C 110.353 41.0556 116.964 47.2797 125.86 50.0327C 128.865 50.9902 132.231 51.469 135.476 51.469L 141.967 51.469L 287.061 51.469L 293.552 51.469C 296.798 51.469 300.164 50.7509 303.17 49.7933C 312.065 47.0404 318.796 41.2949 319.157 31.7193C 319.637 22.5027 322.282 22.7422 329.615 22.7422L 363.875 22.7422C 384.912 22.7422 401.261 38.7814 401.261 59.6084L 401.261 793.701L 401.501 793.701Z" />
        <path id="path7_fill" d="M 2.64541 0.035648C -2.66334 -0.490296 -0.157308 4.80466 11.7555 15.8445C 51.06 52.2683 75.4644 104.988 75.4644 163.67L 75.4644 1563.5L 75.4644 2963.34C 75.4644 3022.03 51.06 3074.74 11.7555 3111.16C -0.157308 3122.21 -2.66334 3127.5 2.64541 3126.97C 5.83065 3126.66 11.8304 3124.25 20.2918 3119.73C 77.7354 3089.08 111.093 3022.93 111.093 2952.67L 111.093 1563.5L 111.093 174.339C 111.093 104.084 77.7353 37.9374 20.2918 7.27765C 11.8304 2.7615 5.83065 0.351213 2.64541 0.035648Z" />
        <path id="path8_fill" d="M 28.6933 0.00942959C 30.098 -0.129708 29.4349 1.27123 26.283 4.19216C 15.8837 13.8293 9.42664 27.7782 9.42664 43.3042L 9.42664 413.678L 9.42664 784.05C 9.42664 799.577 15.8837 813.526 26.283 823.163C 29.4349 826.084 30.098 827.485 28.6933 827.345C 27.8506 827.261 26.2631 826.624 24.0244 825.429C 8.82578 817.317 -7.57423e-15 799.817 -7.57423e-15 781.228L -7.57423e-15 413.678L -7.57423e-15 46.1271C -7.57423e-15 27.5388 8.82579 10.0376 24.0244 1.92554C 26.2631 0.730645 27.8506 0.0929208 28.6933 0.00942959Z" />
        <path id="path9_fill" d="M 19.3921 9.55463C 19.3921 12.0826 18.3756 14.5074 16.5649 16.2983C 14.7542 18.0891 12.2971 19.0999 9.73178 19.1092C 7.16641 19.1184 4.70186 18.1256 2.87787 16.348C 1.05389 14.5703 0.019144 12.1528 0.00026297 9.62495C -0.018618 7.09707 0.979907 4.66483 2.77714 2.86092C 4.57437 1.05703 7.02383 0.0284914 9.58906 0.000583046C 12.1543 -0.0273254 14.6261 0.947669 16.4634 2.71202C 18.3006 4.47639 19.3534 6.88631 19.3911 9.41398L 9.69609 9.55463L 19.3921 9.55463Z" />
        <path id="path10_fill" d="M 48.3797 0L 3.27543 0C 1.46645 0 0 1.46109 0 3.26342C 0 5.06576 1.46645 6.52685 3.27543 6.52685L 48.3797 6.52685C 50.1886 6.52685 51.6551 5.06576 51.6551 3.26342C 51.6551 1.46109 50.1886 0 48.3797 0Z" />
        <path id="path11_fill" d="M 6.11292 12.181C 9.489 12.181 12.2258 9.45422 12.2258 6.09052C 12.2258 2.72682 9.489 0 6.11292 0C 2.73685 0 0 2.72682 0 6.09052C 0 9.45422 2.73685 12.181 6.11292 12.181Z" />
        <path id="path12_fill" d="M 4.89793 9.75995C 7.60299 9.75995 9.79587 7.57512 9.79587 4.87998C 9.79587 2.18485 7.60299 0 4.89793 0C 2.19288 0 -1.2764e-13 2.18485 -1.2764e-13 4.87998C -1.2764e-13 7.57512 2.19288 9.75995 4.89793 9.75995Z" />
        <path id="path13_fill" d="M 3.73183 7.43632C 5.79286 7.43632 7.46368 5.77165 7.46368 3.71817C 7.46368 1.66467 5.79286 0 3.73183 0C 1.67079 0 2.40767e-13 1.66467 2.40767e-13 3.71817C 2.40767e-13 5.77165 1.67079 7.43632 3.73183 7.43632Z" />
        <path id="path14_fill" fill-rule="evenodd" d="M 1.12059 2.92776e-14C 0.678048 0.046407 0.0492227 0.719375 0.00263133 2.0421C -0.0439191 3.36482 0.538335 4.08419 0.864411 4.08419C 1.19049 4.08419 2.54137 2.15813 1.12058 2.92776e-14L 1.12059 2.92776e-14Z" />
        <path id="path15_fill" fill-rule="evenodd" d="M 0.80859 0.10583C 0.110548 0.319825 -0.0236915 1.4433 0.00315237 2.08528C 0.0299734 2.72726 0.942816 4.41248 2.04358 4.03799C 3.14434 3.66349 3.33229 2.27253 2.87588 1.3363C 2.41946 0.400073 1.58717 -0.26866 0.80859 0.10583Z" />
        <path id="path16_fill" d="M 9.61151 4.78813C 9.61151 6.05497 9.10761 7.27018 8.21018 8.16762C 7.31276 9.06506 6.09494 9.57157 4.82345 9.57624C 3.55195 9.5809 2.33043 9.08332 1.42638 8.19249C 0.522354 7.30166 0.00948858 6.09019 0.000130335 4.82338C -0.00922777 3.55657 0.485687 2.3377 1.37646 1.4337C 2.26725 0.529712 3.48128 0.0142777 4.75271 0.000292206C 6.02413 -0.0136942 7.2493 0.474908 8.15989 1.35908C 9.07048 2.24327 9.59227 3.45096 9.61099 4.71765L 4.80576 4.78813L 9.61151 4.78813Z" />
        <path id="path17_fill" d="M 14.4979 7.10777C 14.4979 8.98835 13.7378 10.7923 12.3841 12.1245C 11.0304 13.4567 9.19346 14.2086 7.27556 14.2155C 5.35768 14.2224 3.51515 13.4838 2.15153 12.1614C 0.787895 10.839 0.0143123 9.0406 0.000196604 7.16009C -0.0139191 5.27957 0.732581 3.47021 2.07621 2.12828C 3.41984 0.786331 5.25107 0.0211948 7.16886 0.000433712C 9.08666 -0.0203271 10.9347 0.70498 12.3082 2.0175C 13.6817 3.33002 14.4688 5.12278 14.497 7.00315L 7.24889 7.10777L 14.4979 7.10777Z" />
        <path id="path18_fill" d="M 28.3757 -9.32843e-13C 17.9266 -9.32843e-13 8.2062 2.97755 6.65319e-13 8.11709L 6.65319e-13 14.9328C 7.82073 9.8217 17.1838 6.84616 27.2763 6.84616L 147.343 6.84616L 210.056 6.84616L 330.123 6.84616C 340.216 6.84616 349.579 9.8217 357.4 14.9328L 357.4 8.11709C 349.193 2.97755 339.473 -9.32843e-13 329.024 -9.32843e-13L 210.056 -9.32843e-13L 147.343 -9.32843e-13L 28.3757 -9.32843e-13Z" />
        <path id="path19_fill" d="M 28.3758 14.9328C 17.9266 14.9328 8.2062 11.9553 0 6.81575L 0 0C 7.82073 5.11111 17.1838 8.08671 27.2763 8.08671L 147.343 8.08671L 210.056 8.08671L 330.123 8.08671C 340.216 8.08671 349.579 5.11111 357.4 0L 357.4 6.81575C 349.193 11.9553 339.473 14.9328 329.024 14.9328L 210.056 14.9328L 147.343 14.9328L 28.3758 14.9328Z" />
    </defs>
</svg>