<svg xmlns="http://www.w3.org/2000/svg" xmlns:xlink="http://www.w3.org/1999/xlink" width="48" height="20" version="1.1" viewBox="0 0 48 20"><title>vput</title><desc>Created using Figma</desc><g id="Canvas" transform="translate(-7756 -360)"><g id="vput"><g id="Shape"><use fill="#14A4D8" transform="translate(7756 365)" xlink:href="#path0_fill"/></g><g id="Shape"><use fill="#FEE900" transform="translate(7797 360)" xlink:href="#path1_fill"/></g><g id="Shape"><use fill="#FB6E52" transform="translate(7784 364)" xlink:href="#path2_fill"/></g><g id="Shape"><use fill="#9EE712" transform="translate(7770 364)" xlink:href="#path3_fill"/></g></g></g><defs><path id="path0_fill" d="M 8.70215 1.79163e-15L 5.4067 9.51232L 5.40072 9.52493C 5.32297 9.83381 5.19139 9.87163 5.09569 9.87163C 5.05383 9.87163 4.94617 9.83381 4.78469 9.50602L 1.29187 1.79163e-15L 0 1.79163e-15L 3.88158 10.1049C 3.96531 10.4453 4.13278 10.6785 4.36005 10.7668C 4.59928 10.9307 4.82656 11 5.10766 11C 5.39474 11 5.62799 10.9244 5.86722 10.7605C 6.07655 10.6155 6.24402 10.3822 6.33373 10.1112L 10 0L 8.70215 1.79163e-15Z"/><path id="path1_fill" d="M 6.0206 12.4645L 5.83433 12.695C 5.58798 12.9965 5.21545 13.2565 4.8309 13.3806L 4.80086 13.3924C 4.45837 13.5638 4.09185 13.6407 3.65322 13.6407C 3.03433 13.6407 2.52361 13.4634 1.98884 13.0733C 1.53219 12.7305 1.31588 12.2931 1.31588 11.6844L 1.31588 5.68558L 5.14936 5.68558L 5.14936 4.45626L 1.31588 4.45626L 1.31588 0L 0 0L 0 11.7494C 0 12.695 0.366524 13.5106 1.0515 14.1194L 1.06352 14.1253C 1.8206 14.7222 2.64378 15 3.65322 15C 4.14592 15 4.74077 14.87 5.28155 14.6395C 5.78627 14.4267 6.29099 14.143 6.7897 13.7943L 7 13.6466L 6.0206 12.4645Z"/><path id="path2_fill" d="M 7.61587 0L 7.61587 6.875C 7.61587 7.68418 7.30618 8.34126 6.67416 8.87666C 6.06742 9.39381 5.31531 9.6615 4.42416 9.6615C 3.54565 9.6615 2.81882 9.43639 2.31952 9.01659L 2.3132 9.01051C 1.6875 8.52987 1.38413 7.85454 1.38413 6.94192L 1.38413 0L 0 0L 0 7.22788C 0 8.34735 0.461376 9.25996 1.41573 10.0265C 2.25 10.6836 3.26124 11 4.50632 11C 5.69452 11 6.70576 10.6593 7.60323 9.95962C 8.51966 9.21128 9 8.21958 9 7.08794L 9 0L 7.61587 0Z"/><path id="path3_fill" fill-rule="evenodd" d="M 5.03271 0C 6.30225 0 7.44824 0.490784 8.34619 1.42331C 9.45654 2.50308 10 3.84662 10 5.51535C 10 7.06134 9.56885 8.47852 8.7832 9.50922C 7.84424 10.7055 6.5625 11.3068 4.96729 11.3068C 4.17578 11.3068 3.45557 11.1534 2.87646 10.8528L 2.86475 10.8466C 2.17383 10.4478 1.63623 9.91412 1.29346 9.30676L 1.29346 16L 0 16L 0 5.44171C 0 4.14725 0.407715 2.94479 1.21094 1.87115C 2.13232 0.631897 3.41406 0 5.03271 0ZM 2.33301 2.61963C 1.63623 3.40491 1.29932 4.39877 1.29932 5.65643L 1.29346 5.65643L 1.29346 6.78528L 1.48828 7.34357C 1.74805 8.08588 2.20312 8.75461 2.77588 9.22086C 3.44922 9.71164 4.15234 9.95093 4.93799 9.95706C 5.85938 9.75461 7.09961 9.31903 7.5957 8.76074C 8.34033 7.85275 8.7002 6.83435 8.7002 5.65643C 8.7002 4.39877 8.36377 3.40491 7.66699 2.61963L 7.66064 2.61349C 7.02881 1.81595 6.14307 1.41718 5.03809 1.41718C 3.9043 1.41718 3.07129 1.78528 2.33301 2.61963Z"/></defs></svg>