<svg xmlns="http://www.w3.org/2000/svg" xmlns:xlink="http://www.w3.org/1999/xlink" width="163" height="44" version="1.1" viewBox="0 0 163 44"><title>webdelo_logo</title><desc>Created using Figma</desc><g id="Canvas" transform="translate(-3285 -24)"><g id="webdelo_logo"><g id="logo-main"><g id="Shape"><use fill="#3D3D3D" transform="translate(3285.15 38.782)" xlink:href="#path0_fill"/></g><g id="Shape"><use fill="#3D3D3D" transform="translate(3285.45 24.4449)" xlink:href="#path1_fill"/></g><g id="Shape"><use fill="#3D3D3D" transform="translate(3392.16 38.4854)" xlink:href="#path2_fill"/></g><g id="Shape"><use fill="#3D3D3D" transform="translate(3342.52 38.782)" xlink:href="#path3_fill"/></g><g id="Shape"><use fill="#3D3D3D" transform="translate(3392.16 58.2112)" xlink:href="#path4_fill"/></g></g></g></g><defs><path id="path0_fill" fill-rule="evenodd" d="M 43.1529 3.60899L 43.1529 15.1775C 43.1529 22.6427 37.059 28.7236 29.5778 28.7236L 13.6246 28.7236C 6.09392 28.7236 0 22.6427 0 15.1775L 0 3.60899L 9.51246 3.60899L 9.51246 15.1775C 9.51246 18.6876 12.386 21.5551 15.9036 21.5551L 27.2492 21.5551C 30.7669 21.5551 33.6404 18.6876 33.6404 15.1775L 33.6404 3.60899L 43.1529 3.60899ZM 18.4799 0L 24.7224 0C 25.7133 0 26.5555 0.791011 26.5555 1.82921L 26.5555 12.5573C 26.5555 13.5461 25.7628 14.3865 24.7224 14.3865C 22.6416 14.3865 20.5607 14.3865 18.4799 14.3865C 17.489 14.3865 16.6467 13.5955 16.6467 12.5573C 16.6467 8.99775 16.6467 5.38876 16.6467 1.82921C 16.6467 0.840449 17.489 0 18.4799 0Z"/><path id="path1_fill" fill-rule="evenodd" d="M 33.3928 0.642696C 38.0004 2.12584 41.5676 5.98202 42.608 10.7775L 33.3928 10.7775L 33.3928 0.642696ZM 13.3274 0L 26.2584 0L 26.2584 7.16854L 15.6064 7.16854C 13.0796 7.16854 10.8997 8.65168 9.85927 10.7775L 0 10.7775C 1.28815 4.64719 6.78754 0 13.3274 0Z"/><path id="path2_fill" fill-rule="evenodd" d="M 48.7017 0C 53.3093 0 55.8362 1.53259 55.8362 7.31685C 55.8362 13.2 53.3589 14.9303 48.7017 14.9303C 44.0447 14.9303 41.5674 13.2 41.5674 7.31685C 41.5674 1.53259 44.0447 0 48.7017 0ZM 0 0.346069L 0 14.6337L 6.49023 14.6337C 11.0979 14.6337 13.377 12.9528 13.377 7.36629C 13.377 1.77978 11.1475 0.296631 6.49023 0.296631L 0 0.296631L 0 0.346069ZM 23.0381 11.173C 20.8582 11.173 20.115 10.9753 19.9167 8.99775L 19.9167 8.94831L 25.8125 8.94831L 25.8125 5.58652L 19.9663 5.58652C 20.2141 3.90562 21.0068 3.75731 23.0381 3.75731L 27.2988 3.75731L 27.2988 0.296631L 22.5427 0.296631C 17.8855 0.296631 15.656 1.77978 15.656 7.36629C 15.656 12.9528 17.9351 14.6337 22.5427 14.6337L 27.2988 14.6337L 27.2988 11.173L 23.0381 11.173ZM 29.7759 0.346066L 29.7759 7.41573C 29.7759 12.9528 32.0054 14.6337 36.6626 14.6337L 39.8333 14.6337L 39.8333 11.173L 37.158 11.173C 34.5322 11.173 33.9871 10.827 33.9871 7.46517L 33.9871 0.346066L 29.7759 0.346066ZM 6.04443 11.173C 8.67041 11.173 9.21533 10.827 9.21533 7.46517C 9.21533 4.05393 8.62085 3.80674 6.04443 3.80674L 4.01318 3.80674L 4.01318 11.173L 6.04443 11.173ZM 51.6248 7.31686C 51.6248 10.9753 51.3276 11.3214 48.7017 11.3214C 46.0264 11.3214 45.729 10.9753 45.7786 7.31686C 45.7786 3.90562 46.0264 3.60899 48.7017 3.60899C 51.3276 3.60899 51.6248 3.90562 51.6248 7.31686Z"/><path id="path3_fill" fill-rule="evenodd" d="M 24.9702 8.70112C 25.1685 10.6786 25.9116 10.8764 28.0916 10.8764L 32.3523 10.8764L 32.3523 14.3371L 27.5962 14.3371C 22.9885 14.3371 20.7095 12.6562 20.7095 7.06966C 20.7095 1.48315 22.939 0 27.5962 0L 32.3523 0L 32.3523 3.46067L 28.0916 3.46067C 26.0603 3.46067 25.2676 3.60899 25.0198 5.28989L 30.866 5.28989L 30.866 8.65169L 24.9702 8.65169L 24.9702 8.70112ZM 6.88672 14.3371C 2.27905 14.3371 0 12.6562 0 7.06966L 0 0.0494385L 4.21118 0.0494385L 4.21118 7.16854C 4.21118 10.4809 4.75635 10.8764 7.28296 10.8764L 7.28296 0.0494385L 11.197 0.0494385L 11.197 10.8764C 13.7732 10.8764 14.3181 10.4809 14.3181 7.16854L 14.3181 0.0494385L 18.5295 0.0494385L 18.5295 7.1191C 18.5295 12.7056 16.3 14.3865 11.6428 14.3865C 10.1069 14.3371 8.52148 14.3371 6.88672 14.3371ZM 42.1123 3.3618L 38.7434 3.3618L 38.7434 5.38876L 42.1123 5.38876C 42.4592 5.38876 42.707 5.28989 42.707 4.4C 42.707 3.55955 42.4592 3.3618 42.1123 3.3618ZM 38.7434 10.9753L 38.7434 8.55281L 42.1123 8.55281C 42.6079 8.55281 42.9546 8.8 42.9546 9.78876C 42.9546 10.7281 42.6575 10.9753 42.2114 10.9753L 38.7434 10.9753ZM 46.9678 3.51011C 46.9678 5.53708 46.4229 6.67416 43.8467 6.87191C 46.5715 7.02023 47.166 8.20674 47.2156 10.5303C 47.2156 13.4472 45.6797 14.3371 43.3511 14.3371L 34.8296 14.3371L 34.8296 0.0494385L 43.3511 0.0494385C 46.2246 0.0494385 46.9678 1.08764 46.9678 3.51011Z"/><path id="path4_fill" fill-rule="evenodd" d="M 2.37817 0C 3.07178 0 3.76538 0.098877 4.16162 0.247192L 3.81494 1.43371C 3.75342 1.42495 3.68726 1.41463 3.61646 1.40359C 3.28784 1.35233 2.8584 1.28539 2.32861 1.28539C 1.58545 1.28539 1.48633 1.43371 1.48633 1.63146C 1.48633 1.92809 1.58545 1.97753 2.47729 2.0764C 3.66626 2.22472 4.21118 2.7191 4.21118 3.70787C 4.21118 5.09214 3.56714 5.48764 1.83325 5.48764C 1.1394 5.48764 0.495361 5.38876 0.0495605 5.24045L 0.346924 4.00449L 0.52124 4.03041C 0.863281 4.08213 1.33032 4.15281 1.83325 4.15281C 2.57617 4.15281 2.67529 4.05393 2.67529 3.80674C 2.67529 3.55955 2.57617 3.46067 1.58545 3.3618C 0.495361 3.21348 0 2.86742 0 1.87865C 0 0.543819 0.693604 0 2.37817 0ZM 9.90894 1.38427L 9.90894 5.38876L 8.47217 5.38876L 8.47217 1.38427L 6.73804 1.38427L 6.73804 0.098877L 11.6428 0.098877L 11.6428 1.38427L 9.90894 1.38427ZM 17.5386 0.148315L 18.9753 0.148315L 18.9753 4.05393C 18.9753 5.19101 18.0339 5.53708 16.6963 5.53708C 15.3091 5.53708 14.4172 5.24045 14.4172 4.05393L 14.4172 0.148315L 15.854 0.148315L 15.854 3.70787C 15.854 4.00449 16.0522 4.15281 16.6963 4.15281C 17.3403 4.15281 17.5386 4.00449 17.5386 3.70787L 17.5386 0.148315ZM 22.0471 5.38876L 22.0471 0.148315L 24.4253 0.148315C 26.1096 0.148315 26.9519 0.692135 26.9519 2.7191C 26.9519 4.79551 26.1096 5.38876 24.4253 5.38876L 22.0471 5.38876ZM 25.416 2.76854C 25.416 4.00449 25.218 4.15281 24.2271 4.15281L 23.4839 4.15281L 23.4839 1.38427L 24.2271 1.38427C 25.218 1.38427 25.416 1.48315 25.416 2.76854ZM 29.8254 5.38876L 31.2622 5.38876L 31.2622 0.148315L 29.8254 0.148315L 29.8254 5.38876ZM 37.2075 0C 38.8921 0 39.8335 0.543819 39.8335 2.66966C 39.8335 4.84494 38.9417 5.48764 37.2075 5.48764C 35.5232 5.48764 34.5818 4.84494 34.5818 2.66966C 34.5818 0.543819 35.4736 0 37.2075 0ZM 38.2976 2.66966C 38.2976 4.00449 38.1985 4.15281 37.2078 4.15281C 36.2168 4.15281 36.1177 4.05393 36.1177 2.66966C 36.1177 1.38427 36.2168 1.28539 37.2078 1.28539C 38.1985 1.28539 38.2976 1.43371 38.2976 2.66966Z"/></defs></svg>