<svg width="82" height="34" viewBox="0 0 82 34" version="1.1" xmlns="http://www.w3.org/2000/svg" xmlns:xlink="http://www.w3.org/1999/xlink">
<title>vput_logo</title>
<desc>Created using Figma</desc>
<g id="Canvas" transform="translate(-3502 -32)">
<g id="vput_logo">
<g id="Shape">
<use xlink:href="#path0_fill" transform="translate(3502 40)" fill="#3D3D3D"/>
</g>
<g id="Shape">
<use xlink:href="#path1_fill" transform="translate(3572 32)" fill="#3D3D3D"/>
</g>
<g id="Shape">
<use xlink:href="#path2_fill" transform="translate(3549 40)" fill="#3D3D3D"/>
</g>
<g id="Shape">
<use xlink:href="#path3_fill" transform="translate(3525 39)" fill="#3D3D3D"/>
</g>
</g>
</g>
<defs>
<path id="path0_fill" d="M 14.7937 2.93175e-15L 9.19139 15.5656L 9.18122 15.5862C 9.04904 16.0917 8.82536 16.1536 8.66268 16.1536C 8.59151 16.1536 8.40849 16.0917 8.13397 15.5553L 2.19617 2.93175e-15L 0 2.93175e-15L 6.59868 16.5352C 6.74103 17.0923 7.02572 17.4739 7.41208 17.6183C 7.81878 17.8865 8.20514 18 8.68301 18C 9.17105 18 9.56758 17.8762 9.97428 17.608C 10.3301 17.3708 10.6148 16.9891 10.7673 16.5456L 17 0L 14.7937 2.93175e-15Z"/>
<path id="path1_fill" d="M 10.321 21.6052L 10.0017 22.0047C 9.5794 22.5272 8.94077 22.9779 8.28154 23.1931L 8.23004 23.2136C 7.64292 23.5106 7.01459 23.6438 6.26266 23.6438C 5.20172 23.6438 4.32618 23.3365 3.40944 22.6604C 2.62661 22.0662 2.25579 21.3081 2.25579 20.253L 2.25579 9.855L 8.82747 9.855L 8.82747 7.72419L 2.25579 7.72419L 2.25579 0L 0 0L 0 20.3656C 0 22.0047 0.628326 23.4184 1.80258 24.4736C 3.12103 25.5185 4.53219 26 6.26266 26C 7.1073 26 8.12704 25.7746 9.05408 25.3751C 9.91931 25.0063 10.7845 24.5146 11.6395 23.9102L 12 23.6541L 10.321 21.6052Z"/>
<path id="path2_fill" d="M 12.6931 0L 12.6931 11.875C 12.6931 13.2727 12.177 14.4076 11.1236 15.3324C 10.1124 16.2257 8.85885 16.6881 7.3736 16.6881C 5.90941 16.6881 4.69803 16.2992 3.86587 15.5741L 3.85534 15.5636C 2.8125 14.7334 2.30688 13.5669 2.30688 11.9906L 2.30688 0L 0 0L 0 12.4845C 0 14.4181 0.768961 15.9945 2.35955 17.3186C 3.75 18.4535 5.43539 19 7.51053 19C 9.49087 19 11.1763 18.4115 12.6721 17.203C 14.1994 15.9104 15 14.1975 15 12.2428L 15 0L 12.6931 0Z"/>
<path id="path3_fill" fill-rule="evenodd" d="M 8.55518 0C 10.7141 0 12.6621 0.82822 14.1885 2.40184C 16.0762 4.22393 17 6.49118 17 9.30713C 17 11.916 16.2671 14.3075 14.9314 16.0468C 13.335 18.0656 11.156 19.0801 8.44482 19.0801C 7.09912 19.0801 5.87427 18.8213 4.89014 18.314L 4.87012 18.3037C 3.69531 17.6308 2.78149 16.7301 2.19897 15.7051L 2.19897 27L 0 27L 0 9.1829C 0 6.99847 0.692871 4.96933 2.05859 3.15759C 3.625 1.06633 5.80396 0 8.55518 0ZM 3.96631 4.42063C 2.78149 5.74578 2.20898 7.42293 2.20898 9.54525L 2.19897 9.54525L 2.19897 11.4502L 2.53027 12.3923C 2.97217 13.6449 3.74536 14.7734 4.71924 15.5602C 5.86401 16.3884 7.05908 16.7922 8.39453 16.8025C 9.96094 16.4609 12.0696 15.7258 12.9131 14.7837C 14.1782 13.2515 14.7908 11.533 14.7908 9.54525C 14.7908 7.42293 14.2185 5.74578 13.0337 4.42063L 13.0234 4.41027C 11.9492 3.06441 10.4429 2.39149 8.56519 2.39149C 6.63721 2.39149 5.22144 3.01265 3.96631 4.42063Z"/>
</defs>
</svg>
