<svg width="19" height="23" viewBox="0 0 19 23" version="1.1" xmlns="http://www.w3.org/2000/svg" xmlns:xlink="http://www.w3.org/1999/xlink">
<title>Android_logo</title>
<desc>Created using Figma</desc>
<g id="Canvas" transform="translate(-8762 -421)">
<g id="Android_logo">
<g id="Shape">
<use xlink:href="#path0_fill" transform="translate(8762 428)" fill="#91DC5A"/>
</g>
<g id="Shape">
<use xlink:href="#path1_fill" transform="translate(8765 421)" fill="#91DC5A"/>
</g>
<g id="Shape">
<use xlink:href="#path2_fill" transform="translate(8765 429)" fill="#91DC5A"/>
</g>
<g id="Shape">
<use xlink:href="#path3_fill" transform="translate(8778 428)" fill="#91DC5A"/>
</g>
</g>
</g>
<defs>
<path id="path0_fill" d="M 1.50715 0C 1.08759 0 0.731606 0.141707 0.438981 0.425121C 0.146356 0.708535 0 1.04862 0 1.44556L 0 7.54003C 0 7.9469 0.146312 8.29138 0.438981 8.57484C 0.731606 8.85825 1.08759 9 1.50715 9C 1.92641 9 2.28024 8.85829 2.56833 8.57484C 2.85584 8.29142 3 7.9469 3 7.54003L 3 1.44556C 3 1.04858 2.85369 0.708535 2.56102 0.425121C 2.26835 0.141707 1.91699 0 1.50715 0Z"/>
<path id="path1_fill" fill-rule="evenodd" d="M 8.95117 2.05148L 9.87207 0.295135C 9.93262 0.178833 9.91113 0.0896912 9.80762 0.0269775C 9.69531 -0.0270691 9.6084 0.000305176 9.54785 0.107239L 8.61426 1.87762C 7.79199 1.50204 6.92285 1.3139 6.00684 1.3139C 5.08984 1.3139 4.2207 1.50211 3.39844 1.87762L 2.46484 0.107239C 2.4043 0.000305176 2.31738 -0.026825 2.20508 0.0269775C 2.10156 0.0899658 2.08008 0.178833 2.14062 0.295135L 3.06152 2.05148C 2.12793 2.54385 1.38379 3.22952 0.830078 4.11005C 0.277344 4.99106 0 5.95383 0 7L 12 7C 12 5.95404 11.7227 4.99127 11.1699 4.11005C 10.6162 3.22952 9.87695 2.54385 8.95117 2.05148ZM 3.62598 4.60617C 3.52637 4.70938 3.40723 4.76074 3.26953 4.76074C 3.13086 4.76074 3.01367 4.70938 2.91895 4.60617C 2.82422 4.50345 2.77637 4.38095 2.77637 4.23752C 2.77637 4.09457 2.82422 3.97183 2.91895 3.86887C 3.01367 3.76614 3.13086 3.71478 3.26953 3.71478C 3.40723 3.71478 3.52637 3.76614 3.62598 3.86887C 3.72559 3.97208 3.77539 4.09457 3.77539 4.23752C 3.77539 4.38071 3.72559 4.50345 3.62598 4.60617ZM 8.74316 4.76074C 8.88184 4.76074 8.99805 4.70938 9.09375 4.60617C 9.18848 4.50345 9.23633 4.38071 9.23633 4.23752C 9.23633 4.09457 9.18848 3.97208 9.09375 3.86887C 8.99805 3.76614 8.88184 3.71478 8.74316 3.71478C 8.60449 3.71478 8.48633 3.76614 8.38672 3.86887C 8.28711 3.97183 8.2373 4.09457 8.2373 4.23752C 8.2373 4.38095 8.28711 4.50345 8.38672 4.60617C 8.48633 4.70938 8.60449 4.76074 8.74316 4.76074Z"/>
<path id="path2_fill" d="M 0 9.03242C 0 9.44872 0.139356 9.80112 0.418106 10.0903C 0.697093 10.3795 1.03677 10.5241 1.43777 10.5241L 2.40519 10.5241L 2.41845 13.603C 2.41845 13.9918 2.54915 14.3219 2.81055 14.5932C 3.07196 14.8644 3.38587 15 3.75175 15C 4.12631 15 4.44451 14.8644 4.70596 14.5932C 4.9674 14.3219 5.0981 13.9918 5.0981 13.603L 5.0981 10.5243L 6.90206 10.5243L 6.90206 13.603C 6.90206 13.9918 7.03272 14.3219 7.29416 14.5932C 7.55561 14.8644 7.87353 15 8.24837 15C 8.62294 15 8.94114 14.8644 9.20258 14.5932C 9.46403 14.3219 9.59469 13.9918 9.59469 13.603L 9.59469 10.5243L 10.5752 10.5243C 10.9673 10.5243 11.3026 10.3797 11.5819 10.0905C 11.8606 9.80136 12 9.44896 12 9.03271L 12 0L 0 0L 0 9.03242Z"/>
<path id="path3_fill" d="M 1.49273 0C 1.08281 0 0.731682 0.139618 0.438983 0.418085C 0.146328 0.697064 0 1.03975 0 1.44556L 0 7.54003C 0 7.9469 0.146283 8.29138 0.438983 8.57484C 0.731682 8.85829 1.08308 9 1.49273 9C 1.91208 9 2.26832 8.85829 2.56102 8.57484C 2.85372 8.29138 3 7.9469 3 7.54003L 3 1.44556C 3 1.03971 2.85372 0.697064 2.56102 0.418085C 2.26832 0.139618 1.91208 0 1.49273 0Z"/>
</defs>
</svg>
