<svg xmlns="http://www.w3.org/2000/svg" xmlns:xlink="http://www.w3.org/1999/xlink" width="16" height="19" version="1.1" viewBox="0 0 16 19"><title>Apple_logo</title><desc>Created using Figma</desc><g id="Canvas" transform="translate(-8708 -422)"><g id="Apple_logo"><g id="Shape"><use transform="translate(8708 422)" xlink:href="#path0_fill"/></g></g></g><defs><path id="path0_fill" fill-rule="evenodd" d="M 10.9609 3.03873C 11.6523 2.21753 11.999 1.33032 11.999 0.380096C 11.999 0.254059 11.9932 0.127014 11.9795 0C 11.498 0.0249939 10.9854 0.171051 10.4434 0.43512C 9.90039 0.703186 9.45312 1.03922 9.10059 1.44336C 8.39648 2.24158 7.99902 3.21783 7.99902 4.13004C 7.99902 4.2561 8.00684 4.3761 8.02148 4.49008C 9.11621 4.5791 10.126 4.01498 10.9609 3.03873ZM 14.6436 16.6434C 15.0371 16.0816 15.377 15.4706 15.665 14.8068C 15.7832 14.5253 15.8945 14.2321 16 13.926C 15.5137 13.7219 15.0762 13.4346 14.6846 13.0628C 13.8203 12.2618 13.3809 11.2529 13.3682 10.0406C 13.3535 8.48416 14.0605 7.2709 15.4902 6.40466C 14.6914 5.26941 13.4912 4.63925 11.8926 4.51025C 11.3027 4.46017 10.583 4.58728 9.73047 4.89435C 8.82812 5.2254 8.2959 5.39148 8.13867 5.39148C 7.92871 5.39148 7.4502 5.24945 6.7041 4.96939C 5.95605 4.69028 5.35449 4.54825 4.89453 4.54825C 4.05566 4.56219 3.27734 4.78033 2.55566 5.2084C 1.83496 5.63647 1.25879 6.2196 0.826172 6.95883C 0.275391 7.87912 0 8.97733 0 10.2506C 0 11.3622 0.204102 12.5104 0.611328 13.6961C 0.991211 14.7939 1.47559 15.7567 2.06641 16.5871C 2.61621 17.3647 3.0752 17.9135 3.44238 18.2337C 4.0166 18.7685 4.59277 19.023 5.1709 18.9984C 5.55078 18.9854 6.04785 18.8553 6.66504 18.6055C 7.28125 18.3568 7.85742 18.2337 8.39355 18.2337C 8.90625 18.2337 9.46582 18.3568 10.0752 18.6055C 10.6826 18.8553 11.2041 18.9784 11.6367 18.9784C 12.2402 18.9644 12.8027 18.7169 13.3281 18.2337C 13.667 17.9393 14.1064 17.4092 14.6436 16.6434Z"/></defs></svg>