<svg width="225" height="94" viewBox="0 0 225 94" version="1.1" xmlns="http://www.w3.org/2000/svg" xmlns:xlink="http://www.w3.org/1999/xlink">
<title>vput_logo</title>
<desc>Created using Figma</desc>
<g id="Canvas" transform="translate(-3758 -286)">
<g id="vput_logo">
<g id="Shape">
<use xlink:href="#path0_fill" transform="translate(3758 308)" fill="#FFFFFF"/>
</g>
<g id="Shape">
<use xlink:href="#path1_fill" transform="translate(3950 286)" fill="#FFFFFF"/>
</g>
<g id="Shape">
<use xlink:href="#path2_fill" transform="translate(3888 307)" fill="#FFFFFF"/>
</g>
<g id="Shape">
<use xlink:href="#path3_fill" transform="translate(3821 306)" fill="#FFFFFF"/>
</g>
</g>
</g>
<defs>
<path id="path0_fill" d="M 40.9001 7.98088e-15L 25.4115 42.3731L 25.3834 42.4292C 25.0179 43.8052 24.3995 43.9736 23.9498 43.9736C 23.753 43.9736 23.247 43.8052 22.488 42.345L 6.07177 7.98088e-15L 0 7.98088e-15L 18.2434 45.0126C 18.637 46.5289 19.424 47.5679 20.4922 47.961C 21.6166 48.6911 22.6848 49 24.006 49C 25.3553 49 26.4516 48.663 27.576 47.933C 28.5598 47.2871 29.3469 46.2481 29.7685 45.0407L 47 0L 40.9001 7.98088e-15Z"/>
<path id="path1_fill" d="M 28.3828 59.8298L 27.5047 60.9362C 26.3433 62.383 24.5871 63.6312 22.7742 64.227L 22.6326 64.2837C 21.018 65.1064 19.2901 65.4752 17.2223 65.4752C 14.3047 65.4752 11.897 64.6241 9.37597 62.7518C 7.22318 61.1064 6.20343 59.0071 6.20343 56.0851L 6.20343 27.2908L 24.2755 27.2908L 24.2755 21.3901L 6.20343 21.3901L 6.20343 0L 0 0L 0 56.3972C 0 60.9362 1.7279 64.8511 4.95708 67.773L 5.01373 67.8014C 8.58283 70.6667 12.4635 72 17.2223 72C 19.5451 72 22.3494 71.3759 24.8987 70.2695C 27.2781 69.2482 29.6575 67.8865 32.0086 66.2128L 33 65.5035L 28.3828 59.8298Z"/>
<path id="path2_fill" d="M 33.8483 0L 33.8483 31.875C 33.8483 35.6267 32.4719 38.6731 29.6629 41.1554C 26.9663 43.5531 23.6236 44.7942 19.6629 44.7942C 15.7584 44.7942 12.5281 43.7506 10.309 41.8042L 10.2809 41.776C 7.5 39.5476 6.15169 36.4165 6.15169 32.1853L 6.15169 0L 0 0L 0 33.5111C 0 38.7013 2.05056 42.9325 6.29213 46.4867C 10 49.5332 14.4944 51 20.0281 51C 25.309 51 29.8034 49.4204 33.7921 46.1764C 37.8652 42.7069 40 38.109 40 32.8623L 40 0L 33.8483 0Z"/>
<path id="path3_fill" fill-rule="evenodd" d="M 23.6526 0C 29.6213 0 35.0071 2.26993 39.2268 6.58282C 44.446 11.5767 47 17.7906 47 25.5084C 47 32.6588 44.9734 39.2132 41.2812 43.9801C 36.8672 49.513 30.8428 52.2937 23.3474 52.2937C 19.6272 52.2937 16.2405 51.5844 13.5198 50.194L 13.4644 50.1656C 10.2161 48.3213 7.68994 45.8528 6.07983 43.0437L 6.07983 74L 0 74L 0 25.1679C 0 19.181 1.91553 13.6196 5.69116 8.65414C 10.022 2.92255 16.0461 0 23.6526 0ZM 10.9658 12.1158C 7.68994 15.7477 6.10767 20.3443 6.10767 26.161L 6.07983 26.161L 6.07983 31.3819L 6.99585 33.964C 8.21753 37.3972 10.355 40.49 13.0479 42.6465C 16.2126 44.9164 19.5164 46.023 23.2085 46.0514C 27.5393 45.115 33.3691 43.1005 35.7012 40.5184C 39.1992 36.319 40.8926 31.6089 40.8926 26.161C 40.8926 20.3443 39.3103 15.7477 36.0344 12.1158L 36.0066 12.0874C 33.0361 8.39877 28.8718 6.55444 23.6807 6.55444C 18.3503 6.55444 14.436 8.2569 10.9658 12.1158Z"/>
</defs>
</svg>
